<svg width="500" height="500" version="1.1" xmlns="http://www.w3.org/2000/svg" desc="Created with imagetracer.js version 1.2.6" ><path fill="rgb(102,106,111)" stroke="rgb(102,106,111)" stroke-width="1" opacity="0.15294117647058825" d="M 245.5 150 L 251 150.5 L 245.5 151 L 245.5 150 Z " /><path fill="rgb(102,106,111)" stroke="rgb(102,106,111)" stroke-width="1" opacity="0.15294117647058825" d="M 242 151 L 244 151.5 L 243 152.5 L 243 171.5 L 241.5 173 L 237.5 173 L 225.5 179 L 226.5 177 L 242 170.5 L 242 151 Z " /><path fill="rgb(102,106,111)" stroke="rgb(102,106,111)" stroke-width="1" opacity="0.15294117647058825" d="M 252.5 151 Q 255.8 149.9 255 152.5 L 253.5 152 L 252.5 151 Z " /><path fill="rgb(102,106,111)" stroke="rgb(102,106,111)" stroke-width="1" opacity="0.15294117647058825" d="M 254.5 156 L 255 172 L 262.5 173 L 273.5 179 L 277 182.5 L 273.5 180 L 262.5 174 L 255.5 173 L 254 171.5 L 254.5 156 Z " /><path fill="rgb(102,106,111)" stroke="rgb(102,106,111)" stroke-width="1" opacity="0.15294117647058825" d="M 223.5 179 L 222.5 181 L 223.5 179 Z " /><path fill="rgb(102,106,111)" stroke="rgb(102,106,111)" stroke-width="1" opacity="0.15294117647058825" d="M 219.5 183 L 216 187.5 L 211.5 195 L 211 193.5 L 219.5 183 Z " /><path fill="rgb(102,106,111)" stroke="rgb(102,106,111)" stroke-width="1" opacity="0.15294117647058825" d="M 279.5 184 Q 286.8 190.2 289 201.5 L 288 201.5 L 286 194.5 L 279.5 184 Z " /><path fill="rgb(102,106,111)" stroke="rgb(102,106,111)" stroke-width="1" opacity="0.15294117647058825" d="M 232.5 188 L 231.5 190 L 232.5 188 Z " /><path fill="rgb(102,106,111)" stroke="rgb(102,106,111)" stroke-width="1" opacity="0.15294117647058825" d="M 264.5 188 L 272 193.5 L 278 202.5 L 279 210.5 L 278 210.5 Q 278.6 204.4 276 201.5 L 266.5 190 L 264.5 188 Z " /><path fill="rgb(102,106,111)" stroke="rgb(102,106,111)" stroke-width="1" opacity="0.15294117647058825" d="M 157.5 189 Q 161.5 188.5 162 191.5 L 159.5 190 L 154.5 191 L 154.5 190 L 157.5 189 Z " /><path fill="rgb(102,106,111)" stroke="rgb(102,106,111)" stroke-width="1" opacity="0.15294117647058825" d="M 337.5 189 L 345 189.5 L 337.5 190 L 337.5 189 Z " /><path fill="rgb(102,106,111)" stroke="rgb(102,106,111)" stroke-width="1" opacity="0.15294117647058825" d="M 152.5 190 L 152 191.5 Q 152.9 196.9 150.5 199 L 150 197.5 Q 152.3 196.3 151 191.5 L 152.5 190 Z " /><path fill="rgb(102,106,111)" stroke="rgb(102,106,111)" stroke-width="1" opacity="0.15294117647058825" d="M 229.5 190 L 226 194.5 L 219 208.5 L 219 214 L 278.5 214 L 279 212.5 L 280 212.5 L 279.5 215 L 218 215 Q 217.1 207.4 220 202.5 L 227 191 L 229.5 190 Z " /><path fill="rgb(102,106,111)" stroke="rgb(102,106,111)" stroke-width="1" opacity="0.15294117647058825" d="M 335.5 191 L 336 193.5 L 335 193.5 L 335.5 191 Z " /><path fill="rgb(102,106,111)" stroke="rgb(102,106,111)" stroke-width="1" opacity="0.15294117647058825" d="M 346.5 193 L 347 196.5 L 346 196.5 L 346.5 193 Z " /><path fill="rgb(102,106,111)" stroke="rgb(102,106,111)" stroke-width="1" opacity="0.15294117647058825" d="M 335.5 195 L 336 201.5 L 325 209.5 L 322 217.5 L 322 255 L 305.5 255 L 304 253.5 L 304.5 227 L 305 254 L 321 254 L 321 217.5 Q 322.2 209.7 327.5 206 L 335 201.5 L 335.5 195 Z " /><path fill="rgb(102,106,111)" stroke="rgb(102,106,111)" stroke-width="1" opacity="0.15294117647058825" d="M 162.5 196 L 163 198.5 L 162 198.5 L 162.5 196 Z " /><path fill="rgb(102,106,111)" stroke="rgb(102,106,111)" stroke-width="1" opacity="0.15294117647058825" d="M 151.5 200 L 148.5 204 L 146.5 205 L 147.5 203 L 151.5 200 Z " /><path fill="rgb(102,106,111)" stroke="rgb(102,106,111)" stroke-width="1" opacity="0.15294117647058825" d="M 163.5 202 L 174 211.5 L 177 220.5 L 177 254 L 192 254 L 192 214 L 205.5 214 L 207 213.5 L 205.5 215 L 193 215 L 193 255 L 176 255 L 176 220.5 L 173 211.5 L 167.5 206 L 163.5 202 Z " /><path fill="rgb(102,106,111)" stroke="rgb(102,106,111)" stroke-width="1" opacity="0.15294117647058825" d="M 347.5 202 L 348.5 204 L 347.5 202 Z " /><path fill="rgb(102,106,111)" stroke="rgb(102,106,111)" stroke-width="1" opacity="0.15294117647058825" d="M 350.5 204 L 351.5 206 L 350.5 204 Z " /><path fill="rgb(102,106,111)" stroke="rgb(102,106,111)" stroke-width="1" opacity="0.15294117647058825" d="M 144.5 205 L 140 210.5 L 137 218.5 L 137 271 L 52 270.5 L 136 270 L 136 218.5 Q 137.8 209.3 144.5 205 Z " /><path fill="rgb(102,106,111)" stroke="rgb(102,106,111)" stroke-width="1" opacity="0.15294117647058825" d="M 353.5 206 Q 360.8 209.8 361 220.5 L 360 220.5 L 360 215.5 L 353.5 206 Z " /><path fill="rgb(102,106,111)" stroke="rgb(102,106,111)" stroke-width="1" opacity="0.15294117647058825" d="M 291.5 214 L 302.5 214 L 306 216.5 L 305.5 219 L 305 216 Q 301.1 213.6 291.5 215 L 291.5 214 Z " /><path fill="rgb(102,106,111)" stroke="rgb(102,106,111)" stroke-width="1" opacity="0.15294117647058825" d="M 152.5 215 L 150 218.5 L 148.5 232 L 148 220.5 L 152.5 215 Z " /><path fill="rgb(102,106,111)" stroke="rgb(102,106,111)" stroke-width="1" opacity="0.15294117647058825" d="M 161.5 215 L 164 216 L 165 218.5 L 165 231.5 L 164 231.5 Q 165.9 218.9 161.5 215 Z " /><path fill="rgb(102,106,111)" stroke="rgb(102,106,111)" stroke-width="1" opacity="0.15294117647058825" d="M 345.5 215 Q 351.2 218.3 349 229.5 L 347.5 231 L 333.5 231 L 332.5 229 L 333.5 230 L 348 230 L 348 219.5 L 345.5 215 Z " /><path fill="rgb(102,106,111)" stroke="rgb(102,106,111)" stroke-width="1" opacity="0.15294117647058825" d="M 335.5 216 L 335 217.5 L 333.5 228 L 333 218.5 L 335.5 216 Z " /><path fill="rgb(102,106,111)" stroke="rgb(102,106,111)" stroke-width="1" opacity="0.15294117647058825" d="M 305.5 220 L 306 225.5 L 305 225.5 L 305.5 220 Z " /><path fill="rgb(102,106,111)" stroke="rgb(102,106,111)" stroke-width="1" opacity="0.15294117647058825" d="M 204 226 L 209.5 227 L 222 227 L 222 255 L 204 255 L 204 226 Z M 205 227 L 205 251 L 206 254 L 221 254 L 221 228 Q 211 229 205 227 Z " /><path fill="rgb(102,106,111)" stroke="rgb(102,106,111)" stroke-width="1" opacity="0.15294117647058825" d="M 233 227 L 243 227 L 243 243.5 L 246.5 245 L 251 245.5 L 244.5 246 L 242 245 L 242 228 L 234 228 L 234 254 L 266 254 L 266 228 L 257.5 228 L 257.5 227 L 267 227 L 267 255 L 233 255 L 233 227 Z " /><path fill="rgb(102,106,111)" stroke="rgb(102,106,111)" stroke-width="1" opacity="0.15294117647058825" d="M 254.5 227 L 255 241.5 L 256 243.5 L 253.5 245 L 253.5 244 Q 255.8 244.8 255 242.5 L 254 241.5 L 254.5 227 Z " /><path fill="rgb(102,106,111)" stroke="rgb(102,106,111)" stroke-width="1" opacity="0.15294117647058825" d="M 278 227 L 291 227.5 L 279 228 L 279 254 L 292 254 L 292.5 227 L 293 255 L 278 255 L 278 227 Z " /><path fill="rgb(102,106,111)" stroke="rgb(102,106,111)" stroke-width="1" opacity="0.15294117647058825" d="M 150.5 232 L 154 232.5 L 150.5 233 L 150.5 232 Z " /><path fill="rgb(102,106,111)" stroke="rgb(102,106,111)" stroke-width="1" opacity="0.15294117647058825" d="M 334.5 242 L 337 243.5 L 335.5 243 L 334 243.5 L 334 254 L 348 254 L 348 245.5 Q 345.7 244.3 348.5 243 L 349 255 L 333 255 L 333 243.5 L 334.5 242 Z " /><path fill="rgb(102,106,111)" stroke="rgb(102,106,111)" stroke-width="1" opacity="0.15294117647058825" d="M 341.5 242 L 346 243.5 L 344.5 244 L 341.5 243 L 341.5 242 Z " /><path fill="rgb(102,106,111)" stroke="rgb(102,106,111)" stroke-width="1" opacity="0.15294117647058825" d="M 151.5 244 L 163 244.5 L 151.5 245 L 151.5 244 Z " /><path fill="rgb(102,106,111)" stroke="rgb(102,106,111)" stroke-width="1" opacity="0.15294117647058825" d="M 164.5 244 L 165 255 L 148 255 L 148 245.5 L 149 245.5 L 149 254 L 164 254 L 164 247.5 L 163 246.5 L 164.5 244 Z " /><path fill="rgb(102,106,111)" stroke="rgb(102,106,111)" stroke-width="1" opacity="0.15294117647058825" d="M 361.5 252 L 362 254.5 L 361 254.5 L 361.5 252 Z " /><path fill="rgb(102,106,111)" stroke="rgb(102,106,111)" stroke-width="1" opacity="0.15294117647058825" d="M 360.5 263 L 361 270 L 375 270.5 L 361.5 271 Q 358.1 269.1 360.5 263 Z " /><path fill="rgb(102,106,111)" stroke="rgb(102,106,111)" stroke-width="1" opacity="0.15294117647058825" d="M 149.5 266 L 149 267.5 L 149 299 L 164 299 L 164.5 267 L 165 300 L 148 300 L 148 267.5 L 149.5 266 Z " /><path fill="rgb(102,106,111)" stroke="rgb(102,106,111)" stroke-width="1" opacity="0.15294117647058825" d="M 204.5 266 L 205 354 L 208 354.5 L 204.5 356 L 204.5 266 Z " /><path fill="rgb(102,106,111)" stroke="rgb(102,106,111)" stroke-width="1" opacity="0.15294117647058825" d="M 221.5 266 L 222 356 L 209 355.5 L 221 355 L 221.5 266 Z " /><path fill="rgb(102,106,111)" stroke="rgb(102,106,111)" stroke-width="1" opacity="0.15294117647058825" d="M 265.5 266 L 267 266.5 L 267 284.5 L 266 284.5 L 266 267.5 L 265.5 266 Z " /><path fill="rgb(102,106,111)" stroke="rgb(102,106,111)" stroke-width="1" opacity="0.15294117647058825" d="M 305.5 266 L 306.5 268 L 308 267.5 L 305 269 L 305 281.5 L 307 283.5 L 305 283.5 L 304.5 285 L 304 267.5 L 305.5 266 Z " /><path fill="rgb(102,106,111)" stroke="rgb(102,106,111)" stroke-width="1" opacity="0.15294117647058825" d="M 333.5 266 L 334 279.5 L 333 279.5 L 333.5 266 Z " /><path fill="rgb(102,106,111)" stroke="rgb(102,106,111)" stroke-width="1" opacity="0.15294117647058825" d="M 176.5 267 L 177 284.5 L 176 284.5 L 176.5 267 Z " /><path fill="rgb(102,106,111)" stroke="rgb(102,106,111)" stroke-width="1" opacity="0.15294117647058825" d="M 192.5 267 L 193 284.5 L 191 285.5 L 192 284.5 L 192.5 267 Z " /><path fill="rgb(102,106,111)" stroke="rgb(102,106,111)" stroke-width="1" opacity="0.15294117647058825" d="M 233.5 267 L 234 284.5 L 233 284.5 L 233.5 267 Z " /><path fill="rgb(102,106,111)" stroke="rgb(102,106,111)" stroke-width="1" opacity="0.15294117647058825" d="M 292.5 267 L 293 355.5 L 290.5 356 L 278.5 356 L 278 355.5 L 278 283.5 L 279 283.5 L 279 354.5 L 279.5 355 L 290.5 355 L 292 353.5 L 292.5 267 Z " /><path fill="rgb(102,106,111)" stroke="rgb(102,106,111)" stroke-width="1" opacity="0.15294117647058825" d="M 321.5 267 L 322 284.5 L 321 284.5 L 321.5 267 Z " /><path fill="rgb(102,106,111)" stroke="rgb(102,106,111)" stroke-width="1" opacity="0.15294117647058825" d="M 348.5 267 L 349 300 L 332.5 300 L 332 297.5 L 333 296.5 L 333.5 286 L 334 296.5 L 333 299 L 348 299 L 348.5 267 Z " /><path fill="rgb(102,106,111)" stroke="rgb(102,106,111)" stroke-width="1" opacity="0.15294117647058825" d="M 278.5 269 L 279 277.5 L 278 277.5 L 278.5 269 Z " /><path fill="rgb(102,106,111)" stroke="rgb(102,106,111)" stroke-width="1" opacity="0.15294117647058825" d="M 382.5 270 L 445 270.5 L 382.5 271 L 382.5 270 Z " /><path fill="rgb(102,106,111)" stroke="rgb(102,106,111)" stroke-width="1" opacity="0.15294117647058825" d="M 446.5 270 Q 449 271 448 275.5 L 447 275.5 L 446.5 270 Z " /><path fill="rgb(102,106,111)" stroke="rgb(102,106,111)" stroke-width="1" opacity="0.15294117647058825" d="M 361 281 L 363.5 282 L 406 282.5 L 363.5 283 L 362 282.5 L 361.5 285 L 361 281 Z " /><path fill="rgb(102,106,111)" stroke="rgb(102,106,111)" stroke-width="1" opacity="0.15294117647058825" d="M 427.5 281 L 438 281.5 L 427.5 282 L 427.5 281 Z " /><path fill="rgb(102,106,111)" stroke="rgb(102,106,111)" stroke-width="1" opacity="0.15294117647058825" d="M 446.5 281 L 445.5 283 L 442 282.5 L 446.5 281 Z " /><path fill="rgb(102,106,111)" stroke="rgb(102,106,111)" stroke-width="1" opacity="0.15294117647058825" d="M 52.5 282 L 124 282.5 L 52.5 283 L 52.5 282 Z " /><path fill="rgb(102,106,111)" stroke="rgb(102,106,111)" stroke-width="1" opacity="0.15294117647058825" d="M 128.5 282 L 136.5 282 L 137 282.5 L 137 385 L 21 384.5 L 136 384 L 136 283.5 L 135.5 283 L 128.5 283 L 128.5 282 Z " /><path fill="rgb(102,106,111)" stroke="rgb(102,106,111)" stroke-width="1" opacity="0.15294117647058825" d="M 180.5 285 L 185 285.5 L 180.5 286 L 180.5 285 Z " /><path fill="rgb(102,106,111)" stroke="rgb(102,106,111)" stroke-width="1" opacity="0.15294117647058825" d="M 235.5 285 L 246 285.5 L 235.5 286 L 235.5 285 Z " /><path fill="rgb(102,106,111)" stroke="rgb(102,106,111)" stroke-width="1" opacity="0.15294117647058825" d="M 361.5 292 L 362 298.5 L 361 298.5 L 361.5 292 Z " /><path fill="rgb(102,106,111)" stroke="rgb(102,106,111)" stroke-width="1" opacity="0.15294117647058825" d="M 191.5 296 L 193 297.5 L 193 313.5 L 192 313.5 L 191.5 297 L 189.5 298 L 189.5 297 L 191.5 296 Z " /><path fill="rgb(102,106,111)" stroke="rgb(102,106,111)" stroke-width="1" opacity="0.15294117647058825" d="M 234.5 296 L 240 296.5 L 236 297 L 235.5 299 L 234.5 296 Z " /><path fill="rgb(102,106,111)" stroke="rgb(102,106,111)" stroke-width="1" opacity="0.15294117647058825" d="M 263.5 296 L 265.5 297 L 267 296.5 L 266.5 314 L 266 298.5 L 264.5 297 L 263.5 296 Z " /><path fill="rgb(102,106,111)" stroke="rgb(102,106,111)" stroke-width="1" opacity="0.15294117647058825" d="M 314.5 296 L 320.5 297 L 322 296.5 L 321.5 314 L 321 298 L 314.5 297 L 314.5 296 Z " /><path fill="rgb(102,106,111)" stroke="rgb(102,106,111)" stroke-width="1" opacity="0.15294117647058825" d="M 176.5 297 L 178 299.5 L 177 300.5 L 176.5 314 L 176.5 297 Z " /><path fill="rgb(102,106,111)" stroke="rgb(102,106,111)" stroke-width="1" opacity="0.15294117647058825" d="M 180.5 297 L 184 297.5 L 179.5 299 L 180.5 297 Z " /><path fill="rgb(102,106,111)" stroke="rgb(102,106,111)" stroke-width="1" opacity="0.15294117647058825" d="M 185.5 297 L 188 297.5 L 185.5 298 L 185.5 297 Z " /><path fill="rgb(102,106,111)" stroke="rgb(102,106,111)" stroke-width="1" opacity="0.15294117647058825" d="M 245.5 297 L 251.5 298 Q 253.3 295.3 259.5 297 L 259.5 298 L 248.5 299 L 245.5 298 L 245.5 297 Z " /><path fill="rgb(102,106,111)" stroke="rgb(102,106,111)" stroke-width="1" opacity="0.15294117647058825" d="M 304 297 Q 306.7 295.9 306 298.5 L 308 298.5 L 305 300 L 304.5 314 L 304 297 Z " /><path fill="rgb(102,106,111)" stroke="rgb(102,106,111)" stroke-width="1" opacity="0.15294117647058825" d="M 309.5 297 L 313 297.5 L 309.5 298 L 309.5 297 Z " /><path fill="rgb(102,106,111)" stroke="rgb(102,106,111)" stroke-width="1" opacity="0.15294117647058825" d="M 52.5 298 L 61 298.5 L 52.5 299 L 52.5 298 Z " /><path fill="rgb(102,106,111)" stroke="rgb(102,106,111)" stroke-width="1" opacity="0.15294117647058825" d="M 62.5 298 L 66 299 L 65 309 L 67 309.5 L 64 310 L 65 300.5 L 62.5 298 Z " /><path fill="rgb(102,106,111)" stroke="rgb(102,106,111)" stroke-width="1" opacity="0.15294117647058825" d="M 79.5 298 L 92.5 298 L 94 299.5 L 93.5 303 L 91.5 299 L 79.5 299 L 79.5 298 Z " /><path fill="rgb(102,106,111)" stroke="rgb(102,106,111)" stroke-width="1" opacity="0.15294117647058825" d="M 107.5 298 L 119.5 298 L 121 299.5 L 122 309.5 L 121 309.5 Q 122.5 301.5 118.5 299 L 107.5 299 L 107.5 298 Z " /><path fill="rgb(102,106,111)" stroke="rgb(102,106,111)" stroke-width="1" opacity="0.15294117647058825" d="M 233.5 298 L 234 313.5 L 233 313.5 L 233.5 298 Z " /><path fill="rgb(102,106,111)" stroke="rgb(102,106,111)" stroke-width="1" opacity="0.15294117647058825" d="M 379.5 298 L 387 298.5 L 379.5 299 L 378 300.5 L 377.5 312 L 377 300.5 L 379.5 298 Z " /><path fill="rgb(102,106,111)" stroke="rgb(102,106,111)" stroke-width="1" opacity="0.15294117647058825" d="M 433.5 298 L 444.5 298 L 446 299.5 L 444.5 299 L 433 299 L 433 311.5 L 434 313.5 L 432 312.5 L 432 299.5 L 433.5 298 Z " /><path fill="rgb(102,106,111)" stroke="rgb(102,106,111)" stroke-width="1" opacity="0.15294117647058825" d="M 388.5 299 L 392 300.5 L 390.5 301 L 388.5 299 Z " /><path fill="rgb(102,106,111)" stroke="rgb(102,106,111)" stroke-width="1" opacity="0.15294117647058825" d="M 405 299 L 419 299 L 419 312.5 L 418 312.5 L 418 300 L 406 300 L 405.5 314 L 405 299 Z " /><path fill="rgb(102,106,111)" stroke="rgb(102,106,111)" stroke-width="1" opacity="0.15294117647058825" d="M 106.5 300 L 107 305.5 L 106 305.5 L 106.5 300 Z " /><path fill="rgb(102,106,111)" stroke="rgb(102,106,111)" stroke-width="1" opacity="0.15294117647058825" d="M 445.5 303 L 446 312.5 L 445 312.5 L 445.5 303 Z " /><path fill="rgb(102,106,111)" stroke="rgb(102,106,111)" stroke-width="1" opacity="0.15294117647058825" d="M 94.5 304 L 95 310.5 L 93.5 310 L 92 310 L 92 305 L 94.5 304 Z " /><path fill="rgb(102,106,111)" stroke="rgb(102,106,111)" stroke-width="1" opacity="0.15294117647058825" d="M 360.5 305 L 361 307.5 L 360 307.5 L 360.5 305 Z " /><path fill="rgb(102,106,111)" stroke="rgb(102,106,111)" stroke-width="1" opacity="0.15294117647058825" d="M 107.5 311 L 108.5 312 L 117 312.5 L 108.5 313 L 107.5 311 Z " /><path fill="rgb(102,106,111)" stroke="rgb(102,106,111)" stroke-width="1" opacity="0.15294117647058825" d="M 348.5 311 L 349 330 L 333 330 L 333 314.5 L 334 314.5 L 334 327.5 L 335.5 329 L 348 329 L 348.5 311 Z " /><path fill="rgb(102,106,111)" stroke="rgb(102,106,111)" stroke-width="1" opacity="0.15294117647058825" d="M 80.5 312 L 90 312.5 L 80.5 313 L 80.5 312 Z " /><path fill="rgb(102,106,111)" stroke="rgb(102,106,111)" stroke-width="1" opacity="0.15294117647058825" d="M 151.5 312 L 162.5 312 L 163.5 313 L 165 312.5 L 165 330 L 148 330 L 148.5 313 L 149.5 329 L 151.5 329 L 164 329 L 164 314.5 L 162.5 313 L 151.5 313 L 151.5 312 Z " /><path fill="rgb(102,106,111)" stroke="rgb(102,106,111)" stroke-width="1" opacity="0.15294117647058825" d="M 379.5 312 L 391 312.5 L 379.5 313 L 378.5 314 L 379.5 312 Z " /><path fill="rgb(102,106,111)" stroke="rgb(102,106,111)" stroke-width="1" opacity="0.15294117647058825" d="M 52.5 313 L 63 313.5 L 52.5 314 L 52.5 313 Z " /><path fill="rgb(102,106,111)" stroke="rgb(102,106,111)" stroke-width="1" opacity="0.15294117647058825" d="M 340.5 313 L 343 313.5 L 340.5 314 L 340.5 313 Z " /><path fill="rgb(102,106,111)" stroke="rgb(102,106,111)" stroke-width="1" opacity="0.15294117647058825" d="M 361.5 317 L 362 325.5 L 361 325.5 L 361.5 317 Z " /><path fill="rgb(102,106,111)" stroke="rgb(102,106,111)" stroke-width="1" opacity="0.15294117647058825" d="M 176.5 325 L 178 327.5 L 177 328.5 L 177 354 L 183.5 355 L 184.5 354 L 192 354 L 192.5 347 L 193 355 L 184.5 355 L 183.5 356 L 182.5 355 L 176 355 L 176.5 325 Z " /><path fill="rgb(102,106,111)" stroke="rgb(102,106,111)" stroke-width="1" opacity="0.15294117647058825" d="M 178.5 325 L 193 325 L 193 340.5 L 192 340.5 L 192 326 L 178.5 326 L 178.5 325 Z " /><path fill="rgb(102,106,111)" stroke="rgb(102,106,111)" stroke-width="1" opacity="0.15294117647058825" d="M 233 325 L 267 325 L 267 355.5 L 265.5 355 L 264 354.5 L 266 354 L 266 326 L 234 326 L 234 354 L 254.5 354 L 254.5 355 L 233 355 L 233 325 Z " /><path fill="rgb(102,106,111)" stroke="rgb(102,106,111)" stroke-width="1" opacity="0.15294117647058825" d="M 304 325 L 312 325.5 L 305 326 L 305 355 L 321 355 L 321 327.5 L 319.5 327 L 314 325.5 L 318.5 325 L 320.5 326 L 322 325.5 L 322 356 L 304 356 L 304 325 Z " /><path fill="rgb(102,106,111)" stroke="rgb(102,106,111)" stroke-width="1" opacity="0.15294117647058825" d="M 52.5 327 L 64.5 327 L 65 329.5 Q 67.3 330.8 66 335.5 L 65 335.5 Q 65.6 330.1 64 328 L 52.5 328 L 52.5 327 Z " /><path fill="rgb(102,106,111)" stroke="rgb(102,106,111)" stroke-width="1" opacity="0.15294117647058825" d="M 80.5 327 L 83 327.5 L 79.5 329 L 80.5 327 Z " /><path fill="rgb(102,106,111)" stroke="rgb(102,106,111)" stroke-width="1" opacity="0.15294117647058825" d="M 111.5 327 Q 118.3 326.1 121 328 L 121 339.5 L 122 341.5 L 121 341.5 L 120 339.5 L 120 329 Q 117.6 327.3 111.5 328 L 111.5 327 Z " /><path fill="rgb(102,106,111)" stroke="rgb(102,106,111)" stroke-width="1" opacity="0.15294117647058825" d="M 378.5 327 L 379 329.5 L 378 329.5 L 378.5 327 Z " /><path fill="rgb(102,106,111)" stroke="rgb(102,106,111)" stroke-width="1" opacity="0.15294117647058825" d="M 380.5 327 L 391 328 L 390.5 330 Q 388.8 327.3 382.5 329 L 380.5 327 Z " /><path fill="rgb(102,106,111)" stroke="rgb(102,106,111)" stroke-width="1" opacity="0.15294117647058825" d="M 405 327 L 415.5 327 L 419 329.5 L 418.5 340 L 418 329 Q 413.7 327.1 406 328 L 405.5 341 L 405 327 Z " /><path fill="rgb(102,106,111)" stroke="rgb(102,106,111)" stroke-width="1" opacity="0.15294117647058825" d="M 85.5 328 L 93 328 L 93 331.5 L 92 331.5 L 92 329 L 85.5 329 L 85.5 328 Z " /><path fill="rgb(102,106,111)" stroke="rgb(102,106,111)" stroke-width="1" opacity="0.15294117647058825" d="M 432.5 328 L 446 328.5 L 433 329 L 433 340.5 L 434 341.5 L 431.5 340 L 430 339.5 L 432 339 L 432 330.5 L 431 329.5 L 432.5 328 Z " /><path fill="rgb(102,106,111)" stroke="rgb(102,106,111)" stroke-width="1" opacity="0.15294117647058825" d="M 106.5 330 L 107 339.5 L 106 339.5 L 106.5 330 Z " /><path fill="rgb(102,106,111)" stroke="rgb(102,106,111)" stroke-width="1" opacity="0.15294117647058825" d="M 445.5 330 L 446 341.5 L 445 341.5 L 445.5 330 Z " /><path fill="rgb(102,106,111)" stroke="rgb(102,106,111)" stroke-width="1" opacity="0.15294117647058825" d="M 377.5 331 L 379 342.5 L 378 342.5 Q 375.3 338.6 377.5 331 Z " /><path fill="rgb(102,106,111)" stroke="rgb(102,106,111)" stroke-width="1" opacity="0.15294117647058825" d="M 391.5 332 L 392 334.5 L 391 334.5 L 391.5 332 Z " /><path fill="rgb(102,106,111)" stroke="rgb(102,106,111)" stroke-width="1" opacity="0.15294117647058825" d="M 92.5 336 L 93 339.5 L 92 339.5 L 92.5 336 Z " /><path fill="rgb(102,106,111)" stroke="rgb(102,106,111)" stroke-width="1" opacity="0.15294117647058825" d="M 64.5 337 L 66 340.5 L 64 341.5 L 65 339.5 L 64.5 337 Z " /><path fill="rgb(102,106,111)" stroke="rgb(102,106,111)" stroke-width="1" opacity="0.15294117647058825" d="M 148 341 L 165 341 L 165 385 L 148 385 L 148 341 Z M 149 342 L 149 384 L 164 384 L 164 342 L 149 342 Z " /><path fill="rgb(102,106,111)" stroke="rgb(102,106,111)" stroke-width="1" opacity="0.15294117647058825" d="M 336.5 341 L 348.5 341 L 349 341.5 L 349 385 L 333.5 385 L 332 383.5 L 333.5 378 L 334 380.5 L 333 384 L 348 384 L 348 342 L 336.5 342 L 336.5 341 Z " /><path fill="rgb(102,106,111)" stroke="rgb(102,106,111)" stroke-width="1" opacity="0.15294117647058825" d="M 333.5 345 L 334 347.5 L 333 347.5 L 333.5 345 Z " /><path fill="rgb(102,106,111)" stroke="rgb(102,106,111)" stroke-width="1" opacity="0.15294117647058825" d="M 361.5 346 L 362 361.5 L 361 361.5 L 361.5 346 Z " /><path fill="rgb(102,106,111)" stroke="rgb(102,106,111)" stroke-width="1" opacity="0.15294117647058825" d="M 334.5 351 L 335 358.5 L 334 358.5 L 334.5 351 Z " /><path fill="rgb(102,106,111)" stroke="rgb(102,106,111)" stroke-width="1" opacity="0.15294117647058825" d="M 258.5 355 L 263 355.5 L 258.5 356 L 258.5 355 Z " /><path fill="rgb(102,106,111)" stroke="rgb(102,106,111)" stroke-width="1" opacity="0.15294117647058825" d="M 52.5 356 L 64.5 356 L 65 357.5 Q 67.5 359 66 364.5 L 65 364.5 Q 66.5 358.5 63.5 357 L 52.5 357 L 52.5 356 Z " /><path fill="rgb(102,106,111)" stroke="rgb(102,106,111)" stroke-width="1" opacity="0.15294117647058825" d="M 80.5 356 L 88 356.5 L 80.5 357 L 80.5 356 Z " /><path fill="rgb(102,106,111)" stroke="rgb(102,106,111)" stroke-width="1" opacity="0.15294117647058825" d="M 109.5 356 L 121 356 L 121 368.5 L 122 370.5 L 120 371.5 L 121 369.5 L 120 368.5 L 120 357 L 109.5 357 L 109.5 356 Z " /><path fill="rgb(102,106,111)" stroke="rgb(102,106,111)" stroke-width="1" opacity="0.15294117647058825" d="M 379.5 356 L 384 356.5 Q 379.4 355.9 378 358.5 L 377.5 370 L 375 369 Q 374.3 365.9 377 366.5 L 377 360 Q 374 361 375 358 L 379.5 356 Z " /><path fill="rgb(102,106,111)" stroke="rgb(102,106,111)" stroke-width="1" opacity="0.15294117647058825" d="M 405.5 356 L 414 356.5 L 406 357 L 405.5 371 L 405 361 Q 401.3 362.2 403 357 L 405.5 356 Z " /><path fill="rgb(102,106,111)" stroke="rgb(102,106,111)" stroke-width="1" opacity="0.15294117647058825" d="M 438.5 356 L 442 356.5 L 438.5 357 L 438.5 356 Z " /><path fill="rgb(102,106,111)" stroke="rgb(102,106,111)" stroke-width="1" opacity="0.15294117647058825" d="M 92.5 357 L 94 359.5 L 93 359.5 L 92.5 357 Z " /><path fill="rgb(102,106,111)" stroke="rgb(102,106,111)" stroke-width="1" opacity="0.15294117647058825" d="M 385.5 357 Q 390.8 355.8 392 358.5 L 390.5 359 L 385.5 358 L 385.5 357 Z " /><path fill="rgb(102,106,111)" stroke="rgb(102,106,111)" stroke-width="1" opacity="0.15294117647058825" d="M 416.5 357 L 419 357.5 L 419 368.5 L 418 368.5 L 418 358.5 L 416.5 358 L 416.5 357 Z " /><path fill="rgb(102,106,111)" stroke="rgb(102,106,111)" stroke-width="1" opacity="0.15294117647058825" d="M 430.5 357 L 431.5 359 L 433 358.5 Q 434.1 362.7 430 361 L 430.5 357 Z " /><path fill="rgb(102,106,111)" stroke="rgb(102,106,111)" stroke-width="1" opacity="0.15294117647058825" d="M 444.5 357 L 446 357.5 L 446 368.5 L 445 368.5 L 445 358.5 L 444.5 357 Z " /><path fill="rgb(102,106,111)" stroke="rgb(102,106,111)" stroke-width="1" opacity="0.15294117647058825" d="M 107.5 358 L 108 365.5 L 107 365.5 L 107.5 358 Z " /><path fill="rgb(102,106,111)" stroke="rgb(102,106,111)" stroke-width="1" opacity="0.15294117647058825" d="M 334.5 364 L 335 369.5 L 334 369.5 Q 334.8 367.3 332.5 368 L 332.5 367 Q 335.4 367.7 334.5 364 Z " /><path fill="rgb(102,106,111)" stroke="rgb(102,106,111)" stroke-width="1" opacity="0.15294117647058825" d="M 432.5 365 L 433 367.5 L 432 367.5 L 432.5 365 Z " /><path fill="rgb(102,106,111)" stroke="rgb(102,106,111)" stroke-width="1" opacity="0.15294117647058825" d="M 64.5 366 L 67 367 L 66.5 369 L 64 368 L 64.5 366 Z " /><path fill="rgb(102,106,111)" stroke="rgb(102,106,111)" stroke-width="1" opacity="0.15294117647058825" d="M 94.5 367 L 95 369.5 L 94 369.5 L 94.5 367 Z " /><path fill="rgb(102,106,111)" stroke="rgb(102,106,111)" stroke-width="1" opacity="0.15294117647058825" d="M 176 367 L 179 367.5 L 177 369.5 L 177 384 L 320.5 384 L 321 383.5 L 321 368 L 290 367.5 L 322 367 L 322 384.5 L 321.5 385 L 176 385 L 176 367 Z " /><path fill="rgb(102,106,111)" stroke="rgb(102,106,111)" stroke-width="1" opacity="0.15294117647058825" d="M 188.5 367 L 196 367.5 L 188.5 368 L 188.5 367 Z " /><path fill="rgb(102,106,111)" stroke="rgb(102,106,111)" stroke-width="1" opacity="0.15294117647058825" d="M 272.5 367 L 277 367.5 L 272.5 368 L 272.5 367 Z " /><path fill="rgb(102,106,111)" stroke="rgb(102,106,111)" stroke-width="1" opacity="0.15294117647058825" d="M 282.5 367 L 289 367.5 L 282.5 368 L 282.5 367 Z " /><path fill="rgb(102,106,111)" stroke="rgb(102,106,111)" stroke-width="1" opacity="0.15294117647058825" d="M 360.5 376 L 361 384 L 476 384.5 L 360 385 L 360.5 376 Z " /><path fill="rgb(102,106,111)" stroke="rgb(102,106,111)" stroke-width="1" opacity="0.15294117647058825" d="M 21.5 392 L 22 395.5 L 21 395.5 L 21.5 392 Z " /><path fill="rgb(102,106,111)" stroke="rgb(102,106,111)" stroke-width="1" opacity="0.15294117647058825" d="M 136.5 396 L 137 415 L 28 414.5 L 136 414 L 136.5 396 Z " /><path fill="rgb(102,106,111)" stroke="rgb(102,106,111)" stroke-width="1" opacity="0.15294117647058825" d="M 148.5 396 L 149 414 L 347.5 414 L 348 413.5 L 348 396.5 L 349 396.5 L 349 414.5 L 348.5 415 L 148 415 L 148.5 396 Z " /><path fill="rgb(102,106,111)" stroke="rgb(102,106,111)" stroke-width="1" opacity="0.15294117647058825" d="M 21 413 Q 24.8 412 26 414.5 L 24.5 414 L 21.5 415 L 21 413 Z " /><path fill="rgb(102,106,111)" stroke="rgb(102,106,111)" stroke-width="1" opacity="0.15294117647058825" d="M 470.5 413 Q 475 412 476 414.5 L 474.5 414 L 469.5 415 L 361.5 415 L 361.5 414 L 469.5 414 L 470.5 413 Z " /><path fill="rgb(102,106,111)" stroke="rgb(102,106,111)" stroke-width="1" opacity="0.15294117647058825" d="M 21.5 422 L 22 424.5 L 21 424.5 L 21.5 422 Z " /><path fill="rgb(102,106,111)" stroke="rgb(102,106,111)" stroke-width="1" opacity="0.15294117647058825" d="M 142.5 425 L 145 425.5 L 142.5 426 L 142.5 425 Z " /><path fill="rgb(102,106,111)" stroke="rgb(102,106,111)" stroke-width="1" opacity="0.15294117647058825" d="M 342.5 425 L 369 425.5 L 342.5 426 L 342.5 425 Z " /><path fill="rgb(102,106,111)" stroke="rgb(102,106,111)" stroke-width="1" opacity="0.15294117647058825" d="M 28.5 426 L 49 426.5 L 28.5 427 L 28.5 426 Z " /><path fill="rgb(102,106,111)" stroke="rgb(102,106,111)" stroke-width="1" opacity="0.15294117647058825" d="M 54.5 426 L 58 426.5 L 54.5 427 L 54.5 426 Z " /><path fill="rgb(102,106,111)" stroke="rgb(102,106,111)" stroke-width="1" opacity="0.15294117647058825" d="M 66.5 426 L 82 426.5 L 66.5 427 L 66.5 426 Z " /><path fill="rgb(102,106,111)" stroke="rgb(102,106,111)" stroke-width="1" opacity="0.15294117647058825" d="M 85.5 426 L 129 426.5 L 85.5 427 L 85.5 426 Z " /><path fill="rgb(102,106,111)" stroke="rgb(102,106,111)" stroke-width="1" opacity="0.15294117647058825" d="M 154.5 426 L 158 426.5 L 154.5 427 L 154.5 426 Z " /><path fill="rgb(102,106,111)" stroke="rgb(102,106,111)" stroke-width="1" opacity="0.15294117647058825" d="M 167.5 426 L 177 426.5 L 167.5 427 L 167.5 426 Z " /><path fill="rgb(102,106,111)" stroke="rgb(102,106,111)" stroke-width="1" opacity="0.15294117647058825" d="M 188.5 426 L 192 426.5 L 188.5 427 L 188.5 426 Z " /><path fill="rgb(102,106,111)" stroke="rgb(102,106,111)" stroke-width="1" opacity="0.15294117647058825" d="M 211.5 426 L 214 426.5 L 211.5 427 L 211.5 426 Z " /><path fill="rgb(102,106,111)" stroke="rgb(102,106,111)" stroke-width="1" opacity="0.15294117647058825" d="M 221.5 426 L 225 426.5 L 221.5 427 L 221.5 426 Z " /><path fill="rgb(102,106,111)" stroke="rgb(102,106,111)" stroke-width="1" opacity="0.15294117647058825" d="M 281.5 426 L 285 426.5 L 281.5 427 L 281.5 426 Z " /><path fill="rgb(102,106,111)" stroke="rgb(102,106,111)" stroke-width="1" opacity="0.15294117647058825" d="M 310.5 426 L 313 426.5 L 310.5 427 L 310.5 426 Z " /><path fill="rgb(102,106,111)" stroke="rgb(102,106,111)" stroke-width="1" opacity="0.15294117647058825" d="M 317.5 426 L 324 426.5 L 317.5 427 L 317.5 426 Z " /><path fill="rgb(102,106,111)" stroke="rgb(102,106,111)" stroke-width="1" opacity="0.15294117647058825" d="M 325.5 426 L 331 426.5 L 325.5 427 L 325.5 426 Z " /><path fill="rgb(102,106,111)" stroke="rgb(102,106,111)" stroke-width="1" opacity="0.15294117647058825" d="M 387.5 426 L 393 426.5 L 387.5 427 L 387.5 426 Z " /><path fill="rgb(102,106,111)" stroke="rgb(102,106,111)" stroke-width="1" opacity="0.15294117647058825" d="M 398.5 426 L 419 426.5 L 398.5 427 L 398.5 426 Z " /><path fill="rgb(102,106,111)" stroke="rgb(102,106,111)" stroke-width="1" opacity="0.15294117647058825" d="M 420.5 426 L 426 426.5 L 420.5 427 L 420.5 426 Z " /><path fill="rgb(102,106,111)" stroke="rgb(102,106,111)" stroke-width="1" opacity="0.15294117647058825" d="M 427.5 426 L 445 426.5 L 427.5 427 L 427.5 426 Z " /><path fill="rgb(102,106,111)" stroke="rgb(102,106,111)" stroke-width="1" opacity="0.15294117647058825" d="M 448.5 426 L 451 426.5 L 448.5 427 L 448.5 426 Z " /><path fill="rgb(102,106,111)" stroke="rgb(102,106,111)" stroke-width="1" opacity="0.15294117647058825" d="M 455.5 426 L 469 426.5 L 455.5 427 L 455.5 426 Z " /><path fill="rgb(0,0,0)" stroke="rgb(0,0,0)" stroke-width="1" opacity="0" d="M 0 0 L 500 0 L 500 500 L 0 500 L 0 0 Z M 246 150 L 246 152 L 244 151 L 242 152 L 242 171 Q 241 173 238 172 L 238 174 L 237 173 L 227 177 L 227 179 L 226 178 L 225 180 Q 224 182 223 180 L 222 182 L 220 183 Q 215 185 218 187 L 214 189 L 215 191 L 212 192 L 213 194 L 211 194 L 212 196 L 211 196 Q 212 198 209 200 L 210 201 L 209 201 L 209 203 L 208 205 L 208 207 L 207 209 L 207 211 L 206 214 L 207 216 L 198 216 L 206 215 L 206 214 L 192 214 L 192 254 L 177 254 L 177 220 L 176 222 L 175 222 L 176 216 L 175 216 L 175 215 L 174 212 L 173 212 L 173 211 L 169 206 L 168 207 L 168 206 L 163 202 L 163 199 L 162 194 Q 160 190 155 190 Q 153 193 152 191 L 150 198 L 151 201 L 150 204 L 148 203 L 148 205 L 147 204 L 146 206 Q 145 208 144 206 Q 141 207 143 209 Q 141 212 139 211 L 140 213 L 138 213 L 139 215 L 137 215 L 138 219 L 138 220 L 137 219 L 136 219 L 136 270 L 53 270 L 52 271 L 52 281 L 137 282 L 128 283 L 136 283 L 136 384 L 22 384 L 21 385 L 21 396 L 23 395 L 137 396 L 136 397 L 136 414 L 29 414 L 28 415 L 25 413 L 21 414 L 21 425 L 21 427 L 23 427 L 29 427 L 49 427 L 52 426 L 55 427 L 64 426 L 66 426 L 67 427 L 82 427 L 86 427 L 129 427 L 131 426 L 134 427 Q 137 425 145 426 L 146 425 L 150 426 L 153 425 Q 153 428 158 427 L 160 427 L 162 426 L 164 426 L 168 427 L 177 427 L 178 426 L 180 427 L 182 426 L 185 427 L 189 427 L 193 426 L 203 426 L 204 427 L 208 426 L 210 426 L 214 427 L 216 427 L 218 426 L 220 426 L 222 427 L 226 426 L 235 427 L 238 426 Q 242 425 244 427 L 246 426 L 257 426 L 258 427 L 260 426 L 262 426 L 264 427 L 266 426 Q 272 424 274 427 L 276 426 Q 280 425 282 427 L 286 426 L 302 426 L 303 427 L 308 426 L 310 426 L 313 427 L 315 427 L 317 426 Q 318 429 324 427 L 326 427 L 331 427 L 337 425 L 341 426 L 343 426 L 369 426 L 370 425 L 372 426 L 374 425 L 376 425 L 378 426 L 381 427 L 384 426 L 386 426 L 388 427 L 396 426 L 399 427 L 419 427 L 420 426 Q 421 428 426 427 L 428 427 L 445 427 L 446 426 L 449 427 L 452 426 L 456 427 L 469 427 L 470 426 L 472 427 L 475 426 L 475 416 L 476 415 Q 475 412 471 413 L 471 415 L 470 414 L 361 414 L 360 414 L 360 397 L 362 395 L 475 395 L 475 386 L 476 385 L 361 384 L 361 377 L 360 376 L 360 309 L 361 306 L 361 304 L 360 302 L 361 282 L 362 285 L 364 281 L 427 281 L 428 282 L 446 281 L 447 274 L 448 276 L 448 272 Q 446 273 445 270 L 383 270 L 382 271 L 377 270 L 375 270 L 362 270 L 361 271 L 361 270 Q 363 264 360 263 L 360 246 L 361 245 L 360 243 L 360 222 Q 362 220 361 216 L 359 216 L 360 214 L 358 214 L 359 212 Q 358 209 357 211 L 357 210 Q 355 205 354 208 L 352 206 Q 351 203 350 205 L 346 199 L 347 194 L 344 191 L 345 190 L 338 189 L 338 191 Q 337 193 336 191 L 335 194 L 335 196 Q 334 201 336 203 Q 335 205 334 203 L 331 204 L 331 206 L 330 205 L 328 206 L 328 208 Q 326 211 324 210 L 325 212 L 323 212 L 324 214 L 322 214 L 323 218 L 323 219 L 322 218 L 321 218 L 321 254 L 305 254 L 304 217 L 305 215 L 303 216 L 291 216 L 303 215 L 292 214 L 289 208 L 290 204 L 288 203 L 289 200 L 287 200 L 288 197 L 286 197 L 287 195 L 286 195 L 286 194 L 285 191 L 282 190 L 283 188 Q 282 185 281 187 L 277 183 Q 275 178 274 181 L 274 180 L 271 178 L 269 178 L 269 177 L 265 174 L 263 175 L 263 174 L 255 172 L 255 157 L 254 156 L 255 151 L 251 152 L 251 151 L 246 150 Z M 158 189 L 158 190 L 160 190 L 158 189 Z M 306 216 L 305 219 L 306 219 L 306 216 Z M 306 220 L 305 226 L 306 226 L 306 220 Z M 362 252 L 361 255 L 362 255 L 362 252 Z M 53 282 L 53 283 L 124 283 L 53 282 Z M 364 282 L 364 283 L 406 283 L 364 282 Z M 443 282 L 443 283 L 446 283 L 443 282 Z M 362 292 L 361 299 L 362 299 L 362 292 Z M 53 298 L 53 299 L 61 299 L 53 298 Z M 80 298 L 80 299 L 92 299 L 93 301 L 92 300 L 80 300 L 80 311 L 81 313 L 90 313 L 90 311 L 93 310 L 95 311 L 95 305 L 94 305 L 93 303 Q 95 304 94 300 L 93 298 L 80 298 Z M 108 298 L 108 299 L 119 299 L 120 301 L 119 300 L 108 300 L 108 311 L 109 313 Q 115 314 119 312 L 120 311 L 121 300 L 120 298 L 108 298 Z M 380 298 L 380 299 L 387 299 L 380 298 Z M 434 298 L 434 299 L 442 300 L 434 300 L 432 300 L 432 313 L 434 314 L 434 313 L 434 311 L 435 312 L 445 312 L 446 313 L 445 301 L 445 299 L 434 298 Z M 65 299 L 64 300 L 52 300 L 52 311 L 54 312 L 64 312 L 64 310 L 67 310 L 65 309 L 66 306 Q 67 298 65 299 Z M 389 299 L 388 300 L 379 300 L 379 311 L 379 313 L 391 313 L 390 312 L 391 309 L 390 308 L 390 301 L 392 301 L 389 299 Z M 405 299 L 406 314 L 406 312 L 417 312 L 418 311 L 418 313 L 419 313 L 419 299 L 405 299 Z M 107 300 L 106 306 L 107 306 L 107 300 Z M 378 300 L 377 312 L 378 312 L 378 300 Z M 122 302 L 121 310 L 122 310 L 122 302 Z M 53 313 L 53 314 L 63 314 L 53 313 Z M 362 317 L 361 326 L 362 326 L 362 317 Z M 53 327 L 53 329 L 52 330 L 52 340 L 54 341 L 64 341 L 66 341 L 65 339 L 66 336 Q 67 331 65 330 L 65 327 L 53 327 Z M 81 327 L 81 328 L 83 328 L 81 327 Z M 112 327 L 112 328 L 118 328 L 118 329 Q 111 330 108 328 L 108 335 L 107 330 L 106 340 Q 110 342 120 341 L 121 340 L 121 328 Q 118 326 112 327 Z M 379 327 L 379 341 L 390 341 L 390 340 L 390 338 Q 389 331 391 328 Q 383 327 379 329 L 379 327 Z M 405 327 L 405 341 L 417 341 L 419 340 L 419 329 L 418 332 L 417 332 L 418 329 L 416 327 L 405 327 Z M 86 328 L 85 329 L 80 329 L 80 341 L 92 341 L 93 340 L 92 336 L 93 332 L 93 328 L 86 328 Z M 433 328 L 431 330 L 432 331 L 432 339 L 430 340 L 432 340 L 434 340 L 435 341 L 445 341 L 446 342 L 446 331 L 446 329 L 433 328 Z M 378 331 L 377 341 L 378 341 L 378 331 Z M 392 332 L 391 335 L 392 335 L 392 332 Z M 362 346 L 361 362 L 362 362 L 362 346 Z M 53 356 L 53 358 L 52 359 L 52 369 L 54 370 L 64 370 Q 65 367 67 369 Q 68 366 66 367 L 65 365 Q 68 366 66 359 L 65 359 L 58 358 L 64 357 L 65 358 L 65 356 L 53 356 Z M 80 356 L 80 370 L 92 370 L 93 368 L 92 358 L 83 358 L 88 357 L 80 356 Z M 110 356 L 110 358 L 107 358 L 108 370 L 119 370 L 121 369 L 121 356 L 110 356 Z M 380 356 L 380 357 L 384 357 L 380 356 Z M 406 356 L 403 357 Q 401 362 405 361 L 406 371 L 407 370 L 418 370 L 419 369 L 419 357 L 416 358 L 406 358 L 414 357 L 406 356 Z M 439 356 L 439 357 L 442 357 L 439 356 Z M 378 357 L 375 358 Q 374 361 377 360 L 377 367 L 375 367 Q 374 370 377 369 L 380 370 L 390 370 L 390 360 L 392 359 L 391 357 L 380 358 L 379 359 L 379 358 L 378 357 Z M 431 357 Q 428 363 433 361 L 432 366 Q 432 369 435 370 L 444 370 L 445 369 L 446 369 L 446 357 L 444 358 L 433 358 L 432 359 L 431 357 Z M 95 367 L 94 370 L 95 370 L 95 367 Z " /><path fill="rgb(0,0,0)" stroke="rgb(0,0,0)" stroke-width="1" opacity="0" d="M 244.5 183 Q 251.9 181.6 254.5 185 L 256.5 184 L 261 185 L 261.5 187 L 263.5 187 L 266 188.5 L 265.5 190 L 267.5 191 L 269 190.5 L 268 191.5 L 271 194.5 L 277 203.5 L 279 214 L 219.5 214 Q 218.4 213.9 219 208.5 L 222 200.5 L 231.5 188 L 233 188.5 L 234.5 186 L 240.5 184 L 242.5 184 L 244.5 183 Z " /><path fill="rgb(0,0,0)" stroke="rgb(0,0,0)" stroke-width="1" opacity="0" d="M 157.5 213 L 161 214 L 161.5 216 L 163 215.5 L 163 217.5 L 164 219.5 L 164 231.5 L 165 232.5 L 157.5 233 L 155.5 233 L 150.5 232 L 149 232.5 L 149 220.5 L 148 219.5 L 150 219.5 L 149 217.5 Q 149.5 213.5 154.5 214 Q 156 216.5 157.5 213 Z " /><path fill="rgb(0,0,0)" stroke="rgb(0,0,0)" stroke-width="1" opacity="0" d="M 340 213 Q 343.8 212 345 214.5 L 345.5 216 Q 346.8 213.8 348 216.5 L 347 218.5 L 349 218.5 L 348 219.5 L 348 229.5 L 349 229.5 L 349.5 222 L 350 229.5 Q 348.7 232.3 347.5 230 L 333.5 230 L 332 228.5 L 332.5 223 L 333.5 228 L 335 217.5 L 334.5 216 L 336 216.5 L 337.5 214 L 339.5 215 L 340 213 Z " /><path fill="rgb(0,0,0)" stroke="rgb(0,0,0)" stroke-width="1" opacity="0" d="M 193.5 215 L 197 215.5 L 193.5 216 L 193.5 215 Z " /><path fill="rgb(0,0,0)" stroke="rgb(0,0,0)" stroke-width="1" opacity="0" d="M 219.5 215 L 279 215.5 L 219.5 216 L 219.5 215 Z " /><path fill="rgb(0,0,0)" stroke="rgb(0,0,0)" stroke-width="1" opacity="0" d="M 209.5 226 L 221 226.5 L 209 227.5 L 221 228 L 221 254 L 206 254 L 205 250.5 L 205 227 L 209.5 226 Z " /><path fill="rgb(0,0,0)" stroke="rgb(0,0,0)" stroke-width="1" opacity="0" d="M 255 226 L 267 226.5 L 257 227.5 L 266 228 L 266 254 L 234 254 L 234 228.5 L 234.5 228 L 242 228 L 242 244.5 L 243.5 245 L 245 244.5 L 244.5 246 L 251 245.5 L 249 244.5 L 252.5 244 L 254.5 245 L 254 243.5 L 255 241.5 L 255 226 Z " /><path fill="rgb(0,0,0)" stroke="rgb(0,0,0)" stroke-width="1" opacity="0" d="M 278.5 226 L 288 226.5 L 278.5 227 L 278.5 226 Z " /><path fill="rgb(0,0,0)" stroke="rgb(0,0,0)" stroke-width="1" opacity="0" d="M 289.5 226 L 293 226.5 L 292 227.5 L 292 254 L 279 254 L 279 228 L 291 227.5 L 289.5 226 Z " /><path fill="rgb(0,0,0)" stroke="rgb(0,0,0)" stroke-width="1" opacity="0" d="M 243.5 228 L 244 230.5 L 243 230.5 L 243.5 228 Z " /><path fill="rgb(0,0,0)" stroke="rgb(0,0,0)" stroke-width="1" opacity="0" d="M 293.5 236 L 294 253.5 L 293 253.5 L 293.5 236 Z " /><path fill="rgb(0,0,0)" stroke="rgb(0,0,0)" stroke-width="1" opacity="0" d="M 337.5 242 L 338 244 L 340 243.5 L 339.5 242 L 345.5 244 L 345.5 242 L 348 243.5 L 348 245.5 L 348 254 L 334 254 L 334 243.5 L 335.5 243 L 337 243.5 L 337.5 242 Z " /><path fill="rgb(0,0,0)" stroke="rgb(0,0,0)" stroke-width="1" opacity="0" d="M 148.5 244 Q 153.6 246.4 162.5 245 L 164 244.5 L 163 246.5 L 164 247.5 L 164 254 L 149 254 L 149 245.5 L 148.5 244 Z " /><path fill="rgb(0,0,0)" stroke="rgb(0,0,0)" stroke-width="1" opacity="0" d="M 349.5 245 L 350 252.5 L 349 252.5 L 349.5 245 Z " /><path fill="rgb(0,0,0)" stroke="rgb(0,0,0)" stroke-width="1" opacity="0" d="M 148.5 266 L 150.5 266 L 165 266.5 L 164 267.5 L 164 299 L 149 299 L 149 267.5 L 148.5 266 Z " /><path fill="rgb(0,0,0)" stroke="rgb(0,0,0)" stroke-width="1" opacity="0" d="M 176.5 266 L 178.5 267 L 179.5 266 L 192.5 266 L 192 267.5 L 192 284.5 L 190.5 286 L 187.5 285 L 185.5 286 L 180.5 285 L 176.5 286 L 177 284.5 L 177 267.5 L 176.5 266 Z " /><path fill="rgb(0,0,0)" stroke="rgb(0,0,0)" stroke-width="1" opacity="0" d="M 205 266 L 220.5 266 L 221 266.5 L 221 355 L 205.5 356 L 205.5 355 L 208 354.5 L 205 354 L 205 266 Z " /><path fill="rgb(0,0,0)" stroke="rgb(0,0,0)" stroke-width="1" opacity="0" d="M 233.5 266 L 264.5 266 L 266 267.5 L 266 284.5 L 267 285.5 L 246.5 286 L 245.5 285 L 235.5 285 L 233.5 286 L 234 284.5 L 234 267.5 L 233.5 266 Z " /><path fill="rgb(0,0,0)" stroke="rgb(0,0,0)" stroke-width="1" opacity="0" d="M 279.5 266 L 292.5 266 L 294 267.5 L 293.5 355 L 292.5 267 L 292 353.5 L 291 354.5 L 291.5 356 L 290.5 355 L 279 355 L 279 283.5 L 278 282.5 L 278 280.5 L 279 269.5 L 278 267.5 L 279.5 266 Z " /><path fill="rgb(0,0,0)" stroke="rgb(0,0,0)" stroke-width="1" opacity="0" d="M 306 266 L 309.5 267 L 310.5 266 L 321.5 266 L 321 267.5 L 321 284.5 L 322 285.5 L 309.5 286 L 307.5 285 L 304.5 286 L 305 284.5 L 306 282.5 L 305 281.5 L 305 269 L 307 268.5 L 306 266 Z " /><path fill="rgb(0,0,0)" stroke="rgb(0,0,0)" stroke-width="1" opacity="0" d="M 334.5 266 L 336.5 266 L 349 266.5 L 348 267.5 L 348 299 L 333.5 299 L 333 297.5 Q 330.5 296 332 290.5 L 333 290.5 L 333.5 297 L 334 286.5 Q 331.8 285.2 333 280.5 L 334 279.5 L 334.5 266 Z " /><path fill="rgb(0,0,0)" stroke="rgb(0,0,0)" stroke-width="1" opacity="0" d="M 203.5 267 L 204 288.5 L 203 288.5 L 203.5 267 Z " /><path fill="rgb(0,0,0)" stroke="rgb(0,0,0)" stroke-width="1" opacity="0" d="M 177 296 L 179.5 297 L 181 296.5 L 180.5 298 L 184 297.5 L 182 296.5 L 190.5 296 L 192 297.5 L 192 315 L 176 314.5 L 177 313.5 L 177 300.5 L 178 298.5 L 177 296 Z M 186 297 L 186 298 L 188 298 L 186 297 Z " /><path fill="rgb(0,0,0)" stroke="rgb(0,0,0)" stroke-width="1" opacity="0" d="M 233.5 296 L 235.5 299 L 236 297 L 240.5 296 L 242.5 296 L 262.5 296 L 264.5 297 L 266 296.5 L 266 298.5 L 266.5 314 L 267.5 302 L 268 313.5 L 266.5 315 L 233.5 315 L 234 313.5 L 234 298.5 L 233.5 296 Z M 246 297 L 246 298 L 248 298 L 246 297 Z M 253 297 L 253 298 L 260 298 L 253 297 Z M 249 298 L 249 299 L 252 299 L 249 298 Z " /><path fill="rgb(0,0,0)" stroke="rgb(0,0,0)" stroke-width="1" opacity="0" d="M 305.5 296 L 318.5 297 L 320.5 296 L 320.5 297 L 319 297.5 L 321 298 L 321 315 L 305 315 L 305 300.5 L 306.5 300 L 306 298.5 L 305.5 296 Z M 310 297 L 310 298 L 313 298 L 310 297 Z " /><path fill="rgb(0,0,0)" stroke="rgb(0,0,0)" stroke-width="1" opacity="0" d="M 203.5 299 L 204 303.5 L 203 303.5 L 203.5 299 Z " /><path fill="rgb(0,0,0)" stroke="rgb(0,0,0)" stroke-width="1" opacity="0" d="M 148.5 300 L 165 300.5 L 148.5 301 L 148.5 300 Z " /><path fill="rgb(0,0,0)" stroke="rgb(0,0,0)" stroke-width="1" opacity="0" d="M 346.5 300 L 349 300.5 L 346.5 301 L 346.5 300 Z " /><path fill="rgb(0,0,0)" stroke="rgb(0,0,0)" stroke-width="1" opacity="0" d="M 149.5 311 L 165 311.5 Q 161.5 313 164 314.5 L 164 329 L 151.5 329 L 149 328.5 L 149 313.5 L 148 312.5 L 149.5 311 Z M 152 312 L 152 313 L 163 313 L 152 312 Z " /><path fill="rgb(0,0,0)" stroke="rgb(0,0,0)" stroke-width="1" opacity="0" d="M 333 311 L 348 311 L 348 329 L 335.5 329 L 334 327.5 Q 335.3 316.5 333 311 Z M 341 313 L 341 314 L 343 314 L 341 313 Z " /><path fill="rgb(0,0,0)" stroke="rgb(0,0,0)" stroke-width="1" opacity="0" d="M 175.5 325 L 176 335.5 L 175 335.5 L 175.5 325 Z " /><path fill="rgb(0,0,0)" stroke="rgb(0,0,0)" stroke-width="1" opacity="0" d="M 177.5 325 L 178.5 326 L 192 326 L 193 346.5 L 192 347.5 L 192 354 L 184 354.5 L 192 355.5 L 184.5 356 L 182.5 356 L 176 355.5 L 183 354.5 L 177 354 L 177 328.5 L 178 327.5 L 177.5 325 Z " /><path fill="rgb(0,0,0)" stroke="rgb(0,0,0)" stroke-width="1" opacity="0" d="M 312.5 325 L 318.5 326 L 320.5 325 L 320.5 326 L 319 326.5 L 321 327 L 321 355 L 305 355 L 305 326.5 Q 305.3 325.3 311.5 326 L 312.5 325 Z " /><path fill="rgb(0,0,0)" stroke="rgb(0,0,0)" stroke-width="1" opacity="0" d="M 234 326 L 266 326 L 266 354 L 264 354.5 L 266 355.5 L 263.5 356 L 258.5 355 L 255.5 356 L 234 355.5 L 255 354.5 L 234 354 L 234 326 Z " /><path fill="rgb(0,0,0)" stroke="rgb(0,0,0)" stroke-width="1" opacity="0" d="M 267.5 326 L 268 328.5 L 267 328.5 L 267.5 326 Z " /><path fill="rgb(0,0,0)" stroke="rgb(0,0,0)" stroke-width="1" opacity="0" d="M 59.5 328 L 64 328.5 L 59.5 329 L 59.5 328 Z " /><path fill="rgb(0,0,0)" stroke="rgb(0,0,0)" stroke-width="1" opacity="0" d="M 148.5 340 L 164 340.5 L 148.5 341 L 148.5 340 Z " /><path fill="rgb(0,0,0)" stroke="rgb(0,0,0)" stroke-width="1" opacity="0" d="M 333.5 340 L 349 340.5 L 336 341.5 L 348 342 L 348 384 L 333 384 Q 330.7 378.4 332 368 Q 334.7 366.9 334 369.5 L 335 369.5 L 334.5 364 L 334 367 L 332 366.5 L 332 341.5 L 333.5 340 Z M 334 345 L 333 348 L 334 348 L 334 345 Z M 335 351 L 334 359 L 335 359 L 335 351 Z M 334 378 L 333 381 L 334 381 L 334 378 Z " /><path fill="rgb(0,0,0)" stroke="rgb(0,0,0)" stroke-width="1" opacity="0" d="M 149 342 L 164 342 L 164 384 L 149 384 L 149 342 Z " /><path fill="rgb(0,0,0)" stroke="rgb(0,0,0)" stroke-width="1" opacity="0" d="M 267.5 344 L 268 354.5 L 267 354.5 L 267.5 344 Z " /><path fill="rgb(0,0,0)" stroke="rgb(0,0,0)" stroke-width="1" opacity="0" d="M 203.5 352 L 204 354.5 L 203 354.5 L 203.5 352 Z " /><path fill="rgb(0,0,0)" stroke="rgb(0,0,0)" stroke-width="1" opacity="0" d="M 378.5 361 L 379 365.5 L 378 365.5 L 378.5 361 Z " /><path fill="rgb(0,0,0)" stroke="rgb(0,0,0)" stroke-width="1" opacity="0" d="M 279.5 366 L 282 366 L 282.5 368 L 288.5 368 L 288.5 367 L 286 366.5 L 320.5 366 L 320.5 367 L 290 367.5 L 321 368 L 321 383.5 L 320.5 384 L 177 384 L 177 369.5 L 179.5 367 L 195.5 368 L 196.5 367 L 271.5 367 L 276.5 368 L 279.5 366 Z " /><path fill="rgb(0,0,0)" stroke="rgb(0,0,0)" stroke-width="1" opacity="0" d="M 148.5 395 L 349 395.5 L 348 396.5 L 348 414 L 149.5 414 L 149 413.5 L 149 396.5 L 148.5 395 Z " /><path fill="rgb(4,5,8)" stroke="rgb(4,5,8)" stroke-width="1" opacity="0.7764705882352941" d="M 246.5 151 L 254 152 L 254 171.5 L 255.5 173 L 266.5 176 Q 275.9 180.6 282 188.5 L 287 198.5 L 286 198.5 Q 282.9 188.6 275.5 183 L 261.5 175 L 254 174 L 253 171.5 L 253 153 L 244 153 L 244 168.5 L 243 168.5 L 243 152.5 L 245.5 152 L 246.5 151 Z " /><path fill="rgb(4,5,8)" stroke="rgb(4,5,8)" stroke-width="1" opacity="0.7764705882352941" d="M 243.5 170 L 244 172.5 L 242.5 174 L 233.5 176 L 220 184 L 212.5 195 L 213 193.5 L 222.5 181 L 232.5 175 L 241.5 173 L 243 171.5 L 243.5 170 Z " /><path fill="rgb(4,5,8)" stroke="rgb(4,5,8)" stroke-width="1" opacity="0.7764705882352941" d="M 244.5 182 L 251 182.5 L 236.5 185 L 227 191 L 223 196.5 L 218.5 208 L 218 205.5 Q 221.1 195.1 228.5 189 L 236.5 184 L 244.5 182 Z " /><path fill="rgb(4,5,8)" stroke="rgb(4,5,8)" stroke-width="1" opacity="0.7764705882352941" d="M 252.5 183 Q 267.7 184.3 274 194.5 Q 280.3 199.7 280 211.5 L 279 211.5 L 278 202.5 L 268.5 190 Q 263.5 184 252.5 184 L 252.5 183 Z " /><path fill="rgb(4,5,8)" stroke="rgb(4,5,8)" stroke-width="1" opacity="0.7764705882352941" d="M 338.5 190 Q 344.8 188.8 346 192.5 L 345.5 194 L 345 192 L 339.5 191 L 337 192 L 337 202.5 L 334.5 205 L 326 210.5 L 323.5 217 L 323 214.5 L 329.5 206 L 336 202.5 L 336 192.5 L 338.5 190 Z " /><path fill="rgb(4,5,8)" stroke="rgb(4,5,8)" stroke-width="1" opacity="0.7764705882352941" d="M 153.5 191 Q 160.5 189.5 162 193.5 L 161.5 201 L 161 193 L 154.5 192 L 152 193.5 L 153.5 191 Z " /><path fill="rgb(4,5,8)" stroke="rgb(4,5,8)" stroke-width="1" opacity="0.7764705882352941" d="M 211.5 196 L 212 197.5 L 210.5 200 L 210 198.5 L 211.5 196 Z " /><path fill="rgb(4,5,8)" stroke="rgb(4,5,8)" stroke-width="1" opacity="0.7764705882352941" d="M 151.5 197 L 152 199.5 L 151 199.5 L 151.5 197 Z " /><path fill="rgb(4,5,8)" stroke="rgb(4,5,8)" stroke-width="1" opacity="0.7764705882352941" d="M 346.5 200 L 349.5 205 L 356 209.5 L 358 212.5 L 350.5 206 L 346 203.5 L 346.5 200 Z " /><path fill="rgb(4,5,8)" stroke="rgb(4,5,8)" stroke-width="1" opacity="0.7764705882352941" d="M 151.5 201 L 152 202.5 L 141 211.5 L 139.5 214 L 140 212.5 L 143 207 L 151 202.5 L 151.5 201 Z " /><path fill="rgb(4,5,8)" stroke="rgb(4,5,8)" stroke-width="1" opacity="0.7764705882352941" d="M 209.5 201 L 210 202.5 L 208.5 206 L 208 203.5 L 209.5 201 Z " /><path fill="rgb(4,5,8)" stroke="rgb(4,5,8)" stroke-width="1" opacity="0.7764705882352941" d="M 162.5 202 L 172 210.5 Q 175 213.5 175 219.5 L 174 219.5 L 173 213.5 L 170 209 L 162 203.5 L 162.5 202 Z " /><path fill="rgb(4,5,8)" stroke="rgb(4,5,8)" stroke-width="1" opacity="0.7764705882352941" d="M 207.5 207 L 208 212.5 L 207 212.5 L 207.5 207 Z " /><path fill="rgb(4,5,8)" stroke="rgb(4,5,8)" stroke-width="1" opacity="0.7764705882352941" d="M 289.5 208 L 290 210.5 L 289 210.5 L 289.5 208 Z " /><path fill="rgb(4,5,8)" stroke="rgb(4,5,8)" stroke-width="1" opacity="0.7764705882352941" d="M 217.5 209 Q 216.6 214.4 219.5 216 L 278.5 216 L 279.5 215 L 278.5 217 L 219.5 217 L 217 216 L 217.5 209 Z " /><path fill="rgb(4,5,8)" stroke="rgb(4,5,8)" stroke-width="1" opacity="0.7764705882352941" d="M 156.5 212 Q 162.4 212.6 165 216.5 L 166 218.5 L 166 234 L 148.5 234 L 147 232.5 L 147.5 220 L 148 231.5 L 149.5 233 L 165 233 L 165 218.5 L 162.5 215 L 157.5 213 L 152.5 214 L 149 217.5 L 148.5 219 L 148 217.5 L 152.5 213 L 156.5 212 Z " /><path fill="rgb(4,5,8)" stroke="rgb(4,5,8)" stroke-width="1" opacity="0.7764705882352941" d="M 340.5 212 Q 346.7 211.3 348 215.5 L 346.5 215 Q 345.1 212.4 340.5 213 L 334 216 L 332.5 223 L 332 218.5 L 335.5 214 L 340.5 212 Z " /><path fill="rgb(4,5,8)" stroke="rgb(4,5,8)" stroke-width="1" opacity="0.7764705882352941" d="M 290.5 213 L 291 216 L 304 216 L 304 253.5 L 305.5 255 L 322 255 L 322.5 219 L 323 254.5 L 321.5 256 L 304.5 256 L 303 254.5 L 303 217 L 291.5 217 L 290 215.5 L 290.5 213 Z " /><path fill="rgb(4,5,8)" stroke="rgb(4,5,8)" stroke-width="1" opacity="0.7764705882352941" d="M 207.5 214 L 208 215.5 L 206.5 217 L 194 217 L 194 254.5 L 192.5 256 L 175 256 L 175 222.5 L 176 222.5 L 176 255 L 193 255 L 193 216.5 L 196.5 216 L 198.5 216 L 206.5 216 L 207.5 214 Z " /><path fill="rgb(4,5,8)" stroke="rgb(4,5,8)" stroke-width="1" opacity="0.7764705882352941" d="M 138.5 215 L 139 217.5 L 138 217.5 L 138.5 215 Z " /><path fill="rgb(4,5,8)" stroke="rgb(4,5,8)" stroke-width="1" opacity="0.7764705882352941" d="M 359.5 216 L 360 220.5 L 359 220.5 L 359.5 216 Z " /><path fill="rgb(4,5,8)" stroke="rgb(4,5,8)" stroke-width="1" opacity="0.7764705882352941" d="M 349.5 219 L 350 221.5 L 349 221.5 L 349.5 219 Z " /><path fill="rgb(4,5,8)" stroke="rgb(4,5,8)" stroke-width="1" opacity="0.7764705882352941" d="M 137.5 220 L 138 270.5 L 136.5 272 L 53 272 L 53 279.5 L 53.5 280 L 136.5 280 L 138 281.5 L 138 384.5 L 136.5 386 L 22 386 L 21.5 392 L 21 385 L 137 385 L 137 281 L 52.5 281 L 52 280.5 L 52 271 L 137 271 L 137.5 220 Z " /><path fill="rgb(4,5,8)" stroke="rgb(4,5,8)" stroke-width="1" opacity="0.7764705882352941" d="M 203 225 L 220.5 225 L 222 226.5 L 220.5 226 L 204 226 L 204 255 L 222 255 L 222 228.5 L 223 228.5 L 223 254.5 L 221.5 256 L 203 256 L 203 225 Z " /><path fill="rgb(4,5,8)" stroke="rgb(4,5,8)" stroke-width="1" opacity="0.7764705882352941" d="M 233.5 225 L 238.5 226 L 241.5 225 L 244 226 L 243.5 228 L 234.5 226 L 233 227.5 L 233 255 L 267 255 L 267 226 L 255.5 226 L 254 227.5 L 254 243.5 Q 254 244.5 249.5 244 L 246.5 245 L 243 244 L 243.5 231 L 244 243 L 253 243 L 253 226.5 L 254.5 225 L 266.5 225 L 268 226.5 L 268 254.5 L 266.5 256 L 233.5 256 L 232 254.5 L 232 226.5 L 233.5 225 Z " /><path fill="rgb(4,5,8)" stroke="rgb(4,5,8)" stroke-width="1" opacity="0.7764705882352941" d="M 278.5 225 L 292.5 225 L 294 226.5 L 293.5 229 L 293 226 L 288.5 227 L 287.5 226 L 278 226 L 278 255 L 292.5 255 L 294 254.5 L 293.5 256 L 278.5 256 L 277 254.5 L 277 226.5 L 278.5 225 Z " /><path fill="rgb(4,5,8)" stroke="rgb(4,5,8)" stroke-width="1" opacity="0.7764705882352941" d="M 359.5 227 L 360 231.5 L 359 231.5 L 359.5 227 Z " /><path fill="rgb(4,5,8)" stroke="rgb(4,5,8)" stroke-width="1" opacity="0.7764705882352941" d="M 293.5 230 L 294 235.5 L 293 235.5 L 293.5 230 Z " /><path fill="rgb(4,5,8)" stroke="rgb(4,5,8)" stroke-width="1" opacity="0.7764705882352941" d="M 332.5 230 L 333.5 231 L 348.5 231 L 350 230.5 L 349.5 232 L 332 232 L 332.5 230 Z " /><path fill="rgb(4,5,8)" stroke="rgb(4,5,8)" stroke-width="1" opacity="0.7764705882352941" d="M 359.5 233 L 360 239.5 L 359 239.5 L 359.5 233 Z " /><path fill="rgb(4,5,8)" stroke="rgb(4,5,8)" stroke-width="1" opacity="0.7764705882352941" d="M 333.5 241 L 346 241.5 Q 344.8 244.3 343.5 242 L 338.5 243 L 335.5 242 L 333 243.5 L 333 255 L 349 255 L 349.5 253 L 350 256 L 332 256 L 332 242.5 L 333.5 241 Z " /><path fill="rgb(4,5,8)" stroke="rgb(4,5,8)" stroke-width="1" opacity="0.7764705882352941" d="M 347 241 L 350 242.5 L 349.5 245 L 349 243 Q 346 244 347 241 Z " /><path fill="rgb(4,5,8)" stroke="rgb(4,5,8)" stroke-width="1" opacity="0.7764705882352941" d="M 148.5 243 L 164.5 243 L 166 244.5 L 166 254.5 L 164.5 256 L 148.5 256 L 147 254.5 L 147 244.5 L 148.5 243 Z M 148 244 L 148 255 L 165 255 L 165 244 L 148 244 Z " /><path fill="rgb(4,5,8)" stroke="rgb(4,5,8)" stroke-width="1" opacity="0.7764705882352941" d="M 359.5 262 L 360 269.5 L 359 269.5 L 359.5 262 Z " /><path fill="rgb(4,5,8)" stroke="rgb(4,5,8)" stroke-width="1" opacity="0.7764705882352941" d="M 204.5 264 L 206.5 265 L 221.5 265 L 223 266.5 L 223 355.5 L 221.5 357 L 203.5 357 L 203 355.5 L 204.5 356 L 221.5 356 L 222 355.5 L 222 266 L 204.5 266 L 203.5 267 L 203 265.5 L 204.5 264 Z " /><path fill="rgb(4,5,8)" stroke="rgb(4,5,8)" stroke-width="1" opacity="0.7764705882352941" d="M 147 265 L 164.5 265 L 166 266.5 L 166 300.5 L 164.5 302 L 148.5 302 L 147 300.5 L 147 265 Z M 148 266 L 148 301 L 165 301 L 165 266 L 148 266 Z " /><path fill="rgb(4,5,8)" stroke="rgb(4,5,8)" stroke-width="1" opacity="0.7764705882352941" d="M 175 265 L 193 265.5 L 176 266 L 176 286 L 191.5 286 L 193 284.5 L 193.5 267 L 194 285.5 L 192.5 287 L 175 287 L 175 265 Z " /><path fill="rgb(4,5,8)" stroke="rgb(4,5,8)" stroke-width="1" opacity="0.7764705882352941" d="M 232 265 L 268 265 L 268 277.5 L 267 277.5 L 267 266 L 233 266 L 233 286 L 267 286 L 267.5 279 L 268 285.5 L 266.5 287 L 232 287 L 232 265 Z " /><path fill="rgb(4,5,8)" stroke="rgb(4,5,8)" stroke-width="1" opacity="0.7764705882352941" d="M 277 265 L 293.5 265 L 294 266.5 L 292.5 266 L 278.5 266 L 278 266.5 L 278 356 L 292.5 356 L 293.5 355 L 294 357 L 278.5 357 L 277 355.5 L 277 265 Z " /><path fill="rgb(4,5,8)" stroke="rgb(4,5,8)" stroke-width="1" opacity="0.7764705882352941" d="M 304.5 265 L 321.5 265 L 323 266.5 L 323 285.5 L 321.5 287 L 303 287 L 303 266.5 L 304.5 265 Z M 304 266 L 304 286 L 322 286 L 322 266 L 304 266 Z " /><path fill="rgb(4,5,8)" stroke="rgb(4,5,8)" stroke-width="1" opacity="0.7764705882352941" d="M 332 265 L 350 265 L 350 291.5 L 349 291.5 L 349 266 L 333 266 L 332.5 290 L 332 265 Z " /><path fill="rgb(4,5,8)" stroke="rgb(4,5,8)" stroke-width="1" opacity="0.7764705882352941" d="M 360.5 271 L 445.5 271 L 447 272.5 L 446.5 274 L 446 272 L 360.5 272 L 360.5 271 Z " /><path fill="rgb(4,5,8)" stroke="rgb(4,5,8)" stroke-width="1" opacity="0.7764705882352941" d="M 360 280 L 446 280.5 L 361.5 281 L 360.5 282 L 360 280 Z " /><path fill="rgb(4,5,8)" stroke="rgb(4,5,8)" stroke-width="1" opacity="0.7764705882352941" d="M 359.5 286 L 360 292.5 L 359 292.5 L 359.5 286 Z " /><path fill="rgb(4,5,8)" stroke="rgb(4,5,8)" stroke-width="1" opacity="0.7764705882352941" d="M 203.5 291 L 204 298.5 L 203 298.5 L 203.5 291 Z " /><path fill="rgb(4,5,8)" stroke="rgb(4,5,8)" stroke-width="1" opacity="0.7764705882352941" d="M 349.5 294 L 350 300.5 L 348.5 302 L 332 302 L 332.5 300 L 334.5 300 Q 344.1 298.9 349 301 L 349.5 294 Z " /><path fill="rgb(4,5,8)" stroke="rgb(4,5,8)" stroke-width="1" opacity="0.7764705882352941" d="M 176.5 295 L 192.5 295 L 193 296.5 L 191.5 296 L 182.5 296 L 181.5 297 L 178.5 296 L 176 297.5 L 176 315 L 190.5 315 L 190.5 316 L 176.5 316 L 175 314.5 L 175 296.5 L 176.5 295 Z " /><path fill="rgb(4,5,8)" stroke="rgb(4,5,8)" stroke-width="1" opacity="0.7764705882352941" d="M 233.5 295 L 267.5 295 L 268 298.5 L 267 298.5 L 266.5 296 L 233 296 L 233 315 L 266.5 315 L 268 314.5 L 267.5 316 L 233.5 316 L 232 314.5 L 232 296.5 L 233.5 295 Z " /><path fill="rgb(4,5,8)" stroke="rgb(4,5,8)" stroke-width="1" opacity="0.7764705882352941" d="M 304.5 295 L 321.5 295 L 323 296.5 L 323 313.5 L 321.5 315 L 322 313.5 L 322 296 L 305.5 296 L 304 297.5 L 304 313.5 L 305.5 316 L 303 315 L 303 296.5 L 304.5 295 Z " /><path fill="rgb(4,5,8)" stroke="rgb(4,5,8)" stroke-width="1" opacity="0.7764705882352941" d="M 442.5 299 L 445 300.5 L 445 312 L 434.5 312 L 433 310.5 L 433 300 L 441.5 300 L 442.5 299 Z M 434 301 L 434 311 L 444 311 L 444 301 L 434 301 Z " /><path fill="rgb(4,5,8)" stroke="rgb(4,5,8)" stroke-width="1" opacity="0.7764705882352941" d="M 52 300 L 65 300 L 65 305.5 L 64 312 L 53.5 312 L 52 310.5 L 52 300 Z M 53 301 L 53 311 L 63 311 L 64 306 L 64 301 L 53 301 Z " /><path fill="rgb(4,5,8)" stroke="rgb(4,5,8)" stroke-width="1" opacity="0.7764705882352941" d="M 80.5 300 L 91.5 300 L 93 301.5 L 92.5 303 L 90.5 301 L 80.5 301 L 80.5 300 Z " /><path fill="rgb(4,5,8)" stroke="rgb(4,5,8)" stroke-width="1" opacity="0.7764705882352941" d="M 108.5 300 L 118.5 300 L 120 301.5 L 120 310.5 L 118.5 312 L 109.5 312 L 108 310.5 L 110.5 310 L 112.5 310 L 119 310 L 119 301 L 108.5 301 L 108.5 300 Z " /><path fill="rgb(4,5,8)" stroke="rgb(4,5,8)" stroke-width="1" opacity="0.7764705882352941" d="M 379.5 300 L 389.5 300 L 390 301.5 L 388.5 301 L 379.5 301 L 379.5 300 Z " /><path fill="rgb(4,5,8)" stroke="rgb(4,5,8)" stroke-width="1" opacity="0.7764705882352941" d="M 406 300 L 416.5 300 L 418 301.5 L 418 310.5 L 416.5 312 L 406 312 L 406 300 Z M 407 301 L 407 311 L 417 311 L 417 301 L 407 301 Z " /><path fill="rgb(4,5,8)" stroke="rgb(4,5,8)" stroke-width="1" opacity="0.7764705882352941" d="M 193.5 301 L 194 311.5 L 193 311.5 L 193.5 301 Z " /><path fill="rgb(4,5,8)" stroke="rgb(4,5,8)" stroke-width="1" opacity="0.7764705882352941" d="M 359.5 301 L 360 304.5 L 359 304.5 L 359.5 301 Z " /><path fill="rgb(4,5,8)" stroke="rgb(4,5,8)" stroke-width="1" opacity="0.7764705882352941" d="M 389.5 303 L 390 312 L 380.5 312 L 379 310.5 L 386.5 310 L 389 311 L 389.5 303 Z " /><path fill="rgb(4,5,8)" stroke="rgb(4,5,8)" stroke-width="1" opacity="0.7764705882352941" d="M 91 304 L 93 304.5 L 92 311 Q 89 313 81.5 312 L 80.5 310 L 83.5 311 L 84.5 310 L 91 310 L 91 304 Z " /><path fill="rgb(4,5,8)" stroke="rgb(4,5,8)" stroke-width="1" opacity="0.7764705882352941" d="M 203.5 307 L 204 310.5 L 203 310.5 L 203.5 307 Z " /><path fill="rgb(4,5,8)" stroke="rgb(4,5,8)" stroke-width="1" opacity="0.7764705882352941" d="M 148.5 310 L 164.5 310 L 166 311.5 L 166 329.5 L 164.5 331 L 148.5 331 L 147 329.5 L 147 311.5 L 148.5 310 Z M 150 311 L 148 313 L 148 330 L 165 330 L 165 311 L 150 311 Z " /><path fill="rgb(4,5,8)" stroke="rgb(4,5,8)" stroke-width="1" opacity="0.7764705882352941" d="M 332 310 L 348.5 310 L 350 311.5 L 350 330.5 L 348.5 331 L 346.5 331 L 332.5 331 L 332 327.5 L 333 327.5 L 333.5 330 L 349 330 L 349 311 L 333 311 L 332.5 325 L 332 310 Z " /><path fill="rgb(4,5,8)" stroke="rgb(4,5,8)" stroke-width="1" opacity="0.7764705882352941" d="M 203.5 312 L 204 351.5 L 203 351.5 L 203.5 312 Z " /><path fill="rgb(4,5,8)" stroke="rgb(4,5,8)" stroke-width="1" opacity="0.7764705882352941" d="M 193.5 313 L 192.5 315 L 193.5 313 Z " /><path fill="rgb(4,5,8)" stroke="rgb(4,5,8)" stroke-width="1" opacity="0.7764705882352941" d="M 177.5 323 L 178.5 324 L 192.5 324 L 194 325.5 L 193.5 339 L 193 325 L 175 324.5 L 177.5 323 Z " /><path fill="rgb(4,5,8)" stroke="rgb(4,5,8)" stroke-width="1" opacity="0.7764705882352941" d="M 233.5 323 L 237.5 324 L 239.5 324 L 266.5 323 L 268 325.5 L 266.5 325 L 235.5 325 L 234.5 324 L 233 325.5 L 233 354.5 L 234.5 356 L 266.5 356 L 268 355.5 L 266.5 357 L 233.5 357 L 232 355.5 L 232 324.5 L 233.5 323 Z " /><path fill="rgb(4,5,8)" stroke="rgb(4,5,8)" stroke-width="1" opacity="0.7764705882352941" d="M 303 324 L 321.5 324 L 323 325.5 L 323 355.5 L 321.5 357 L 304.5 357 L 303 355.5 L 303 324 Z M 304 325 L 304 356 L 322 356 L 322 325 L 304 325 Z " /><path fill="rgb(4,5,8)" stroke="rgb(4,5,8)" stroke-width="1" opacity="0.7764705882352941" d="M 53.5 328 L 63.5 329 L 65 330.5 L 64 338.5 Q 66.3 339.8 63.5 341 L 53.5 341 L 52 339.5 L 52 329.5 L 53.5 328 Z M 53 330 L 53 340 L 63 340 L 64 332 L 63 330 L 53 330 Z " /><path fill="rgb(4,5,8)" stroke="rgb(4,5,8)" stroke-width="1" opacity="0.7764705882352941" d="M 408.5 328 L 417 329.5 L 407 330 L 407 340 L 417 340 L 417.5 332 L 418 339.5 L 416.5 341 L 406 341 L 406 329.5 L 407.5 329 L 408.5 328 Z " /><path fill="rgb(4,5,8)" stroke="rgb(4,5,8)" stroke-width="1" opacity="0.7764705882352941" d="M 80.5 329 L 92 329 L 92 341 L 80 340.5 L 91 340 L 91 331.5 L 89.5 330 L 80.5 330 L 80.5 329 Z " /><path fill="rgb(4,5,8)" stroke="rgb(4,5,8)" stroke-width="1" opacity="0.7764705882352941" d="M 108 329 L 118.5 329 L 120 330.5 L 120 341 L 108.5 341 Q 106 340 107 335.5 L 108 335.5 L 108 340 L 119 340 L 119 331.5 L 117.5 330 L 109.5 330 L 108.5 331 L 108 329 Z " /><path fill="rgb(4,5,8)" stroke="rgb(4,5,8)" stroke-width="1" opacity="0.7764705882352941" d="M 267.5 329 L 268 343.5 L 267 343.5 L 267.5 329 Z " /><path fill="rgb(4,5,8)" stroke="rgb(4,5,8)" stroke-width="1" opacity="0.7764705882352941" d="M 379 329 L 390 329 L 390 341 L 379.5 341 L 379 338.5 L 380 338.5 L 380.5 340 L 389 340 L 389 330 L 380 330 L 379.5 336 L 379 329 Z " /><path fill="rgb(4,5,8)" stroke="rgb(4,5,8)" stroke-width="1" opacity="0.7764705882352941" d="M 433 329 L 445 329 L 445 341 L 434.5 341 L 433 339.5 L 433 329 Z M 434 330 L 434 340 L 444 340 L 444 330 L 434 330 Z " /><path fill="rgb(4,5,8)" stroke="rgb(4,5,8)" stroke-width="1" opacity="0.7764705882352941" d="M 175.5 336 L 176 356 L 191.5 356 L 192.5 355 L 191.5 357 L 176.5 357 L 175 355.5 L 175.5 336 Z " /><path fill="rgb(4,5,8)" stroke="rgb(4,5,8)" stroke-width="1" opacity="0.7764705882352941" d="M 148.5 339 L 163.5 339 L 166 341.5 L 166 384.5 L 164.5 386 L 148.5 386 L 147 384.5 L 147 340.5 L 148.5 339 Z M 148 340 L 148 385 L 165 385 L 165 342 L 164 340 L 148 340 Z " /><path fill="rgb(4,5,8)" stroke="rgb(4,5,8)" stroke-width="1" opacity="0.7764705882352941" d="M 332 339 L 348.5 339 L 350 340.5 L 349.5 361 L 349 340 L 333.5 340 L 332 341.5 L 331.5 364 L 331 341.5 L 332 339 Z " /><path fill="rgb(4,5,8)" stroke="rgb(4,5,8)" stroke-width="1" opacity="0.7764705882352941" d="M 193.5 347 L 194 350.5 L 193 350.5 L 193.5 347 Z " /><path fill="rgb(4,5,8)" stroke="rgb(4,5,8)" stroke-width="1" opacity="0.7764705882352941" d="M 53.5 357 L 63.5 358 L 65 359.5 L 64 367.5 Q 66.3 368.8 63.5 370 L 53.5 370 L 52 368.5 L 52 358.5 L 53.5 357 Z M 53 359 L 53 369 L 63 369 L 64 364 L 64 359 L 53 359 Z " /><path fill="rgb(4,5,8)" stroke="rgb(4,5,8)" stroke-width="1" opacity="0.7764705882352941" d="M 80 357 Q 84.3 358.9 92 358 L 92 370 L 80.5 370 L 80.5 369 L 91 369 L 91 359 L 80.5 359 L 80 357 Z " /><path fill="rgb(4,5,8)" stroke="rgb(4,5,8)" stroke-width="1" opacity="0.7764705882352941" d="M 110.5 357 L 118.5 357 L 120 358.5 L 120 368.5 L 118.5 370 L 108 370 L 108 358 L 110.5 357 Z M 109 359 L 109 369 L 119 369 L 119 359 L 109 359 Z " /><path fill="rgb(4,5,8)" stroke="rgb(4,5,8)" stroke-width="1" opacity="0.7764705882352941" d="M 379.5 358 L 390 358 L 390 370 L 379.5 370 L 378 368.5 L 378.5 366 L 379 369 L 389 369 L 389 359 L 379.5 359 L 379 360.5 L 379.5 362 L 378 359.5 L 379.5 358 Z " /><path fill="rgb(4,5,8)" stroke="rgb(4,5,8)" stroke-width="1" opacity="0.7764705882352941" d="M 406 358 L 416.5 358 L 418 359.5 L 417.5 362 L 417 359 L 407 359 L 407 369 L 417 369 L 417 365.5 L 418 365.5 L 418 370 L 406 370 L 406 358 Z " /><path fill="rgb(4,5,8)" stroke="rgb(4,5,8)" stroke-width="1" opacity="0.7764705882352941" d="M 433 358 L 445 358 L 445 368.5 L 443.5 370 L 434.5 370 L 433 368.5 L 433 358 Z M 434 359 L 434 369 L 444 369 L 444 359 L 434 359 Z " /><path fill="rgb(4,5,8)" stroke="rgb(4,5,8)" stroke-width="1" opacity="0.7764705882352941" d="M 349.5 362 L 350 381.5 L 349 381.5 L 349.5 362 Z " /><path fill="rgb(4,5,8)" stroke="rgb(4,5,8)" stroke-width="1" opacity="0.7764705882352941" d="M 177.5 365 L 178.5 366 L 189.5 366 L 191.5 366 L 197.5 365 L 199.5 365 L 201.5 366 L 268.5 366 L 269.5 365 L 321.5 365 L 323 366.5 L 323 384.5 L 321.5 386 L 176.5 386 L 175 384.5 L 175 366 L 177.5 365 Z M 275 366 L 274 367 L 177 367 L 176 368 L 176 385 L 322 385 L 322 385 L 322 368 L 321 366 L 287 366 L 284 367 L 282 366 L 279 367 L 275 366 Z " /><path fill="rgb(4,5,8)" stroke="rgb(4,5,8)" stroke-width="1" opacity="0.7764705882352941" d="M 331.5 366 L 332 371.5 L 331 371.5 L 331.5 366 Z " /><path fill="rgb(4,5,8)" stroke="rgb(4,5,8)" stroke-width="1" opacity="0.7764705882352941" d="M 359.5 368 L 360 383.5 L 359 383.5 L 359.5 368 Z " /><path fill="rgb(4,5,8)" stroke="rgb(4,5,8)" stroke-width="1" opacity="0.7764705882352941" d="M 331.5 373 L 332 383.5 L 333.5 385 L 348.5 385 L 349 383.5 L 350 383.5 L 348.5 386 L 332.5 386 L 332 384.5 L 331 383.5 L 331.5 373 Z " /><path fill="rgb(4,5,8)" stroke="rgb(4,5,8)" stroke-width="1" opacity="0.7764705882352941" d="M 360.5 385 L 475 385.5 L 360.5 386 L 360.5 385 Z " /><path fill="rgb(4,5,8)" stroke="rgb(4,5,8)" stroke-width="1" opacity="0.7764705882352941" d="M 22.5 394 L 136.5 394 L 138 395.5 L 138 414.5 L 136.5 416 L 22.5 416 L 22 417.5 L 21 417.5 L 22.5 414 L 25.5 415 L 27.5 415 L 136.5 415 L 137 414.5 L 137 395 L 22.5 395 L 22.5 394 Z " /><path fill="rgb(4,5,8)" stroke="rgb(4,5,8)" stroke-width="1" opacity="0.7764705882352941" d="M 147 394 L 348.5 394 L 350 395.5 L 350 414.5 L 348.5 416 L 148.5 416 L 147 414.5 L 147 394 Z M 148 395 L 148 415 L 149 415 L 349 415 L 349 396 L 349 395 L 148 395 Z " /><path fill="rgb(4,5,8)" stroke="rgb(4,5,8)" stroke-width="1" opacity="0.7764705882352941" d="M 360 394 L 475 394.5 L 361.5 395 L 360.5 396 L 360 394 Z " /><path fill="rgb(4,5,8)" stroke="rgb(4,5,8)" stroke-width="1" opacity="0.7764705882352941" d="M 359.5 404 L 360 412.5 L 359 412.5 L 359.5 404 Z " /><path fill="rgb(4,5,8)" stroke="rgb(4,5,8)" stroke-width="1" opacity="0.7764705882352941" d="M 360.5 414 L 361.5 415 L 470.5 415 L 475 414 L 474.5 416 L 472.5 416 L 360.5 416 L 360.5 414 Z " /><path fill="rgb(4,5,8)" stroke="rgb(4,5,8)" stroke-width="1" opacity="0.7764705882352941" d="M 22.5 424 L 23.5 425 L 131.5 425 L 132.5 424 L 160.5 424 L 161.5 425 L 210.5 425 L 213.5 424 L 215.5 425 L 260.5 425 L 263.5 424 Q 268.3 422.7 269.5 425 L 273.5 424 L 276.5 425 L 277.5 424 L 306.5 424 L 308.5 424 L 473.5 425 L 475 424.5 L 474.5 426 L 376.5 426 L 373.5 425 L 340.5 425 L 337.5 426 L 335.5 426 L 153.5 426 L 152.5 425 L 149.5 426 L 142.5 425 L 139.5 426 L 22.5 426 L 22.5 424 Z " /><path fill="rgb(3,3,4)" stroke="rgb(3,3,4)" stroke-width="1" opacity="0.996078431372549" d="M 244 153 L 253 153 L 253 171.5 L 254 174 Q 271.7 176.6 281 188.5 L 287 199.5 Q 290 206 290 215.5 L 291.5 217 L 302.5 217 L 303 217.5 L 303 254.5 L 304.5 256 L 321.5 256 L 323 254.5 L 323 217.5 L 328.5 208 L 337 202.5 L 337 192.5 L 338.5 192 L 342.5 191 L 345 192 Q 347.1 195.3 346 203.5 L 347.5 205 L 350.5 206 L 358 213.5 L 360 223.5 L 360 225.5 L 359 231.5 L 359 233.5 L 360 242.5 L 359 244.5 L 360 245.5 L 360 261.5 Q 357.3 263.3 359 269.5 L 360 272 L 445.5 272 L 446 272.5 L 446 280 L 360.5 280 L 360 282.5 L 359 284.5 L 359 286.5 L 360 295.5 L 360 297.5 L 359 304.5 Q 361.5 306 360 311.5 L 359 313.5 L 360 314.5 L 360 347.5 L 360 349.5 L 360 358.5 L 359 359.5 Q 361.8 361.3 360 367.5 L 359 368.5 L 359 383.5 L 360 386 L 474.5 386 L 475 386.5 L 475 394 L 360.5 394 L 360 396.5 L 360 398.5 L 359 412.5 L 360 416 L 472.5 416 L 473.5 415 Q 475.8 415.8 475 419.5 L 475 421.5 L 473.5 425 L 308.5 424 L 306.5 424 L 277.5 424 L 274.5 425 L 270.5 424 L 268.5 424 Q 263.8 422.7 262.5 425 L 260.5 425 L 215.5 425 L 213.5 424 L 210.5 425 L 132.5 424 L 131.5 425 L 23.5 425 L 22 423.5 L 22 416 L 136.5 416 L 138 414.5 L 138 395.5 L 136.5 394 L 22.5 394 L 22 393.5 L 22 386 L 136.5 386 L 138 384.5 L 138 281.5 L 136.5 280 L 53.5 280 L 53 279.5 L 53 272 L 136.5 272 L 138 270.5 L 138 218.5 Q 140.1 210.2 146.5 206 L 152 202.5 Q 150 194 154.5 192 L 161 193 Q 159.4 202.3 164.5 206 L 170 209 L 173 213.5 L 175 220.5 L 175 256 L 192.5 256 L 194 254.5 L 194 217.5 L 194.5 217 L 206.5 217 L 208 214.5 L 208 212.5 L 208 206.5 L 212 195.5 L 220 184 L 233.5 176 L 242.5 174 L 244 172.5 L 244 153 Z M 245 182 L 237 184 L 229 189 Q 217 197 217 216 L 220 217 L 279 217 L 280 216 Q 281 201 274 195 Q 269 188 261 184 L 245 182 Z M 157 212 L 153 213 Q 144 217 147 233 L 149 234 L 166 234 L 166 219 L 165 217 Q 162 213 157 212 Z M 341 212 L 336 214 Q 330 216 332 226 L 332 230 L 333 232 L 350 232 L 350 220 L 348 216 Q 347 211 341 212 Z M 203 225 L 203 256 L 222 256 L 223 255 L 223 229 L 222 227 L 221 225 L 203 225 Z M 234 225 L 232 227 L 232 255 L 234 256 L 267 256 L 268 255 L 268 227 L 267 225 L 255 225 L 253 227 L 253 243 L 244 243 L 244 226 L 242 225 L 239 226 L 234 225 Z M 279 225 L 277 227 L 277 255 L 279 256 L 294 256 L 294 227 L 293 225 L 279 225 Z M 334 241 L 332 243 L 332 256 L 350 256 L 350 243 L 349 241 L 347 242 L 346 241 L 334 241 Z M 149 243 L 147 245 L 147 255 L 149 256 L 165 256 L 166 255 L 166 245 L 165 243 L 149 243 Z M 205 264 L 203 266 L 203 357 L 204 357 L 222 357 L 223 356 L 223 267 L 222 265 L 207 265 L 205 264 Z M 147 265 L 147 301 L 149 302 L 165 302 L 166 301 L 166 267 L 165 265 L 147 265 Z M 175 265 L 175 287 L 193 287 L 194 286 L 194 268 L 193 267 L 193 265 L 175 265 Z M 232 265 L 232 287 L 267 287 L 268 286 L 268 265 L 232 265 Z M 277 265 L 277 356 L 279 357 L 294 357 L 294 266 L 294 265 L 277 265 Z M 305 265 L 303 267 L 303 287 L 322 287 L 323 286 L 323 267 L 322 265 L 305 265 Z M 332 265 L 332 302 L 349 302 L 350 301 L 350 265 L 332 265 Z M 177 295 L 175 297 L 175 315 L 177 316 L 191 316 L 193 315 L 194 312 Q 196 303 193 300 L 193 298 L 193 295 L 177 295 Z M 234 295 L 232 297 L 232 315 L 234 316 L 268 316 L 268 295 L 234 295 Z M 305 295 L 303 297 L 303 315 L 306 316 L 307 315 L 322 315 L 323 314 L 323 297 L 322 295 L 305 295 Z M 149 310 L 147 312 L 147 330 L 149 331 L 165 331 L 166 330 L 166 312 L 165 310 L 149 310 Z M 332 310 L 332 331 L 347 331 L 349 331 L 350 331 L 350 312 L 349 310 L 332 310 Z M 178 323 L 177 324 L 175 325 L 175 356 L 177 357 L 192 357 L 193 355 L 193 353 L 194 351 L 193 347 L 194 345 L 193 340 L 194 339 L 194 326 L 193 324 L 179 324 L 178 323 Z M 234 323 L 232 325 L 232 356 L 234 357 L 267 357 L 268 356 L 268 325 L 267 323 L 240 324 L 238 324 L 234 323 Z M 303 324 L 303 356 L 305 357 L 322 357 L 323 356 L 323 326 L 322 324 L 303 324 Z M 149 339 L 147 341 L 147 385 L 149 386 L 165 386 L 166 385 L 166 342 L 164 339 L 149 339 Z M 332 339 L 331 342 L 331 364 L 332 365 L 331 372 L 331 374 L 331 384 L 332 385 L 333 386 L 349 386 L 350 385 L 350 341 L 349 339 L 332 339 Z M 178 365 L 175 366 L 175 385 L 177 386 L 322 386 L 323 385 L 323 367 L 322 365 L 270 365 L 269 366 L 202 366 L 200 365 L 198 365 L 192 366 L 190 366 L 179 366 L 178 365 Z M 147 394 L 147 415 L 149 416 L 349 416 L 350 415 L 350 396 L 349 394 L 147 394 Z " /><path fill="rgb(3,3,4)" stroke="rgb(3,3,4)" stroke-width="1" opacity="0.996078431372549" d="M 53 301 L 64 301 L 64 305.5 L 63 311 L 53 311 L 53 301 Z " /><path fill="rgb(3,3,4)" stroke="rgb(3,3,4)" stroke-width="1" opacity="0.996078431372549" d="M 80 301 L 90.5 301 L 92 302.5 L 91 310 L 84.5 310 L 83.5 311 L 80 310 L 80 301 Z " /><path fill="rgb(3,3,4)" stroke="rgb(3,3,4)" stroke-width="1" opacity="0.996078431372549" d="M 108 301 L 119 301 L 119 310 L 112.5 310 L 111.5 311 L 108 310 L 108 301 Z " /><path fill="rgb(3,3,4)" stroke="rgb(3,3,4)" stroke-width="1" opacity="0.996078431372549" d="M 379 301 L 388.5 301 L 390 302.5 L 389 303.5 L 389 311 Q 385.9 309 379 310 L 380 306.5 L 379 301 Z " /><path fill="rgb(3,3,4)" stroke="rgb(3,3,4)" stroke-width="1" opacity="0.996078431372549" d="M 407 301 L 417 301 L 417 311 L 407 311 L 407 301 Z " /><path fill="rgb(3,3,4)" stroke="rgb(3,3,4)" stroke-width="1" opacity="0.996078431372549" d="M 434 301 L 444 301 L 444 311 L 434 311 L 434 301 Z " /><path fill="rgb(3,3,4)" stroke="rgb(3,3,4)" stroke-width="1" opacity="0.996078431372549" d="M 53 330 L 62.5 330 L 64 331.5 L 63 340 L 53 340 L 53 330 Z " /><path fill="rgb(3,3,4)" stroke="rgb(3,3,4)" stroke-width="1" opacity="0.996078431372549" d="M 80 330 L 89.5 330 L 91 331.5 L 91 340 L 80 340 L 80 330 Z " /><path fill="rgb(3,3,4)" stroke="rgb(3,3,4)" stroke-width="1" opacity="0.996078431372549" d="M 109.5 330 L 117.5 330 L 119 331.5 L 119 340 L 108 340 L 108 331.5 L 109.5 330 Z " /><path fill="rgb(3,3,4)" stroke="rgb(3,3,4)" stroke-width="1" opacity="0.996078431372549" d="M 380 330 L 389 330 L 389 340 L 380.5 340 L 380 338.5 L 379 336.5 L 380 330 Z " /><path fill="rgb(3,3,4)" stroke="rgb(3,3,4)" stroke-width="1" opacity="0.996078431372549" d="M 407 330 L 417 330 L 417 340 L 407 340 L 407 330 Z " /><path fill="rgb(3,3,4)" stroke="rgb(3,3,4)" stroke-width="1" opacity="0.996078431372549" d="M 434 330 L 444 330 L 444 340 L 434 340 L 434 330 Z " /><path fill="rgb(3,3,4)" stroke="rgb(3,3,4)" stroke-width="1" opacity="0.996078431372549" d="M 53 359 L 64 359 L 64 363.5 L 63 369 L 53 369 L 53 359 Z " /><path fill="rgb(3,3,4)" stroke="rgb(3,3,4)" stroke-width="1" opacity="0.996078431372549" d="M 80 359 L 91 359 L 91 369 L 80 369 L 80 359 Z " /><path fill="rgb(3,3,4)" stroke="rgb(3,3,4)" stroke-width="1" opacity="0.996078431372549" d="M 109 359 L 119 359 L 119 369 L 109 369 L 109 359 Z " /><path fill="rgb(3,3,4)" stroke="rgb(3,3,4)" stroke-width="1" opacity="0.996078431372549" d="M 379 359 L 389 359 L 389 369 L 379 369 L 379 362.5 L 379 360.5 L 379 359 Z " /><path fill="rgb(3,3,4)" stroke="rgb(3,3,4)" stroke-width="1" opacity="0.996078431372549" d="M 407 359 L 417 359 L 417 369 L 407 369 L 407 359 Z " /><path fill="rgb(3,3,4)" stroke="rgb(3,3,4)" stroke-width="1" opacity="0.996078431372549" d="M 434 359 L 444 359 L 444 369 L 434 369 L 434 359 Z " /></svg>