<?xml version="1.0" standalone="no"?>
<!DOCTYPE svg PUBLIC "-//W3C//DTD SVG 20010904//EN"
 "http://www.w3.org/TR/2001/REC-SVG-20010904/DTD/svg10.dtd">
<svg version="1.0" xmlns="http://www.w3.org/2000/svg"
 width="500.000000pt" height="500.000000pt" viewBox="0 0 500.000000 500.000000"
 preserveAspectRatio="xMidYMid meet">

<g transform="translate(0.000000,500.000000) scale(0.100000,-0.100000)"
fill="#000000" stroke="none">
<path d="M1808 4200 l-3 -125 -185 -6 c-102 -3 -186 -6 -187 -7 -2 -1 -3 -121
-3 -267 l0 -264 -121 -3 -120 -3 -2 -185 -2 -185 -130 -5 -130 -5 0 -40 0 -40
55 -5 55 -5 0 -1105 0 -1105 -318 0 -317 0 0 -47 0 -48 2045 0 2045 0 0 29 c0
16 3 36 6 45 6 14 -26 16 -315 16 l-321 0 0 1110 0 1110 33 0 c64 0 77 9 77
51 l0 38 -132 3 -133 3 -5 185 -5 185 -117 3 -118 3 -2 267 -3 267 -178 0
c-147 0 -179 3 -187 15 -5 8 -10 66 -10 128 l0 112 -552 2 c-304 2 -590 3
-635 3 l-82 0 -3 -125z m1187 -45 l0 -80 -550 0 -550 0 -3 60 c-2 32 -1 70 3
82 l5 23 548 -2 547 -3 0 -80z m373 -402 l2 -223 -342 -2 c-359 -3 -1501 3
-1506 7 -2 2 -5 384 -3 433 1 10 189 12 924 10 l922 -3 3 -222z m247 -365 c3
-29 5 -93 3 -143 l-3 -90 -1169 0 -1169 0 -2 135 c-1 74 0 138 2 143 2 4 528
7 1168 7 l1164 0 6 -52z m150 -403 l0 -70 -1322 -3 -1323 -2 0 75 0 75 1323
-2 1322 -3 0 -70z m-2367 -268 l3 -98 92 3 92 3 3 98 3 98 107 -3 107 -3 0
-210 0 -210 -340 0 -340 0 -3 200 c-1 110 0 205 3 213 3 10 35 12 137 10 l133
-3 3 -98z m1597 -112 l0 -210 -93 -3 c-104 -3 -90 -12 -127 91 -26 72 -121
170 -193 198 -74 29 -186 31 -259 6 -91 -32 -189 -136 -224 -240 l-18 -52 -93
0 -93 0 -3 190 c-1 105 0 200 3 213 l5 22 548 -2 547 -3 0 -210z m317 123 l3
-93 98 -3 97 -3 0 96 0 95 125 0 c121 0 125 -1 130 -22 3 -13 4 -108 3 -213
l-3 -190 -337 -3 c-186 -1 -338 -1 -339 0 -5 15 -9 387 -5 404 6 23 9 24 116
24 l109 0 3 -92z m-771 -123 c52 -19 110 -72 147 -135 l27 -45 0 -790 0 -790
-270 0 -270 0 0 780 0 780 26 55 c30 65 78 115 134 141 50 23 146 25 206 4z
m-742 -317 c11 -30 5 -278 -6 -289 -5 -5 -154 -8 -339 -7 l-329 3 -3 145 c-1
79 0 150 2 157 4 10 74 13 336 13 l330 0 9 -22z m276 -713 l0 -730 -84 -3
c-55 -2 -87 1 -91 8 -9 15 -13 1436 -5 1450 4 7 41 10 93 8 l87 -3 0 -730z
m920 713 c2 -13 4 -342 2 -733 l-2 -710 -92 -3 -93 -3 0 729 c0 401 3 732 7
735 3 4 44 7 89 7 79 0 84 -1 89 -22z m765 7 c14 -16 11 -270 -3 -292 -6 -10
-85 -13 -338 -13 l-329 0 0 153 c0 85 3 157 7 160 3 4 151 7 328 7 274 0 324
-2 335 -15z m-1963 -400 c13 -4 19 -513 7 -617 l-7 -58 -338 0 -339 0 0 338
c0 186 2 341 4 343 6 5 656 0 673 -6z m1964 -7 c9 -13 12 -629 3 -651 -6 -15
-36 -17 -340 -17 l-334 0 0 338 c0 186 2 341 4 343 10 9 661 -3 667 -13z
m-1965 -759 c3 -6 8 -69 11 -139 3 -100 1 -130 -10 -139 -11 -8 -105 -11 -343
-9 l-329 3 -3 134 c-1 74 0 141 2 148 7 17 661 19 672 2z m1972 -133 c2 -105
-1 -141 -10 -148 -7 -4 -160 -8 -340 -8 l-328 0 0 143 c0 79 3 147 7 150 4 4
155 6 337 5 l331 -3 3 -139z"/>
<path d="M1898 3843 c-2 -4 -2 -50 0 -101 l3 -93 91 3 90 3 2 95 1 95 -92 3
c-50 1 -93 -1 -95 -5z"/>
<path d="M2802 3753 l3 -98 98 -3 97 -3 0 101 0 100 -100 0 -101 0 3 -97z"/>
<path d="M2219 3793 c-18 -4 -21 -73 -4 -85 6 -4 117 -8 248 -8 l237 0 0 45 0
45 -177 1 c-98 0 -203 1 -233 3 -30 1 -62 0 -71 -1z"/>
</g>
</svg>
