<svg width="500" height="500" version="1.1" xmlns="http://www.w3.org/2000/svg" desc="Created with imagetracer.js version 1.2.6" ><path fill="rgb(0,0,0)" stroke="rgb(0,0,0)" stroke-width="1" opacity="0" d="M 0 0 L 500 0 L 500 500 L 0 500 L 0 0 Z M 146 75 L 140 79 L 141 87 L 131 92 Q 123 98 120 108 L 120 421 L 120 421 L 46 421 L 45 424 L 46 426 L 46 433 L 47 433 L 453 433 L 454 432 L 454 423 L 453 421 L 381 421 L 381 284 Q 379 282 380 277 L 380 275 L 381 270 L 380 267 Q 379 262 381 261 L 381 246 L 380 245 L 381 233 L 381 231 L 381 192 L 380 191 Q 379 186 381 185 L 381 128 L 380 127 L 380 107 L 375 98 Q 370 90 360 88 L 361 79 L 356 75 L 350 76 L 348 78 L 348 88 L 339 92 L 331 101 L 329 106 L 329 150 L 327 151 L 323 150 Q 320 149 321 144 L 321 142 L 319 138 L 309 138 L 309 148 L 299 152 L 291 161 L 289 166 L 289 227 L 214 227 L 213 226 L 213 224 L 213 174 L 209 160 Q 204 151 194 149 L 192 148 L 192 140 L 191 138 L 181 138 Q 179 141 180 149 L 174 151 L 172 152 L 173 126 L 172 123 L 173 121 L 172 120 L 172 107 L 170 101 Q 163 92 153 87 L 153 86 Q 154 79 152 77 L 146 75 Z " /><path fill="rgb(0,0,0)" stroke="rgb(0,0,0)" stroke-width="1" opacity="0" d="M 142.5 99 L 150.5 99 L 158 105.5 L 161 111.5 L 132 112 L 132 109.5 L 139.5 101 L 142.5 99 Z " /><path fill="rgb(0,0,0)" stroke="rgb(0,0,0)" stroke-width="1" opacity="0" d="M 350.5 99 Q 359.2 97.3 362 101.5 L 364.5 105 Q 366.8 104.3 366 106.5 Q 369 107.8 368 112 L 340.5 112 L 340 110.5 L 345.5 103 L 348 101.5 Q 347.3 99.3 349.5 100 L 350.5 99 Z " /><path fill="rgb(0,0,0)" stroke="rgb(0,0,0)" stroke-width="1" opacity="0" d="M 132 124 L 160 124 L 160 187 L 132.5 187 L 132 183.5 L 133 182.5 L 133 149.5 L 133 147.5 L 132 124 Z " /><path fill="rgb(0,0,0)" stroke="rgb(0,0,0)" stroke-width="1" opacity="0" d="M 341 124 L 368 124 L 368 187 L 340 187 L 340 135.5 L 341 134.5 L 341 124 Z " /><path fill="rgb(0,0,0)" stroke="rgb(0,0,0)" stroke-width="1" opacity="0" d="M 183.5 159 L 188.5 159 L 197 164 L 200 169.5 L 201 177 L 172.5 177 Q 171.4 176.9 172 171.5 Q 173.8 164.3 179.5 161 L 183.5 159 Z " /><path fill="rgb(0,0,0)" stroke="rgb(0,0,0)" stroke-width="1" opacity="0" d="M 312.5 159 L 319.5 160 L 327 166.5 Q 329.9 170.4 329 177 L 300.5 177 Q 299.4 176.9 300 171.5 L 305.5 163 L 312.5 159 Z " /><path fill="rgb(0,0,0)" stroke="rgb(0,0,0)" stroke-width="1" opacity="0" d="M 172 190 L 200 190 L 200 227 L 172 227 L 172 190 Z " /><path fill="rgb(0,0,0)" stroke="rgb(0,0,0)" stroke-width="1" opacity="0" d="M 300 190 L 329 190 L 329 226.5 L 326.5 227 L 301 227 L 301 212.5 L 300 211.5 L 300 190 Z " /><path fill="rgb(0,0,0)" stroke="rgb(0,0,0)" stroke-width="1" opacity="0" d="M 133.5 198 Q 139 196.5 140.5 199 L 145.5 198 L 149.5 199 L 150.5 198 L 158.5 198 L 160 199.5 L 160 217 L 132 216.5 L 133 215.5 L 133 203.5 L 132 199.5 L 133.5 198 Z " /><path fill="rgb(0,0,0)" stroke="rgb(0,0,0)" stroke-width="1" opacity="0" d="M 340 199 L 368 199 L 368 217 L 340 216.5 L 341 214.5 L 340 213.5 L 340 199 Z " /><path fill="rgb(0,0,0)" stroke="rgb(0,0,0)" stroke-width="1" opacity="0" d="M 132 228 L 160 228 L 160 254 L 132.5 254 L 132 251.5 L 133 250.5 L 133 233.5 L 132 228 Z " /><path fill="rgb(0,0,0)" stroke="rgb(0,0,0)" stroke-width="1" opacity="0" d="M 340 229 L 368 229 L 368 254 L 340 254 L 340 229 Z " /><path fill="rgb(0,0,0)" stroke="rgb(0,0,0)" stroke-width="1" opacity="0" d="M 172 238 L 184 238 L 184 254 L 172 254 L 172 248.5 L 172 246.5 L 172 238 Z " /><path fill="rgb(0,0,0)" stroke="rgb(0,0,0)" stroke-width="1" opacity="0" d="M 196 238 L 208 238 L 208 254 L 196 254 L 196 238 Z " /><path fill="rgb(0,0,0)" stroke="rgb(0,0,0)" stroke-width="1" opacity="0" d="M 219.5 238 L 231 238 L 231 249.5 L 232 254 L 220 254 L 220 239.5 L 219.5 238 Z " /><path fill="rgb(0,0,0)" stroke="rgb(0,0,0)" stroke-width="1" opacity="0" d="M 243 238 L 255 238 L 255 245.5 L 256 246.5 L 256 254 L 244 254 L 244 242.5 L 243 238 Z " /><path fill="rgb(0,0,0)" stroke="rgb(0,0,0)" stroke-width="1" opacity="0" d="M 267 238 L 278.5 238 L 279 239.5 L 278 244.5 L 279 245.5 L 279 254 L 267 254 L 267 238 Z " /><path fill="rgb(0,0,0)" stroke="rgb(0,0,0)" stroke-width="1" opacity="0" d="M 291 238 L 302 238 L 302 254 L 291 254 L 291 238 Z " /><path fill="rgb(0,0,0)" stroke="rgb(0,0,0)" stroke-width="1" opacity="0" d="M 314.5 238 L 329 238 L 329 254 L 315 254 L 315 239.5 L 314.5 238 Z " /><path fill="rgb(0,0,0)" stroke="rgb(0,0,0)" stroke-width="1" opacity="0" d="M 132.5 265 L 133.5 266 L 156.5 266 L 160 265 L 160 280 L 151.5 280 Q 150 277.5 144.5 279 L 143.5 280 L 132 280 L 132.5 265 Z " /><path fill="rgb(0,0,0)" stroke="rgb(0,0,0)" stroke-width="1" opacity="0" d="M 183.5 265 L 184 304 L 172.5 304 L 172 300.5 L 172 298.5 L 172 267.5 L 173.5 266 L 182.5 266 L 183.5 265 Z " /><path fill="rgb(0,0,0)" stroke="rgb(0,0,0)" stroke-width="1" opacity="0" d="M 200.5 265 L 207.5 265 L 208 265.5 L 208 304 L 196.5 304 L 196 303.5 L 196 266 L 200.5 265 Z " /><path fill="rgb(0,0,0)" stroke="rgb(0,0,0)" stroke-width="1" opacity="0" d="M 219 265 L 230.5 265 L 231 266.5 L 231 268.5 L 232 282.5 L 231 283.5 L 231 304 L 220.5 304 L 220 303.5 L 220 269.5 L 219 265 Z " /><path fill="rgb(0,0,0)" stroke="rgb(0,0,0)" stroke-width="1" opacity="0" d="M 244 265 L 254.5 265 L 255 266.5 L 255 268.5 L 255 284.5 L 256 286.5 L 256 288.5 Q 257.4 297.4 255 302.5 L 255.5 304 L 244.5 304 L 244 303.5 L 244 265 Z " /><path fill="rgb(0,0,0)" stroke="rgb(0,0,0)" stroke-width="1" opacity="0" d="M 267 265 L 278.5 265 L 279 265.5 L 279 304 L 267 303.5 Q 269.5 302 268 296.5 L 267 295.5 L 267 265 Z " /><path fill="rgb(0,0,0)" stroke="rgb(0,0,0)" stroke-width="1" opacity="0" d="M 291 265 L 297.5 265 L 298.5 266 L 302 265 L 302 303.5 L 301.5 304 L 291 304 L 291 265 Z " /><path fill="rgb(0,0,0)" stroke="rgb(0,0,0)" stroke-width="1" opacity="0" d="M 315 265 L 323.5 266 L 329 265 L 329 304 L 315 304 L 315 265 Z " /><path fill="rgb(0,0,0)" stroke="rgb(0,0,0)" stroke-width="1" opacity="0" d="M 365.5 265 Q 367.8 264.3 367 266.5 L 368 267.5 L 368 279 L 363.5 280 L 362.5 279 L 348.5 279 L 347.5 280 L 340 280 L 340 266 L 364.5 266 L 365.5 265 Z " /><path fill="rgb(0,0,0)" stroke="rgb(0,0,0)" stroke-width="1" opacity="0" d="M 132.5 291 L 147.5 292 L 149.5 292 L 152.5 291 L 155.5 292 L 158.5 291 L 160 292.5 L 160 304 L 132 304 L 132 293.5 L 132.5 291 Z " /><path fill="rgb(0,0,0)" stroke="rgb(0,0,0)" stroke-width="1" opacity="0" d="M 341 291 L 347.5 292 L 365.5 292 L 367 291.5 L 368 293.5 L 368 304 L 340.5 304 L 340 302.5 L 341 299.5 L 340 296.5 L 340 294.5 L 341 291 Z " /><path fill="rgb(0,0,0)" stroke="rgb(0,0,0)" stroke-width="1" opacity="0" d="M 132 316 L 159.5 316 L 160 316.5 L 160 421 L 133 421 L 133 375.5 L 133 373.5 L 133 359.5 L 132 358.5 L 133 356.5 L 133 352.5 L 133 326.5 L 132 325.5 L 132 316 Z " /><path fill="rgb(0,0,0)" stroke="rgb(0,0,0)" stroke-width="1" opacity="0" d="M 172 316 L 329 316 L 329 421 L 301.5 421 L 301 419.5 L 300 418.5 L 300 399.5 L 301 398.5 L 301 380.5 L 300 379.5 L 300 371.5 L 294 355.5 L 280.5 340 Q 272.6 332.9 260.5 330 L 242.5 329 Q 229.3 331.3 219.5 337 L 210 345.5 L 204 353.5 L 197 370.5 L 197 418.5 L 194.5 421 L 173 421 L 173 361.5 L 173 359.5 Q 174.5 354 172 352.5 L 172 350.5 L 172 316 Z M 191 329 L 188 330 L 185 333 L 185 344 L 194 345 L 196 345 L 198 344 L 199 344 L 199 333 Q 197 328 191 329 Z M 304 329 Q 299 333 301 343 Q 304 346 312 345 L 316 339 L 314 330 Q 311 328 304 329 Z " /><path fill="rgb(0,0,0)" stroke="rgb(0,0,0)" stroke-width="1" opacity="0" d="M 340 316 L 366.5 316 L 368 317.5 L 368 420.5 L 367.5 421 L 341 421 L 341 335.5 L 340 331.5 L 340 329.5 L 341 326.5 L 340 325.5 L 340 316 Z " /><path fill="rgb(0,0,0)" stroke="rgb(0,0,0)" stroke-width="1" opacity="0" d="M 245.5 341 L 262.5 343 Q 273.2 347.8 280 356.5 L 288 373.5 L 288 417.5 L 289 420.5 L 286.5 421 L 209 421 L 209 374.5 Q 212.4 357.4 224.5 349 L 234.5 343 L 245.5 341 Z " /><path fill="rgb(196,200,205)" stroke="rgb(196,200,205)" stroke-width="1" opacity="0.20392156862745098" d="M 145.5 75 L 152 77 Q 153.8 79.4 153 85.5 L 152.5 87 Q 163.5 91.5 170 100.5 L 172 106.5 L 172 119.5 L 173 120.5 L 172 122.5 L 173 125.5 L 172 151.5 L 173.5 151 L 180 149 Q 178.9 141.4 181 138 L 190.5 138 L 192 139.5 L 192 147.5 L 193.5 149 Q 204.2 151.3 209 159.5 L 213 173.5 L 213 223.5 L 213 225.5 L 213.5 227 L 289 227 L 289 165.5 L 291 160.5 L 298.5 152 L 309 148 L 309.5 142 L 310 149 Q 300.5 150.8 295 157.5 L 290 167.5 L 290 228 L 211 228 L 211 168.5 Q 208.2 159.3 201.5 154 L 191 148.5 Q 192.7 140.8 188.5 139 L 186.5 140 L 184.5 139 L 182 140 L 182 148.5 L 180.5 150 L 171 154 L 171 107.5 Q 168.2 98.8 161.5 94 L 151 87.5 Q 153 79 148.5 77 L 142 78 L 142 88.5 L 139.5 89 Q 130.1 92.6 125 100.5 L 122 106.5 L 122 420.5 L 120.5 422 L 47.5 422 L 46 423.5 L 47 424.5 L 47 431 L 272.5 431 Q 274.2 433.8 280.5 432 L 281.5 431 L 439.5 431 Q 441.2 433.8 447.5 432 L 452 431 L 452 423.5 L 450.5 423 L 448.5 423 L 379 422 L 379 116.5 L 378 112.5 L 379 110.5 Q 376.8 98.7 368.5 93 L 360.5 90 L 358 87.5 L 359 79.5 Q 357.3 76.2 351.5 77 L 349 80.5 Q 351.5 82 350 87.5 L 335 97.5 L 330 107.5 L 330 151.5 L 328.5 154 L 319 148.5 Q 320.8 141.7 317.5 140 L 311.5 139 L 309 140.5 L 309.5 138 L 318.5 138 L 321 141.5 L 321 143.5 Q 319.8 148.8 322.5 150 L 326.5 151 L 329 150 L 329 105.5 L 331 100.5 L 338.5 92 L 348 88 L 348 77.5 L 349.5 76 L 355.5 75 L 361 78.5 L 360 88 Q 369.9 89.7 375 97.5 L 380 106.5 L 380 126.5 L 381 127.5 L 381 184.5 Q 378.8 185.8 380 190.5 L 381 191.5 L 381 230.5 L 381 232.5 L 380 244.5 L 381 245.5 L 381 260.5 Q 378.8 261.8 380 266.5 L 381 269.5 L 380 274.5 L 380 276.5 Q 378.5 282 381 283.5 L 381 421 L 452.5 421 L 454 422.5 L 454 431.5 L 452.5 433 L 46.5 433 L 46 432.5 L 46 425.5 L 45 423.5 L 46 421 L 119.5 421 L 120 420.5 L 120 107.5 Q 123.1 97.6 130.5 92 L 141 87 L 140 78.5 L 145.5 75 Z " /><path fill="rgb(196,200,205)" stroke="rgb(196,200,205)" stroke-width="1" opacity="0.20392156862745098" d="M 144.5 97 Q 156.1 97.4 160 105.5 L 162 113 L 130.5 113 L 130 110.5 Q 133 103 139.5 99 L 144.5 97 Z M 143 99 L 140 101 L 132 110 L 132 112 L 161 112 L 158 106 L 151 99 L 143 99 Z " /><path fill="rgb(196,200,205)" stroke="rgb(196,200,205)" stroke-width="1" opacity="0.20392156862745098" d="M 352.5 97 Q 363.3 97.3 367 104.5 L 370 113 L 338.5 113 L 338 110.5 Q 341 103 347.5 99 L 352.5 97 Z M 351 99 L 350 100 Q 347 99 348 102 L 346 103 L 340 111 L 341 112 L 368 112 Q 369 108 366 107 Q 367 104 365 105 L 362 102 Q 359 97 351 99 Z " /><path fill="rgb(196,200,205)" stroke="rgb(196,200,205)" stroke-width="1" opacity="0.20392156862745098" d="M 132.5 122 Q 134 124.5 139.5 123 L 141.5 123 L 160.5 122 L 162 123.5 L 162 187.5 L 160.5 189 L 132.5 189 L 131 187.5 L 131 123.5 L 132.5 122 Z M 132 124 L 133 148 L 133 150 L 133 183 L 132 184 L 133 187 L 160 187 L 160 124 L 132 124 Z " /><path fill="rgb(196,200,205)" stroke="rgb(196,200,205)" stroke-width="1" opacity="0.20392156862745098" d="M 340.5 122 L 342.5 123 L 356.5 123 L 357.5 122 L 367.5 122 L 370 123 L 370 187.5 L 368.5 189 Q 360.3 190.7 356.5 188 L 354.5 189 L 352.5 188 L 348.5 189 L 347.5 188 L 339.5 188 L 338 186.5 L 339 182.5 L 339 123.5 L 340.5 122 Z M 341 124 L 341 135 L 340 136 L 340 187 L 368 187 L 368 124 L 341 124 Z " /><path fill="rgb(196,200,205)" stroke="rgb(196,200,205)" stroke-width="1" opacity="0.20392156862745098" d="M 181.5 158 L 189.5 158 L 198 163.5 Q 203 167.5 202 177.5 L 200.5 179 L 171 179 L 171 168.5 L 179.5 159 L 181.5 158 Z M 184 159 L 180 161 Q 174 164 172 172 Q 171 177 173 177 L 201 177 L 200 170 L 197 164 L 189 159 L 184 159 Z " /><path fill="rgb(196,200,205)" stroke="rgb(196,200,205)" stroke-width="1" opacity="0.20392156862745098" d="M 309.5 158 L 318.5 158 L 328 165.5 Q 331 169.5 330 177.5 L 328.5 179 L 300.5 179 L 298 178 L 299 168.5 L 306.5 160 L 309.5 158 Z M 313 159 L 306 163 L 300 172 Q 299 177 301 177 L 329 177 Q 330 170 327 167 L 320 160 L 313 159 Z " /><path fill="rgb(196,200,205)" stroke="rgb(196,200,205)" stroke-width="1" opacity="0.20392156862745098" d="M 171 188 L 200.5 188 Q 201.8 188.3 201 194.5 L 202 195.5 L 202 226.5 L 200.5 228 L 171 228 L 171 188 Z M 172 190 L 172 227 L 200 227 L 200 190 L 172 190 Z " /><path fill="rgb(196,200,205)" stroke="rgb(196,200,205)" stroke-width="1" opacity="0.20392156862745098" d="M 299.5 188 L 330 188 L 330 228 L 299 228 L 299 191.5 L 298 189.5 L 299.5 188 Z M 300 190 L 300 212 L 301 213 L 301 227 L 327 227 L 329 227 L 329 190 L 300 190 Z " /><path fill="rgb(196,200,205)" stroke="rgb(196,200,205)" stroke-width="1" opacity="0.20392156862745098" d="M 132.5 197 L 160.5 197 L 162 198.5 L 162 216.5 L 160.5 218 L 131 218 L 131 198.5 L 132.5 197 Z M 134 198 L 132 200 L 133 204 L 133 216 L 132 217 L 160 217 L 160 200 L 159 198 L 151 198 L 150 199 L 146 198 L 141 199 Q 139 197 134 198 Z " /><path fill="rgb(196,200,205)" stroke="rgb(196,200,205)" stroke-width="1" opacity="0.20392156862745098" d="M 339 197 L 367.5 197 L 370 198 L 370 216.5 L 368.5 218 L 339 218 L 339 197 Z M 340 199 L 340 214 L 341 215 L 340 217 L 368 217 L 368 199 L 340 199 Z " /><path fill="rgb(196,200,205)" stroke="rgb(196,200,205)" stroke-width="1" opacity="0.20392156862745098" d="M 132.5 226 Q 134 228.5 139.5 227 L 140.5 226 L 160.5 226 L 162 227.5 L 162 255 L 159.5 256 L 158.5 255 L 131 255 L 131 227.5 L 132.5 226 Z M 132 228 L 133 234 L 133 251 L 132 252 L 133 254 L 160 254 L 160 228 L 132 228 Z " /><path fill="rgb(196,200,205)" stroke="rgb(196,200,205)" stroke-width="1" opacity="0.20392156862745098" d="M 339.5 227 L 370 227 L 370 255 L 346.5 255 L 343.5 256 L 340.5 255 L 339 254.5 L 339 241.5 L 338 236.5 L 338 228.5 L 339.5 227 Z M 340 229 L 340 254 L 368 254 L 368 229 L 340 229 Z " /><path fill="rgb(196,200,205)" stroke="rgb(196,200,205)" stroke-width="1" opacity="0.20392156862745098" d="M 171 237 L 185 237 L 185 255 L 171 255 L 171 237 Z M 172 238 L 172 247 L 172 249 L 172 254 L 184 254 L 184 238 L 172 238 Z " /><path fill="rgb(196,200,205)" stroke="rgb(196,200,205)" stroke-width="1" opacity="0.20392156862745098" d="M 195.5 237 L 209 237 L 209 255 L 195.5 255 L 194 253.5 L 195 249.5 L 194 248.5 L 194 238.5 L 195.5 237 Z M 196 238 L 196 254 L 208 254 L 208 238 L 196 238 Z " /><path fill="rgb(196,200,205)" stroke="rgb(196,200,205)" stroke-width="1" opacity="0.20392156862745098" d="M 218 237 L 233 237 L 233 255 L 219.5 255 L 218 253.5 L 218 237 Z M 220 238 L 220 240 L 220 254 L 232 254 L 231 250 L 231 238 L 220 238 Z " /><path fill="rgb(196,200,205)" stroke="rgb(196,200,205)" stroke-width="1" opacity="0.20392156862745098" d="M 242 237 L 256 237 L 256 245.5 L 255 245.5 L 255 238 L 243 238 Q 245 244.1 244 254 L 256 254 L 256 247.5 L 257 247.5 Q 258.5 253.5 255.5 255 L 242 255 L 242 237 Z " /><path fill="rgb(196,200,205)" stroke="rgb(196,200,205)" stroke-width="1" opacity="0.20392156862745098" d="M 266 237 L 280 237 L 280 255 L 266 255 L 266 237 Z M 267 238 L 267 254 L 279 254 L 279 246 L 278 245 L 279 240 L 279 238 L 267 238 Z " /><path fill="rgb(196,200,205)" stroke="rgb(196,200,205)" stroke-width="1" opacity="0.20392156862745098" d="M 290.5 237 L 304 237 L 304 255 L 290 255 L 290 241.5 L 289 238.5 L 290.5 237 Z M 291 238 L 291 254 L 302 254 L 302 238 L 291 238 Z " /><path fill="rgb(196,200,205)" stroke="rgb(196,200,205)" stroke-width="1" opacity="0.20392156862745098" d="M 313 237 L 330 237 L 330 255 L 313 255 L 313 237 Z M 315 238 L 315 240 L 315 254 L 329 254 L 329 238 L 315 238 Z " /><path fill="rgb(196,200,205)" stroke="rgb(196,200,205)" stroke-width="1" opacity="0.20392156862745098" d="M 131 264 L 160.5 264 L 162 265.5 L 162 278.5 L 161 281 L 131 281 L 131 264 Z M 133 265 L 132 280 L 144 280 L 145 279 Q 150 278 152 280 L 160 280 L 160 265 L 157 266 L 134 266 L 133 265 Z " /><path fill="rgb(196,200,205)" stroke="rgb(196,200,205)" stroke-width="1" opacity="0.20392156862745098" d="M 171 264 L 185 264 L 185 304.5 L 183.5 306 L 172.5 306 L 171 304.5 L 171 264 Z M 184 265 L 183 266 L 174 266 L 172 268 L 172 299 L 172 301 L 173 304 L 184 304 L 184 265 Z " /><path fill="rgb(196,200,205)" stroke="rgb(196,200,205)" stroke-width="1" opacity="0.20392156862745098" d="M 194 264 L 209 264 L 209 304.5 L 207.5 306 L 198.5 306 L 194 303.5 L 195 298.5 L 194 297.5 L 194 264 Z M 201 265 L 196 266 L 196 304 L 197 304 L 208 304 L 208 266 L 208 265 L 201 265 Z " /><path fill="rgb(196,200,205)" stroke="rgb(196,200,205)" stroke-width="1" opacity="0.20392156862745098" d="M 218 264 L 233 264 L 233 304.5 L 231.5 306 L 219.5 306 L 218 304.5 L 218 264 Z M 219 265 L 220 270 L 220 304 L 221 304 L 231 304 L 231 284 L 232 283 L 231 269 L 231 267 L 231 265 L 219 265 Z " /><path fill="rgb(196,200,205)" stroke="rgb(196,200,205)" stroke-width="1" opacity="0.20392156862745098" d="M 242 264 L 255.5 264 L 256 266.5 L 255 266.5 L 254.5 265 L 244 265 L 244 303.5 L 244.5 304 L 255.5 304 L 255 302.5 L 255.5 300 L 257 303.5 L 256 306 L 243.5 306 L 242 304.5 L 242 264 Z " /><path fill="rgb(196,200,205)" stroke="rgb(196,200,205)" stroke-width="1" opacity="0.20392156862745098" d="M 266 264 L 280 264 L 280 304.5 L 278.5 306 L 267.5 306 L 266 304.5 L 266 264 Z M 267 265 L 267 296 L 268 297 Q 270 302 267 304 L 279 304 L 279 266 L 279 265 L 267 265 Z " /><path fill="rgb(196,200,205)" stroke="rgb(196,200,205)" stroke-width="1" opacity="0.20392156862745098" d="M 290.5 264 L 304 264 L 304 305 L 291.5 306 L 289 303.5 L 289 265.5 L 290.5 264 Z M 291 265 L 291 304 L 302 304 L 302 304 L 302 265 L 299 266 L 298 265 L 291 265 Z " /><path fill="rgb(196,200,205)" stroke="rgb(196,200,205)" stroke-width="1" opacity="0.20392156862745098" d="M 313 264 L 330 264 L 330 304.5 L 328.5 306 L 314.5 306 L 313 304.5 L 313 264 Z M 315 265 L 315 304 L 329 304 L 329 265 L 324 266 L 315 265 Z " /><path fill="rgb(196,200,205)" stroke="rgb(196,200,205)" stroke-width="1" opacity="0.20392156862745098" d="M 339.5 264 L 370 264 L 370 279.5 L 368.5 281 L 339 281 L 338 265.5 L 339.5 264 Z M 366 265 L 365 266 L 340 266 L 340 280 L 348 280 L 349 279 L 363 279 L 364 280 L 368 279 L 368 268 L 367 267 Q 368 264 366 265 Z " /><path fill="rgb(196,200,205)" stroke="rgb(196,200,205)" stroke-width="1" opacity="0.20392156862745098" d="M 255.5 268 L 256 284.5 L 255 284.5 L 255.5 268 Z " /><path fill="rgb(196,200,205)" stroke="rgb(196,200,205)" stroke-width="1" opacity="0.20392156862745098" d="M 131 290 L 160.5 290 L 162 291.5 L 162 304.5 L 160.5 306 L 131 306 L 131 290 Z M 133 291 L 132 294 L 132 304 L 160 304 L 160 293 L 159 291 L 156 292 L 153 291 L 150 292 L 148 292 L 133 291 Z " /><path fill="rgb(196,200,205)" stroke="rgb(196,200,205)" stroke-width="1" opacity="0.20392156862745098" d="M 339 290 L 370 290 L 370 304.5 L 368.5 306 L 339 306 L 339 290 Z M 341 291 L 340 295 L 340 297 L 341 300 L 340 303 L 341 304 L 368 304 L 368 294 L 367 292 L 366 292 L 348 292 L 341 291 Z " /><path fill="rgb(196,200,205)" stroke="rgb(196,200,205)" stroke-width="1" opacity="0.20392156862745098" d="M 132.5 314 L 134.5 315 L 160.5 315 L 162 316.5 L 162 421.5 L 160.5 422 L 159.5 423 L 132.5 423 L 131 421.5 L 131 315.5 L 132.5 314 Z M 132 316 L 132 326 L 133 327 L 133 353 L 133 357 L 132 359 L 133 360 L 133 374 L 133 376 L 133 421 L 160 421 L 160 317 L 160 316 L 132 316 Z " /><path fill="rgb(196,200,205)" stroke="rgb(196,200,205)" stroke-width="1" opacity="0.20392156862745098" d="M 171 315 L 330 315 L 330 420.5 L 328.5 422 L 299 422 L 299 376.5 Q 296.7 375.2 298 370.5 Q 293.3 352.2 280.5 342 Q 272.8 335.2 261.5 332 L 256.5 331 L 239.5 331 Q 222.8 334.3 213 344.5 Q 201.8 355.3 198 373.5 L 198 420.5 L 196.5 422 L 194.5 423 L 173.5 423 L 171 422 L 171 315 Z M 172 316 L 172 351 L 172 353 Q 175 354 173 360 L 173 362 L 173 421 L 195 421 L 197 419 L 197 371 L 204 354 L 210 346 L 220 337 Q 229 331 243 329 L 261 330 Q 273 333 281 340 L 294 356 L 300 372 L 300 380 L 301 381 L 301 399 L 300 400 L 300 419 L 301 420 L 302 421 L 329 421 L 329 316 L 172 316 Z " /><path fill="rgb(196,200,205)" stroke="rgb(196,200,205)" stroke-width="1" opacity="0.20392156862745098" d="M 339.5 315 L 369.5 315 L 370 315.5 L 370 422 L 341.5 423 L 339 422 L 339 322.5 L 338 320.5 L 339 318.5 L 338 316.5 L 339.5 315 Z M 340 316 L 340 326 L 341 327 L 340 330 L 340 332 L 341 336 L 341 421 L 368 421 L 368 421 L 368 318 L 367 316 L 340 316 Z " /><path fill="rgb(196,200,205)" stroke="rgb(196,200,205)" stroke-width="1" opacity="0.20392156862745098" d="M 190.5 329 Q 197.4 328.1 199 332.5 L 199 343.5 L 197.5 344 L 195.5 345 L 193.5 345 L 185 344 L 185 332.5 L 187.5 330 L 190.5 329 Z M 190 331 L 187 332 L 186 337 Q 185 342 189 343 Q 195 344 198 342 L 197 332 Q 195 330 190 331 Z " /><path fill="rgb(196,200,205)" stroke="rgb(196,200,205)" stroke-width="1" opacity="0.20392156862745098" d="M 303.5 329 Q 310.5 328.3 314 330 L 316 338.5 L 311.5 345 Q 303.9 346.1 301 342.5 Q 299.4 332.9 303.5 329 Z M 305 331 Q 301 333 302 341 Q 304 344 312 343 L 314 339 L 313 333 Q 311 329 305 331 Z " /><path fill="rgb(196,200,205)" stroke="rgb(196,200,205)" stroke-width="1" opacity="0.20392156862745098" d="M 238.5 340 L 256.5 340 L 265.5 343 Q 274.9 347.6 281 355.5 Q 286.7 362.3 289 372.5 L 289 412.5 Q 291.8 414.3 290 420.5 L 286.5 423 L 257.5 423 L 256.5 422 L 215.5 422 L 210.5 423 L 207 422 L 207 375.5 L 208 370.5 Q 212.6 355.1 224.5 347 L 238.5 340 Z M 246 341 L 235 343 L 225 349 Q 212 357 209 375 L 209 421 L 287 421 L 289 421 L 288 418 L 288 374 L 280 357 Q 273 348 263 343 L 246 341 Z " /><path fill="rgb(10,11,13)" stroke="rgb(10,11,13)" stroke-width="1" opacity="0.9607843137254902" d="M 144.5 77 Q 150 76 151 79.5 L 151 87.5 L 152.5 89 Q 162.1 91.9 167 99.5 L 171 107.5 L 171 154 L 182 148.5 L 182 140.5 L 183.5 140 L 185.5 139 L 187.5 139 L 191 141.5 Q 189.3 148.3 192.5 150 Q 201.6 151.9 206 158.5 L 211 168.5 L 211 228 L 290 228 L 290 167.5 Q 292.5 159 298.5 154 L 310 149 L 310 142.5 L 309 141.5 Q 310 138 315.5 139 L 319 141.5 Q 317.3 148.3 320.5 150 L 328.5 154 L 330 151.5 L 330 107.5 Q 332.5 99 338.5 94 L 350 87.5 Q 351.5 82 349 80.5 L 351.5 77 Q 357.3 76.2 359 79.5 L 358 87.5 L 360.5 90 L 368.5 93 L 374 98.5 L 378 105.5 L 379 111.5 L 378 115.5 L 379 116.5 L 379 422 L 448.5 423 L 450.5 423 L 452 423.5 L 452 431 L 440.5 432 L 439.5 431 L 281.5 431 Q 279.8 433.8 273.5 432 L 272.5 431 L 47 431 L 47 424.5 L 46 423.5 L 47.5 422 L 120.5 422 L 122 420.5 L 122 106.5 Q 125.6 97.1 133.5 92 L 142 89 L 142 78.5 L 143.5 78 L 144.5 77 Z M 145 97 L 140 99 Q 133 103 130 111 L 131 113 L 162 113 L 160 106 Q 156 97 145 97 Z M 353 97 L 348 99 Q 341 103 338 111 L 339 113 L 370 113 L 367 105 Q 363 97 353 97 Z M 133 122 L 131 124 L 131 188 L 133 189 L 161 189 L 162 188 L 162 124 L 161 122 L 142 123 L 140 123 Q 134 125 133 122 Z M 341 122 L 339 124 L 339 183 L 338 187 L 340 188 L 348 188 L 349 189 L 353 188 L 355 189 L 357 188 Q 360 191 369 189 L 370 188 L 370 123 L 368 122 L 358 122 L 357 123 L 343 123 L 341 122 Z M 182 158 L 180 159 L 171 169 L 171 179 L 201 179 L 202 178 Q 203 167 198 164 L 190 158 L 182 158 Z M 310 158 L 307 160 L 299 169 L 298 178 L 301 179 L 329 179 L 330 178 Q 331 170 328 166 L 319 158 L 310 158 Z M 171 188 L 171 228 L 201 228 L 202 227 L 202 196 L 201 195 Q 202 188 201 188 L 171 188 Z M 300 188 L 298 190 L 299 192 L 299 228 L 330 228 L 330 188 L 300 188 Z M 133 197 L 131 199 L 131 218 L 161 218 L 162 217 L 162 199 L 161 197 L 133 197 Z M 339 197 L 339 218 L 369 218 L 370 217 L 370 198 L 368 197 L 339 197 Z M 133 226 L 131 228 L 131 255 L 159 255 L 160 256 L 162 255 L 162 228 L 161 226 L 141 226 L 140 227 Q 134 229 133 226 Z M 340 227 L 338 229 L 338 237 L 339 242 L 339 255 L 341 255 L 344 256 L 347 255 L 370 255 L 370 227 L 340 227 Z M 171 237 L 171 255 L 185 255 L 185 237 L 171 237 Z M 196 237 L 194 239 L 194 249 L 195 250 L 194 254 L 196 255 L 209 255 L 209 237 L 196 237 Z M 218 237 L 218 254 L 220 255 L 233 255 L 233 237 L 218 237 Z M 242 237 L 242 255 L 256 255 L 257 254 Q 259 248 256 247 L 256 237 L 242 237 Z M 266 237 L 266 255 L 280 255 L 280 237 L 266 237 Z M 291 237 L 289 239 L 290 242 L 290 255 L 304 255 L 304 237 L 291 237 Z M 313 237 L 313 255 L 330 255 L 330 237 L 313 237 Z M 131 264 L 131 281 L 161 281 L 162 279 L 162 266 L 161 264 L 131 264 Z M 171 264 L 171 305 L 173 306 L 184 306 L 185 305 L 185 264 L 171 264 Z M 194 264 L 194 298 L 195 299 L 194 304 L 199 306 L 208 306 L 209 305 L 209 264 L 194 264 Z M 218 264 L 218 305 L 220 306 L 232 306 L 233 305 L 233 264 L 218 264 Z M 242 264 L 242 305 L 244 306 L 256 306 L 256 305 L 256 303 L 256 264 L 242 264 Z M 266 264 L 266 305 L 268 306 L 279 306 L 280 305 L 280 264 L 266 264 Z M 291 264 L 289 266 L 289 304 L 292 306 L 304 305 L 304 264 L 291 264 Z M 313 264 L 313 305 L 315 306 L 329 306 L 330 305 L 330 264 L 313 264 Z M 340 264 L 338 266 L 339 281 L 369 281 L 370 280 L 370 264 L 340 264 Z M 131 290 L 131 306 L 161 306 L 162 305 L 162 292 L 161 290 L 131 290 Z M 339 290 L 339 306 L 369 306 L 370 305 L 370 290 L 339 290 Z M 133 314 L 131 316 L 131 422 L 133 423 L 160 423 L 161 422 L 162 422 L 162 317 L 161 315 L 135 315 L 133 314 Z M 171 315 L 171 422 L 174 423 L 195 423 L 197 422 L 198 421 L 198 374 Q 202 355 213 345 Q 223 334 240 331 L 257 331 L 262 332 Q 273 335 281 342 Q 293 352 298 371 Q 297 375 299 377 L 299 422 L 329 422 L 330 421 L 330 315 L 171 315 Z M 340 315 L 338 317 L 339 319 L 338 321 L 339 323 L 339 422 L 342 423 L 370 422 L 370 316 L 370 315 L 340 315 Z M 239 340 L 225 347 Q 213 355 208 371 L 207 376 L 207 422 L 211 423 L 216 422 L 257 422 L 258 423 L 287 423 L 290 421 Q 292 414 289 413 L 289 373 Q 287 362 281 356 Q 275 348 266 343 L 257 340 L 239 340 Z " /><path fill="rgb(10,11,13)" stroke="rgb(10,11,13)" stroke-width="1" opacity="0.9607843137254902" d="M 189.5 331 Q 194.9 330.4 197 332 L 198 342 Q 195.3 343.9 188.5 343 Q 185.4 341.6 186 336.5 L 187 332 L 189.5 331 Z " /><path fill="rgb(10,11,13)" stroke="rgb(10,11,13)" stroke-width="1" opacity="0.9607843137254902" d="M 304.5 331 Q 311.3 329.2 313 332.5 L 314 338.5 L 311.5 343 Q 304.3 344.3 302 340.5 Q 300.8 333.3 304.5 331 Z " /></svg>