<svg width="500" height="500" version="1.1" xmlns="http://www.w3.org/2000/svg" desc="Created with imagetracer.js version 1.2.6" ><path fill="rgb(118,122,127)" stroke="rgb(118,122,127)" stroke-width="1" opacity="0.1411764705882353" d="M 246.5 202 L 248 203.5 L 248 224.5 L 247 224.5 L 247 203.5 L 246.5 202 Z " /><path fill="rgb(118,122,127)" stroke="rgb(118,122,127)" stroke-width="1" opacity="0.1411764705882353" d="M 247.5 226 L 248 235 L 255 236.5 L 251.5 237 L 247 234.5 L 247.5 226 Z " /><path fill="rgb(118,122,127)" stroke="rgb(118,122,127)" stroke-width="1" opacity="0.1411764705882353" d="M 233.5 235 L 237 235.5 L 230.5 237 L 230.5 236 L 233.5 235 Z " /><path fill="rgb(118,122,127)" stroke="rgb(118,122,127)" stroke-width="1" opacity="0.1411764705882353" d="M 223.5 238 L 225 238.5 Q 211.3 243.3 203.5 254 L 205 251.5 Q 204.3 249.3 206.5 250 L 210.5 245 L 223.5 238 Z " /><path fill="rgb(118,122,127)" stroke="rgb(118,122,127)" stroke-width="1" opacity="0.1411764705882353" d="M 263.5 239 L 270 243.5 L 268.5 243 Q 263.9 241.8 263.5 239 Z " /><path fill="rgb(118,122,127)" stroke="rgb(118,122,127)" stroke-width="1" opacity="0.1411764705882353" d="M 271.5 244 L 272.5 246 L 271.5 244 Z " /><path fill="rgb(118,122,127)" stroke="rgb(118,122,127)" stroke-width="1" opacity="0.1411764705882353" d="M 239.5 245 L 245 245.5 L 239.5 246 L 239.5 245 Z " /><path fill="rgb(118,122,127)" stroke="rgb(118,122,127)" stroke-width="1" opacity="0.1411764705882353" d="M 233.5 246 L 238 246.5 L 228.5 249 L 228.5 248 L 233.5 246 Z " /><path fill="rgb(118,122,127)" stroke="rgb(118,122,127)" stroke-width="1" opacity="0.1411764705882353" d="M 246.5 246 Q 251.9 245.1 254 247.5 L 251.5 248 L 246.5 247 L 246.5 246 Z " /><path fill="rgb(118,122,127)" stroke="rgb(118,122,127)" stroke-width="1" opacity="0.1411764705882353" d="M 274.5 246 L 281.5 254 L 274.5 246 Z " /><path fill="rgb(118,122,127)" stroke="rgb(118,122,127)" stroke-width="1" opacity="0.1411764705882353" d="M 255.5 248 L 259 249.5 L 257.5 250 L 255.5 248 Z " /><path fill="rgb(118,122,127)" stroke="rgb(118,122,127)" stroke-width="1" opacity="0.1411764705882353" d="M 260.5 250 L 268 255.5 L 265.5 254 Q 260.9 252.8 260.5 250 Z " /><path fill="rgb(118,122,127)" stroke="rgb(118,122,127)" stroke-width="1" opacity="0.1411764705882353" d="M 221.5 251 L 223 251.5 L 221 252 Q 222.1 254.7 219.5 254 L 215 257.5 L 207.5 268 L 208 266.5 Q 210.9 258.4 217.5 254 L 221.5 251 Z " /><path fill="rgb(118,122,127)" stroke="rgb(118,122,127)" stroke-width="1" opacity="0.1411764705882353" d="M 202.5 255 L 202 256.5 L 197.5 263 L 198 261.5 L 202.5 255 Z " /><path fill="rgb(118,122,127)" stroke="rgb(118,122,127)" stroke-width="1" opacity="0.1411764705882353" d="M 282.5 255 L 285 258.5 L 284 258.5 L 282.5 255 Z " /><path fill="rgb(118,122,127)" stroke="rgb(118,122,127)" stroke-width="1" opacity="0.1411764705882353" d="M 270.5 257 L 271.5 259 L 270.5 257 Z " /><path fill="rgb(118,122,127)" stroke="rgb(118,122,127)" stroke-width="1" opacity="0.1411764705882353" d="M 272.5 260 L 279 268.5 L 277 267.5 L 272.5 260 Z " /><path fill="rgb(118,122,127)" stroke="rgb(118,122,127)" stroke-width="1" opacity="0.1411764705882353" d="M 286.5 261 L 291 270.5 L 290 270.5 L 286 262.5 L 286.5 261 Z " /><path fill="rgb(118,122,127)" stroke="rgb(118,122,127)" stroke-width="1" opacity="0.1411764705882353" d="M 196.5 265 L 197 266.5 L 194 271.5 L 192.5 281 L 192 275.5 L 196.5 265 Z " /><path fill="rgb(118,122,127)" stroke="rgb(118,122,127)" stroke-width="1" opacity="0.1411764705882353" d="M 205.5 271 L 206 272.5 L 204.5 275 L 204 273.5 L 205.5 271 Z " /><path fill="rgb(118,122,127)" stroke="rgb(118,122,127)" stroke-width="1" opacity="0.1411764705882353" d="M 279.5 271 Q 282.7 273.3 282 279.5 L 281 279.5 L 279.5 271 Z " /><path fill="rgb(118,122,127)" stroke="rgb(118,122,127)" stroke-width="1" opacity="0.1411764705882353" d="M 292.5 277 L 293 327.5 L 292 327.5 L 292.5 277 Z " /><path fill="rgb(118,122,127)" stroke="rgb(118,122,127)" stroke-width="1" opacity="0.1411764705882353" d="M 203.5 279 L 204 302.5 L 203 302.5 L 203.5 279 Z " /><path fill="rgb(118,122,127)" stroke="rgb(118,122,127)" stroke-width="1" opacity="0.1411764705882353" d="M 282.5 281 L 283 305 L 217 304.5 L 282 304 L 282.5 281 Z " /><path fill="rgb(118,122,127)" stroke="rgb(118,122,127)" stroke-width="1" opacity="0.1411764705882353" d="M 83.5 290 L 87 290.5 L 83.5 291 L 83.5 290 Z " /><path fill="rgb(118,122,127)" stroke="rgb(118,122,127)" stroke-width="1" opacity="0.1411764705882353" d="M 396.5 290 Q 402.6 289.3 405 291 L 405 304.5 L 407 306.5 L 405.5 306 L 404 305.5 L 404 292.5 Q 402.5 289.5 396.5 291 L 396.5 290 Z " /><path fill="rgb(118,122,127)" stroke="rgb(118,122,127)" stroke-width="1" opacity="0.1411764705882353" d="M 90.5 291 Q 93.5 290.1 92 294.5 L 91 294.5 L 90.5 291 Z " /><path fill="rgb(118,122,127)" stroke="rgb(118,122,127)" stroke-width="1" opacity="0.1411764705882353" d="M 91.5 296 Q 90.6 303.4 94 306.5 L 91 304.5 L 91.5 296 Z " /><path fill="rgb(118,122,127)" stroke="rgb(118,122,127)" stroke-width="1" opacity="0.1411764705882353" d="M 192.5 299 L 193 306.5 L 192 306.5 L 192.5 299 Z " /><path fill="rgb(118,122,127)" stroke="rgb(118,122,127)" stroke-width="1" opacity="0.1411764705882353" d="M 80.5 304 L 79.5 306 L 75.5 308 L 76.5 306 L 80.5 304 Z " /><path fill="rgb(118,122,127)" stroke="rgb(118,122,127)" stroke-width="1" opacity="0.1411764705882353" d="M 203.5 304 L 216 304.5 L 203.5 305 L 203.5 304 Z " /><path fill="rgb(118,122,127)" stroke="rgb(118,122,127)" stroke-width="1" opacity="0.1411764705882353" d="M 391.5 305 L 390.5 307 L 391.5 305 Z " /><path fill="rgb(118,122,127)" stroke="rgb(118,122,127)" stroke-width="1" opacity="0.1411764705882353" d="M 408.5 307 L 413 310.5 L 418 320.5 L 418 413.5 L 419.5 415 L 445 415 L 445 425.5 L 443.5 427 L 42.5 427 L 42.5 426 L 443.5 426 L 444 425.5 L 444 416 L 417.5 416 L 417 415.5 L 417 320.5 Q 414.2 311.4 408.5 307 Z " /><path fill="rgb(118,122,127)" stroke="rgb(118,122,127)" stroke-width="1" opacity="0.1411764705882353" d="M 73.5 308 L 74 309.5 L 70 312.5 L 73.5 308 Z " /><path fill="rgb(118,122,127)" stroke="rgb(118,122,127)" stroke-width="1" opacity="0.1411764705882353" d="M 97.5 308 Q 103.1 311.8 105 319.5 L 105 366.5 L 104 366.5 L 104 319.5 Q 101.6 311.8 97.5 308 Z " /><path fill="rgb(118,122,127)" stroke="rgb(118,122,127)" stroke-width="1" opacity="0.1411764705882353" d="M 386.5 308 L 388 308.5 L 382 316.5 L 381.5 365 L 381 316.5 L 386.5 308 Z " /><path fill="rgb(118,122,127)" stroke="rgb(118,122,127)" stroke-width="1" opacity="0.1411764705882353" d="M 84.5 315 L 86 315.5 L 80 319.5 L 79 328 L 87 328.5 L 78 329 Q 76.6 319.2 82.5 316 L 84.5 315 Z " /><path fill="rgb(118,122,127)" stroke="rgb(118,122,127)" stroke-width="1" opacity="0.1411764705882353" d="M 88.5 315 L 92 317.5 L 89.5 316 L 88.5 315 Z " /><path fill="rgb(118,122,127)" stroke="rgb(118,122,127)" stroke-width="1" opacity="0.1411764705882353" d="M 203 315 Q 205.7 313.9 205 316.5 L 204 317.5 L 204 329 L 281.5 329 L 282 328.5 L 282 315.5 L 283 315.5 L 283 328.5 L 281.5 330 L 203.5 330 L 203 329.5 L 203 315 Z " /><path fill="rgb(118,122,127)" stroke="rgb(118,122,127)" stroke-width="1" opacity="0.1411764705882353" d="M 207.5 315 L 276 315.5 L 207.5 316 L 207.5 315 Z " /><path fill="rgb(118,122,127)" stroke="rgb(118,122,127)" stroke-width="1" opacity="0.1411764705882353" d="M 396.5 315 L 398 315.5 L 392 320.5 L 391.5 325 L 391 320.5 L 394.5 316 L 396.5 315 Z " /><path fill="rgb(118,122,127)" stroke="rgb(118,122,127)" stroke-width="1" opacity="0.1411764705882353" d="M 401.5 315 L 405 317.5 L 406 319.5 L 401.5 315 Z " /><path fill="rgb(118,122,127)" stroke="rgb(118,122,127)" stroke-width="1" opacity="0.1411764705882353" d="M 68.5 317 L 69 321.5 L 68 321.5 L 68.5 317 Z " /><path fill="rgb(118,122,127)" stroke="rgb(118,122,127)" stroke-width="1" opacity="0.1411764705882353" d="M 93.5 321 L 94 329 L 91 328.5 L 93 328 L 93.5 321 Z " /><path fill="rgb(118,122,127)" stroke="rgb(118,122,127)" stroke-width="1" opacity="0.1411764705882353" d="M 192.5 321 L 193 328.5 L 192 328.5 L 192.5 321 Z " /><path fill="rgb(118,122,127)" stroke="rgb(118,122,127)" stroke-width="1" opacity="0.1411764705882353" d="M 391.5 328 L 399 328.5 L 391.5 329 L 391.5 328 Z " /><path fill="rgb(118,122,127)" stroke="rgb(118,122,127)" stroke-width="1" opacity="0.1411764705882353" d="M 169 329 L 189 329.5 L 170 330 L 169.5 366 L 169 329 Z " /><path fill="rgb(118,122,127)" stroke="rgb(118,122,127)" stroke-width="1" opacity="0.1411764705882353" d="M 293.5 329 L 317.5 329 L 319 330.5 L 319 365.5 L 319.5 366 L 329.5 366 L 329.5 367 L 319.5 367 L 318 365.5 L 318 330 L 293.5 330 L 293.5 329 Z " /><path fill="rgb(118,122,127)" stroke="rgb(118,122,127)" stroke-width="1" opacity="0.1411764705882353" d="M 79.5 339 L 91 339.5 L 79 340 L 79 414.5 L 79.5 415 L 93 415 L 93.5 385 L 94 416 L 78.5 416 L 78 415.5 L 78 340.5 L 79.5 339 Z " /><path fill="rgb(118,122,127)" stroke="rgb(118,122,127)" stroke-width="1" opacity="0.1411764705882353" d="M 183.5 339 L 191.5 339 L 193 340.5 L 192.5 366 L 192 340 L 183.5 340 L 183.5 339 Z " /><path fill="rgb(118,122,127)" stroke="rgb(118,122,127)" stroke-width="1" opacity="0.1411764705882353" d="M 203 339 L 281.5 339 L 283 340.5 L 283 414.5 L 281.5 416 L 269.5 416 L 268 414.5 L 268.5 378 L 269 415 L 281.5 415 L 282 414.5 L 282 340 L 204.5 340 L 203.5 341 L 203 339 Z " /><path fill="rgb(118,122,127)" stroke="rgb(118,122,127)" stroke-width="1" opacity="0.1411764705882353" d="M 293.5 339 L 308 339.5 L 293 340 L 293 366 L 306.5 366 L 306.5 367 L 292 367 L 292 340.5 L 293.5 339 Z " /><path fill="rgb(118,122,127)" stroke="rgb(118,122,127)" stroke-width="1" opacity="0.1411764705882353" d="M 393.5 339 L 404 339.5 L 393.5 340 L 393.5 339 Z " /><path fill="rgb(118,122,127)" stroke="rgb(118,122,127)" stroke-width="1" opacity="0.1411764705882353" d="M 128.5 343 L 131 343.5 L 123.5 347 L 123.5 346 L 128.5 343 Z " /><path fill="rgb(118,122,127)" stroke="rgb(118,122,127)" stroke-width="1" opacity="0.1411764705882353" d="M 141.5 343 Q 148 344.5 151 349.5 L 152 352.5 L 151 352.5 L 146.5 346 L 141.5 344 L 141.5 343 Z " /><path fill="rgb(118,122,127)" stroke="rgb(118,122,127)" stroke-width="1" opacity="0.1411764705882353" d="M 341.5 343 L 343 343.5 L 336 348.5 Q 330.8 354.8 331.5 367 L 331 357.5 Q 332.8 348.3 339.5 344 L 341.5 343 Z " /><path fill="rgb(118,122,127)" stroke="rgb(118,122,127)" stroke-width="1" opacity="0.1411764705882353" d="M 355.5 343 Q 361.6 344.4 364 349.5 L 366 355.5 L 365 355.5 L 360.5 347 Q 355.9 345.8 355.5 343 Z " /><path fill="rgb(118,122,127)" stroke="rgb(118,122,127)" stroke-width="1" opacity="0.1411764705882353" d="M 93.5 345 L 94 358.5 L 93 358.5 L 93.5 345 Z " /><path fill="rgb(118,122,127)" stroke="rgb(118,122,127)" stroke-width="1" opacity="0.1411764705882353" d="M 120.5 352 L 121 353.5 Q 117.3 358 119 367 L 117 366.5 L 118 365.5 L 118 357.5 L 120.5 352 Z " /><path fill="rgb(118,122,127)" stroke="rgb(118,122,127)" stroke-width="1" opacity="0.1411764705882353" d="M 239.5 352 L 248 352.5 L 235.5 354 L 235.5 353 L 239.5 352 Z " /><path fill="rgb(118,122,127)" stroke="rgb(118,122,127)" stroke-width="1" opacity="0.1411764705882353" d="M 133.5 353 L 135 353.5 L 131.5 355 L 131.5 354 L 133.5 353 Z " /><path fill="rgb(118,122,127)" stroke="rgb(118,122,127)" stroke-width="1" opacity="0.1411764705882353" d="M 138.5 353 L 142 355.5 L 143 359.5 L 142 359.5 L 139.5 354 L 138.5 353 Z " /><path fill="rgb(118,122,127)" stroke="rgb(118,122,127)" stroke-width="1" opacity="0.1411764705882353" d="M 346.5 353 L 349 353.5 L 344.5 355 L 344.5 354 L 346.5 353 Z " /><path fill="rgb(118,122,127)" stroke="rgb(118,122,127)" stroke-width="1" opacity="0.1411764705882353" d="M 350.5 353 Q 354.5 352.5 355 355.5 L 357 364.5 L 356 364.5 L 356 361.5 L 352.5 354 Q 349.5 354.5 350.5 353 Z " /><path fill="rgb(118,122,127)" stroke="rgb(118,122,127)" stroke-width="1" opacity="0.1411764705882353" d="M 231.5 354 L 230.5 356 L 223 362.5 L 221.5 365 L 221 363.5 L 231.5 354 Z " /><path fill="rgb(118,122,127)" stroke="rgb(118,122,127)" stroke-width="1" opacity="0.1411764705882353" d="M 256.5 355 L 257.5 357 L 256.5 355 Z " /><path fill="rgb(118,122,127)" stroke="rgb(118,122,127)" stroke-width="1" opacity="0.1411764705882353" d="M 152.5 356 L 153 358.5 L 152 358.5 L 152.5 356 Z " /><path fill="rgb(118,122,127)" stroke="rgb(118,122,127)" stroke-width="1" opacity="0.1411764705882353" d="M 259.5 357 Q 266.1 361.4 268 370.5 L 267 370.5 Q 265.6 362.9 260.5 359 Q 257.7 359.7 259.5 357 Z " /><path fill="rgb(118,122,127)" stroke="rgb(118,122,127)" stroke-width="1" opacity="0.1411764705882353" d="M 366.5 357 L 367 366 L 381 366.5 L 366 367 L 366.5 357 Z " /><path fill="rgb(118,122,127)" stroke="rgb(118,122,127)" stroke-width="1" opacity="0.1411764705882353" d="M 342.5 358 L 343 365.5 L 342 365.5 L 342.5 358 Z " /><path fill="rgb(118,122,127)" stroke="rgb(118,122,127)" stroke-width="1" opacity="0.1411764705882353" d="M 93.5 360 L 94 364.5 L 93 364.5 L 93.5 360 Z " /><path fill="rgb(118,122,127)" stroke="rgb(118,122,127)" stroke-width="1" opacity="0.1411764705882353" d="M 180.5 360 L 181 366 L 191 366.5 L 180 367 L 180.5 360 Z " /><path fill="rgb(118,122,127)" stroke="rgb(118,122,127)" stroke-width="1" opacity="0.1411764705882353" d="M 390.5 360 L 391 362.5 L 390 362.5 L 390.5 360 Z " /><path fill="rgb(118,122,127)" stroke="rgb(118,122,127)" stroke-width="1" opacity="0.1411764705882353" d="M 143.5 361 L 144 365.5 L 143 365.5 L 143.5 361 Z " /><path fill="rgb(118,122,127)" stroke="rgb(118,122,127)" stroke-width="1" opacity="0.1411764705882353" d="M 153.5 362 L 154 366 L 156 366.5 L 154.5 367 Q 151.8 365.8 153.5 362 Z " /><path fill="rgb(118,122,127)" stroke="rgb(118,122,127)" stroke-width="1" opacity="0.1411764705882353" d="M 240.5 362 L 246.5 362 L 256 369.5 L 259 375.5 L 259 416 L 228 415.5 L 258 415 L 258 376.5 Q 256.4 369.5 251.5 366 Q 248.6 361.9 240.5 363 L 232 368.5 L 229.5 372 L 229 370.5 Q 232.6 364.1 240.5 362 Z " /><path fill="rgb(118,122,127)" stroke="rgb(118,122,127)" stroke-width="1" opacity="0.1411764705882353" d="M 93.5 366 L 94 373.5 L 93 373.5 L 93.5 366 Z " /><path fill="rgb(118,122,127)" stroke="rgb(118,122,127)" stroke-width="1" opacity="0.1411764705882353" d="M 112.5 366 L 116 366.5 L 112.5 367 L 112.5 366 Z " /><path fill="rgb(118,122,127)" stroke="rgb(118,122,127)" stroke-width="1" opacity="0.1411764705882353" d="M 219.5 367 L 220 368.5 L 218 372.5 L 217.5 383 L 217 372.5 L 219.5 367 Z " /><path fill="rgb(118,122,127)" stroke="rgb(118,122,127)" stroke-width="1" opacity="0.1411764705882353" d="M 390.5 367 L 391 370.5 L 390 370.5 L 390.5 367 Z " /><path fill="rgb(118,122,127)" stroke="rgb(118,122,127)" stroke-width="1" opacity="0.1411764705882353" d="M 68.5 374 L 69 414.5 L 67.5 416 L 41 416 L 40.5 426 L 40 416.5 L 41.5 415 L 68 415 L 68.5 374 Z " /><path fill="rgb(118,122,127)" stroke="rgb(118,122,127)" stroke-width="1" opacity="0.1411764705882353" d="M 203.5 376 L 204 415 L 217 415 L 217 384.5 L 218 384.5 L 218 416 L 203 416 L 203.5 376 Z " /><path fill="rgb(118,122,127)" stroke="rgb(118,122,127)" stroke-width="1" opacity="0.1411764705882353" d="M 104 377 L 108 377.5 L 105 378 L 105 415 L 169 415 L 169 378 L 111.5 378 L 111.5 377 L 170 377 L 170 416 L 104 416 L 104 377 Z " /><path fill="rgb(118,122,127)" stroke="rgb(118,122,127)" stroke-width="1" opacity="0.1411764705882353" d="M 179 377 L 193 377 L 193 392 L 179 392 L 179 377 Z M 180 378 L 180 391 L 192 391 L 192 378 L 180 378 Z " /><path fill="rgb(118,122,127)" stroke="rgb(118,122,127)" stroke-width="1" opacity="0.1411764705882353" d="M 292 377 L 308 377.5 L 295.5 378 L 293 379 L 293 415 L 307.5 415 L 307.5 416 L 293.5 416 L 292 414.5 L 292 377 Z " /><path fill="rgb(118,122,127)" stroke="rgb(118,122,127)" stroke-width="1" opacity="0.1411764705882353" d="M 318 377 L 382 377 L 382 414.5 L 380.5 416 L 318 416 L 318 377 Z M 319 378 L 319 415 L 381 415 L 381 378 L 319 378 Z " /><path fill="rgb(118,122,127)" stroke="rgb(118,122,127)" stroke-width="1" opacity="0.1411764705882353" d="M 93.5 379 L 94 383.5 L 93 383.5 L 93.5 379 Z " /><path fill="rgb(118,122,127)" stroke="rgb(118,122,127)" stroke-width="1" opacity="0.1411764705882353" d="M 356.5 390 L 366 390.5 L 356.5 391 L 355.5 392 L 356.5 390 Z " /><path fill="rgb(118,122,127)" stroke="rgb(118,122,127)" stroke-width="1" opacity="0.1411764705882353" d="M 118 391 L 129.5 391 L 130 393.5 L 130.5 395 L 129 392 L 119.5 392 L 119 393.5 L 118 393.5 L 118 391 Z " /><path fill="rgb(118,122,127)" stroke="rgb(118,122,127)" stroke-width="1" opacity="0.1411764705882353" d="M 142.5 391 L 143 398.5 L 142 401.5 L 142.5 403 Q 139.5 403.9 141 399.5 L 142.5 391 Z " /><path fill="rgb(118,122,127)" stroke="rgb(118,122,127)" stroke-width="1" opacity="0.1411764705882353" d="M 151.5 391 Q 156.3 389.3 155 393.5 L 154 393.5 Q 154.8 390.9 151.5 392 L 151.5 391 Z " /><path fill="rgb(118,122,127)" stroke="rgb(118,122,127)" stroke-width="1" opacity="0.1411764705882353" d="M 331 391 L 333 391.5 L 331 392.5 L 331 391 Z " /><path fill="rgb(118,122,127)" stroke="rgb(118,122,127)" stroke-width="1" opacity="0.1411764705882353" d="M 117.5 395 L 118 401.5 L 117 401.5 L 117.5 395 Z " /><path fill="rgb(118,122,127)" stroke="rgb(118,122,127)" stroke-width="1" opacity="0.1411764705882353" d="M 354.5 395 L 355 402 L 367 402.5 L 355.5 403 Q 352.1 401.1 354.5 395 Z " /><path fill="rgb(118,122,127)" stroke="rgb(118,122,127)" stroke-width="1" opacity="0.1411764705882353" d="M 129.5 396 L 131 401.5 L 130 401.5 L 129.5 396 Z " /><path fill="rgb(118,122,127)" stroke="rgb(118,122,127)" stroke-width="1" opacity="0.1411764705882353" d="M 154.5 396 L 155 403 L 144 402.5 L 154 402 L 154.5 396 Z " /><path fill="rgb(118,122,127)" stroke="rgb(118,122,127)" stroke-width="1" opacity="0.1411764705882353" d="M 119.5 402 L 129 402.5 L 119.5 403 L 119.5 402 Z " /><path fill="rgb(118,122,127)" stroke="rgb(118,122,127)" stroke-width="1" opacity="0.1411764705882353" d="M 179 402 Q 182.8 400.5 182 403.5 L 180 403.5 L 179.5 406 L 179 402 Z " /><path fill="rgb(118,122,127)" stroke="rgb(118,122,127)" stroke-width="1" opacity="0.1411764705882353" d="M 191.5 402 L 193 402.5 L 193 411.5 L 192 411.5 L 191.5 403 L 190 403.5 L 191.5 402 Z " /><path fill="rgb(118,122,127)" stroke="rgb(118,122,127)" stroke-width="1" opacity="0.1411764705882353" d="M 332.5 402 L 343 402.5 L 332.5 403 L 332.5 402 Z " /><path fill="rgb(118,122,127)" stroke="rgb(118,122,127)" stroke-width="1" opacity="0.1411764705882353" d="M 391.5 413 L 393.5 415 L 406 415.5 L 391 416 L 391.5 413 Z " /><path fill="rgb(118,122,127)" stroke="rgb(118,122,127)" stroke-width="1" opacity="0.1411764705882353" d="M 179.5 414 L 180.5 415 L 192 415.5 L 180.5 416 L 179.5 414 Z " /><path fill="rgb(0,0,0)" stroke="rgb(0,0,0)" stroke-width="1" opacity="0" d="M 0 0 L 500 0 L 500 500 L 0 500 L 0 0 Z M 242 203 L 241 204 L 238 205 L 238 235 Q 238 235 234 235 L 234 237 L 233 236 Q 229 235 230 238 Q 228 236 227 239 L 224 238 L 224 240 L 221 239 L 221 241 L 220 240 L 216 242 L 216 244 L 215 243 L 211 245 L 207 250 Q 204 249 205 252 L 205 254 L 203 255 L 200 259 L 200 261 L 198 261 L 199 263 L 194 270 L 195 272 L 194 271 L 192 276 Q 191 280 193 282 L 193 299 L 192 300 Q 190 306 193 308 L 192 329 L 193 330 L 189 329 L 169 329 L 169 366 L 170 367 L 157 367 L 154 366 L 153 357 L 151 354 L 152 352 L 150 352 L 151 350 L 150 350 L 146 347 L 147 346 L 144 343 L 141 344 L 139 343 Q 134 342 133 344 L 129 343 L 129 345 L 127 344 L 126 347 L 124 346 L 124 348 L 118 358 L 118 366 Q 117 368 116 366 L 105 367 L 105 319 L 104 321 L 103 321 L 104 319 L 102 313 L 101 313 L 101 312 Q 99 307 98 310 L 96 308 L 95 308 L 92 304 Q 94 297 91 296 L 92 291 L 90 292 L 87 290 L 83 291 L 86 292 L 81 294 L 82 298 L 82 300 Q 84 305 81 304 L 81 306 L 80 305 L 77 306 L 77 308 L 76 307 L 75 309 L 74 308 L 72 311 L 72 313 L 70 316 L 70 317 L 68 318 L 68 415 L 68 415 L 42 415 L 40 417 L 40 426 L 43 427 L 444 427 L 445 426 L 445 415 L 420 415 L 418 414 L 418 321 L 413 311 L 410 308 L 408 308 L 405 305 L 405 291 L 403 292 L 401 292 L 403 291 L 397 290 L 397 292 L 395 291 L 394 304 L 394 306 L 393 306 L 391 306 L 390 308 Q 389 310 388 308 L 384 311 L 385 313 L 384 312 L 381 317 L 381 366 L 367 366 L 367 358 L 365 358 L 366 354 L 365 354 L 365 353 L 364 350 Q 363 347 362 349 Q 359 348 361 347 L 357 343 L 355 344 L 348 343 Q 346 341 345 344 L 342 343 L 342 345 L 340 344 L 333 352 L 334 354 L 332 354 L 333 358 L 332 357 L 331 367 L 330 366 L 320 366 L 318 367 L 319 366 L 319 331 L 318 329 L 293 329 L 293 278 L 291 275 Q 294 273 290 272 L 291 269 L 289 269 L 290 267 L 289 267 L 289 266 L 287 261 Q 284 262 285 258 L 284 258 L 284 257 L 282 255 Q 277 253 280 252 Q 278 247 277 250 L 273 246 Q 272 243 271 245 L 270 244 L 268 242 L 266 242 L 266 240 L 264 241 L 262 240 L 262 238 L 260 239 Q 257 240 258 238 L 257 238 Q 254 239 255 236 L 251 237 L 251 236 L 248 235 L 248 227 L 247 226 L 248 225 L 248 204 L 247 204 L 242 203 Z " /><path fill="rgb(0,0,0)" stroke="rgb(0,0,0)" stroke-width="1" opacity="0" d="M 238.5 246 L 245.5 246 L 253.5 248 L 255 247.5 Q 254.3 249.8 256.5 249 L 258 248.5 L 257.5 250 L 260.5 251 L 262 250.5 L 261.5 252 L 266.5 255 Q 268.3 252.3 270 256.5 L 271.5 259 L 274 260.5 L 274 262.5 L 274.5 264 Q 275.8 261.8 277 264.5 L 277 266.5 L 280 270.5 L 279 272.5 L 281 272.5 L 280 275.5 L 282 280.5 L 282 304 L 217.5 304 L 216.5 305 L 215.5 304 L 203.5 304 L 202 304.5 L 202.5 285 L 203.5 303 L 204 279.5 L 203 276.5 L 206 271.5 L 205.5 270 L 207 269.5 L 206.5 268 L 208 267.5 L 207.5 266 L 209 266.5 L 216.5 256 L 219 254.5 L 218.5 253 L 221 254 L 221 252 L 223 252 Q 221.9 249.3 224.5 250 L 227 249.5 L 227.5 248 L 229.5 249 L 238.5 246 Z " /><path fill="rgb(0,0,0)" stroke="rgb(0,0,0)" stroke-width="1" opacity="0" d="M 83.5 315 L 85.5 316 L 87.5 315 L 93 318.5 L 92.5 320 L 94 320.5 L 93 321.5 L 93 328 L 91 328.5 L 93 329.5 L 86.5 330 L 86.5 328 L 79 328 L 79 322.5 L 81 318.5 L 80.5 317 L 82.5 317 L 84 316.5 L 83.5 315 Z " /><path fill="rgb(0,0,0)" stroke="rgb(0,0,0)" stroke-width="1" opacity="0" d="M 205 315 L 207.5 316 L 275.5 316 L 282 315 L 282 328.5 L 281.5 329 L 204 329 L 204 317.5 L 205 315 Z " /><path fill="rgb(0,0,0)" stroke="rgb(0,0,0)" stroke-width="1" opacity="0" d="M 398.5 315 L 400.5 315 L 407 321.5 Q 408.8 328.3 405.5 330 L 398 329.5 L 398.5 328 L 391.5 328 L 391 325.5 L 392 320.5 L 396.5 316 L 398.5 315 Z " /><path fill="rgb(0,0,0)" stroke="rgb(0,0,0)" stroke-width="1" opacity="0" d="M 202.5 317 L 203 328.5 L 202 328.5 L 202.5 317 Z " /><path fill="rgb(0,0,0)" stroke="rgb(0,0,0)" stroke-width="1" opacity="0" d="M 91.5 339 L 94 340 L 93 345.5 L 93 358.5 L 93 360.5 L 94 365.5 Q 91.2 367.3 93 373.5 L 94 378.5 L 93 383.5 L 93 385.5 L 93 415 L 79 415 L 79 340.5 L 79.5 340 L 90.5 340 L 91.5 339 Z " /><path fill="rgb(0,0,0)" stroke="rgb(0,0,0)" stroke-width="1" opacity="0" d="M 179 339 Q 183.5 340.7 191.5 340 L 193 339.5 L 192 340.5 L 192 365.5 L 192.5 367 L 190.5 366 L 181 366 L 180.5 360 L 179.5 365 L 179 342.5 L 179 340.5 L 179 339 Z " /><path fill="rgb(0,0,0)" stroke="rgb(0,0,0)" stroke-width="1" opacity="0" d="M 282.5 339 L 282 340.5 L 282 414.5 L 281.5 415 L 269.5 415 L 268 415.5 L 269 414.5 L 269 378.5 L 268 376.5 L 268 374.5 L 267 371.5 L 268 369.5 L 266.5 366 L 265 366.5 L 266 364.5 L 264 364.5 L 264 362.5 L 263.5 361 Q 261.7 363.7 260 359.5 Q 262.3 358.3 259.5 357 L 258 357.5 L 257.5 356 L 255.5 356 L 254 355.5 L 254.5 354 L 252.5 355 L 251.5 353 L 248 353.5 L 247.5 352 L 239.5 352 L 235 353 Q 236.3 356 232.5 355 L 230.5 355 L 229 355.5 Q 231.3 356.8 228.5 358 L 227.5 357 L 221 363.5 L 221 367 Q 218.3 365.9 219 368.5 L 217 372.5 L 217 415 L 204.5 415 L 204 414.5 L 204 376.5 L 203 376.5 L 202.5 411 L 202 340.5 L 204.5 340 L 281.5 340 L 282.5 339 Z " /><path fill="rgb(0,0,0)" stroke="rgb(0,0,0)" stroke-width="1" opacity="0" d="M 292.5 339 L 293.5 340 L 309 340 L 309 360.5 L 308 361.5 L 309 364.5 L 307.5 367 L 306.5 366 L 293 366 L 293 340.5 L 292.5 339 Z " /><path fill="rgb(0,0,0)" stroke="rgb(0,0,0)" stroke-width="1" opacity="0" d="M 392.5 339 L 393.5 340 L 403.5 340 L 405.5 340 L 407 340.5 L 407 415.5 L 405.5 415 L 393.5 415 L 391 412.5 L 391 340.5 L 392.5 339 Z " /><path fill="rgb(0,0,0)" stroke="rgb(0,0,0)" stroke-width="1" opacity="0" d="M 134.5 352 L 139 352.5 L 138.5 354 L 141 355.5 L 143 360.5 L 143 367 L 129.5 367 L 129 364.5 L 129 362.5 L 131 356.5 L 130.5 355 L 133 354.5 L 132.5 353 L 134.5 354 L 134.5 352 Z " /><path fill="rgb(0,0,0)" stroke="rgb(0,0,0)" stroke-width="1" opacity="0" d="M 348.5 352 L 351 352.5 L 350.5 354 L 354 355.5 L 354.5 358 L 356 357.5 L 355 360.5 L 357 365.5 L 355.5 367 L 342.5 367 Q 340.3 366.3 341 362.5 L 342 362.5 L 342.5 366 L 343 358.5 L 342.5 357 L 344 356.5 L 343.5 355 L 346 354.5 L 345.5 353 L 348.5 354 L 348.5 352 Z " /><path fill="rgb(0,0,0)" stroke="rgb(0,0,0)" stroke-width="1" opacity="0" d="M 239.5 362 Q 241 364.5 246.5 363 L 255 369.5 L 255.5 371 L 257 370.5 L 256 372.5 L 258 372.5 L 257 375.5 L 258 376.5 L 258 415 L 228.5 415 L 227.5 416 L 227 375.5 Q 230.1 373.8 228.5 372 L 232 369.5 L 234.5 366 L 240 363.5 L 239.5 362 Z " /><path fill="rgb(0,0,0)" stroke="rgb(0,0,0)" stroke-width="1" opacity="0" d="M 108.5 377 L 111.5 378 L 169 378 L 169 415 L 105 415 L 105 378.5 L 107.5 378 L 108.5 377 Z M 118 391 L 118 394 L 119 395 Q 115 395 117 402 L 119 401 L 119 403 L 129 403 L 129 402 L 131 402 L 130 396 L 130 394 L 130 391 L 118 391 Z M 143 391 L 141 400 Q 139 404 143 403 L 143 401 L 145 403 L 155 403 L 155 397 L 154 396 L 155 391 L 148 392 L 146 392 L 143 391 Z " /><path fill="rgb(0,0,0)" stroke="rgb(0,0,0)" stroke-width="1" opacity="0" d="M 308.5 377 L 309 415 L 293 415 L 293 379 L 295.5 378 L 307.5 378 L 308.5 377 Z " /><path fill="rgb(0,0,0)" stroke="rgb(0,0,0)" stroke-width="1" opacity="0" d="M 180 378 L 192 378 L 192 391 L 180 391 L 180 378 Z " /><path fill="rgb(0,0,0)" stroke="rgb(0,0,0)" stroke-width="1" opacity="0" d="M 319 378 L 381 378 L 381 415 L 319 415 L 319 378 Z M 357 390 L 357 391 L 366 391 L 357 390 Z M 331 391 L 332 394 L 331 397 L 332 403 L 343 403 L 343 392 Q 335 393 331 391 Z M 356 392 L 356 399 L 355 395 L 354 402 L 356 401 L 356 403 L 367 403 L 367 402 L 367 400 L 367 392 L 356 392 Z " /><path fill="rgb(0,0,0)" stroke="rgb(0,0,0)" stroke-width="1" opacity="0" d="M 182.5 402 L 184.5 402 Q 190.5 400.5 192 403.5 L 193 415.5 L 191.5 415 L 180.5 415 L 179.5 416 L 179 413.5 Q 177.9 406.4 180.5 403 L 182 403.5 L 182.5 402 Z " /><path fill="rgb(0,0,0)" stroke="rgb(0,0,0)" stroke-width="1" opacity="0" d="M 202.5 412 L 203 414.5 L 202 414.5 L 202.5 412 Z " /><path fill="rgb(1,3,7)" stroke="rgb(1,3,7)" stroke-width="1" opacity="0.7215686274509804" d="M 241.5 203 Q 246 202 247 204.5 L 246.5 210 L 246 204 L 241.5 204 L 241.5 203 Z " /><path fill="rgb(1,3,7)" stroke="rgb(1,3,7)" stroke-width="1" opacity="0.7215686274509804" d="M 237.5 235 L 236.5 237 L 234 236.5 L 237.5 235 Z " /><path fill="rgb(1,3,7)" stroke="rgb(1,3,7)" stroke-width="1" opacity="0.7215686274509804" d="M 247.5 235 L 250 236.5 L 247 237 L 247.5 235 Z " /><path fill="rgb(1,3,7)" stroke="rgb(1,3,7)" stroke-width="1" opacity="0.7215686274509804" d="M 230.5 237 L 233 237.5 L 230.5 238 L 230.5 237 Z " /><path fill="rgb(1,3,7)" stroke="rgb(1,3,7)" stroke-width="1" opacity="0.7215686274509804" d="M 252.5 237 L 255 237.5 L 252.5 238 L 252.5 237 Z " /><path fill="rgb(1,3,7)" stroke="rgb(1,3,7)" stroke-width="1" opacity="0.7215686274509804" d="M 221.5 240 L 223 240.5 L 216.5 244 L 217.5 242 L 221.5 240 Z " /><path fill="rgb(1,3,7)" stroke="rgb(1,3,7)" stroke-width="1" opacity="0.7215686274509804" d="M 266.5 242 L 270 244.5 L 268.5 244 L 266.5 242 Z " /><path fill="rgb(1,3,7)" stroke="rgb(1,3,7)" stroke-width="1" opacity="0.7215686274509804" d="M 214.5 244 L 212.5 247 L 214.5 244 Z " /><path fill="rgb(1,3,7)" stroke="rgb(1,3,7)" stroke-width="1" opacity="0.7215686274509804" d="M 234.5 245 L 239 245.5 L 234.5 246 L 234.5 245 Z " /><path fill="rgb(1,3,7)" stroke="rgb(1,3,7)" stroke-width="1" opacity="0.7215686274509804" d="M 245.5 245 L 251 245.5 L 245.5 246 L 245.5 245 Z " /><path fill="rgb(1,3,7)" stroke="rgb(1,3,7)" stroke-width="1" opacity="0.7215686274509804" d="M 271.5 245 L 275.5 250 L 271.5 245 Z " /><path fill="rgb(1,3,7)" stroke="rgb(1,3,7)" stroke-width="1" opacity="0.7215686274509804" d="M 230.5 246 L 233 246.5 Q 224.5 248 219.5 253 L 221.5 250 L 230.5 246 Z " /><path fill="rgb(1,3,7)" stroke="rgb(1,3,7)" stroke-width="1" opacity="0.7215686274509804" d="M 252.5 246 L 257 247.5 L 255.5 248 L 252.5 247 L 252.5 246 Z " /><path fill="rgb(1,3,7)" stroke="rgb(1,3,7)" stroke-width="1" opacity="0.7215686274509804" d="M 210.5 247 L 205.5 253 L 210.5 247 Z " /><path fill="rgb(1,3,7)" stroke="rgb(1,3,7)" stroke-width="1" opacity="0.7215686274509804" d="M 258.5 248 L 261 249.5 L 259.5 250 L 258.5 248 Z " /><path fill="rgb(1,3,7)" stroke="rgb(1,3,7)" stroke-width="1" opacity="0.7215686274509804" d="M 262.5 250 L 267 253.5 L 264.5 252 L 262.5 250 Z " /><path fill="rgb(1,3,7)" stroke="rgb(1,3,7)" stroke-width="1" opacity="0.7215686274509804" d="M 277.5 250 L 278.5 252 L 277.5 250 Z " /><path fill="rgb(1,3,7)" stroke="rgb(1,3,7)" stroke-width="1" opacity="0.7215686274509804" d="M 217.5 253 L 211 260.5 L 207.5 266 L 208 264.5 Q 211 257 217.5 253 Z " /><path fill="rgb(1,3,7)" stroke="rgb(1,3,7)" stroke-width="1" opacity="0.7215686274509804" d="M 279.5 253 L 282.5 257 L 279.5 253 Z " /><path fill="rgb(1,3,7)" stroke="rgb(1,3,7)" stroke-width="1" opacity="0.7215686274509804" d="M 204.5 254 L 202.5 257 L 204.5 254 Z " /><path fill="rgb(1,3,7)" stroke="rgb(1,3,7)" stroke-width="1" opacity="0.7215686274509804" d="M 268.5 254 L 273.5 260 L 268.5 254 Z " /><path fill="rgb(1,3,7)" stroke="rgb(1,3,7)" stroke-width="1" opacity="0.7215686274509804" d="M 201.5 258 L 200.5 260 L 201.5 258 Z " /><path fill="rgb(1,3,7)" stroke="rgb(1,3,7)" stroke-width="1" opacity="0.7215686274509804" d="M 283.5 258 L 284.5 260 L 283.5 258 Z " /><path fill="rgb(1,3,7)" stroke="rgb(1,3,7)" stroke-width="1" opacity="0.7215686274509804" d="M 274.5 261 L 276.5 264 L 274.5 261 Z " /><path fill="rgb(1,3,7)" stroke="rgb(1,3,7)" stroke-width="1" opacity="0.7215686274509804" d="M 198.5 263 L 198 264.5 L 197.5 266 L 197 264.5 L 198.5 263 Z " /><path fill="rgb(1,3,7)" stroke="rgb(1,3,7)" stroke-width="1" opacity="0.7215686274509804" d="M 206.5 267 L 206 268.5 L 205.5 270 L 205 268.5 L 206.5 267 Z " /><path fill="rgb(1,3,7)" stroke="rgb(1,3,7)" stroke-width="1" opacity="0.7215686274509804" d="M 193.5 275 L 194 278.5 L 193 278.5 L 193.5 275 Z " /><path fill="rgb(1,3,7)" stroke="rgb(1,3,7)" stroke-width="1" opacity="0.7215686274509804" d="M 291.5 276 L 292 279.5 L 291 279.5 L 291.5 276 Z " /><path fill="rgb(1,3,7)" stroke="rgb(1,3,7)" stroke-width="1" opacity="0.7215686274509804" d="M 282.5 277 L 283 280.5 L 282 280.5 L 282.5 277 Z " /><path fill="rgb(1,3,7)" stroke="rgb(1,3,7)" stroke-width="1" opacity="0.7215686274509804" d="M 202.5 278 L 203 284.5 L 202 284.5 L 202.5 278 Z " /><path fill="rgb(1,3,7)" stroke="rgb(1,3,7)" stroke-width="1" opacity="0.7215686274509804" d="M 397.5 291 L 401 291.5 L 397.5 292 L 397.5 291 Z " /><path fill="rgb(1,3,7)" stroke="rgb(1,3,7)" stroke-width="1" opacity="0.7215686274509804" d="M 82.5 292 L 84 292.5 L 82 293 L 81.5 296 L 81 293.5 L 82.5 292 Z " /><path fill="rgb(1,3,7)" stroke="rgb(1,3,7)" stroke-width="1" opacity="0.7215686274509804" d="M 89.5 292 L 91 292.5 L 91 304.5 L 93.5 308 L 90 304.5 L 90 293.5 L 89.5 292 Z " /><path fill="rgb(1,3,7)" stroke="rgb(1,3,7)" stroke-width="1" opacity="0.7215686274509804" d="M 395.5 292 L 395 293.5 L 394.5 306 L 394 293.5 L 395.5 292 Z " /><path fill="rgb(1,3,7)" stroke="rgb(1,3,7)" stroke-width="1" opacity="0.7215686274509804" d="M 403.5 292 L 404 304.5 L 403 304.5 L 403.5 292 Z " /><path fill="rgb(1,3,7)" stroke="rgb(1,3,7)" stroke-width="1" opacity="0.7215686274509804" d="M 283.5 299 L 284 301.5 L 283 301.5 L 283.5 299 Z " /><path fill="rgb(1,3,7)" stroke="rgb(1,3,7)" stroke-width="1" opacity="0.7215686274509804" d="M 202.5 305 L 283 305.5 L 202.5 306 L 202.5 305 Z " /><path fill="rgb(1,3,7)" stroke="rgb(1,3,7)" stroke-width="1" opacity="0.7215686274509804" d="M 78.5 306 L 80 306.5 L 77.5 308 L 78.5 306 Z " /><path fill="rgb(1,3,7)" stroke="rgb(1,3,7)" stroke-width="1" opacity="0.7215686274509804" d="M 405.5 306 L 406.5 308 L 405.5 306 Z " /><path fill="rgb(1,3,7)" stroke="rgb(1,3,7)" stroke-width="1" opacity="0.7215686274509804" d="M 390.5 307 L 389.5 309 L 390.5 307 Z " /><path fill="rgb(1,3,7)" stroke="rgb(1,3,7)" stroke-width="1" opacity="0.7215686274509804" d="M 75.5 308 L 73 311.5 L 71.5 314 L 72 312.5 L 75.5 308 Z " /><path fill="rgb(1,3,7)" stroke="rgb(1,3,7)" stroke-width="1" opacity="0.7215686274509804" d="M 95.5 308 L 96.5 310 L 95.5 308 Z " /><path fill="rgb(1,3,7)" stroke="rgb(1,3,7)" stroke-width="1" opacity="0.7215686274509804" d="M 408.5 308 L 413.5 314 L 408.5 308 Z " /><path fill="rgb(1,3,7)" stroke="rgb(1,3,7)" stroke-width="1" opacity="0.7215686274509804" d="M 387.5 309 L 385.5 312 L 387.5 309 Z " /><path fill="rgb(1,3,7)" stroke="rgb(1,3,7)" stroke-width="1" opacity="0.7215686274509804" d="M 98.5 310 Q 102.3 312.7 103 318.5 L 102 318.5 L 98.5 310 Z " /><path fill="rgb(1,3,7)" stroke="rgb(1,3,7)" stroke-width="1" opacity="0.7215686274509804" d="M 384.5 313 L 384 314.5 L 382.5 319 L 382 316.5 L 384.5 313 Z " /><path fill="rgb(1,3,7)" stroke="rgb(1,3,7)" stroke-width="1" opacity="0.7215686274509804" d="M 83.5 314 Q 91.5 312.5 93 317.5 L 89.5 315 Q 82.8 313.8 80.5 317 L 80.5 316 L 83.5 314 Z " /><path fill="rgb(1,3,7)" stroke="rgb(1,3,7)" stroke-width="1" opacity="0.7215686274509804" d="M 202 314 L 283 314.5 L 203 315 L 202.5 317 L 202 314 Z " /><path fill="rgb(1,3,7)" stroke="rgb(1,3,7)" stroke-width="1" opacity="0.7215686274509804" d="M 396.5 314 Q 404.1 312.9 406 317.5 L 407 320.5 L 406 320.5 L 403.5 316 L 396.5 315 L 392.5 318 L 394.5 315 L 396.5 314 Z " /><path fill="rgb(1,3,7)" stroke="rgb(1,3,7)" stroke-width="1" opacity="0.7215686274509804" d="M 79.5 318 L 79 319.5 L 78.5 322 L 78 319.5 L 79.5 318 Z " /><path fill="rgb(1,3,7)" stroke="rgb(1,3,7)" stroke-width="1" opacity="0.7215686274509804" d="M 416.5 320 L 417 416 L 443.5 416 L 444 417.5 L 442.5 417 L 417.5 417 L 416 415.5 L 416.5 320 Z " /><path fill="rgb(1,3,7)" stroke="rgb(1,3,7)" stroke-width="1" opacity="0.7215686274509804" d="M 103.5 321 L 104 367 L 118.5 367 L 119 364.5 L 120 364.5 L 118.5 368 L 103.5 368 L 103 367.5 L 103.5 321 Z " /><path fill="rgb(1,3,7)" stroke="rgb(1,3,7)" stroke-width="1" opacity="0.7215686274509804" d="M 68.5 322 L 69 371.5 L 68 371.5 L 68.5 322 Z " /><path fill="rgb(1,3,7)" stroke="rgb(1,3,7)" stroke-width="1" opacity="0.7215686274509804" d="M 94.5 322 L 95 328.5 L 93 329.5 L 94.5 322 Z " /><path fill="rgb(1,3,7)" stroke="rgb(1,3,7)" stroke-width="1" opacity="0.7215686274509804" d="M 390.5 322 L 392 329.5 L 390 330 L 390.5 322 Z " /><path fill="rgb(1,3,7)" stroke="rgb(1,3,7)" stroke-width="1" opacity="0.7215686274509804" d="M 77.5 324 L 78 329 L 86 329.5 L 78.5 330 Q 75.6 328.6 77.5 324 Z " /><path fill="rgb(1,3,7)" stroke="rgb(1,3,7)" stroke-width="1" opacity="0.7215686274509804" d="M 202.5 329 L 203.5 331 L 202.5 329 Z " /><path fill="rgb(1,3,7)" stroke="rgb(1,3,7)" stroke-width="1" opacity="0.7215686274509804" d="M 282.5 329 L 281.5 331 L 276 330.5 L 282.5 329 Z " /><path fill="rgb(1,3,7)" stroke="rgb(1,3,7)" stroke-width="1" opacity="0.7215686274509804" d="M 393.5 329 L 398 329.5 L 393.5 330 L 393.5 329 Z " /><path fill="rgb(1,3,7)" stroke="rgb(1,3,7)" stroke-width="1" opacity="0.7215686274509804" d="M 170 330 L 174 330.5 L 171 331 L 170.5 366 L 170 330 Z " /><path fill="rgb(1,3,7)" stroke="rgb(1,3,7)" stroke-width="1" opacity="0.7215686274509804" d="M 316.5 330 L 318 330.5 L 318 350.5 L 317 350.5 L 317 331.5 L 316.5 330 Z " /><path fill="rgb(1,3,7)" stroke="rgb(1,3,7)" stroke-width="1" opacity="0.7215686274509804" d="M 79.5 338 L 92.5 338 L 94 339.5 L 92.5 339 L 79.5 339 L 78.5 340 L 79.5 338 Z " /><path fill="rgb(1,3,7)" stroke="rgb(1,3,7)" stroke-width="1" opacity="0.7215686274509804" d="M 179.5 338 L 193 338.5 L 179.5 339 L 178.5 340 L 179.5 338 Z " /><path fill="rgb(1,3,7)" stroke="rgb(1,3,7)" stroke-width="1" opacity="0.7215686274509804" d="M 202 338 L 283 338.5 L 203.5 339 L 202.5 340 L 202 338 Z " /><path fill="rgb(1,3,7)" stroke="rgb(1,3,7)" stroke-width="1" opacity="0.7215686274509804" d="M 292.5 338 L 307.5 338 L 309 339.5 L 307.5 339 L 292.5 339 L 292 342.5 L 291 342.5 Q 290.3 338.8 292.5 338 Z " /><path fill="rgb(1,3,7)" stroke="rgb(1,3,7)" stroke-width="1" opacity="0.7215686274509804" d="M 390 338 L 405.5 338 L 407 339.5 L 405.5 339 L 391.5 339 L 391 340.5 L 390 340.5 L 390 338 Z " /><path fill="rgb(1,3,7)" stroke="rgb(1,3,7)" stroke-width="1" opacity="0.7215686274509804" d="M 390.5 342 L 391 359.5 L 390 359.5 L 390.5 342 Z " /><path fill="rgb(1,3,7)" stroke="rgb(1,3,7)" stroke-width="1" opacity="0.7215686274509804" d="M 133.5 343 L 139 343.5 L 133.5 344 L 133.5 343 Z " /><path fill="rgb(1,3,7)" stroke="rgb(1,3,7)" stroke-width="1" opacity="0.7215686274509804" d="M 345.5 343 L 353 343.5 L 345.5 344 L 345.5 343 Z " /><path fill="rgb(1,3,7)" stroke="rgb(1,3,7)" stroke-width="1" opacity="0.7215686274509804" d="M 129.5 344 L 132 344.5 L 126.5 347 L 127.5 345 L 129.5 344 Z " /><path fill="rgb(1,3,7)" stroke="rgb(1,3,7)" stroke-width="1" opacity="0.7215686274509804" d="M 342.5 344 L 344 344.5 L 336.5 349 L 338.5 346 L 342.5 344 Z " /><path fill="rgb(1,3,7)" stroke="rgb(1,3,7)" stroke-width="1" opacity="0.7215686274509804" d="M 354.5 344 L 360 347.5 L 357.5 346 Q 353.8 345.7 354.5 344 Z " /><path fill="rgb(1,3,7)" stroke="rgb(1,3,7)" stroke-width="1" opacity="0.7215686274509804" d="M 143.5 345 L 150 350.5 L 144.5 346 L 143.5 345 Z " /><path fill="rgb(1,3,7)" stroke="rgb(1,3,7)" stroke-width="1" opacity="0.7215686274509804" d="M 124.5 347 L 123.5 349 L 124.5 347 Z " /><path fill="rgb(1,3,7)" stroke="rgb(1,3,7)" stroke-width="1" opacity="0.7215686274509804" d="M 122.5 350 L 122 351.5 L 121.5 353 L 121 351.5 L 122.5 350 Z " /><path fill="rgb(1,3,7)" stroke="rgb(1,3,7)" stroke-width="1" opacity="0.7215686274509804" d="M 135.5 351 L 138 351.5 L 135.5 352 L 135.5 351 Z " /><path fill="rgb(1,3,7)" stroke="rgb(1,3,7)" stroke-width="1" opacity="0.7215686274509804" d="M 132.5 352 L 134 352.5 L 130.5 355 L 132.5 352 Z " /><path fill="rgb(1,3,7)" stroke="rgb(1,3,7)" stroke-width="1" opacity="0.7215686274509804" d="M 139.5 352 L 143 356.5 L 142 356.5 L 139.5 352 Z " /><path fill="rgb(1,3,7)" stroke="rgb(1,3,7)" stroke-width="1" opacity="0.7215686274509804" d="M 351.5 352 L 355 354.5 L 352.5 353 L 351.5 352 Z " /><path fill="rgb(1,3,7)" stroke="rgb(1,3,7)" stroke-width="1" opacity="0.7215686274509804" d="M 239.5 353 L 248 353.5 L 239.5 354 L 239.5 353 Z " /><path fill="rgb(1,3,7)" stroke="rgb(1,3,7)" stroke-width="1" opacity="0.7215686274509804" d="M 344.5 353 L 343.5 355 L 344.5 353 Z " /><path fill="rgb(1,3,7)" stroke="rgb(1,3,7)" stroke-width="1" opacity="0.7215686274509804" d="M 232.5 355 L 234 355.5 L 224 362.5 L 221.5 366 L 223 363.5 L 227.5 358 L 232.5 355 Z " /><path fill="rgb(1,3,7)" stroke="rgb(1,3,7)" stroke-width="1" opacity="0.7215686274509804" d="M 255.5 356 L 264 363.5 L 265 365.5 L 263 364.5 L 257.5 358 L 255.5 356 Z " /><path fill="rgb(1,3,7)" stroke="rgb(1,3,7)" stroke-width="1" opacity="0.7215686274509804" d="M 119.5 357 L 120 360.5 L 119 360.5 L 119.5 357 Z " /><path fill="rgb(1,3,7)" stroke="rgb(1,3,7)" stroke-width="1" opacity="0.7215686274509804" d="M 143.5 358 L 144 360.5 L 143 360.5 L 143.5 358 Z " /><path fill="rgb(1,3,7)" stroke="rgb(1,3,7)" stroke-width="1" opacity="0.7215686274509804" d="M 332.5 358 L 333 368 L 318 367.5 L 332 367 L 332.5 358 Z " /><path fill="rgb(1,3,7)" stroke="rgb(1,3,7)" stroke-width="1" opacity="0.7215686274509804" d="M 341.5 358 L 342 361.5 L 341 361.5 L 341.5 358 Z " /><path fill="rgb(1,3,7)" stroke="rgb(1,3,7)" stroke-width="1" opacity="0.7215686274509804" d="M 356.5 358 L 357 360.5 L 356 360.5 L 356.5 358 Z " /><path fill="rgb(1,3,7)" stroke="rgb(1,3,7)" stroke-width="1" opacity="0.7215686274509804" d="M 365.5 358 L 366 367 L 380.5 367 L 381 365.5 L 382 365.5 L 381.5 368 L 366.5 368 L 365 366.5 L 365.5 358 Z " /><path fill="rgb(1,3,7)" stroke="rgb(1,3,7)" stroke-width="1" opacity="0.7215686274509804" d="M 128.5 359 L 129 362.5 L 128 362.5 L 128.5 359 Z " /><path fill="rgb(1,3,7)" stroke="rgb(1,3,7)" stroke-width="1" opacity="0.7215686274509804" d="M 152.5 359 L 153 363.5 L 152 363.5 L 152.5 359 Z " /><path fill="rgb(1,3,7)" stroke="rgb(1,3,7)" stroke-width="1" opacity="0.7215686274509804" d="M 77.5 360 L 78 416 L 94 416.5 L 78.5 417 L 77 415.5 L 77.5 360 Z " /><path fill="rgb(1,3,7)" stroke="rgb(1,3,7)" stroke-width="1" opacity="0.7215686274509804" d="M 241.5 361 L 246 361.5 L 241.5 362 L 241.5 361 Z " /><path fill="rgb(1,3,7)" stroke="rgb(1,3,7)" stroke-width="1" opacity="0.7215686274509804" d="M 247.5 362 Q 254.4 363.6 257 369.5 L 250.5 364 Q 246.7 363.7 247.5 362 Z " /><path fill="rgb(1,3,7)" stroke="rgb(1,3,7)" stroke-width="1" opacity="0.7215686274509804" d="M 357.5 362 L 358 364.5 L 357 364.5 L 357.5 362 Z " /><path fill="rgb(1,3,7)" stroke="rgb(1,3,7)" stroke-width="1" opacity="0.7215686274509804" d="M 235.5 363 L 237 363.5 L 229.5 370 L 235.5 363 Z " /><path fill="rgb(1,3,7)" stroke="rgb(1,3,7)" stroke-width="1" opacity="0.7215686274509804" d="M 128.5 364 L 129 366.5 L 128 366.5 L 128.5 364 Z " /><path fill="rgb(1,3,7)" stroke="rgb(1,3,7)" stroke-width="1" opacity="0.7215686274509804" d="M 179.5 365 L 180 367 L 193 367.5 L 180.5 368 L 179.5 365 Z " /><path fill="rgb(1,3,7)" stroke="rgb(1,3,7)" stroke-width="1" opacity="0.7215686274509804" d="M 153.5 366 L 154.5 367 L 170 367.5 L 154.5 368 L 153.5 366 Z " /><path fill="rgb(1,3,7)" stroke="rgb(1,3,7)" stroke-width="1" opacity="0.7215686274509804" d="M 308.5 366 L 307.5 368 L 292 367.5 L 307.5 367 L 308.5 366 Z " /><path fill="rgb(1,3,7)" stroke="rgb(1,3,7)" stroke-width="1" opacity="0.7215686274509804" d="M 130.5 367 L 142 367.5 L 130.5 368 L 130.5 367 Z " /><path fill="rgb(1,3,7)" stroke="rgb(1,3,7)" stroke-width="1" opacity="0.7215686274509804" d="M 283.5 367 L 284 370.5 L 283 370.5 L 283.5 367 Z " /><path fill="rgb(1,3,7)" stroke="rgb(1,3,7)" stroke-width="1" opacity="0.7215686274509804" d="M 343.5 367 L 354 367.5 L 343.5 368 L 343.5 367 Z " /><path fill="rgb(1,3,7)" stroke="rgb(1,3,7)" stroke-width="1" opacity="0.7215686274509804" d="M 218.5 372 L 219 374.5 L 218 374.5 L 218.5 372 Z " /><path fill="rgb(1,3,7)" stroke="rgb(1,3,7)" stroke-width="1" opacity="0.7215686274509804" d="M 267.5 372 L 268 374.5 L 267 374.5 L 267.5 372 Z " /><path fill="rgb(1,3,7)" stroke="rgb(1,3,7)" stroke-width="1" opacity="0.7215686274509804" d="M 283.5 372 L 284 397.5 L 283 397.5 L 283.5 372 Z " /><path fill="rgb(1,3,7)" stroke="rgb(1,3,7)" stroke-width="1" opacity="0.7215686274509804" d="M 390.5 373 L 391 416 L 407 416.5 L 391.5 417 L 390 415.5 L 390.5 373 Z " /><path fill="rgb(1,3,7)" stroke="rgb(1,3,7)" stroke-width="1" opacity="0.7215686274509804" d="M 104.5 376 L 169.5 376 L 171 377.5 L 171 415.5 L 169.5 417 L 104.5 417 L 103 415.5 L 103 377.5 L 104.5 376 Z M 104 377 L 104 416 L 170 416 L 170 377 L 104 377 Z " /><path fill="rgb(1,3,7)" stroke="rgb(1,3,7)" stroke-width="1" opacity="0.7215686274509804" d="M 179.5 376 L 192.5 376 L 194 377.5 L 193.5 379 L 193 377 L 179.5 377 L 179 380.5 L 178 380.5 Q 177.3 376.8 179.5 376 Z " /><path fill="rgb(1,3,7)" stroke="rgb(1,3,7)" stroke-width="1" opacity="0.7215686274509804" d="M 292.5 376 L 309 376.5 L 292.5 377 L 292.5 376 Z " /><path fill="rgb(1,3,7)" stroke="rgb(1,3,7)" stroke-width="1" opacity="0.7215686274509804" d="M 318.5 376 L 382 376.5 L 318 377 L 317.5 415 L 317 377.5 L 318.5 376 Z " /><path fill="rgb(1,3,7)" stroke="rgb(1,3,7)" stroke-width="1" opacity="0.7215686274509804" d="M 259.5 377 L 260 415.5 L 258.5 417 L 227.5 417 L 227.5 416 L 259 416 L 259.5 377 Z " /><path fill="rgb(1,3,7)" stroke="rgb(1,3,7)" stroke-width="1" opacity="0.7215686274509804" d="M 226.5 379 L 227 391.5 L 226 391.5 L 226.5 379 Z " /><path fill="rgb(1,3,7)" stroke="rgb(1,3,7)" stroke-width="1" opacity="0.7215686274509804" d="M 119 392 L 129 392.5 L 120.5 393 L 119.5 394 L 119 392 Z " /><path fill="rgb(1,3,7)" stroke="rgb(1,3,7)" stroke-width="1" opacity="0.7215686274509804" d="M 143 392 L 152.5 392 L 154 393.5 L 154 401.5 L 151.5 402 L 151.5 401 L 153 400.5 L 153 393 L 144.5 393 L 143.5 394 L 143 392 Z " /><path fill="rgb(1,3,7)" stroke="rgb(1,3,7)" stroke-width="1" opacity="0.7215686274509804" d="M 179.5 392 L 193 392.5 L 179.5 393 L 179.5 392 Z " /><path fill="rgb(1,3,7)" stroke="rgb(1,3,7)" stroke-width="1" opacity="0.7215686274509804" d="M 332.5 392 L 343 392 L 343 402 L 341 401.5 L 342 400.5 L 342 393 L 332.5 393 L 332.5 392 Z " /><path fill="rgb(1,3,7)" stroke="rgb(1,3,7)" stroke-width="1" opacity="0.7215686274509804" d="M 356.5 392 L 364 392.5 L 356.5 393 L 356.5 392 Z " /><path fill="rgb(1,3,7)" stroke="rgb(1,3,7)" stroke-width="1" opacity="0.7215686274509804" d="M 366.5 392 L 367 402 L 365 401.5 L 366 400.5 L 366.5 392 Z " /><path fill="rgb(1,3,7)" stroke="rgb(1,3,7)" stroke-width="1" opacity="0.7215686274509804" d="M 118.5 395 L 119 401 L 128.5 401 L 129.5 400 L 128.5 402 L 119.5 402 L 118 400.5 L 118.5 395 Z " /><path fill="rgb(1,3,7)" stroke="rgb(1,3,7)" stroke-width="1" opacity="0.7215686274509804" d="M 331.5 396 L 332 401 L 337 401.5 L 332.5 402 Q 329.6 400.6 331.5 396 Z " /><path fill="rgb(1,3,7)" stroke="rgb(1,3,7)" stroke-width="1" opacity="0.7215686274509804" d="M 142.5 399 L 143 401 L 149 401.5 L 143.5 402 L 142.5 399 Z " /><path fill="rgb(1,3,7)" stroke="rgb(1,3,7)" stroke-width="1" opacity="0.7215686274509804" d="M 355.5 399 L 356 401 L 358 401.5 L 356.5 402 L 355.5 399 Z " /><path fill="rgb(1,3,7)" stroke="rgb(1,3,7)" stroke-width="1" opacity="0.7215686274509804" d="M 283.5 400 L 284 409.5 L 283 409.5 L 283.5 400 Z " /><path fill="rgb(1,3,7)" stroke="rgb(1,3,7)" stroke-width="1" opacity="0.7215686274509804" d="M 179.5 401 L 193 401.5 L 179.5 402 L 179.5 401 Z " /><path fill="rgb(1,3,7)" stroke="rgb(1,3,7)" stroke-width="1" opacity="0.7215686274509804" d="M 359.5 401 L 364 401.5 L 359.5 402 L 359.5 401 Z " /><path fill="rgb(1,3,7)" stroke="rgb(1,3,7)" stroke-width="1" opacity="0.7215686274509804" d="M 94.5 403 L 95 414.5 L 94 414.5 L 94.5 403 Z " /><path fill="rgb(1,3,7)" stroke="rgb(1,3,7)" stroke-width="1" opacity="0.7215686274509804" d="M 68.5 415 L 69 417 L 42.5 417 L 42 417.5 L 42 425 L 442.5 425 Q 443.5 425 443 420.5 L 444 420.5 Q 444.6 425.9 443.5 426 L 41 426 L 41 416 L 67.5 416 L 68.5 415 Z " /><path fill="rgb(1,3,7)" stroke="rgb(1,3,7)" stroke-width="1" opacity="0.7215686274509804" d="M 202.5 415 L 203.5 416 L 217 416.5 L 202 417 L 202.5 415 Z " /><path fill="rgb(1,3,7)" stroke="rgb(1,3,7)" stroke-width="1" opacity="0.7215686274509804" d="M 282.5 415 L 283 417 L 268 416.5 L 281.5 416 L 282.5 415 Z " /><path fill="rgb(1,3,7)" stroke="rgb(1,3,7)" stroke-width="1" opacity="0.7215686274509804" d="M 292.5 415 L 293.5 416 L 307.5 416 L 309 415.5 L 308.5 417 L 293.5 417 L 292.5 415 Z " /><path fill="rgb(1,3,7)" stroke="rgb(1,3,7)" stroke-width="1" opacity="0.7215686274509804" d="M 381.5 415 L 380.5 417 L 318 416.5 L 380.5 416 L 381.5 415 Z " /><path fill="rgb(1,3,7)" stroke="rgb(1,3,7)" stroke-width="1" opacity="0.7215686274509804" d="M 179.5 416 L 193 416.5 L 179.5 417 L 179.5 416 Z " /><path fill="rgb(12,13,16)" stroke="rgb(12,13,16)" stroke-width="1" opacity="0.8901960784313725" d="M 272.5 257 L 273.5 259 L 272.5 257 Z " /><path fill="rgb(12,13,16)" stroke="rgb(12,13,16)" stroke-width="1" opacity="0.8901960784313725" d="M 87 292 L 89 292.5 L 87 293.5 L 87 292 Z " /><path fill="rgb(12,13,16)" stroke="rgb(12,13,16)" stroke-width="1" opacity="0.8901960784313725" d="M 398.5 292 L 402 294.5 L 400.5 294 L 398.5 292 Z " /><path fill="rgb(12,13,16)" stroke="rgb(12,13,16)" stroke-width="1" opacity="0.8901960784313725" d="M 388.5 309 L 387.5 311 L 388.5 309 Z " /><path fill="rgb(12,13,16)" stroke="rgb(12,13,16)" stroke-width="1" opacity="0.8901960784313725" d="M 82.5 314 L 81.5 316 L 82.5 314 Z " /><path fill="rgb(12,13,16)" stroke="rgb(12,13,16)" stroke-width="1" opacity="0.8901960784313725" d="M 283.5 321 L 284 324.5 L 283 324.5 L 283.5 321 Z " /><path fill="rgb(12,13,16)" stroke="rgb(12,13,16)" stroke-width="1" opacity="0.8901960784313725" d="M 174.5 330 L 190 330.5 L 174.5 331 L 174.5 330 Z " /><path fill="rgb(12,13,16)" stroke="rgb(12,13,16)" stroke-width="1" opacity="0.8901960784313725" d="M 207.5 330 L 211 330.5 L 207.5 331 L 207.5 330 Z " /><path fill="rgb(12,13,16)" stroke="rgb(12,13,16)" stroke-width="1" opacity="0.8901960784313725" d="M 216.5 330 L 276 330.5 L 216.5 331 L 216.5 330 Z " /><path fill="rgb(12,13,16)" stroke="rgb(12,13,16)" stroke-width="1" opacity="0.8901960784313725" d="M 294.5 330 L 316 330.5 L 294.5 331 L 294.5 330 Z " /><path fill="rgb(12,13,16)" stroke="rgb(12,13,16)" stroke-width="1" opacity="0.8901960784313725" d="M 400.5 330 L 403 330.5 L 400.5 331 L 400.5 330 Z " /><path fill="rgb(12,13,16)" stroke="rgb(12,13,16)" stroke-width="1" opacity="0.8901960784313725" d="M 283.5 342 L 284 351.5 L 283 351.5 L 283.5 342 Z " /><path fill="rgb(12,13,16)" stroke="rgb(12,13,16)" stroke-width="1" opacity="0.8901960784313725" d="M 234.5 363 L 232.5 366 L 234.5 363 Z " /><path fill="rgb(12,13,16)" stroke="rgb(12,13,16)" stroke-width="1" opacity="0.8901960784313725" d="M 254.5 365 L 255.5 367 L 254.5 365 Z " /><path fill="rgb(12,13,16)" stroke="rgb(12,13,16)" stroke-width="1" opacity="0.8901960784313725" d="M 152.5 366 L 153.5 368 L 152.5 366 Z " /><path fill="rgb(12,13,16)" stroke="rgb(12,13,16)" stroke-width="1" opacity="0.8901960784313725" d="M 319.5 375 L 323 375.5 L 319.5 376 L 319.5 375 Z " /><path fill="rgb(12,13,16)" stroke="rgb(12,13,16)" stroke-width="1" opacity="0.8901960784313725" d="M 364.5 392 L 366 392.5 L 365.5 395 L 363.5 394 L 363.5 396 L 362 393 L 364.5 392 Z " /><path fill="rgb(12,13,16)" stroke="rgb(12,13,16)" stroke-width="1" opacity="0.8901960784313725" d="M 340.5 393 L 341.5 397 Q 337 395 340.5 393 Z " /><path fill="rgb(12,13,16)" stroke="rgb(12,13,16)" stroke-width="1" opacity="0.8901960784313725" d="M 361.5 397 L 365 399.5 L 364.5 402 L 362.5 398 L 361.5 397 Z " /><path fill="rgb(2,3,4)" stroke="rgb(2,3,4)" stroke-width="1" opacity="0.996078431372549" d="M 242.5 204 L 246 204.5 L 246 235.5 L 248.5 238 Q 259.9 238.1 266.5 243 L 281 255.5 L 285 261.5 L 284.5 263 Q 287.1 262.2 286 265.5 L 291 275.5 L 291 325.5 L 292 331 L 317 331 L 317 366.5 L 318.5 368 L 333 368 Q 331.3 352 340.5 346 Q 344.5 343 352.5 344 L 362 350.5 Q 366.7 356.6 365 368 L 381.5 368 L 383 366.5 L 383 317.5 Q 384.6 310.6 390.5 308 Q 394.5 308.5 395 305.5 L 395 293.5 L 398.5 293 L 400 292.5 L 399.5 294 L 403 293 L 403 304.5 L 402 305.5 L 413 313.5 L 414 316.5 L 413.5 318 L 415 318.5 L 414.5 320 L 416 320.5 L 416 416.5 L 416.5 417 L 442.5 417 L 443 417.5 L 443 425 L 42.5 425 L 42 424.5 L 42 417 L 68.5 417 L 70 415.5 Q 71.2 410.8 69 409.5 L 70 408.5 L 70 367.5 L 69 366.5 L 69 322.5 Q 71.2 321.3 70 316.5 L 77.5 308 L 83 304.5 L 82 293 L 87.5 294 L 90 293 L 90 305.5 L 92.5 308 L 100 313.5 L 103 320.5 L 103 368 L 120 368 L 120 357.5 Q 121.1 350.1 126.5 347 Q 130 343.5 137.5 344 L 145 347.5 L 145.5 349 Q 147.3 346.2 149 350.5 L 152 359.5 L 152 366.5 L 153.5 368 L 169.5 368 L 171 366.5 L 171 331 L 192.5 331 L 194 329.5 L 194 288.5 L 194 284.5 L 194 276.5 L 198 264.5 Q 203.8 253.3 213.5 246 L 224.5 240 L 234.5 238 L 239 235.5 L 239.5 205 Q 241 207.5 242.5 204 Z M 239 244 L 227 247 L 217 254 Q 214 253 215 256 L 212 257 L 205 268 L 202 277 L 202 297 L 201 298 Q 199 304 203 306 L 283 306 L 284 305 L 284 281 L 283 276 Q 280 265 274 259 Q 266 251 256 246 L 246 244 L 239 244 Z M 87 313 L 79 316 Q 76 321 77 330 L 80 331 L 94 331 L 95 330 Q 97 320 93 317 Q 91 313 87 313 Z M 204 313 L 201 318 L 202 321 L 201 323 Q 200 329 202 331 L 283 331 L 284 330 L 284 314 L 279 314 L 277 314 L 208 314 L 206 313 L 204 313 Z M 398 313 L 394 315 Q 388 319 390 330 L 392 331 L 404 331 L 405 332 L 408 330 L 407 319 L 407 317 L 404 315 Q 402 311 401 314 L 398 313 Z M 79 337 L 77 340 L 77 417 L 78 417 L 94 417 L 95 416 L 95 340 L 94 338 L 80 338 L 79 337 Z M 203 337 L 201 341 L 202 414 L 202 416 L 203 417 L 218 417 L 219 416 L 219 374 L 223 365 Q 228 356 240 354 Q 254 353 260 360 Q 265 365 267 373 L 267 411 L 268 412 L 267 416 L 269 417 L 283 417 L 284 416 L 284 338 L 281 337 L 280 338 L 206 338 L 203 337 Z M 405 337 L 404 338 L 390 338 L 390 357 L 389 358 Q 387 364 390 366 L 390 417 L 407 417 L 407 414 L 407 412 L 407 347 L 408 346 L 407 343 L 408 341 L 407 338 L 405 337 Z M 178 338 L 178 350 L 179 351 L 179 368 L 193 368 L 194 367 L 194 340 L 193 338 L 178 338 Z M 291 338 L 291 368 L 293 368 L 295 368 L 309 368 L 309 342 L 309 340 L 309 338 L 291 338 Z M 134 351 L 131 352 L 128 358 L 128 367 L 130 368 L 143 368 L 145 367 Q 146 359 142 354 Q 140 350 134 351 Z M 348 351 L 346 352 Q 341 355 340 362 Q 339 367 343 368 L 355 368 L 358 366 L 358 361 L 355 354 Q 353 350 348 351 Z M 240 361 L 235 363 Q 228 366 227 375 L 227 377 L 226 378 L 226 413 L 225 414 L 229 418 L 260 417 L 260 375 L 256 367 L 248 361 L 240 361 Z M 143 375 L 142 376 L 103 376 L 103 417 L 115 417 L 116 418 L 117 417 L 170 417 L 171 416 L 171 377 L 170 375 L 163 376 L 160 375 L 149 375 L 148 376 L 143 375 Z M 190 375 L 189 376 L 178 376 L 178 392 L 184 394 Q 188 395 190 393 L 192 394 L 194 392 L 194 377 Q 193 374 190 375 Z M 294 375 L 291 378 L 291 409 L 290 410 Q 292 411 291 416 L 293 417 L 309 417 L 309 395 L 310 394 L 309 390 L 310 388 L 309 386 L 310 383 L 310 379 L 308 375 L 299 376 L 297 376 L 294 375 Z M 320 375 L 319 376 L 317 377 L 317 416 L 319 417 L 382 417 L 383 416 L 383 378 L 382 376 L 373 376 L 370 375 L 366 376 L 335 376 L 334 375 L 331 376 L 320 375 Z M 183 400 L 178 401 L 178 415 L 179 416 L 180 417 L 193 417 L 194 416 L 194 403 L 192 401 L 190 401 Q 184 403 183 400 Z " /><path fill="rgb(2,3,4)" stroke="rgb(2,3,4)" stroke-width="1" opacity="0.996078431372549" d="M 120 393 L 128 394 L 128 401 L 119 401 L 120 393 Z " /><path fill="rgb(2,3,4)" stroke="rgb(2,3,4)" stroke-width="1" opacity="0.996078431372549" d="M 144 393 L 152.5 393 L 153 395.5 L 152 397.5 L 153 399.5 L 151.5 401 L 144 401 L 144 393 Z " /><path fill="rgb(2,3,4)" stroke="rgb(2,3,4)" stroke-width="1" opacity="0.996078431372549" d="M 333.5 393 Q 339 391.5 340.5 394 L 342 393.5 L 341 396.5 L 342 401 L 332 401 L 332 394.5 L 333.5 393 Z " /><path fill="rgb(2,3,4)" stroke="rgb(2,3,4)" stroke-width="1" opacity="0.996078431372549" d="M 357 393 L 362 393 L 362 394.5 L 363.5 394 L 365.5 393 L 366 395.5 L 365.5 401 L 364.5 399 L 364 401 L 356 401 L 356 397.5 L 357 393 Z " /><path fill="rgb(0,0,2)" stroke="rgb(0,0,2)" stroke-width="1" opacity="0.9098039215686274" d="M 238.5 207 L 239 235.5 L 238 235.5 L 238.5 207 Z " /><path fill="rgb(0,0,2)" stroke="rgb(0,0,2)" stroke-width="1" opacity="0.9098039215686274" d="M 246.5 210 L 247 225.5 L 246 225.5 L 246.5 210 Z " /><path fill="rgb(0,0,2)" stroke="rgb(0,0,2)" stroke-width="1" opacity="0.9098039215686274" d="M 246.5 229 L 247 235.5 L 246 235.5 L 246.5 229 Z " /><path fill="rgb(0,0,2)" stroke="rgb(0,0,2)" stroke-width="1" opacity="0.9098039215686274" d="M 215.5 244 L 214.5 246 L 215.5 244 Z " /><path fill="rgb(0,0,2)" stroke="rgb(0,0,2)" stroke-width="1" opacity="0.9098039215686274" d="M 241.5 244 L 246 244.5 L 241.5 245 L 241.5 244 Z " /><path fill="rgb(0,0,2)" stroke="rgb(0,0,2)" stroke-width="1" opacity="0.9098039215686274" d="M 270.5 245 L 271.5 247 L 270.5 245 Z " /><path fill="rgb(0,0,2)" stroke="rgb(0,0,2)" stroke-width="1" opacity="0.9098039215686274" d="M 211.5 247 L 205.5 254 L 211.5 247 Z " /><path fill="rgb(0,0,2)" stroke="rgb(0,0,2)" stroke-width="1" opacity="0.9098039215686274" d="M 276.5 250 L 278.5 253 L 276.5 250 Z " /><path fill="rgb(0,0,2)" stroke="rgb(0,0,2)" stroke-width="1" opacity="0.9098039215686274" d="M 219.5 251 L 218.5 253 L 219.5 251 Z " /><path fill="rgb(0,0,2)" stroke="rgb(0,0,2)" stroke-width="1" opacity="0.9098039215686274" d="M 266.5 252 L 267.5 254 L 266.5 252 Z " /><path fill="rgb(0,0,2)" stroke="rgb(0,0,2)" stroke-width="1" opacity="0.9098039215686274" d="M 201.5 259 L 200.5 261 L 201.5 259 Z " /><path fill="rgb(0,0,2)" stroke="rgb(0,0,2)" stroke-width="1" opacity="0.9098039215686274" d="M 283.5 259 L 284.5 261 L 283.5 259 Z " /><path fill="rgb(0,0,2)" stroke="rgb(0,0,2)" stroke-width="1" opacity="0.9098039215686274" d="M 274.5 260 L 276.5 263 L 274.5 260 Z " /><path fill="rgb(0,0,2)" stroke="rgb(0,0,2)" stroke-width="1" opacity="0.9098039215686274" d="M 277.5 264 L 279 266.5 L 278 266.5 L 277.5 264 Z " /><path fill="rgb(0,0,2)" stroke="rgb(0,0,2)" stroke-width="1" opacity="0.9098039215686274" d="M 286.5 264 L 288 266.5 L 286 265.5 L 286.5 264 Z " /><path fill="rgb(0,0,2)" stroke="rgb(0,0,2)" stroke-width="1" opacity="0.9098039215686274" d="M 206.5 266 L 205.5 268 L 206.5 266 Z " /><path fill="rgb(0,0,2)" stroke="rgb(0,0,2)" stroke-width="1" opacity="0.9098039215686274" d="M 193.5 279 L 194 284.5 L 193 284.5 L 193.5 279 Z " /><path fill="rgb(0,0,2)" stroke="rgb(0,0,2)" stroke-width="1" opacity="0.9098039215686274" d="M 283.5 280 L 284 283.5 L 283 283.5 L 283.5 280 Z " /><path fill="rgb(0,0,2)" stroke="rgb(0,0,2)" stroke-width="1" opacity="0.9098039215686274" d="M 291.5 280 L 292 325.5 L 291 325.5 L 291.5 280 Z " /><path fill="rgb(0,0,2)" stroke="rgb(0,0,2)" stroke-width="1" opacity="0.9098039215686274" d="M 283.5 287 L 284 296.5 L 283 296.5 L 283.5 287 Z " /><path fill="rgb(0,0,2)" stroke="rgb(0,0,2)" stroke-width="1" opacity="0.9098039215686274" d="M 193.5 288 L 194 299.5 L 193 299.5 L 193.5 288 Z " /><path fill="rgb(0,0,2)" stroke="rgb(0,0,2)" stroke-width="1" opacity="0.9098039215686274" d="M 201.5 297 L 202 304.5 L 201 304.5 L 201.5 297 Z " /><path fill="rgb(0,0,2)" stroke="rgb(0,0,2)" stroke-width="1" opacity="0.9098039215686274" d="M 82.5 300 L 83 304.5 L 82 304.5 L 82.5 300 Z " /><path fill="rgb(0,0,2)" stroke="rgb(0,0,2)" stroke-width="1" opacity="0.9098039215686274" d="M 193.5 301 L 194 304.5 L 193 304.5 L 193.5 301 Z " /><path fill="rgb(0,0,2)" stroke="rgb(0,0,2)" stroke-width="1" opacity="0.9098039215686274" d="M 283.5 302 L 284 304.5 L 283 304.5 L 283.5 302 Z " /><path fill="rgb(0,0,2)" stroke="rgb(0,0,2)" stroke-width="1" opacity="0.9098039215686274" d="M 403.5 305 L 405.5 308 L 403.5 305 Z " /><path fill="rgb(0,0,2)" stroke="rgb(0,0,2)" stroke-width="1" opacity="0.9098039215686274" d="M 91.5 306 L 92.5 308 L 91.5 306 Z " /><path fill="rgb(0,0,2)" stroke="rgb(0,0,2)" stroke-width="1" opacity="0.9098039215686274" d="M 193.5 306 L 194 321.5 L 193 321.5 L 193.5 306 Z " /><path fill="rgb(0,0,2)" stroke="rgb(0,0,2)" stroke-width="1" opacity="0.9098039215686274" d="M 393.5 306 L 392.5 308 L 391 307.5 L 393.5 306 Z " /><path fill="rgb(0,0,2)" stroke="rgb(0,0,2)" stroke-width="1" opacity="0.9098039215686274" d="M 76.5 308 L 73.5 312 L 76.5 308 Z " /><path fill="rgb(0,0,2)" stroke="rgb(0,0,2)" stroke-width="1" opacity="0.9098039215686274" d="M 94.5 308 L 95.5 310 L 94.5 308 Z " /><path fill="rgb(0,0,2)" stroke="rgb(0,0,2)" stroke-width="1" opacity="0.9098039215686274" d="M 407.5 308 L 409.5 311 L 407.5 308 Z " /><path fill="rgb(0,0,2)" stroke="rgb(0,0,2)" stroke-width="1" opacity="0.9098039215686274" d="M 90.5 314 L 92.5 317 L 90.5 314 Z " /><path fill="rgb(0,0,2)" stroke="rgb(0,0,2)" stroke-width="1" opacity="0.9098039215686274" d="M 283.5 314 L 284 316.5 L 283 316.5 L 283.5 314 Z " /><path fill="rgb(0,0,2)" stroke="rgb(0,0,2)" stroke-width="1" opacity="0.9098039215686274" d="M 393.5 315 L 392.5 317 L 393.5 315 Z " /><path fill="rgb(0,0,2)" stroke="rgb(0,0,2)" stroke-width="1" opacity="0.9098039215686274" d="M 404.5 315 L 405.5 317 L 404.5 315 Z " /><path fill="rgb(0,0,2)" stroke="rgb(0,0,2)" stroke-width="1" opacity="0.9098039215686274" d="M 79.5 317 L 78.5 319 L 79.5 317 Z " /><path fill="rgb(0,0,2)" stroke="rgb(0,0,2)" stroke-width="1" opacity="0.9098039215686274" d="M 69.5 318 L 70 321.5 L 69 321.5 L 69.5 318 Z " /><path fill="rgb(0,0,2)" stroke="rgb(0,0,2)" stroke-width="1" opacity="0.9098039215686274" d="M 382.5 319 L 383 366.5 L 382 366.5 L 382.5 319 Z " /><path fill="rgb(0,0,2)" stroke="rgb(0,0,2)" stroke-width="1" opacity="0.9098039215686274" d="M 201.5 322 L 202 328.5 L 201 328.5 L 201.5 322 Z " /><path fill="rgb(0,0,2)" stroke="rgb(0,0,2)" stroke-width="1" opacity="0.9098039215686274" d="M 407.5 322 L 408 329.5 L 405.5 331 L 405.5 330 L 407 329.5 L 407.5 322 Z " /><path fill="rgb(0,0,2)" stroke="rgb(0,0,2)" stroke-width="1" opacity="0.9098039215686274" d="M 193.5 323 L 194 327.5 L 193 327.5 L 193.5 323 Z " /><path fill="rgb(0,0,2)" stroke="rgb(0,0,2)" stroke-width="1" opacity="0.9098039215686274" d="M 94.5 329 L 93.5 331 L 79 330.5 L 93.5 330 L 94.5 329 Z " /><path fill="rgb(0,0,2)" stroke="rgb(0,0,2)" stroke-width="1" opacity="0.9098039215686274" d="M 193.5 329 L 192.5 331 L 193.5 329 Z " /><path fill="rgb(0,0,2)" stroke="rgb(0,0,2)" stroke-width="1" opacity="0.9098039215686274" d="M 283.5 329 L 282.5 331 L 283.5 329 Z " /><path fill="rgb(0,0,2)" stroke="rgb(0,0,2)" stroke-width="1" opacity="0.9098039215686274" d="M 391.5 330 L 400 330.5 L 391.5 331 L 391.5 330 Z " /><path fill="rgb(0,0,2)" stroke="rgb(0,0,2)" stroke-width="1" opacity="0.9098039215686274" d="M 78.5 338 L 78 339.5 L 77.5 360 L 77 339.5 L 78.5 338 Z " /><path fill="rgb(0,0,2)" stroke="rgb(0,0,2)" stroke-width="1" opacity="0.9098039215686274" d="M 94.5 339 L 95 350.5 L 94 350.5 L 94.5 339 Z " /><path fill="rgb(0,0,2)" stroke="rgb(0,0,2)" stroke-width="1" opacity="0.9098039215686274" d="M 201.5 340 L 202 356.5 L 201 356.5 L 201.5 340 Z " /><path fill="rgb(0,0,2)" stroke="rgb(0,0,2)" stroke-width="1" opacity="0.9098039215686274" d="M 193.5 342 L 194 357.5 L 193 357.5 L 193.5 342 Z " /><path fill="rgb(0,0,2)" stroke="rgb(0,0,2)" stroke-width="1" opacity="0.9098039215686274" d="M 178.5 343 L 179 349.5 L 178 349.5 L 178.5 343 Z " /><path fill="rgb(0,0,2)" stroke="rgb(0,0,2)" stroke-width="1" opacity="0.9098039215686274" d="M 407.5 343 L 408 345.5 L 407 345.5 L 407.5 343 Z " /><path fill="rgb(0,0,2)" stroke="rgb(0,0,2)" stroke-width="1" opacity="0.9098039215686274" d="M 291.5 344 L 292 367.5 L 291 367.5 L 291.5 344 Z " /><path fill="rgb(0,0,2)" stroke="rgb(0,0,2)" stroke-width="1" opacity="0.9098039215686274" d="M 144.5 346 L 145.5 348 L 144.5 346 Z " /><path fill="rgb(0,0,2)" stroke="rgb(0,0,2)" stroke-width="1" opacity="0.9098039215686274" d="M 357.5 346 L 358.5 348 L 357.5 346 Z " /><path fill="rgb(0,0,2)" stroke="rgb(0,0,2)" stroke-width="1" opacity="0.9098039215686274" d="M 125.5 347 L 123.5 350 L 125.5 347 Z " /><path fill="rgb(0,0,2)" stroke="rgb(0,0,2)" stroke-width="1" opacity="0.9098039215686274" d="M 338.5 347 L 336.5 350 L 338.5 347 Z " /><path fill="rgb(0,0,2)" stroke="rgb(0,0,2)" stroke-width="1" opacity="0.9098039215686274" d="M 360.5 348 L 361.5 350 L 360.5 348 Z " /><path fill="rgb(0,0,2)" stroke="rgb(0,0,2)" stroke-width="1" opacity="0.9098039215686274" d="M 317.5 351 L 318 366.5 L 317 366.5 L 317.5 351 Z " /><path fill="rgb(0,0,2)" stroke="rgb(0,0,2)" stroke-width="1" opacity="0.9098039215686274" d="M 348.5 351 L 352 351.5 L 348.5 352 L 348.5 351 Z " /><path fill="rgb(0,0,2)" stroke="rgb(0,0,2)" stroke-width="1" opacity="0.9098039215686274" d="M 140.5 352 L 141.5 354 L 140.5 352 Z " /><path fill="rgb(0,0,2)" stroke="rgb(0,0,2)" stroke-width="1" opacity="0.9098039215686274" d="M 94.5 353 L 95 363.5 L 94 363.5 L 94.5 353 Z " /><path fill="rgb(0,0,2)" stroke="rgb(0,0,2)" stroke-width="1" opacity="0.9098039215686274" d="M 283.5 354 L 284 361.5 L 283 361.5 L 283.5 354 Z " /><path fill="rgb(0,0,2)" stroke="rgb(0,0,2)" stroke-width="1" opacity="0.9098039215686274" d="M 389.5 357 L 390 364.5 L 389 364.5 L 389.5 357 Z " /><path fill="rgb(0,0,2)" stroke="rgb(0,0,2)" stroke-width="1" opacity="0.9098039215686274" d="M 257.5 358 L 258.5 360 L 257.5 358 Z " /><path fill="rgb(0,0,2)" stroke="rgb(0,0,2)" stroke-width="1" opacity="0.9098039215686274" d="M 201.5 359 L 202 366.5 L 201 366.5 L 201.5 359 Z " /><path fill="rgb(0,0,2)" stroke="rgb(0,0,2)" stroke-width="1" opacity="0.9098039215686274" d="M 227.5 359 L 224.5 363 L 227.5 359 Z " /><path fill="rgb(0,0,2)" stroke="rgb(0,0,2)" stroke-width="1" opacity="0.9098039215686274" d="M 119.5 361 L 120 363.5 L 119 363.5 L 119.5 361 Z " /><path fill="rgb(0,0,2)" stroke="rgb(0,0,2)" stroke-width="1" opacity="0.9098039215686274" d="M 144.5 361 L 145 366.5 L 144 366.5 L 144.5 361 Z " /><path fill="rgb(0,0,2)" stroke="rgb(0,0,2)" stroke-width="1" opacity="0.9098039215686274" d="M 340.5 361 L 341 364.5 L 340 364.5 L 340.5 361 Z " /><path fill="rgb(0,0,2)" stroke="rgb(0,0,2)" stroke-width="1" opacity="0.9098039215686274" d="M 193.5 363 L 194 366.5 L 193 366.5 L 193.5 363 Z " /><path fill="rgb(0,0,2)" stroke="rgb(0,0,2)" stroke-width="1" opacity="0.9098039215686274" d="M 283.5 363 L 284 366.5 L 283 366.5 L 283.5 363 Z " /><path fill="rgb(0,0,2)" stroke="rgb(0,0,2)" stroke-width="1" opacity="0.9098039215686274" d="M 222.5 365 L 221.5 367 L 222.5 365 Z " /><path fill="rgb(0,0,2)" stroke="rgb(0,0,2)" stroke-width="1" opacity="0.9098039215686274" d="M 253.5 365 L 255.5 368 L 253.5 365 Z " /><path fill="rgb(0,0,2)" stroke="rgb(0,0,2)" stroke-width="1" opacity="0.9098039215686274" d="M 231.5 366 L 229.5 369 L 231.5 366 Z " /><path fill="rgb(0,0,2)" stroke="rgb(0,0,2)" stroke-width="1" opacity="0.9098039215686274" d="M 69.5 367 L 70 408.5 L 69 408.5 L 69.5 367 Z " /><path fill="rgb(0,0,2)" stroke="rgb(0,0,2)" stroke-width="1" opacity="0.9098039215686274" d="M 94.5 367 L 95 371.5 L 94 371.5 L 94.5 367 Z " /><path fill="rgb(0,0,2)" stroke="rgb(0,0,2)" stroke-width="1" opacity="0.9098039215686274" d="M 201.5 368 L 202 375.5 L 201 375.5 L 201.5 368 Z " /><path fill="rgb(0,0,2)" stroke="rgb(0,0,2)" stroke-width="1" opacity="0.9098039215686274" d="M 94.5 373 L 95 390.5 L 94 390.5 L 94.5 373 Z " /><path fill="rgb(0,0,2)" stroke="rgb(0,0,2)" stroke-width="1" opacity="0.9098039215686274" d="M 142.5 375 L 147 375.5 L 142.5 376 L 142.5 375 Z " /><path fill="rgb(0,0,2)" stroke="rgb(0,0,2)" stroke-width="1" opacity="0.9098039215686274" d="M 148.5 375 L 160 375.5 L 148.5 376 L 148.5 375 Z " /><path fill="rgb(0,0,2)" stroke="rgb(0,0,2)" stroke-width="1" opacity="0.9098039215686274" d="M 164.5 375 Q 169.8 373.8 171 376.5 L 169.5 376 Q 163.5 377.3 164.5 375 Z " /><path fill="rgb(0,0,2)" stroke="rgb(0,0,2)" stroke-width="1" opacity="0.9098039215686274" d="M 189.5 375 Q 193.3 374.3 194 376.5 L 192.5 376 Q 188.5 376.7 189.5 375 Z " /><path fill="rgb(0,0,2)" stroke="rgb(0,0,2)" stroke-width="1" opacity="0.9098039215686274" d="M 331.5 375 L 334 375.5 L 331.5 376 L 331.5 375 Z " /><path fill="rgb(0,0,2)" stroke="rgb(0,0,2)" stroke-width="1" opacity="0.9098039215686274" d="M 366.5 375 L 370 375.5 L 366.5 376 L 366.5 375 Z " /><path fill="rgb(0,0,2)" stroke="rgb(0,0,2)" stroke-width="1" opacity="0.9098039215686274" d="M 218.5 376 L 219 413.5 L 218 413.5 L 218.5 376 Z " /><path fill="rgb(0,0,2)" stroke="rgb(0,0,2)" stroke-width="1" opacity="0.9098039215686274" d="M 267.5 376 L 268 410.5 L 267 410.5 L 267.5 376 Z " /><path fill="rgb(0,0,2)" stroke="rgb(0,0,2)" stroke-width="1" opacity="0.9098039215686274" d="M 382.5 377 L 383 415.5 L 381 416.5 L 382 415.5 L 382.5 377 Z " /><path fill="rgb(0,0,2)" stroke="rgb(0,0,2)" stroke-width="1" opacity="0.9098039215686274" d="M 193.5 379 L 194 389.5 L 193 389.5 L 193.5 379 Z " /><path fill="rgb(0,0,2)" stroke="rgb(0,0,2)" stroke-width="1" opacity="0.9098039215686274" d="M 291.5 380 L 292 415.5 L 293 416.5 L 291 415.5 L 291.5 380 Z " /><path fill="rgb(0,0,2)" stroke="rgb(0,0,2)" stroke-width="1" opacity="0.9098039215686274" d="M 178.5 385 L 179 389.5 L 178 389.5 L 178.5 385 Z " /><path fill="rgb(0,0,2)" stroke="rgb(0,0,2)" stroke-width="1" opacity="0.9098039215686274" d="M 309.5 390 L 310 393.5 L 309 393.5 L 309.5 390 Z " /><path fill="rgb(0,0,2)" stroke="rgb(0,0,2)" stroke-width="1" opacity="0.9098039215686274" d="M 94.5 392 L 95 402.5 L 94 402.5 L 94.5 392 Z " /><path fill="rgb(0,0,2)" stroke="rgb(0,0,2)" stroke-width="1" opacity="0.9098039215686274" d="M 226.5 392 L 227 412.5 L 226 412.5 L 226.5 392 Z " /><path fill="rgb(0,0,2)" stroke="rgb(0,0,2)" stroke-width="1" opacity="0.9098039215686274" d="M 126.5 393 Q 130.3 391.8 129 395.5 L 128 395.5 Q 128.8 393.3 126.5 394 L 126.5 393 Z " /><path fill="rgb(0,0,2)" stroke="rgb(0,0,2)" stroke-width="1" opacity="0.9098039215686274" d="M 183.5 393 L 189 393.5 L 183.5 394 L 183.5 393 Z " /><path fill="rgb(0,0,2)" stroke="rgb(0,0,2)" stroke-width="1" opacity="0.9098039215686274" d="M 356.5 393 L 357 396.5 L 356 396.5 L 356.5 393 Z " /><path fill="rgb(0,0,2)" stroke="rgb(0,0,2)" stroke-width="1" opacity="0.9098039215686274" d="M 143.5 394 L 144 399.5 L 143 399.5 L 143.5 394 Z " /><path fill="rgb(0,0,2)" stroke="rgb(0,0,2)" stroke-width="1" opacity="0.9098039215686274" d="M 193.5 404 L 194 415.5 L 193 415.5 L 193.5 404 Z " /><path fill="rgb(0,0,2)" stroke="rgb(0,0,2)" stroke-width="1" opacity="0.9098039215686274" d="M 178.5 409 L 179 411.5 L 178 411.5 L 178.5 409 Z " /><path fill="rgb(0,0,2)" stroke="rgb(0,0,2)" stroke-width="1" opacity="0.9098039215686274" d="M 69.5 410 L 70 415.5 L 69 415.5 L 69.5 410 Z " /><path fill="rgb(0,0,2)" stroke="rgb(0,0,2)" stroke-width="1" opacity="0.9098039215686274" d="M 267.5 413 L 268 415.5 L 267 415.5 L 267.5 413 Z " /><path fill="rgb(0,0,2)" stroke="rgb(0,0,2)" stroke-width="1" opacity="0.9098039215686274" d="M 218.5 415 L 217.5 417 L 218.5 415 Z " /><path fill="rgb(0,0,2)" stroke="rgb(0,0,2)" stroke-width="1" opacity="0.9098039215686274" d="M 228.5 417 L 236 417.5 L 228.5 418 L 228.5 417 Z " /></svg>