<?xml version="1.0" standalone="no"?>
<!DOCTYPE svg PUBLIC "-//W3C//DTD SVG 20010904//EN"
 "http://www.w3.org/TR/2001/REC-SVG-20010904/DTD/svg10.dtd">
<svg version="1.0" xmlns="http://www.w3.org/2000/svg"
 width="499.000000pt" height="499.000000pt" viewBox="0 0 499.000000 499.000000"
 preserveAspectRatio="xMidYMid meet">

<g transform="translate(0.000000,499.000000) scale(0.100000,-0.100000)"
fill="#000000" stroke="none">
<path d="M1764 3685 c-3 -8 -31 -29 -62 -47 -68 -39 -122 -91 -147 -143 -17
-37 -18 -68 -19 -375 l-1 -335 -442 -3 -442 -2 -3 -143 -3 -142 -68 -3 -67 -3
-1 -37 c-1 -20 -2 -374 -3 -787 l-1 -750 -160 -5 -160 -5 -3 -47 c-3 -42 -1
-48 20 -53 28 -7 4615 -2 4621 5 2 3 8 26 11 53 l7 47 -160 0 -161 0 -2 787
-3 788 -77 3 -78 3 -2 122 c0 67 -2 127 -3 132 -2 6 -3 16 -4 22 -1 10 -94 13
-413 15 l-413 3 -5 340 c-6 413 -3 403 -150 498 -30 20 -66 45 -80 56 -33 27
-46 26 -86 -6 -18 -16 -58 -44 -88 -63 -99 -61 -139 -146 -134 -288 1 -45 -2
-85 -8 -90 -5 -4 -210 -6 -455 -4 l-447 2 -4 113 c-5 152 -24 192 -128 264
-41 29 -87 61 -102 73 -31 24 -66 26 -74 5z m132 -170 c51 -39 64 -77 64 -190
l0 -95 -162 2 -163 3 0 97 c0 91 2 99 30 139 60 84 155 102 231 44z m1423 21
c15 -8 42 -31 59 -50 27 -31 31 -44 37 -119 4 -48 3 -98 -2 -114 -8 -24 -15
-28 -46 -27 -20 0 -91 1 -157 2 l-120 2 0 93 c0 109 23 167 79 204 40 27 107
31 150 9z m96 -586 l0 -165 -890 0 -890 0 -3 155 c-1 85 0 160 2 167 4 11 173
13 893 11 l888 -3 0 -165z m-1887 -371 l3 -89 -383 2 -383 3 -3 87 -3 87 48 3
c26 2 199 2 383 0 l335 -3 3 -90z m420 92 c9 -5 12 -31 10 -92 l-3 -84 -160 0
-160 0 1 85 1 85 144 5 c79 3 146 7 149 8 3 1 11 -2 18 -7z m262 -7 c7 -7 10
-42 8 -90 l-3 -79 -75 0 -75 0 0 85 c-1 47 0 87 1 90 4 10 133 5 144 -6z m265
-49 c3 -36 4 -79 0 -95 l-7 -31 -71 3 -72 3 -3 84 c-2 61 1 87 10 92 7 5 41 9
74 9 l62 0 7 -65z m257 -5 c4 -36 5 -78 2 -93 -6 -28 -6 -28 -77 -25 l-72 3
-3 79 c-2 44 -1 85 2 92 3 8 26 12 73 11 l68 -2 7 -65z m253 18 c4 -29 5 -71
3 -93 l-3 -40 -65 -3 c-52 -2 -67 0 -77 14 -17 24 -18 160 0 167 6 3 40 6 74
6 l62 1 6 -52z m425 45 c1 -5 3 -37 6 -73 9 -117 18 -111 -164 -108 l-157 3
-3 70 c-5 123 -16 115 163 115 85 0 155 -3 155 -7z m503 -3 l338 0 -3 -87 -3
-88 -360 0 -360 0 -3 79 c-4 96 1 110 31 102 12 -3 174 -6 360 -6z m-3151
-357 l3 -78 55 0 55 0 0 75 0 75 44 3 c84 6 90 1 93 -81 l3 -72 50 0 50 0 5
75 5 75 49 3 c90 6 94 3 92 -80 l-1 -73 55 0 55 0 1 35 c1 19 2 54 3 78 l1 42
75 0 75 0 0 -740 0 -740 -84 0 -85 0 -3 398 -3 397 -27 57 c-44 93 -153 162
-258 162 -107 0 -201 -56 -258 -153 l-27 -46 -5 -405 -5 -405 -77 -3 -78 -3 0
741 0 740 70 0 69 0 3 -77z m2649 40 c2 -21 4 -252 4 -513 l0 -475 -162 -3
-163 -2 0 172 c0 194 -12 263 -60 357 -62 124 -193 244 -319 291 -165 63 -365
42 -514 -54 -116 -74 -215 -207 -255 -340 -9 -32 -17 -118 -21 -236 l-6 -185
-136 -3 -136 -3 -6 507 c-4 278 -4 510 -1 515 3 5 381 9 888 9 l883 0 4 -37z
m229 -43 c5 -69 7 -75 29 -78 12 -2 34 -1 47 2 21 6 23 12 26 79 l3 72 70 0
70 0 3 -72 3 -73 56 0 56 0 -7 70 c-3 39 -5 70 -4 71 2 0 31 3 66 5 86 7 95
-1 90 -85 l-3 -66 50 0 50 0 5 75 5 75 54 3 c30 2 65 1 78 -3 l23 -5 -2 -733
-3 -732 -77 -3 -77 -3 -3 403 -3 403 -30 53 c-33 61 -66 92 -139 130 -129 67
-310 2 -378 -136 -23 -47 -23 -51 -26 -449 l-3 -403 -70 0 -69 0 0 428 c0 235
-3 560 -7 723 -3 163 -3 304 0 313 5 14 18 16 59 14 l53 -3 5 -75z m-969 -229
c118 -45 212 -134 275 -259 l29 -57 3 -428 3 -427 -478 2 -478 3 -3 155 c-1
85 1 275 6 422 l8 266 38 78 c63 127 165 215 301 260 62 21 226 13 296 -15z
m-1514 -287 c23 -13 52 -41 65 -61 l23 -38 0 -390 0 -390 -177 -3 -178 -2 0
390 c0 429 -2 416 63 478 59 57 124 63 204 16z m2884 10 c37 -19 77 -68 89
-112 7 -24 10 -164 8 -407 l-3 -370 -177 -3 -178 -2 0 390 0 390 24 38 c60 94
147 122 237 76z m-638 -556 c14 -11 16 -35 14 -173 l-2 -160 -160 0 -160 0 -3
167 -2 167 117 4 c65 1 132 4 149 5 16 1 38 -4 47 -10z m-1485 -165 l-3 -168
-140 0 -140 0 1 75 c0 41 1 117 2 168 l2 92 140 0 140 0 -2 -167z"/>
<path d="M815 2059 c-4 -6 -7 -25 -7 -44 0 -19 3 -38 7 -44 10 -18 54 -12 75
9 23 23 24 29 10 64 -8 21 -16 26 -44 26 -19 0 -38 -5 -41 -11z"/>
<path d="M1259 2043 c-21 -56 20 -100 70 -73 26 14 30 84 5 94 -36 14 -64 6
-75 -21z"/>
<path d="M1960 2225 c-16 -19 -16 -101 0 -119 29 -37 111 -20 125 25 12 38 -4
89 -31 99 -38 15 -80 12 -94 -5z"/>
<path d="M2970 2200 c-30 -30 -27 -95 5 -116 31 -20 94 -13 112 13 52 70 -56
164 -117 103z"/>
<path d="M3687 2063 c-10 -10 -8 -52 3 -74 12 -22 59 -26 78 -7 7 7 12 24 12
38 0 14 -5 31 -12 38 -13 13 -70 17 -81 5z"/>
<path d="M4142 2058 c-14 -14 -16 -56 -3 -76 5 -8 23 -12 47 -10 l39 3 0 45
c0 44 -1 45 -35 48 -19 2 -41 -3 -48 -10z"/>
</g>
</svg>
