<svg width="486" height="486" version="1.1" xmlns="http://www.w3.org/2000/svg" desc="Created with imagetracer.js version 1.2.6" ><path fill="rgb(0,0,0)" stroke="rgb(0,0,0)" stroke-width="1" opacity="0" d="M 0 0 L 486 0 L 486 486 L 0 486 L 0 0 Z M 182 159 L 182 171 L 153 171 L 151 173 L 152 182 L 156 183 L 160 182 L 163 183 L 166 182 L 167 184 L 167 203 L 151 202 L 150 201 L 114 201 L 113 202 L 104 202 L 69 209 L 66 212 L 67 215 L 67 244 L 39 245 L 37 247 L 38 248 L 38 256 L 41 257 L 54 257 L 55 256 L 66 256 L 66 259 L 66 261 L 67 304 L 67 306 L 66 307 L 39 307 L 37 309 L 38 318 L 40 319 L 67 319 L 67 378 L 67 378 L 52 378 L 50 380 L 50 409 L 8 409 L 6 411 L 6 420 L 8 421 L 34 421 L 35 420 L 477 420 L 477 410 L 477 409 L 429 409 L 429 399 L 428 398 L 428 384 L 429 383 L 428 380 L 428 378 L 420 378 L 418 375 L 418 357 L 419 356 L 419 322 L 418 321 L 419 319 L 447 319 L 447 311 L 448 310 L 447 307 L 420 307 L 419 305 L 419 303 L 419 293 L 418 292 Q 416 285 419 284 L 418 281 L 418 258 L 420 256 L 435 256 L 436 257 Q 443 258 447 256 L 448 247 L 447 245 L 423 245 L 422 244 L 418 244 L 418 220 L 418 218 L 419 214 L 418 211 L 414 208 Q 407 209 405 206 L 382 202 L 374 202 L 373 201 L 336 201 L 335 202 L 326 202 L 325 203 L 311 204 L 311 186 L 310 183 L 323 183 L 325 182 L 326 179 L 325 177 L 326 172 L 323 171 L 298 171 L 298 160 L 298 159 L 182 159 Z " /><path fill="rgb(0,0,0)" stroke="rgb(0,0,0)" stroke-width="1" opacity="0" d="M 297.5 182 L 299 183.5 L 299 207 Q 292.4 207.5 289 212.5 L 286.5 216 L 283 217 L 282 214.5 L 282 194.5 L 278.5 190 Q 272.3 187.3 261.5 189 L 257 192.5 L 256 195.5 L 256 197.5 L 256 214.5 L 254.5 216 L 253 215.5 L 253 203.5 L 254 199.5 L 253 194.5 L 249.5 190 Q 246.2 187.3 239.5 188 Q 238.3 190.2 233.5 189 L 229 191.5 L 227 195.5 L 227 212.5 L 226 213.5 Q 228.3 214.7 225.5 216 L 224 211.5 L 224 209.5 Q 226.7 205.7 225 197.5 L 222 191 Q 217.1 187.3 205.5 189 L 199 193.5 Q 195 200 197 212.5 L 198 215 L 195 213.5 L 191.5 209 L 179 206 Q 177.4 203.9 178 198.5 L 179 197.5 L 179 183 L 296.5 183 L 297.5 182 Z " /><path fill="rgb(0,0,0)" stroke="rgb(0,0,0)" stroke-width="1" opacity="0" d="M 119.5 212 L 153.5 213 L 154.5 214 L 169.5 215 L 184 218 L 184 242.5 L 180.5 243 L 179.5 242 L 153.5 240 L 152.5 239 L 120.5 238 L 119.5 239 L 108.5 239 L 107.5 240 L 97.5 240 L 89.5 242 L 81.5 242 L 79 243 L 79 218.5 L 82.5 218 L 93.5 215 L 107.5 214 L 108.5 213 L 118.5 213 L 119.5 212 Z " /><path fill="rgb(0,0,0)" stroke="rgb(0,0,0)" stroke-width="1" opacity="0" d="M 341.5 212 L 366.5 212 L 367.5 213 L 384.5 214 L 406 218 L 406 242.5 L 404.5 243 L 403.5 242 L 375.5 240 L 374.5 239 L 347.5 238 L 346.5 239 L 320.5 240 L 313.5 242 L 301 243 L 301 218.5 L 304.5 218 L 309.5 216 L 330.5 214 L 331.5 213 L 340.5 213 L 341.5 212 Z " /><path fill="rgb(0,0,0)" stroke="rgb(0,0,0)" stroke-width="1" opacity="0" d="M 196 227 L 288.5 227 L 289 231 L 196.5 231 L 195 229.5 L 196 227 Z " /><path fill="rgb(0,0,0)" stroke="rgb(0,0,0)" stroke-width="1" opacity="0" d="M 196 243 L 289 243 L 289 378 L 269.5 378 L 269 377.5 L 269 318.5 L 269 316.5 Q 266.4 308.6 268 296.5 Q 270.5 295 269 289.5 L 258.5 278 L 239.5 261 L 209 287.5 L 209 377.5 L 208.5 378 L 196 378 L 196 243 Z M 208 252 L 206 253 L 203 257 Q 202 264 204 267 L 208 269 Q 214 270 218 268 L 220 262 L 219 256 Q 217 250 208 252 Z M 264 253 L 262 255 L 262 267 L 265 269 L 272 269 L 279 267 L 279 257 L 278 255 L 277 253 L 264 253 Z " /><path fill="rgb(0,0,0)" stroke="rgb(0,0,0)" stroke-width="1" opacity="0" d="M 114.5 250 L 149.5 250 L 150.5 251 L 163.5 251 L 164.5 252 L 183 254 L 184 256.5 L 184 290.5 L 183 292.5 L 183 294.5 L 184 303.5 Q 181.3 305.3 183 311.5 L 184 313.5 Q 181.8 314.7 183 319.5 Q 185.8 321.3 184 327.5 L 184 329.5 L 184 348.5 L 183 349.5 Q 185.3 350.8 182.5 352 L 177.5 351 L 175.5 351 L 159.5 352 L 156.5 351 L 155.5 352 L 147.5 352 L 144.5 351 L 139.5 352 Q 138 349.5 132.5 351 L 129.5 352 Q 128 349.5 122.5 351 L 117.5 352 L 114.5 351 L 110.5 352 Q 109.3 349.8 104.5 351 Q 102.8 353.8 96.5 352 L 94.5 351 L 93.5 352 L 82.5 352 L 78 351 L 79 346.5 L 78 345.5 L 78 330.5 L 79 329.5 L 79 255 L 87.5 253 L 102.5 252 L 103.5 251 L 113.5 251 L 114.5 250 Z M 93 275 L 93 304 L 97 305 L 99 304 L 106 304 L 106 304 L 106 277 L 105 275 L 93 275 Z M 125 275 L 123 277 L 123 304 L 136 304 L 136 287 L 135 285 L 135 283 L 136 281 L 135 276 Q 132 274 125 275 Z M 154 275 L 152 277 L 152 304 L 166 304 L 166 284 L 165 283 L 165 276 Q 162 274 154 275 Z " /><path fill="rgb(0,0,0)" stroke="rgb(0,0,0)" stroke-width="1" opacity="0" d="M 332.5 250 L 371.5 250 L 372.5 251 L 384.5 251 L 385.5 252 L 398.5 253 Q 399.7 255.2 404.5 254 L 406 255.5 L 406 350.5 L 404.5 352 L 392.5 351 L 391.5 352 L 345.5 352 L 342.5 351 Q 340.8 353.8 334.5 352 L 329.5 351 L 327.5 352 L 325.5 352 L 323.5 351 L 301 351 L 301 255.5 L 304.5 255 L 310.5 253 L 331.5 251 L 332.5 250 Z M 317 275 L 315 277 L 315 304 L 317 305 Q 323 307 325 304 L 328 304 L 328 277 L 327 275 L 317 275 Z M 348 275 L 346 277 Q 348 285 345 289 L 345 291 L 345 304 L 347 305 L 355 305 L 356 304 L 358 304 L 358 278 Q 356 273 348 275 Z M 375 275 L 375 295 L 374 296 L 374 304 L 379 305 L 380 304 L 388 304 L 387 301 L 387 276 Q 383 274 375 275 Z " /><path fill="rgb(0,0,0)" stroke="rgb(0,0,0)" stroke-width="1" opacity="0" d="M 238.5 277 L 256 292.5 L 256 374.5 L 257 378 L 222 378 L 222 291.5 L 238.5 277 Z " /><path fill="rgb(0,0,0)" stroke="rgb(0,0,0)" stroke-width="1" opacity="0" d="M 78 363 L 183.5 363 L 184 363.5 L 184 378 L 78.5 378 L 78 377.5 L 78 363 Z " /><path fill="rgb(0,0,0)" stroke="rgb(0,0,0)" stroke-width="1" opacity="0" d="M 301 363 L 405.5 363 L 406 363.5 L 406 378 L 303.5 378 L 302.5 379 L 301 377.5 L 301 363 Z " /><path fill="rgb(0,0,0)" stroke="rgb(0,0,0)" stroke-width="1" opacity="0" d="M 62 390 L 416.5 390 L 417 390.5 L 417 409 L 62.5 409 L 62 408.5 L 62 390 Z " /><path fill="rgb(3,3,4)" stroke="rgb(3,3,4)" stroke-width="1" opacity="0.996078431372549" d="M 183 160 L 296.5 160 L 297 160.5 L 297 172 L 322.5 172 L 324 173.5 L 324 181 Q 320.2 182.8 312.5 182 L 310.5 182 L 309 182.5 L 309 201.5 L 310 205 L 318.5 205 L 335.5 202 L 372.5 202 L 373.5 203 L 382.5 203 L 404.5 207 L 417 211.5 L 417 244.5 Q 417.1 245.6 422.5 245 L 423.5 246 L 446 246 L 446 252.5 L 445 253.5 L 445.5 255 L 443.5 256 L 441.5 255 L 438.5 256 L 437.5 255 L 418.5 255 L 417 256.5 L 417 306.5 L 418.5 308 L 446 308 L 446 316.5 L 444.5 318 L 426.5 318 L 423.5 317 L 418.5 318 L 417 318.5 L 417 377.5 L 418.5 379 L 427 379 L 427 408.5 L 428.5 410 L 475.5 410 L 476 410.5 L 476 419 L 24.5 419 L 23.5 420 L 15.5 420 L 14.5 419 L 8 419 L 8 410.5 L 8.5 410 L 51 410 L 51 384.5 L 52 382.5 L 51 380 L 54.5 379 L 68 379 L 69 374.5 L 68 372.5 L 68 370.5 L 69 361.5 L 68 359.5 L 69 356.5 L 69 343.5 L 68 342.5 L 69 340.5 L 68 339.5 L 68 318 L 62.5 317 L 61.5 318 L 41.5 318 L 39 317 L 39 308.5 L 39.5 308 L 66.5 308 L 68 306.5 L 68 256.5 L 66.5 255 L 52.5 255 L 51.5 256 L 43.5 256 L 39 253.5 L 39 246 L 52.5 246 L 53.5 245 L 68 245 L 68 211.5 L 69.5 210 L 90.5 205 L 111.5 203 L 112.5 202 L 149.5 202 L 150.5 203 L 168 204 L 168 182.5 L 166.5 181 L 157.5 181 L 156.5 182 L 154 181 Q 152.1 178.2 153 172 L 182.5 172 L 183 168.5 L 184 165.5 L 183 160 Z M 180 181 L 177 184 L 177 206 L 190 209 L 194 215 Q 195 217 200 216 L 199 213 L 199 198 L 200 195 L 206 190 L 218 190 L 221 192 L 223 198 Q 224 208 222 216 Q 223 218 227 217 L 228 216 L 228 199 L 230 193 L 234 190 Q 240 192 242 189 L 249 191 L 252 197 L 252 212 L 251 213 L 252 217 L 258 216 L 258 194 L 259 191 L 262 190 L 276 190 L 278 191 L 281 197 L 281 217 L 283 218 L 288 217 L 290 214 L 298 209 L 300 207 L 300 182 L 298 181 L 279 181 L 278 182 L 275 181 L 273 182 L 243 182 L 242 181 L 238 182 Q 233 183 232 181 L 229 182 L 227 181 L 223 182 L 220 181 L 201 181 L 200 182 L 187 182 L 186 181 L 183 182 L 180 181 Z M 120 211 L 119 212 L 108 212 L 107 213 L 94 214 L 92 214 L 78 217 L 77 220 L 77 243 L 79 244 L 97 242 L 98 241 L 107 241 L 108 240 L 120 240 L 121 239 L 154 240 L 155 241 L 173 242 L 185 244 L 186 242 L 186 222 L 185 217 L 156 212 L 120 211 Z M 343 211 L 342 212 L 330 212 L 329 213 L 315 214 L 300 217 L 299 220 L 299 243 L 301 244 L 315 243 L 322 241 L 330 241 L 331 240 L 359 239 L 361 239 L 363 240 L 377 240 L 378 241 L 396 242 L 405 244 L 407 243 L 408 243 L 408 223 L 408 221 L 407 219 L 403 216 L 380 213 L 379 212 L 343 211 Z M 288 225 L 287 226 L 195 226 Q 194 226 194 231 L 196 232 L 290 232 L 291 226 L 288 225 Z M 197 241 L 194 244 L 194 286 L 195 287 L 194 289 L 195 292 Q 193 293 194 298 L 194 300 L 195 302 L 195 304 L 194 307 L 195 310 L 194 312 L 195 314 L 194 319 L 195 321 L 194 322 L 194 331 L 194 333 L 195 337 L 195 371 L 194 375 L 195 378 L 196 379 L 210 379 L 211 377 L 211 288 L 240 263 L 256 277 L 267 289 L 267 379 L 273 380 L 275 379 L 290 379 L 291 378 L 291 364 L 291 362 L 291 336 L 290 335 L 290 317 L 291 316 L 290 311 L 290 309 L 290 255 Q 293 253 291 248 L 291 244 L 288 241 L 286 241 L 278 241 L 277 242 L 274 241 Q 266 240 263 242 L 261 242 L 257 241 Q 255 244 249 242 L 247 242 L 243 241 L 241 242 L 231 242 L 230 241 L 227 242 L 225 242 L 221 241 L 216 242 L 213 241 L 211 242 L 208 241 L 204 242 L 197 241 Z M 349 248 L 348 249 L 332 249 L 331 250 L 317 251 L 315 251 L 300 254 L 300 338 L 299 339 Q 297 345 300 347 L 299 351 L 301 352 L 328 352 L 330 352 Q 335 351 337 353 Q 341 354 343 352 L 346 353 L 391 353 L 392 352 L 403 352 L 404 353 L 407 352 L 408 351 L 408 256 L 406 253 L 395 252 L 394 251 L 349 248 Z M 115 249 L 114 250 L 103 250 L 102 251 L 80 253 L 77 256 L 77 352 L 84 352 L 85 353 L 90 352 L 119 352 L 121 352 L 129 352 L 130 353 L 135 352 L 140 353 L 145 352 Q 149 354 158 353 L 160 353 L 165 352 L 178 352 L 179 353 L 184 352 L 185 352 L 185 255 L 181 252 Q 175 254 174 251 L 154 250 L 152 250 L 151 249 L 115 249 Z M 239 276 L 221 290 L 220 293 L 220 378 L 222 379 L 258 379 L 258 294 L 257 292 L 241 276 L 239 276 Z M 80 361 L 79 362 L 77 363 L 77 379 L 185 379 L 186 378 L 185 362 L 182 361 L 180 361 L 178 362 L 81 362 L 80 361 Z M 303 361 L 300 362 L 299 365 L 299 378 L 301 379 L 407 379 L 408 378 L 408 365 L 407 362 L 304 362 L 303 361 Z M 62 389 L 60 391 L 60 408 L 63 410 L 418 410 L 418 410 L 418 391 L 417 389 L 62 389 Z " /><path fill="rgb(3,3,4)" stroke="rgb(3,3,4)" stroke-width="1" opacity="0.996078431372549" d="M 207.5 253 Q 214.3 252.1 217 254 Q 219.1 257.3 218 265.5 Q 215.8 269.3 208.5 268 Q 203.1 266.4 204 258.5 L 207.5 253 Z " /><path fill="rgb(3,3,4)" stroke="rgb(3,3,4)" stroke-width="1" opacity="0.996078431372549" d="M 264 254 L 274.5 254 L 277 255 L 277 265.5 L 275.5 267 L 265.5 268 Q 261.5 265.5 263 257.5 L 264 254 Z " /><path fill="rgb(3,3,4)" stroke="rgb(3,3,4)" stroke-width="1" opacity="0.996078431372549" d="M 95 276 L 104 276 L 104 295.5 L 105 296.5 L 105 303 L 94 303 L 94 299.5 L 95 296.5 L 95 279.5 L 94 278.5 L 95 276 Z " /><path fill="rgb(3,3,4)" stroke="rgb(3,3,4)" stroke-width="1" opacity="0.996078431372549" d="M 125 276 L 132.5 276 L 134 277.5 L 134 303 L 125 303 L 125 285.5 L 124 284.5 L 125 283.5 L 125 276 Z " /><path fill="rgb(3,3,4)" stroke="rgb(3,3,4)" stroke-width="1" opacity="0.996078431372549" d="M 154 276 L 162.5 276 L 164 277.5 L 164 303 L 154 303 L 154 276 Z " /><path fill="rgb(3,3,4)" stroke="rgb(3,3,4)" stroke-width="1" opacity="0.996078431372549" d="M 317 276 L 326 276 L 326 303 L 317 303 L 317 276 Z " /><path fill="rgb(3,3,4)" stroke="rgb(3,3,4)" stroke-width="1" opacity="0.996078431372549" d="M 347 276 L 356 276 L 356 303 L 349.5 304 L 347 303 L 347 276 Z " /><path fill="rgb(3,3,4)" stroke="rgb(3,3,4)" stroke-width="1" opacity="0.996078431372549" d="M 376 276 L 384.5 276 L 386 277.5 L 386 303 L 376 303 L 376 276 Z " /><path fill="rgb(4,6,10)" stroke="rgb(4,6,10)" stroke-width="1" opacity="0.9019607843137255" d="M 183.5 165 L 184 167.5 L 183 167.5 L 183.5 165 Z " /><path fill="rgb(4,6,10)" stroke="rgb(4,6,10)" stroke-width="1" opacity="0.9019607843137255" d="M 152.5 172 L 153 176.5 L 152 176.5 L 152.5 172 Z " /><path fill="rgb(4,6,10)" stroke="rgb(4,6,10)" stroke-width="1" opacity="0.9019607843137255" d="M 323.5 172 L 325 174.5 L 324 174.5 L 323.5 172 Z " /><path fill="rgb(4,6,10)" stroke="rgb(4,6,10)" stroke-width="1" opacity="0.9019607843137255" d="M 153.5 179 L 154 181 L 156 181.5 L 154.5 182 L 153.5 179 Z " /><path fill="rgb(4,6,10)" stroke="rgb(4,6,10)" stroke-width="1" opacity="0.9019607843137255" d="M 157.5 181 L 163 181.5 L 157.5 182 L 157.5 181 Z " /><path fill="rgb(4,6,10)" stroke="rgb(4,6,10)" stroke-width="1" opacity="0.9019607843137255" d="M 179.5 181 L 182 181.5 L 179.5 182 L 179.5 181 Z " /><path fill="rgb(4,6,10)" stroke="rgb(4,6,10)" stroke-width="1" opacity="0.9019607843137255" d="M 183.5 181 L 186 181.5 L 183.5 182 L 183.5 181 Z " /><path fill="rgb(4,6,10)" stroke="rgb(4,6,10)" stroke-width="1" opacity="0.9019607843137255" d="M 200.5 181 L 220 181.5 L 200.5 182 L 200.5 181 Z " /><path fill="rgb(4,6,10)" stroke="rgb(4,6,10)" stroke-width="1" opacity="0.9019607843137255" d="M 229.5 181 L 232 181.5 L 229.5 182 L 229.5 181 Z " /><path fill="rgb(4,6,10)" stroke="rgb(4,6,10)" stroke-width="1" opacity="0.9019607843137255" d="M 238.5 181 L 242 181.5 L 238.5 182 L 238.5 181 Z " /><path fill="rgb(4,6,10)" stroke="rgb(4,6,10)" stroke-width="1" opacity="0.9019607843137255" d="M 278.5 181 L 298 181.5 L 278.5 182 L 278.5 181 Z " /><path fill="rgb(4,6,10)" stroke="rgb(4,6,10)" stroke-width="1" opacity="0.9019607843137255" d="M 321.5 181 L 324 181.5 L 321.5 182 L 321.5 181 Z " /><path fill="rgb(4,6,10)" stroke="rgb(4,6,10)" stroke-width="1" opacity="0.9019607843137255" d="M 177.5 186 L 178 192.5 L 177 192.5 L 177.5 186 Z " /><path fill="rgb(4,6,10)" stroke="rgb(4,6,10)" stroke-width="1" opacity="0.9019607843137255" d="M 309.5 187 L 310 201.5 L 309 201.5 L 309.5 187 Z " /><path fill="rgb(4,6,10)" stroke="rgb(4,6,10)" stroke-width="1" opacity="0.9019607843137255" d="M 208.5 189 L 214 189.5 L 208.5 190 L 208.5 189 Z " /><path fill="rgb(4,6,10)" stroke="rgb(4,6,10)" stroke-width="1" opacity="0.9019607843137255" d="M 237.5 189 L 241 189.5 L 237.5 190 L 237.5 189 Z " /><path fill="rgb(4,6,10)" stroke="rgb(4,6,10)" stroke-width="1" opacity="0.9019607843137255" d="M 242.5 189 L 246 189.5 L 242.5 190 L 242.5 189 Z " /><path fill="rgb(4,6,10)" stroke="rgb(4,6,10)" stroke-width="1" opacity="0.9019607843137255" d="M 218.5 190 L 219.5 192 L 218.5 190 Z " /><path fill="rgb(4,6,10)" stroke="rgb(4,6,10)" stroke-width="1" opacity="0.9019607843137255" d="M 202.5 191 L 200.5 194 L 202.5 191 Z " /><path fill="rgb(4,6,10)" stroke="rgb(4,6,10)" stroke-width="1" opacity="0.9019607843137255" d="M 257.5 198 L 258 215.5 L 257 215.5 L 257.5 198 Z " /><path fill="rgb(4,6,10)" stroke="rgb(4,6,10)" stroke-width="1" opacity="0.9019607843137255" d="M 198.5 200 L 199 208.5 L 198 208.5 L 198.5 200 Z " /><path fill="rgb(4,6,10)" stroke="rgb(4,6,10)" stroke-width="1" opacity="0.9019607843137255" d="M 124.5 201 L 135 201.5 L 124.5 202 L 124.5 201 Z " /><path fill="rgb(4,6,10)" stroke="rgb(4,6,10)" stroke-width="1" opacity="0.9019607843137255" d="M 347.5 201 L 361 201.5 L 347.5 202 L 347.5 201 Z " /><path fill="rgb(4,6,10)" stroke="rgb(4,6,10)" stroke-width="1" opacity="0.9019607843137255" d="M 150.5 202 L 153 202.5 L 150.5 203 L 150.5 202 Z " /><path fill="rgb(4,6,10)" stroke="rgb(4,6,10)" stroke-width="1" opacity="0.9019607843137255" d="M 332.5 202 L 335 202.5 L 332.5 203 L 332.5 202 Z " /><path fill="rgb(4,6,10)" stroke="rgb(4,6,10)" stroke-width="1" opacity="0.9019607843137255" d="M 316.5 204 L 319 204.5 L 316.5 205 L 316.5 204 Z " /><path fill="rgb(4,6,10)" stroke="rgb(4,6,10)" stroke-width="1" opacity="0.9019607843137255" d="M 191.5 210 L 192.5 212 L 191.5 210 Z " /><path fill="rgb(4,6,10)" stroke="rgb(4,6,10)" stroke-width="1" opacity="0.9019607843137255" d="M 119.5 211 L 123 211.5 L 119.5 212 L 119.5 211 Z " /><path fill="rgb(4,6,10)" stroke="rgb(4,6,10)" stroke-width="1" opacity="0.9019607843137255" d="M 135.5 211 L 140 211.5 L 135.5 212 L 135.5 211 Z " /><path fill="rgb(4,6,10)" stroke="rgb(4,6,10)" stroke-width="1" opacity="0.9019607843137255" d="M 342.5 211 L 345 211.5 L 342.5 212 L 342.5 211 Z " /><path fill="rgb(4,6,10)" stroke="rgb(4,6,10)" stroke-width="1" opacity="0.9019607843137255" d="M 362.5 211 L 367 211.5 L 362.5 212 L 362.5 211 Z " /><path fill="rgb(4,6,10)" stroke="rgb(4,6,10)" stroke-width="1" opacity="0.9019607843137255" d="M 107.5 212 L 110 212.5 L 107.5 213 L 107.5 212 Z " /><path fill="rgb(4,6,10)" stroke="rgb(4,6,10)" stroke-width="1" opacity="0.9019607843137255" d="M 152.5 212 L 156 212.5 L 152.5 213 L 152.5 212 Z " /><path fill="rgb(4,6,10)" stroke="rgb(4,6,10)" stroke-width="1" opacity="0.9019607843137255" d="M 222.5 212 L 224 216.5 L 222 215.5 L 222.5 212 Z " /><path fill="rgb(4,6,10)" stroke="rgb(4,6,10)" stroke-width="1" opacity="0.9019607843137255" d="M 329.5 212 L 333 212.5 L 329.5 213 L 329.5 212 Z " /><path fill="rgb(4,6,10)" stroke="rgb(4,6,10)" stroke-width="1" opacity="0.9019607843137255" d="M 375.5 212 L 379 212.5 L 375.5 213 L 375.5 212 Z " /><path fill="rgb(4,6,10)" stroke="rgb(4,6,10)" stroke-width="1" opacity="0.9019607843137255" d="M 161.5 213 L 164 213.5 L 161.5 214 L 161.5 213 Z " /><path fill="rgb(4,6,10)" stroke="rgb(4,6,10)" stroke-width="1" opacity="0.9019607843137255" d="M 199.5 213 L 200 215.5 L 199 215.5 L 199.5 213 Z " /><path fill="rgb(4,6,10)" stroke="rgb(4,6,10)" stroke-width="1" opacity="0.9019607843137255" d="M 321.5 213 L 324 213.5 L 321.5 214 L 321.5 213 Z " /><path fill="rgb(4,6,10)" stroke="rgb(4,6,10)" stroke-width="1" opacity="0.9019607843137255" d="M 194.5 214 L 195.5 216 L 194.5 214 Z " /><path fill="rgb(4,6,10)" stroke="rgb(4,6,10)" stroke-width="1" opacity="0.9019607843137255" d="M 314.5 214 L 317 214.5 L 314.5 215 L 314.5 214 Z " /><path fill="rgb(4,6,10)" stroke="rgb(4,6,10)" stroke-width="1" opacity="0.9019607843137255" d="M 281.5 216 L 285 217.5 L 282.5 218 L 281.5 216 Z " /><path fill="rgb(4,6,10)" stroke="rgb(4,6,10)" stroke-width="1" opacity="0.9019607843137255" d="M 77.5 219 L 78 227.5 L 77 227.5 L 77.5 219 Z " /><path fill="rgb(4,6,10)" stroke="rgb(4,6,10)" stroke-width="1" opacity="0.9019607843137255" d="M 299.5 219 L 300 242.5 L 299 242.5 L 299.5 219 Z " /><path fill="rgb(4,6,10)" stroke="rgb(4,6,10)" stroke-width="1" opacity="0.9019607843137255" d="M 185.5 221 L 186 241.5 L 185 241.5 L 185.5 221 Z " /><path fill="rgb(4,6,10)" stroke="rgb(4,6,10)" stroke-width="1" opacity="0.9019607843137255" d="M 407.5 222 L 408 237.5 L 407 237.5 L 407.5 222 Z " /><path fill="rgb(4,6,10)" stroke="rgb(4,6,10)" stroke-width="1" opacity="0.9019607843137255" d="M 290.5 226 L 291 228.5 L 290 228.5 L 290.5 226 Z " /><path fill="rgb(4,6,10)" stroke="rgb(4,6,10)" stroke-width="1" opacity="0.9019607843137255" d="M 117.5 239 L 120 239.5 L 117.5 240 L 117.5 239 Z " /><path fill="rgb(4,6,10)" stroke="rgb(4,6,10)" stroke-width="1" opacity="0.9019607843137255" d="M 341.5 239 L 345 239.5 L 341.5 240 L 341.5 239 Z " /><path fill="rgb(4,6,10)" stroke="rgb(4,6,10)" stroke-width="1" opacity="0.9019607843137255" d="M 196.5 241 L 202 241.5 L 196.5 242 L 196.5 241 Z " /><path fill="rgb(4,6,10)" stroke="rgb(4,6,10)" stroke-width="1" opacity="0.9019607843137255" d="M 204.5 241 L 208 241.5 L 204.5 242 L 204.5 241 Z " /><path fill="rgb(4,6,10)" stroke="rgb(4,6,10)" stroke-width="1" opacity="0.9019607843137255" d="M 264.5 241 L 274 241.5 L 264.5 242 L 264.5 241 Z " /><path fill="rgb(4,6,10)" stroke="rgb(4,6,10)" stroke-width="1" opacity="0.9019607843137255" d="M 277.5 241 L 286 241.5 L 277.5 242 L 277.5 241 Z " /><path fill="rgb(4,6,10)" stroke="rgb(4,6,10)" stroke-width="1" opacity="0.9019607843137255" d="M 77.5 242 L 81 243.5 L 78.5 244 L 77.5 242 Z " /><path fill="rgb(4,6,10)" stroke="rgb(4,6,10)" stroke-width="1" opacity="0.9019607843137255" d="M 312.5 242 L 315 242.5 L 312.5 243 L 312.5 242 Z " /><path fill="rgb(4,6,10)" stroke="rgb(4,6,10)" stroke-width="1" opacity="0.9019607843137255" d="M 194.5 243 L 195 285.5 L 194 285.5 L 194.5 243 Z " /><path fill="rgb(4,6,10)" stroke="rgb(4,6,10)" stroke-width="1" opacity="0.9019607843137255" d="M 41.5 245 L 53 245.5 L 41.5 246 L 41.5 245 Z " /><path fill="rgb(4,6,10)" stroke="rgb(4,6,10)" stroke-width="1" opacity="0.9019607843137255" d="M 423.5 245 L 437 245.5 L 423.5 246 L 423.5 245 Z " /><path fill="rgb(4,6,10)" stroke="rgb(4,6,10)" stroke-width="1" opacity="0.9019607843137255" d="M 290.5 247 L 291 253.5 L 290 253.5 L 290.5 247 Z " /><path fill="rgb(4,6,10)" stroke="rgb(4,6,10)" stroke-width="1" opacity="0.9019607843137255" d="M 348.5 248 L 357 248.5 L 348.5 249 L 348.5 248 Z " /><path fill="rgb(4,6,10)" stroke="rgb(4,6,10)" stroke-width="1" opacity="0.9019607843137255" d="M 114.5 249 L 117 249.5 L 114.5 250 L 114.5 249 Z " /><path fill="rgb(4,6,10)" stroke="rgb(4,6,10)" stroke-width="1" opacity="0.9019607843137255" d="M 147.5 249 L 151 249.5 L 147.5 250 L 147.5 249 Z " /><path fill="rgb(4,6,10)" stroke="rgb(4,6,10)" stroke-width="1" opacity="0.9019607843137255" d="M 331.5 249 L 335 249.5 L 331.5 250 L 331.5 249 Z " /><path fill="rgb(4,6,10)" stroke="rgb(4,6,10)" stroke-width="1" opacity="0.9019607843137255" d="M 368.5 249 L 372 249.5 L 368.5 250 L 368.5 249 Z " /><path fill="rgb(4,6,10)" stroke="rgb(4,6,10)" stroke-width="1" opacity="0.9019607843137255" d="M 102.5 250 L 105 250.5 L 102.5 251 L 102.5 250 Z " /><path fill="rgb(4,6,10)" stroke="rgb(4,6,10)" stroke-width="1" opacity="0.9019607843137255" d="M 162.5 250 L 165 250.5 L 162.5 251 L 162.5 250 Z " /><path fill="rgb(4,6,10)" stroke="rgb(4,6,10)" stroke-width="1" opacity="0.9019607843137255" d="M 383.5 250 L 386 250.5 L 383.5 251 L 383.5 250 Z " /><path fill="rgb(4,6,10)" stroke="rgb(4,6,10)" stroke-width="1" opacity="0.9019607843137255" d="M 94.5 251 L 97 251.5 L 94.5 252 L 94.5 251 Z " /><path fill="rgb(4,6,10)" stroke="rgb(4,6,10)" stroke-width="1" opacity="0.9019607843137255" d="M 170.5 251 L 174 251.5 L 170.5 252 L 170.5 251 Z " /><path fill="rgb(4,6,10)" stroke="rgb(4,6,10)" stroke-width="1" opacity="0.9019607843137255" d="M 391.5 251 L 394 251.5 L 391.5 252 L 391.5 251 Z " /><path fill="rgb(4,6,10)" stroke="rgb(4,6,10)" stroke-width="1" opacity="0.9019607843137255" d="M 84.5 252 L 88 252.5 L 84.5 253 L 84.5 252 Z " /><path fill="rgb(4,6,10)" stroke="rgb(4,6,10)" stroke-width="1" opacity="0.9019607843137255" d="M 178.5 252 L 181 252.5 L 178.5 253 L 178.5 252 Z " /><path fill="rgb(4,6,10)" stroke="rgb(4,6,10)" stroke-width="1" opacity="0.9019607843137255" d="M 308.5 252 L 311 252.5 L 308.5 253 L 308.5 252 Z " /><path fill="rgb(4,6,10)" stroke="rgb(4,6,10)" stroke-width="1" opacity="0.9019607843137255" d="M 398.5 252 L 401 252.5 L 398.5 253 L 398.5 252 Z " /><path fill="rgb(4,6,10)" stroke="rgb(4,6,10)" stroke-width="1" opacity="0.9019607843137255" d="M 79.5 253 L 82 253.5 L 79.5 254 L 79.5 253 Z " /><path fill="rgb(4,6,10)" stroke="rgb(4,6,10)" stroke-width="1" opacity="0.9019607843137255" d="M 183.5 253 L 184.5 255 L 183.5 253 Z " /><path fill="rgb(4,6,10)" stroke="rgb(4,6,10)" stroke-width="1" opacity="0.9019607843137255" d="M 267.5 253 L 274 253.5 L 267.5 254 L 267.5 253 Z " /><path fill="rgb(4,6,10)" stroke="rgb(4,6,10)" stroke-width="1" opacity="0.9019607843137255" d="M 39.5 254 L 43 255.5 L 40.5 256 L 39.5 254 Z " /><path fill="rgb(4,6,10)" stroke="rgb(4,6,10)" stroke-width="1" opacity="0.9019607843137255" d="M 52.5 255 L 67 255.5 L 52.5 256 L 52.5 255 Z " /><path fill="rgb(4,6,10)" stroke="rgb(4,6,10)" stroke-width="1" opacity="0.9019607843137255" d="M 407.5 255 L 408 350.5 L 407 350.5 L 407.5 255 Z " /><path fill="rgb(4,6,10)" stroke="rgb(4,6,10)" stroke-width="1" opacity="0.9019607843137255" d="M 421.5 255 L 438 255.5 L 421.5 256 L 421.5 255 Z " /><path fill="rgb(4,6,10)" stroke="rgb(4,6,10)" stroke-width="1" opacity="0.9019607843137255" d="M 277.5 256 L 278 264.5 L 277 264.5 L 277.5 256 Z " /><path fill="rgb(4,6,10)" stroke="rgb(4,6,10)" stroke-width="1" opacity="0.9019607843137255" d="M 77.5 258 L 78 294.5 L 77 294.5 L 77.5 258 Z " /><path fill="rgb(4,6,10)" stroke="rgb(4,6,10)" stroke-width="1" opacity="0.9019607843137255" d="M 218.5 258 L 219 261.5 L 218 261.5 L 218.5 258 Z " /><path fill="rgb(4,6,10)" stroke="rgb(4,6,10)" stroke-width="1" opacity="0.9019607843137255" d="M 238.5 263 L 237.5 265 L 238.5 263 Z " /><path fill="rgb(4,6,10)" stroke="rgb(4,6,10)" stroke-width="1" opacity="0.9019607843137255" d="M 205.5 265 L 206.5 267 L 205.5 265 Z " /><path fill="rgb(4,6,10)" stroke="rgb(4,6,10)" stroke-width="1" opacity="0.9019607843137255" d="M 242.5 265 L 245.5 269 L 242.5 265 Z " /><path fill="rgb(4,6,10)" stroke="rgb(4,6,10)" stroke-width="1" opacity="0.9019607843137255" d="M 263.5 265 L 265 267.5 L 263 266.5 L 263.5 265 Z " /><path fill="rgb(4,6,10)" stroke="rgb(4,6,10)" stroke-width="1" opacity="0.9019607843137255" d="M 269.5 267 L 273 267.5 L 269.5 268 L 269.5 267 Z " /><path fill="rgb(4,6,10)" stroke="rgb(4,6,10)" stroke-width="1" opacity="0.9019607843137255" d="M 231.5 269 L 229.5 272 L 231.5 269 Z " /><path fill="rgb(4,6,10)" stroke="rgb(4,6,10)" stroke-width="1" opacity="0.9019607843137255" d="M 252.5 274 L 254.5 277 L 252.5 274 Z " /><path fill="rgb(4,6,10)" stroke="rgb(4,6,10)" stroke-width="1" opacity="0.9019607843137255" d="M 124.5 276 L 125 283.5 L 124 283.5 L 124.5 276 Z " /><path fill="rgb(4,6,10)" stroke="rgb(4,6,10)" stroke-width="1" opacity="0.9019607843137255" d="M 223.5 276 L 221.5 279 L 223.5 276 Z " /><path fill="rgb(4,6,10)" stroke="rgb(4,6,10)" stroke-width="1" opacity="0.9019607843137255" d="M 316.5 276 L 317 303 L 325.5 303 L 326 302.5 L 326 276.5 L 327 276.5 L 327 302.5 L 325.5 304 L 317.5 304 L 316 302.5 L 316.5 276 Z " /><path fill="rgb(4,6,10)" stroke="rgb(4,6,10)" stroke-width="1" opacity="0.9019607843137255" d="M 104.5 277 L 105 279.5 L 104 279.5 L 104.5 277 Z " /><path fill="rgb(4,6,10)" stroke="rgb(4,6,10)" stroke-width="1" opacity="0.9019607843137255" d="M 236.5 277 L 235.5 279 L 236.5 277 Z " /><path fill="rgb(4,6,10)" stroke="rgb(4,6,10)" stroke-width="1" opacity="0.9019607843137255" d="M 153.5 278 L 154 282.5 L 153 282.5 L 153.5 278 Z " /><path fill="rgb(4,6,10)" stroke="rgb(4,6,10)" stroke-width="1" opacity="0.9019607843137255" d="M 94.5 279 L 95 296.5 L 94 296.5 L 94.5 279 Z " /><path fill="rgb(4,6,10)" stroke="rgb(4,6,10)" stroke-width="1" opacity="0.9019607843137255" d="M 104.5 281 L 105 295.5 L 104 295.5 L 104.5 281 Z " /><path fill="rgb(4,6,10)" stroke="rgb(4,6,10)" stroke-width="1" opacity="0.9019607843137255" d="M 260.5 281 L 266.5 288 L 260.5 281 Z " /><path fill="rgb(4,6,10)" stroke="rgb(4,6,10)" stroke-width="1" opacity="0.9019607843137255" d="M 248.5 283 L 252.5 288 L 248.5 283 Z " /><path fill="rgb(4,6,10)" stroke="rgb(4,6,10)" stroke-width="1" opacity="0.9019607843137255" d="M 124.5 285 L 125 303 L 130 303.5 L 125.5 304 L 124 302.5 L 124.5 285 Z " /><path fill="rgb(4,6,10)" stroke="rgb(4,6,10)" stroke-width="1" opacity="0.9019607843137255" d="M 227.5 285 L 225.5 288 L 227.5 285 Z " /><path fill="rgb(4,6,10)" stroke="rgb(4,6,10)" stroke-width="1" opacity="0.9019607843137255" d="M 210.5 288 L 211 376.5 L 210 376.5 L 210.5 288 Z " /><path fill="rgb(4,6,10)" stroke="rgb(4,6,10)" stroke-width="1" opacity="0.9019607843137255" d="M 153.5 289 L 154 302.5 L 153 302.5 L 153.5 289 Z " /><path fill="rgb(4,6,10)" stroke="rgb(4,6,10)" stroke-width="1" opacity="0.9019607843137255" d="M 356.5 289 L 357 302.5 L 353.5 304 L 353.5 303 L 356 302.5 L 356.5 289 Z " /><path fill="rgb(4,6,10)" stroke="rgb(4,6,10)" stroke-width="1" opacity="0.9019607843137255" d="M 194.5 292 L 195 297.5 L 194 297.5 L 194.5 292 Z " /><path fill="rgb(4,6,10)" stroke="rgb(4,6,10)" stroke-width="1" opacity="0.9019607843137255" d="M 164.5 297 L 165 302.5 L 164 302.5 L 164.5 297 Z " /><path fill="rgb(4,6,10)" stroke="rgb(4,6,10)" stroke-width="1" opacity="0.9019607843137255" d="M 257.5 297 L 258 365.5 L 257 365.5 L 257.5 297 Z " /><path fill="rgb(4,6,10)" stroke="rgb(4,6,10)" stroke-width="1" opacity="0.9019607843137255" d="M 94.5 303 L 101 303.5 L 94.5 304 L 94.5 303 Z " /><path fill="rgb(4,6,10)" stroke="rgb(4,6,10)" stroke-width="1" opacity="0.9019607843137255" d="M 155.5 303 L 158 303.5 L 155.5 304 L 155.5 303 Z " /><path fill="rgb(4,6,10)" stroke="rgb(4,6,10)" stroke-width="1" opacity="0.9019607843137255" d="M 376.5 303 L 385 303.5 L 376.5 304 L 376.5 303 Z " /><path fill="rgb(4,6,10)" stroke="rgb(4,6,10)" stroke-width="1" opacity="0.9019607843137255" d="M 77.5 308 L 78 315.5 L 77 315.5 L 77.5 308 Z " /><path fill="rgb(4,6,10)" stroke="rgb(4,6,10)" stroke-width="1" opacity="0.9019607843137255" d="M 62.5 317 L 65 317.5 L 62.5 318 L 62.5 317 Z " /><path fill="rgb(4,6,10)" stroke="rgb(4,6,10)" stroke-width="1" opacity="0.9019607843137255" d="M 423.5 317 L 426 317.5 L 423.5 318 L 423.5 317 Z " /><path fill="rgb(4,6,10)" stroke="rgb(4,6,10)" stroke-width="1" opacity="0.9019607843137255" d="M 194.5 321 L 195 330.5 L 194 330.5 L 194.5 321 Z " /><path fill="rgb(4,6,10)" stroke="rgb(4,6,10)" stroke-width="1" opacity="0.9019607843137255" d="M 220.5 327 L 221 332.5 L 220 332.5 L 220.5 327 Z " /><path fill="rgb(4,6,10)" stroke="rgb(4,6,10)" stroke-width="1" opacity="0.9019607843137255" d="M 194.5 332 L 195 335.5 L 194 335.5 L 194.5 332 Z " /><path fill="rgb(4,6,10)" stroke="rgb(4,6,10)" stroke-width="1" opacity="0.9019607843137255" d="M 290.5 335 L 291 361.5 L 290 361.5 L 290.5 335 Z " /><path fill="rgb(4,6,10)" stroke="rgb(4,6,10)" stroke-width="1" opacity="0.9019607843137255" d="M 220.5 337 L 221 369.5 L 220 369.5 L 220.5 337 Z " /><path fill="rgb(4,6,10)" stroke="rgb(4,6,10)" stroke-width="1" opacity="0.9019607843137255" d="M 299.5 338 L 300 345.5 L 299 345.5 L 299.5 338 Z " /><path fill="rgb(4,6,10)" stroke="rgb(4,6,10)" stroke-width="1" opacity="0.9019607843137255" d="M 68.5 343 L 69 356.5 L 68 356.5 L 68.5 343 Z " /><path fill="rgb(4,6,10)" stroke="rgb(4,6,10)" stroke-width="1" opacity="0.9019607843137255" d="M 299.5 347 L 300 350.5 L 299 350.5 L 299.5 347 Z " /><path fill="rgb(4,6,10)" stroke="rgb(4,6,10)" stroke-width="1" opacity="0.9019607843137255" d="M 84.5 352 L 89 352.5 L 84.5 353 L 84.5 352 Z " /><path fill="rgb(4,6,10)" stroke="rgb(4,6,10)" stroke-width="1" opacity="0.9019607843137255" d="M 129.5 352 L 134 352.5 L 129.5 353 L 129.5 352 Z " /><path fill="rgb(4,6,10)" stroke="rgb(4,6,10)" stroke-width="1" opacity="0.9019607843137255" d="M 139.5 352 L 144 352.5 L 139.5 353 L 139.5 352 Z " /><path fill="rgb(4,6,10)" stroke="rgb(4,6,10)" stroke-width="1" opacity="0.9019607843137255" d="M 147.5 352 L 158 352.5 L 147.5 353 L 147.5 352 Z " /><path fill="rgb(4,6,10)" stroke="rgb(4,6,10)" stroke-width="1" opacity="0.9019607843137255" d="M 159.5 352 L 164 352.5 L 159.5 353 L 159.5 352 Z " /><path fill="rgb(4,6,10)" stroke="rgb(4,6,10)" stroke-width="1" opacity="0.9019607843137255" d="M 178.5 352 L 183 352.5 L 178.5 353 L 178.5 352 Z " /><path fill="rgb(4,6,10)" stroke="rgb(4,6,10)" stroke-width="1" opacity="0.9019607843137255" d="M 336.5 352 L 342 352.5 L 336.5 353 L 336.5 352 Z " /><path fill="rgb(4,6,10)" stroke="rgb(4,6,10)" stroke-width="1" opacity="0.9019607843137255" d="M 345.5 352 L 391 352.5 L 345.5 353 L 345.5 352 Z " /><path fill="rgb(4,6,10)" stroke="rgb(4,6,10)" stroke-width="1" opacity="0.9019607843137255" d="M 68.5 361 L 69 364.5 L 68 364.5 L 68.5 361 Z " /><path fill="rgb(4,6,10)" stroke="rgb(4,6,10)" stroke-width="1" opacity="0.9019607843137255" d="M 290.5 363 L 291 377.5 L 290 377.5 L 290.5 363 Z " /><path fill="rgb(4,6,10)" stroke="rgb(4,6,10)" stroke-width="1" opacity="0.9019607843137255" d="M 299.5 364 L 300 377.5 L 299 377.5 L 299.5 364 Z " /><path fill="rgb(4,6,10)" stroke="rgb(4,6,10)" stroke-width="1" opacity="0.9019607843137255" d="M 407.5 364 L 408 377.5 L 407 377.5 L 407.5 364 Z " /><path fill="rgb(4,6,10)" stroke="rgb(4,6,10)" stroke-width="1" opacity="0.9019607843137255" d="M 185.5 371 L 186 377.5 L 185 377.5 L 185.5 371 Z " /><path fill="rgb(4,6,10)" stroke="rgb(4,6,10)" stroke-width="1" opacity="0.9019607843137255" d="M 194.5 371 L 195 374.5 L 194 374.5 L 194.5 371 Z " /><path fill="rgb(4,6,10)" stroke="rgb(4,6,10)" stroke-width="1" opacity="0.9019607843137255" d="M 220.5 371 L 221 373.5 L 220 373.5 L 220.5 371 Z " /><path fill="rgb(4,6,10)" stroke="rgb(4,6,10)" stroke-width="1" opacity="0.9019607843137255" d="M 51.5 379 L 54 379.5 L 51.5 380 L 51.5 379 Z " /><path fill="rgb(4,6,10)" stroke="rgb(4,6,10)" stroke-width="1" opacity="0.9019607843137255" d="M 60.5 393 L 61 407.5 L 60 407.5 L 60.5 393 Z " /><path fill="rgb(4,6,10)" stroke="rgb(4,6,10)" stroke-width="1" opacity="0.9019607843137255" d="M 308.5 409 L 345 409.5 L 308.5 410 L 308.5 409 Z " /><path fill="rgb(4,6,10)" stroke="rgb(4,6,10)" stroke-width="1" opacity="0.9019607843137255" d="M 7.5 410 L 8 419 L 15 419.5 L 7 420 L 7.5 410 Z " /><path fill="rgb(4,6,10)" stroke="rgb(4,6,10)" stroke-width="1" opacity="0.9019607843137255" d="M 24.5 419 L 51 419.5 L 24.5 420 L 24.5 419 Z " /><path fill="rgb(4,6,10)" stroke="rgb(4,6,10)" stroke-width="1" opacity="0.9019607843137255" d="M 87.5 419 L 108 419.5 L 87.5 420 L 87.5 419 Z " /><path fill="rgb(4,6,10)" stroke="rgb(4,6,10)" stroke-width="1" opacity="0.9019607843137255" d="M 111.5 419 L 114 419.5 L 111.5 420 L 111.5 419 Z " /><path fill="rgb(4,6,10)" stroke="rgb(4,6,10)" stroke-width="1" opacity="0.9019607843137255" d="M 115.5 419 L 123 419.5 L 115.5 420 L 115.5 419 Z " /><path fill="rgb(4,6,10)" stroke="rgb(4,6,10)" stroke-width="1" opacity="0.9019607843137255" d="M 127.5 419 L 133 419.5 L 127.5 420 L 127.5 419 Z " /><path fill="rgb(4,6,10)" stroke="rgb(4,6,10)" stroke-width="1" opacity="0.9019607843137255" d="M 139.5 419 L 145 419.5 L 139.5 420 L 139.5 419 Z " /><path fill="rgb(4,6,10)" stroke="rgb(4,6,10)" stroke-width="1" opacity="0.9019607843137255" d="M 154.5 419 L 330 419.5 L 154.5 420 L 154.5 419 Z " /><path fill="rgb(4,6,10)" stroke="rgb(4,6,10)" stroke-width="1" opacity="0.9019607843137255" d="M 452.5 419 L 475 419.5 L 452.5 420 L 452.5 419 Z " /><path fill="rgb(1,2,7)" stroke="rgb(1,2,7)" stroke-width="1" opacity="0.3803921568627451" d="M 182.5 159 L 188 159.5 L 182.5 160 L 182.5 159 Z " /><path fill="rgb(1,2,7)" stroke="rgb(1,2,7)" stroke-width="1" opacity="0.3803921568627451" d="M 191.5 159 L 291 159.5 L 191.5 160 L 191.5 159 Z " /><path fill="rgb(1,2,7)" stroke="rgb(1,2,7)" stroke-width="1" opacity="0.3803921568627451" d="M 297.5 163 L 298 165.5 L 297 165.5 L 297.5 163 Z " /><path fill="rgb(1,2,7)" stroke="rgb(1,2,7)" stroke-width="1" opacity="0.3803921568627451" d="M 152.5 171 L 181 171.5 L 152 172 L 151.5 179 L 151 172.5 L 152.5 171 Z " /><path fill="rgb(1,2,7)" stroke="rgb(1,2,7)" stroke-width="1" opacity="0.3803921568627451" d="M 299.5 171 L 323 171.5 L 299.5 172 L 299.5 171 Z " /><path fill="rgb(1,2,7)" stroke="rgb(1,2,7)" stroke-width="1" opacity="0.3803921568627451" d="M 325.5 172 L 326 175.5 L 325 175.5 L 325.5 172 Z " /><path fill="rgb(1,2,7)" stroke="rgb(1,2,7)" stroke-width="1" opacity="0.3803921568627451" d="M 155.5 182 L 159 182.5 L 155.5 183 L 155.5 182 Z " /><path fill="rgb(1,2,7)" stroke="rgb(1,2,7)" stroke-width="1" opacity="0.3803921568627451" d="M 178 182 L 255 182.5 L 179 183 L 178.5 198 L 178 182 Z " /><path fill="rgb(1,2,7)" stroke="rgb(1,2,7)" stroke-width="1" opacity="0.3803921568627451" d="M 256.5 182 L 297 182.5 L 256.5 183 L 256.5 182 Z " /><path fill="rgb(1,2,7)" stroke="rgb(1,2,7)" stroke-width="1" opacity="0.3803921568627451" d="M 310.5 182 L 314 182.5 L 310.5 183 L 310.5 182 Z " /><path fill="rgb(1,2,7)" stroke="rgb(1,2,7)" stroke-width="1" opacity="0.3803921568627451" d="M 319.5 182 L 323 182.5 L 319.5 183 L 319.5 182 Z " /><path fill="rgb(1,2,7)" stroke="rgb(1,2,7)" stroke-width="1" opacity="0.3803921568627451" d="M 310.5 185 L 311 204 L 313 204.5 L 311.5 205 L 310 203.5 L 310.5 185 Z " /><path fill="rgb(1,2,7)" stroke="rgb(1,2,7)" stroke-width="1" opacity="0.3803921568627451" d="M 239.5 188 L 245 188.5 L 239.5 189 L 239.5 188 Z " /><path fill="rgb(1,2,7)" stroke="rgb(1,2,7)" stroke-width="1" opacity="0.3803921568627451" d="M 230.5 190 L 229.5 192 L 230.5 190 Z " /><path fill="rgb(1,2,7)" stroke="rgb(1,2,7)" stroke-width="1" opacity="0.3803921568627451" d="M 249.5 190 L 250.5 192 L 249.5 190 Z " /><path fill="rgb(1,2,7)" stroke="rgb(1,2,7)" stroke-width="1" opacity="0.3803921568627451" d="M 278.5 190 L 280.5 193 L 278.5 190 Z " /><path fill="rgb(1,2,7)" stroke="rgb(1,2,7)" stroke-width="1" opacity="0.3803921568627451" d="M 222.5 193 Q 226.8 197.2 225 207.5 L 224 207.5 Q 225.1 197.2 222.5 193 Z " /><path fill="rgb(1,2,7)" stroke="rgb(1,2,7)" stroke-width="1" opacity="0.3803921568627451" d="M 251.5 193 L 253 196.5 L 252 196.5 L 251.5 193 Z " /><path fill="rgb(1,2,7)" stroke="rgb(1,2,7)" stroke-width="1" opacity="0.3803921568627451" d="M 281.5 194 L 282 196.5 L 281 196.5 L 281.5 194 Z " /><path fill="rgb(1,2,7)" stroke="rgb(1,2,7)" stroke-width="1" opacity="0.3803921568627451" d="M 227.5 195 L 228 197.5 L 227 197.5 L 227.5 195 Z " /><path fill="rgb(1,2,7)" stroke="rgb(1,2,7)" stroke-width="1" opacity="0.3803921568627451" d="M 256.5 197 L 257 214.5 L 255 215.5 L 256 214.5 L 256.5 197 Z " /><path fill="rgb(1,2,7)" stroke="rgb(1,2,7)" stroke-width="1" opacity="0.3803921568627451" d="M 197.5 198 L 198 212.5 L 197 212.5 L 197.5 198 Z " /><path fill="rgb(1,2,7)" stroke="rgb(1,2,7)" stroke-width="1" opacity="0.3803921568627451" d="M 253.5 199 L 254 202.5 L 253 202.5 L 253.5 199 Z " /><path fill="rgb(1,2,7)" stroke="rgb(1,2,7)" stroke-width="1" opacity="0.3803921568627451" d="M 113.5 201 L 117 201.5 L 113.5 202 L 113.5 201 Z " /><path fill="rgb(1,2,7)" stroke="rgb(1,2,7)" stroke-width="1" opacity="0.3803921568627451" d="M 144.5 201 L 150 201.5 L 144.5 202 L 144.5 201 Z " /><path fill="rgb(1,2,7)" stroke="rgb(1,2,7)" stroke-width="1" opacity="0.3803921568627451" d="M 335.5 201 L 340 201.5 L 335.5 202 L 335.5 201 Z " /><path fill="rgb(1,2,7)" stroke="rgb(1,2,7)" stroke-width="1" opacity="0.3803921568627451" d="M 367.5 201 L 373 201.5 L 367.5 202 L 367.5 201 Z " /><path fill="rgb(1,2,7)" stroke="rgb(1,2,7)" stroke-width="1" opacity="0.3803921568627451" d="M 103.5 202 L 106 202.5 L 103.5 203 L 103.5 202 Z " /><path fill="rgb(1,2,7)" stroke="rgb(1,2,7)" stroke-width="1" opacity="0.3803921568627451" d="M 157.5 202 L 160 202.5 L 157.5 203 L 157.5 202 Z " /><path fill="rgb(1,2,7)" stroke="rgb(1,2,7)" stroke-width="1" opacity="0.3803921568627451" d="M 325.5 202 L 329 202.5 L 325.5 203 L 325.5 202 Z " /><path fill="rgb(1,2,7)" stroke="rgb(1,2,7)" stroke-width="1" opacity="0.3803921568627451" d="M 378.5 202 L 382 202.5 L 378.5 203 L 378.5 202 Z " /><path fill="rgb(1,2,7)" stroke="rgb(1,2,7)" stroke-width="1" opacity="0.3803921568627451" d="M 96.5 203 L 99 203.5 L 96.5 204 L 96.5 203 Z " /><path fill="rgb(1,2,7)" stroke="rgb(1,2,7)" stroke-width="1" opacity="0.3803921568627451" d="M 318.5 203 L 321 203.5 L 318.5 204 L 318.5 203 Z " /><path fill="rgb(1,2,7)" stroke="rgb(1,2,7)" stroke-width="1" opacity="0.3803921568627451" d="M 294.5 208 L 296 208.5 L 293.5 210 L 294.5 208 Z " /><path fill="rgb(1,2,7)" stroke="rgb(1,2,7)" stroke-width="1" opacity="0.3803921568627451" d="M 252.5 209 L 253 215.5 L 252 215.5 L 252.5 209 Z " /><path fill="rgb(1,2,7)" stroke="rgb(1,2,7)" stroke-width="1" opacity="0.3803921568627451" d="M 224.5 210 L 224 211.5 L 225 216 Q 221.3 217.3 223 211.5 L 224.5 210 Z " /><path fill="rgb(1,2,7)" stroke="rgb(1,2,7)" stroke-width="1" opacity="0.3803921568627451" d="M 291.5 210 L 289.5 213 L 291.5 210 Z " /><path fill="rgb(1,2,7)" stroke="rgb(1,2,7)" stroke-width="1" opacity="0.3803921568627451" d="M 66.5 211 L 67 213.5 L 66 213.5 L 66.5 211 Z " /><path fill="rgb(1,2,7)" stroke="rgb(1,2,7)" stroke-width="1" opacity="0.3803921568627451" d="M 193.5 211 L 194.5 213 L 193.5 211 Z " /><path fill="rgb(1,2,7)" stroke="rgb(1,2,7)" stroke-width="1" opacity="0.3803921568627451" d="M 115.5 212 L 119 212.5 L 115.5 213 L 115.5 212 Z " /><path fill="rgb(1,2,7)" stroke="rgb(1,2,7)" stroke-width="1" opacity="0.3803921568627451" d="M 141.5 212 L 147 212.5 L 141.5 213 L 141.5 212 Z " /><path fill="rgb(1,2,7)" stroke="rgb(1,2,7)" stroke-width="1" opacity="0.3803921568627451" d="M 337.5 212 L 341 212.5 L 337.5 213 L 337.5 212 Z " /><path fill="rgb(1,2,7)" stroke="rgb(1,2,7)" stroke-width="1" opacity="0.3803921568627451" d="M 367.5 212 L 371 212.5 L 367.5 213 L 367.5 212 Z " /><path fill="rgb(1,2,7)" stroke="rgb(1,2,7)" stroke-width="1" opacity="0.3803921568627451" d="M 104.5 213 L 108 213.5 L 104.5 214 L 104.5 213 Z " /><path fill="rgb(1,2,7)" stroke="rgb(1,2,7)" stroke-width="1" opacity="0.3803921568627451" d="M 154.5 213 L 157 213.5 L 154.5 214 L 154.5 213 Z " /><path fill="rgb(1,2,7)" stroke="rgb(1,2,7)" stroke-width="1" opacity="0.3803921568627451" d="M 327.5 213 L 331 213.5 L 327.5 214 L 327.5 213 Z " /><path fill="rgb(1,2,7)" stroke="rgb(1,2,7)" stroke-width="1" opacity="0.3803921568627451" d="M 377.5 213 L 380 213.5 L 377.5 214 L 377.5 213 Z " /><path fill="rgb(1,2,7)" stroke="rgb(1,2,7)" stroke-width="1" opacity="0.3803921568627451" d="M 97.5 214 L 100 214.5 L 97.5 215 L 97.5 214 Z " /><path fill="rgb(1,2,7)" stroke="rgb(1,2,7)" stroke-width="1" opacity="0.3803921568627451" d="M 162.5 214 L 166 214.5 L 162.5 215 L 162.5 214 Z " /><path fill="rgb(1,2,7)" stroke="rgb(1,2,7)" stroke-width="1" opacity="0.3803921568627451" d="M 198.5 214 L 199 216 L 197 215.5 L 198.5 214 Z " /><path fill="rgb(1,2,7)" stroke="rgb(1,2,7)" stroke-width="1" opacity="0.3803921568627451" d="M 288.5 214 L 287.5 216 L 288.5 214 Z " /><path fill="rgb(1,2,7)" stroke="rgb(1,2,7)" stroke-width="1" opacity="0.3803921568627451" d="M 320.5 214 L 323 214.5 L 320.5 215 L 320.5 214 Z " /><path fill="rgb(1,2,7)" stroke="rgb(1,2,7)" stroke-width="1" opacity="0.3803921568627451" d="M 313.5 215 L 316 215.5 L 313.5 216 L 313.5 215 Z " /><path fill="rgb(1,2,7)" stroke="rgb(1,2,7)" stroke-width="1" opacity="0.3803921568627451" d="M 78.5 219 L 79 242.5 L 78 242.5 L 78.5 219 Z " /><path fill="rgb(1,2,7)" stroke="rgb(1,2,7)" stroke-width="1" opacity="0.3803921568627451" d="M 300.5 219 L 301 243 L 303 243.5 L 301.5 244 L 300 242.5 L 300.5 219 Z " /><path fill="rgb(1,2,7)" stroke="rgb(1,2,7)" stroke-width="1" opacity="0.3803921568627451" d="M 406.5 219 L 407 242.5 L 406 242.5 L 406.5 219 Z " /><path fill="rgb(1,2,7)" stroke="rgb(1,2,7)" stroke-width="1" opacity="0.3803921568627451" d="M 184.5 226 L 185 228.5 L 184 228.5 L 184.5 226 Z " /><path fill="rgb(1,2,7)" stroke="rgb(1,2,7)" stroke-width="1" opacity="0.3803921568627451" d="M 196.5 226 L 208 226.5 L 196 227 L 195.5 229 L 195 227.5 L 196.5 226 Z " /><path fill="rgb(1,2,7)" stroke="rgb(1,2,7)" stroke-width="1" opacity="0.3803921568627451" d="M 284.5 226 Q 289 225 290 227.5 L 288.5 227 Q 283.5 228 284.5 226 Z " /><path fill="rgb(1,2,7)" stroke="rgb(1,2,7)" stroke-width="1" opacity="0.3803921568627451" d="M 184.5 230 L 185 241.5 L 184 241.5 L 184.5 230 Z " /><path fill="rgb(1,2,7)" stroke="rgb(1,2,7)" stroke-width="1" opacity="0.3803921568627451" d="M 206.5 231 L 288 231.5 L 206.5 232 L 206.5 231 Z " /><path fill="rgb(1,2,7)" stroke="rgb(1,2,7)" stroke-width="1" opacity="0.3803921568627451" d="M 120.5 238 L 139 238.5 L 120.5 239 L 120.5 238 Z " /><path fill="rgb(1,2,7)" stroke="rgb(1,2,7)" stroke-width="1" opacity="0.3803921568627451" d="M 347.5 238 L 358 238.5 L 347.5 239 L 347.5 238 Z " /><path fill="rgb(1,2,7)" stroke="rgb(1,2,7)" stroke-width="1" opacity="0.3803921568627451" d="M 108.5 239 L 112 239.5 L 108.5 240 L 108.5 239 Z " /><path fill="rgb(1,2,7)" stroke="rgb(1,2,7)" stroke-width="1" opacity="0.3803921568627451" d="M 148.5 239 L 153 239.5 L 148.5 240 L 148.5 239 Z " /><path fill="rgb(1,2,7)" stroke="rgb(1,2,7)" stroke-width="1" opacity="0.3803921568627451" d="M 331.5 239 L 335 239.5 L 331.5 240 L 331.5 239 Z " /><path fill="rgb(1,2,7)" stroke="rgb(1,2,7)" stroke-width="1" opacity="0.3803921568627451" d="M 370.5 239 L 375 239.5 L 370.5 240 L 370.5 239 Z " /><path fill="rgb(1,2,7)" stroke="rgb(1,2,7)" stroke-width="1" opacity="0.3803921568627451" d="M 97.5 240 L 101 240.5 L 97.5 241 L 97.5 240 Z " /><path fill="rgb(1,2,7)" stroke="rgb(1,2,7)" stroke-width="1" opacity="0.3803921568627451" d="M 159.5 240 L 163 240.5 L 159.5 241 L 159.5 240 Z " /><path fill="rgb(1,2,7)" stroke="rgb(1,2,7)" stroke-width="1" opacity="0.3803921568627451" d="M 320.5 240 L 324 240.5 L 320.5 241 L 320.5 240 Z " /><path fill="rgb(1,2,7)" stroke="rgb(1,2,7)" stroke-width="1" opacity="0.3803921568627451" d="M 382.5 240 L 386 240.5 L 382.5 241 L 382.5 240 Z " /><path fill="rgb(1,2,7)" stroke="rgb(1,2,7)" stroke-width="1" opacity="0.3803921568627451" d="M 169.5 241 L 172 241.5 L 169.5 242 L 169.5 241 Z " /><path fill="rgb(1,2,7)" stroke="rgb(1,2,7)" stroke-width="1" opacity="0.3803921568627451" d="M 392.5 241 L 396 241.5 L 392.5 242 L 392.5 241 Z " /><path fill="rgb(1,2,7)" stroke="rgb(1,2,7)" stroke-width="1" opacity="0.3803921568627451" d="M 81.5 242 L 84 242.5 L 81.5 243 L 81.5 242 Z " /><path fill="rgb(1,2,7)" stroke="rgb(1,2,7)" stroke-width="1" opacity="0.3803921568627451" d="M 196.5 242 L 288.5 242 L 290 243.5 L 288.5 243 L 196 243 L 196 377.5 L 195 377.5 L 195 243.5 L 196.5 242 Z " /><path fill="rgb(1,2,7)" stroke="rgb(1,2,7)" stroke-width="1" opacity="0.3803921568627451" d="M 307.5 242 L 310 242.5 L 307.5 243 L 307.5 242 Z " /><path fill="rgb(1,2,7)" stroke="rgb(1,2,7)" stroke-width="1" opacity="0.3803921568627451" d="M 401.5 242 L 404 242.5 L 401.5 243 L 401.5 242 Z " /><path fill="rgb(1,2,7)" stroke="rgb(1,2,7)" stroke-width="1" opacity="0.3803921568627451" d="M 55.5 244 L 66 244.5 L 55.5 245 L 55.5 244 Z " /><path fill="rgb(1,2,7)" stroke="rgb(1,2,7)" stroke-width="1" opacity="0.3803921568627451" d="M 419.5 244 L 422 244.5 L 419.5 245 L 419.5 244 Z " /><path fill="rgb(1,2,7)" stroke="rgb(1,2,7)" stroke-width="1" opacity="0.3803921568627451" d="M 446.5 245 L 448 248.5 L 447 248.5 L 446.5 245 Z " /><path fill="rgb(1,2,7)" stroke="rgb(1,2,7)" stroke-width="1" opacity="0.3803921568627451" d="M 343.5 249 L 361 249.5 L 343.5 250 L 343.5 249 Z " /><path fill="rgb(1,2,7)" stroke="rgb(1,2,7)" stroke-width="1" opacity="0.3803921568627451" d="M 109.5 250 L 114 250.5 L 109.5 251 L 109.5 250 Z " /><path fill="rgb(1,2,7)" stroke="rgb(1,2,7)" stroke-width="1" opacity="0.3803921568627451" d="M 150.5 250 L 157 250.5 L 150.5 251 L 150.5 250 Z " /><path fill="rgb(1,2,7)" stroke="rgb(1,2,7)" stroke-width="1" opacity="0.3803921568627451" d="M 329.5 250 L 332 250.5 L 329.5 251 L 329.5 250 Z " /><path fill="rgb(1,2,7)" stroke="rgb(1,2,7)" stroke-width="1" opacity="0.3803921568627451" d="M 372.5 250 L 377 250.5 L 372.5 251 L 372.5 250 Z " /><path fill="rgb(1,2,7)" stroke="rgb(1,2,7)" stroke-width="1" opacity="0.3803921568627451" d="M 100.5 251 L 103 251.5 L 100.5 252 L 100.5 251 Z " /><path fill="rgb(1,2,7)" stroke="rgb(1,2,7)" stroke-width="1" opacity="0.3803921568627451" d="M 164.5 251 L 167 251.5 L 164.5 252 L 164.5 251 Z " /><path fill="rgb(1,2,7)" stroke="rgb(1,2,7)" stroke-width="1" opacity="0.3803921568627451" d="M 385.5 251 L 388 251.5 L 385.5 252 L 385.5 251 Z " /><path fill="rgb(1,2,7)" stroke="rgb(1,2,7)" stroke-width="1" opacity="0.3803921568627451" d="M 91.5 252 L 94 252.5 L 91.5 253 L 91.5 252 Z " /><path fill="rgb(1,2,7)" stroke="rgb(1,2,7)" stroke-width="1" opacity="0.3803921568627451" d="M 171.5 252 L 174 252.5 L 171.5 253 L 171.5 252 Z " /><path fill="rgb(1,2,7)" stroke="rgb(1,2,7)" stroke-width="1" opacity="0.3803921568627451" d="M 314.5 252 L 317 252.5 L 314.5 253 L 314.5 252 Z " /><path fill="rgb(1,2,7)" stroke="rgb(1,2,7)" stroke-width="1" opacity="0.3803921568627451" d="M 392.5 252 L 395 252.5 L 392.5 253 L 392.5 252 Z " /><path fill="rgb(1,2,7)" stroke="rgb(1,2,7)" stroke-width="1" opacity="0.3803921568627451" d="M 446.5 252 L 447 255.5 L 446 255.5 L 446.5 252 Z " /><path fill="rgb(1,2,7)" stroke="rgb(1,2,7)" stroke-width="1" opacity="0.3803921568627451" d="M 84.5 253 L 87 253.5 L 84.5 254 L 84.5 253 Z " /><path fill="rgb(1,2,7)" stroke="rgb(1,2,7)" stroke-width="1" opacity="0.3803921568627451" d="M 179.5 253 L 182 253.5 L 179.5 254 L 179.5 253 Z " /><path fill="rgb(1,2,7)" stroke="rgb(1,2,7)" stroke-width="1" opacity="0.3803921568627451" d="M 205.5 253 L 204.5 255 L 205.5 253 Z " /><path fill="rgb(1,2,7)" stroke="rgb(1,2,7)" stroke-width="1" opacity="0.3803921568627451" d="M 263.5 253 L 263 254.5 L 262.5 258 L 262 254.5 L 263.5 253 Z " /><path fill="rgb(1,2,7)" stroke="rgb(1,2,7)" stroke-width="1" opacity="0.3803921568627451" d="M 399.5 253 L 402 253.5 L 399.5 254 L 399.5 253 Z " /><path fill="rgb(1,2,7)" stroke="rgb(1,2,7)" stroke-width="1" opacity="0.3803921568627451" d="M 79.5 254 L 81 254.5 L 79 255 L 78.5 330 L 78 255.5 L 79.5 254 Z " /><path fill="rgb(1,2,7)" stroke="rgb(1,2,7)" stroke-width="1" opacity="0.3803921568627451" d="M 302.5 254 L 305 254.5 L 302.5 255 L 302.5 254 Z " /><path fill="rgb(1,2,7)" stroke="rgb(1,2,7)" stroke-width="1" opacity="0.3803921568627451" d="M 405.5 254 L 407 255.5 L 407 350.5 L 405 351.5 L 406 350.5 L 406 255.5 L 405.5 254 Z " /><path fill="rgb(1,2,7)" stroke="rgb(1,2,7)" stroke-width="1" opacity="0.3803921568627451" d="M 40.5 256 L 54 256.5 L 40.5 257 L 40.5 256 Z " /><path fill="rgb(1,2,7)" stroke="rgb(1,2,7)" stroke-width="1" opacity="0.3803921568627451" d="M 66.5 256 L 67 258.5 L 66 258.5 L 66.5 256 Z " /><path fill="rgb(1,2,7)" stroke="rgb(1,2,7)" stroke-width="1" opacity="0.3803921568627451" d="M 203.5 256 L 204 258.5 L 203 258.5 L 203.5 256 Z " /><path fill="rgb(1,2,7)" stroke="rgb(1,2,7)" stroke-width="1" opacity="0.3803921568627451" d="M 278.5 256 L 279 266.5 L 278 266.5 L 278.5 256 Z " /><path fill="rgb(1,2,7)" stroke="rgb(1,2,7)" stroke-width="1" opacity="0.3803921568627451" d="M 435.5 256 L 444 256.5 L 435.5 257 L 435.5 256 Z " /><path fill="rgb(1,2,7)" stroke="rgb(1,2,7)" stroke-width="1" opacity="0.3803921568627451" d="M 219.5 257 L 220 261.5 L 219 261.5 L 219.5 257 Z " /><path fill="rgb(1,2,7)" stroke="rgb(1,2,7)" stroke-width="1" opacity="0.3803921568627451" d="M 300.5 257 L 301 262.5 L 300 262.5 L 300.5 257 Z " /><path fill="rgb(1,2,7)" stroke="rgb(1,2,7)" stroke-width="1" opacity="0.3803921568627451" d="M 66.5 260 L 67 282.5 L 66 282.5 L 66.5 260 Z " /><path fill="rgb(1,2,7)" stroke="rgb(1,2,7)" stroke-width="1" opacity="0.3803921568627451" d="M 239.5 261 L 246.5 269 L 239.5 261 Z " /><path fill="rgb(1,2,7)" stroke="rgb(1,2,7)" stroke-width="1" opacity="0.3803921568627451" d="M 218.5 265 L 219 266.5 L 217 267.5 L 218.5 265 Z " /><path fill="rgb(1,2,7)" stroke="rgb(1,2,7)" stroke-width="1" opacity="0.3803921568627451" d="M 234.5 265 L 229.5 271 L 234.5 265 Z " /><path fill="rgb(1,2,7)" stroke="rgb(1,2,7)" stroke-width="1" opacity="0.3803921568627451" d="M 262.5 265 L 265 268.5 L 262 266.5 L 262.5 265 Z " /><path fill="rgb(1,2,7)" stroke="rgb(1,2,7)" stroke-width="1" opacity="0.3803921568627451" d="M 206.5 267 L 207.5 269 L 206.5 267 Z " /><path fill="rgb(1,2,7)" stroke="rgb(1,2,7)" stroke-width="1" opacity="0.3803921568627451" d="M 213.5 268 L 216 268.5 L 213.5 269 L 213.5 268 Z " /><path fill="rgb(1,2,7)" stroke="rgb(1,2,7)" stroke-width="1" opacity="0.3803921568627451" d="M 268.5 268 L 272 268.5 L 268.5 269 L 268.5 268 Z " /><path fill="rgb(1,2,7)" stroke="rgb(1,2,7)" stroke-width="1" opacity="0.3803921568627451" d="M 250.5 271 L 254.5 276 L 250.5 271 Z " /><path fill="rgb(1,2,7)" stroke="rgb(1,2,7)" stroke-width="1" opacity="0.3803921568627451" d="M 300.5 271 L 301 275.5 L 300 275.5 L 300.5 271 Z " /><path fill="rgb(1,2,7)" stroke="rgb(1,2,7)" stroke-width="1" opacity="0.3803921568627451" d="M 224.5 274 L 221.5 278 L 224.5 274 Z " /><path fill="rgb(1,2,7)" stroke="rgb(1,2,7)" stroke-width="1" opacity="0.3803921568627451" d="M 93 275 L 95 275.5 L 94 276.5 L 93.5 294 L 93 275 Z " /><path fill="rgb(1,2,7)" stroke="rgb(1,2,7)" stroke-width="1" opacity="0.3803921568627451" d="M 104.5 275 L 106 276.5 L 106 300.5 L 105 300.5 L 105 276.5 L 104.5 275 Z " /><path fill="rgb(1,2,7)" stroke="rgb(1,2,7)" stroke-width="1" opacity="0.3803921568627451" d="M 124.5 275 L 124 276.5 L 123.5 279 L 123 276.5 L 124.5 275 Z " /><path fill="rgb(1,2,7)" stroke="rgb(1,2,7)" stroke-width="1" opacity="0.3803921568627451" d="M 153.5 275 L 155 275.5 L 153 276 L 152.5 301 L 152 276.5 L 153.5 275 Z " /><path fill="rgb(1,2,7)" stroke="rgb(1,2,7)" stroke-width="1" opacity="0.3803921568627451" d="M 316.5 275 L 320 275.5 L 316 276 L 316 303.5 L 316.5 304 L 323.5 304 L 323.5 305 Q 316.8 306.8 315 303.5 L 315 276.5 L 316.5 275 Z " /><path fill="rgb(1,2,7)" stroke="rgb(1,2,7)" stroke-width="1" opacity="0.3803921568627451" d="M 325.5 275 L 328 276.5 L 327.5 301 L 327 276 L 325.5 275 Z " /><path fill="rgb(1,2,7)" stroke="rgb(1,2,7)" stroke-width="1" opacity="0.3803921568627451" d="M 353.5 275 L 356 275.5 L 353.5 276 L 353.5 275 Z " /><path fill="rgb(1,2,7)" stroke="rgb(1,2,7)" stroke-width="1" opacity="0.3803921568627451" d="M 380.5 275 L 385 275.5 L 380.5 276 L 380.5 275 Z " /><path fill="rgb(1,2,7)" stroke="rgb(1,2,7)" stroke-width="1" opacity="0.3803921568627451" d="M 237.5 277 L 230.5 285 L 237.5 277 Z " /><path fill="rgb(1,2,7)" stroke="rgb(1,2,7)" stroke-width="1" opacity="0.3803921568627451" d="M 240.5 277 L 243.5 281 L 240.5 277 Z " /><path fill="rgb(1,2,7)" stroke="rgb(1,2,7)" stroke-width="1" opacity="0.3803921568627451" d="M 300.5 277 L 301 351 L 324 351.5 L 301.5 352 L 300 350.5 L 300.5 277 Z " /><path fill="rgb(1,2,7)" stroke="rgb(1,2,7)" stroke-width="1" opacity="0.3803921568627451" d="M 357.5 277 L 358 303.5 L 357 303.5 L 357.5 277 Z " /><path fill="rgb(1,2,7)" stroke="rgb(1,2,7)" stroke-width="1" opacity="0.3803921568627451" d="M 135.5 278 L 136 280.5 L 135 280.5 L 135.5 278 Z " /><path fill="rgb(1,2,7)" stroke="rgb(1,2,7)" stroke-width="1" opacity="0.3803921568627451" d="M 258.5 278 L 267.5 288 L 258.5 278 Z " /><path fill="rgb(1,2,7)" stroke="rgb(1,2,7)" stroke-width="1" opacity="0.3803921568627451" d="M 216.5 281 L 214.5 284 L 216.5 281 Z " /><path fill="rgb(1,2,7)" stroke="rgb(1,2,7)" stroke-width="1" opacity="0.3803921568627451" d="M 418.5 281 L 419 283.5 L 418 283.5 L 418.5 281 Z " /><path fill="rgb(1,2,7)" stroke="rgb(1,2,7)" stroke-width="1" opacity="0.3803921568627451" d="M 165.5 283 L 166 303.5 L 165 303.5 L 165.5 283 Z " /><path fill="rgb(1,2,7)" stroke="rgb(1,2,7)" stroke-width="1" opacity="0.3803921568627451" d="M 212.5 284 L 210 287.5 L 209.5 377 L 209 287.5 L 212.5 284 Z " /><path fill="rgb(1,2,7)" stroke="rgb(1,2,7)" stroke-width="1" opacity="0.3803921568627451" d="M 249.5 285 L 255.5 292 L 249.5 285 Z " /><path fill="rgb(1,2,7)" stroke="rgb(1,2,7)" stroke-width="1" opacity="0.3803921568627451" d="M 135.5 286 L 136 304 L 134 303.5 L 135 302.5 L 135.5 286 Z " /><path fill="rgb(1,2,7)" stroke="rgb(1,2,7)" stroke-width="1" opacity="0.3803921568627451" d="M 123.5 287 L 124 297.5 L 123 297.5 L 123.5 287 Z " /><path fill="rgb(1,2,7)" stroke="rgb(1,2,7)" stroke-width="1" opacity="0.3803921568627451" d="M 226.5 287 L 224.5 290 L 226.5 287 Z " /><path fill="rgb(1,2,7)" stroke="rgb(1,2,7)" stroke-width="1" opacity="0.3803921568627451" d="M 268.5 289 L 269 295.5 L 268 295.5 L 268.5 289 Z " /><path fill="rgb(1,2,7)" stroke="rgb(1,2,7)" stroke-width="1" opacity="0.3803921568627451" d="M 345.5 290 L 346 304 L 355 304.5 L 346.5 305 L 345 303.5 L 345.5 290 Z " /><path fill="rgb(1,2,7)" stroke="rgb(1,2,7)" stroke-width="1" opacity="0.3803921568627451" d="M 221.5 292 L 222 378 L 256 378.5 L 222.5 379 L 221 377.5 L 221.5 292 Z " /><path fill="rgb(1,2,7)" stroke="rgb(1,2,7)" stroke-width="1" opacity="0.3803921568627451" d="M 418.5 292 L 419 302.5 L 418 302.5 L 418.5 292 Z " /><path fill="rgb(1,2,7)" stroke="rgb(1,2,7)" stroke-width="1" opacity="0.3803921568627451" d="M 256.5 293 L 257 374.5 L 256 374.5 L 256.5 293 Z " /><path fill="rgb(1,2,7)" stroke="rgb(1,2,7)" stroke-width="1" opacity="0.3803921568627451" d="M 183.5 294 L 184 301.5 L 183 301.5 L 183.5 294 Z " /><path fill="rgb(1,2,7)" stroke="rgb(1,2,7)" stroke-width="1" opacity="0.3803921568627451" d="M 374.5 295 L 375 303.5 L 374 303.5 L 374.5 295 Z " /><path fill="rgb(1,2,7)" stroke="rgb(1,2,7)" stroke-width="1" opacity="0.3803921568627451" d="M 387.5 301 L 388 303.5 L 387 303.5 L 387.5 301 Z " /><path fill="rgb(1,2,7)" stroke="rgb(1,2,7)" stroke-width="1" opacity="0.3803921568627451" d="M 183.5 304 L 184 311.5 L 183 311.5 L 183.5 304 Z " /><path fill="rgb(1,2,7)" stroke="rgb(1,2,7)" stroke-width="1" opacity="0.3803921568627451" d="M 418.5 304 L 419 306.5 L 418 306.5 L 418.5 304 Z " /><path fill="rgb(1,2,7)" stroke="rgb(1,2,7)" stroke-width="1" opacity="0.3803921568627451" d="M 38.5 307 L 40 307.5 L 38 308 L 37.5 311 L 37 308.5 L 38.5 307 Z " /><path fill="rgb(1,2,7)" stroke="rgb(1,2,7)" stroke-width="1" opacity="0.3803921568627451" d="M 446.5 312 L 447 315.5 L 446 315.5 L 446.5 312 Z " /><path fill="rgb(1,2,7)" stroke="rgb(1,2,7)" stroke-width="1" opacity="0.3803921568627451" d="M 268.5 313 L 269 316.5 L 268 316.5 L 268.5 313 Z " /><path fill="rgb(1,2,7)" stroke="rgb(1,2,7)" stroke-width="1" opacity="0.3803921568627451" d="M 183.5 314 L 184 319.5 L 183 319.5 L 183.5 314 Z " /><path fill="rgb(1,2,7)" stroke="rgb(1,2,7)" stroke-width="1" opacity="0.3803921568627451" d="M 38.5 317 L 44 318.5 L 39.5 319 L 38.5 317 Z " /><path fill="rgb(1,2,7)" stroke="rgb(1,2,7)" stroke-width="1" opacity="0.3803921568627451" d="M 446.5 317 L 447 319 L 445 318.5 L 446.5 317 Z " /><path fill="rgb(1,2,7)" stroke="rgb(1,2,7)" stroke-width="1" opacity="0.3803921568627451" d="M 62.5 318 L 66 318.5 L 62.5 319 L 62.5 318 Z " /><path fill="rgb(1,2,7)" stroke="rgb(1,2,7)" stroke-width="1" opacity="0.3803921568627451" d="M 268.5 318 L 269 378 L 288.5 378 L 289.5 377 L 288.5 379 L 269.5 379 L 268 377.5 L 268.5 318 Z " /><path fill="rgb(1,2,7)" stroke="rgb(1,2,7)" stroke-width="1" opacity="0.3803921568627451" d="M 419.5 318 L 443 318.5 L 419.5 319 L 419.5 318 Z " /><path fill="rgb(1,2,7)" stroke="rgb(1,2,7)" stroke-width="1" opacity="0.3803921568627451" d="M 418.5 321 L 419 355.5 L 418 355.5 L 418.5 321 Z " /><path fill="rgb(1,2,7)" stroke="rgb(1,2,7)" stroke-width="1" opacity="0.3803921568627451" d="M 67.5 341 L 68 358.5 L 67 358.5 L 67.5 341 Z " /><path fill="rgb(1,2,7)" stroke="rgb(1,2,7)" stroke-width="1" opacity="0.3803921568627451" d="M 289.5 349 L 290 355.5 L 289 355.5 L 289.5 349 Z " /><path fill="rgb(1,2,7)" stroke="rgb(1,2,7)" stroke-width="1" opacity="0.3803921568627451" d="M 78.5 351 L 82 351.5 L 78.5 352 L 78.5 351 Z " /><path fill="rgb(1,2,7)" stroke="rgb(1,2,7)" stroke-width="1" opacity="0.3803921568627451" d="M 104.5 351 L 110 351.5 L 104.5 352 L 104.5 351 Z " /><path fill="rgb(1,2,7)" stroke="rgb(1,2,7)" stroke-width="1" opacity="0.3803921568627451" d="M 114.5 351 L 117 351.5 L 114.5 352 L 114.5 351 Z " /><path fill="rgb(1,2,7)" stroke="rgb(1,2,7)" stroke-width="1" opacity="0.3803921568627451" d="M 122.5 351 L 129 351.5 L 122.5 352 L 122.5 351 Z " /><path fill="rgb(1,2,7)" stroke="rgb(1,2,7)" stroke-width="1" opacity="0.3803921568627451" d="M 132.5 351 L 139 351.5 L 132.5 352 L 132.5 351 Z " /><path fill="rgb(1,2,7)" stroke="rgb(1,2,7)" stroke-width="1" opacity="0.3803921568627451" d="M 144.5 351 L 147 351.5 L 144.5 352 L 144.5 351 Z " /><path fill="rgb(1,2,7)" stroke="rgb(1,2,7)" stroke-width="1" opacity="0.3803921568627451" d="M 156.5 351 L 159 351.5 L 156.5 352 L 156.5 351 Z " /><path fill="rgb(1,2,7)" stroke="rgb(1,2,7)" stroke-width="1" opacity="0.3803921568627451" d="M 164.5 351 L 176 351.5 L 164.5 352 L 164.5 351 Z " /><path fill="rgb(1,2,7)" stroke="rgb(1,2,7)" stroke-width="1" opacity="0.3803921568627451" d="M 329.5 351 L 334 351.5 L 329.5 352 L 329.5 351 Z " /><path fill="rgb(1,2,7)" stroke="rgb(1,2,7)" stroke-width="1" opacity="0.3803921568627451" d="M 342.5 351 L 345 351.5 L 342.5 352 L 342.5 351 Z " /><path fill="rgb(1,2,7)" stroke="rgb(1,2,7)" stroke-width="1" opacity="0.3803921568627451" d="M 392.5 351 L 395 351.5 L 392.5 352 L 392.5 351 Z " /><path fill="rgb(1,2,7)" stroke="rgb(1,2,7)" stroke-width="1" opacity="0.3803921568627451" d="M 67.5 362 L 68 364.5 L 67 364.5 L 67.5 362 Z " /><path fill="rgb(1,2,7)" stroke="rgb(1,2,7)" stroke-width="1" opacity="0.3803921568627451" d="M 78.5 362 L 84 362.5 L 78.5 363 L 78.5 362 Z " /><path fill="rgb(1,2,7)" stroke="rgb(1,2,7)" stroke-width="1" opacity="0.3803921568627451" d="M 88.5 362 L 97 362.5 L 88.5 363 L 88.5 362 Z " /><path fill="rgb(1,2,7)" stroke="rgb(1,2,7)" stroke-width="1" opacity="0.3803921568627451" d="M 174.5 362 L 183 362.5 L 174.5 363 L 174.5 362 Z " /><path fill="rgb(1,2,7)" stroke="rgb(1,2,7)" stroke-width="1" opacity="0.3803921568627451" d="M 301.5 362 L 304 362.5 L 301 363 L 301 377.5 L 302 378.5 L 300 377.5 L 300 363.5 L 301.5 362 Z " /><path fill="rgb(1,2,7)" stroke="rgb(1,2,7)" stroke-width="1" opacity="0.3803921568627451" d="M 406.5 363 L 407 377.5 L 405.5 379 L 303.5 379 L 303.5 378 L 405.5 378 L 406 377.5 L 406.5 363 Z " /><path fill="rgb(1,2,7)" stroke="rgb(1,2,7)" stroke-width="1" opacity="0.3803921568627451" d="M 289.5 364 L 290 375.5 L 289 375.5 L 289.5 364 Z " /><path fill="rgb(1,2,7)" stroke="rgb(1,2,7)" stroke-width="1" opacity="0.3803921568627451" d="M 184.5 373 L 185 377.5 L 184 377.5 L 184.5 373 Z " /><path fill="rgb(1,2,7)" stroke="rgb(1,2,7)" stroke-width="1" opacity="0.3803921568627451" d="M 418.5 377 L 419.5 378 L 428 378.5 L 419.5 379 L 418.5 377 Z " /><path fill="rgb(1,2,7)" stroke="rgb(1,2,7)" stroke-width="1" opacity="0.3803921568627451" d="M 51.5 378 L 66 378.5 L 51.5 379 L 50.5 380 L 51.5 378 Z " /><path fill="rgb(1,2,7)" stroke="rgb(1,2,7)" stroke-width="1" opacity="0.3803921568627451" d="M 79.5 378 L 183 378.5 L 79.5 379 L 79.5 378 Z " /><path fill="rgb(1,2,7)" stroke="rgb(1,2,7)" stroke-width="1" opacity="0.3803921568627451" d="M 197.5 378 L 208 378.5 L 197.5 379 L 197.5 378 Z " /><path fill="rgb(1,2,7)" stroke="rgb(1,2,7)" stroke-width="1" opacity="0.3803921568627451" d="M 428.5 380 L 429 382.5 L 428 382.5 L 428.5 380 Z " /><path fill="rgb(1,2,7)" stroke="rgb(1,2,7)" stroke-width="1" opacity="0.3803921568627451" d="M 62.5 389 L 67 389.5 L 62 390 L 61.5 408 L 61 390.5 L 62.5 389 Z " /><path fill="rgb(1,2,7)" stroke="rgb(1,2,7)" stroke-width="1" opacity="0.3803921568627451" d="M 428.5 398 L 429 408.5 L 428 408.5 L 428.5 398 Z " /><path fill="rgb(1,2,7)" stroke="rgb(1,2,7)" stroke-width="1" opacity="0.3803921568627451" d="M 42.5 409 L 50 409.5 L 42.5 410 L 42.5 409 Z " /><path fill="rgb(1,2,7)" stroke="rgb(1,2,7)" stroke-width="1" opacity="0.3803921568627451" d="M 387.5 409 L 400 409.5 L 387.5 410 L 387.5 409 Z " /><path fill="rgb(1,2,7)" stroke="rgb(1,2,7)" stroke-width="1" opacity="0.3803921568627451" d="M 410.5 409 L 417 409.5 L 410.5 410 L 410.5 409 Z " /><path fill="rgb(1,2,7)" stroke="rgb(1,2,7)" stroke-width="1" opacity="0.3803921568627451" d="M 6.5 410 L 7 420 L 34 420.5 L 7.5 421 L 6 419.5 L 6.5 410 Z " /><path fill="rgb(1,2,7)" stroke="rgb(1,2,7)" stroke-width="1" opacity="0.3803921568627451" d="M 476.5 412 L 477 419.5 L 476 419.5 L 476.5 412 Z " /><path fill="rgb(1,3,7)" stroke="rgb(1,3,7)" stroke-width="1" opacity="0.6313725490196078" d="M 188.5 159 L 191 159.5 L 188.5 160 L 188.5 159 Z " /><path fill="rgb(1,3,7)" stroke="rgb(1,3,7)" stroke-width="1" opacity="0.6313725490196078" d="M 291.5 159 L 295 159.5 L 291.5 160 L 291.5 159 Z " /><path fill="rgb(1,3,7)" stroke="rgb(1,3,7)" stroke-width="1" opacity="0.6313725490196078" d="M 182.5 160 L 183 166.5 L 182 166.5 L 182.5 160 Z " /><path fill="rgb(1,3,7)" stroke="rgb(1,3,7)" stroke-width="1" opacity="0.6313725490196078" d="M 297.5 160 L 298 162.5 L 297 162.5 L 297.5 160 Z " /><path fill="rgb(1,3,7)" stroke="rgb(1,3,7)" stroke-width="1" opacity="0.6313725490196078" d="M 297.5 166 L 299 171.5 L 297 170.5 L 297.5 166 Z " /><path fill="rgb(1,3,7)" stroke="rgb(1,3,7)" stroke-width="1" opacity="0.6313725490196078" d="M 182.5 168 L 183 170.5 L 181 171.5 L 182.5 168 Z " /><path fill="rgb(1,3,7)" stroke="rgb(1,3,7)" stroke-width="1" opacity="0.6313725490196078" d="M 314.5 182 L 319 182.5 L 314.5 183 L 314.5 182 Z " /><path fill="rgb(1,3,7)" stroke="rgb(1,3,7)" stroke-width="1" opacity="0.6313725490196078" d="M 167.5 183 L 168 196.5 L 167 196.5 L 167.5 183 Z " /><path fill="rgb(1,3,7)" stroke="rgb(1,3,7)" stroke-width="1" opacity="0.6313725490196078" d="M 259.5 190 L 258.5 192 L 259.5 190 Z " /><path fill="rgb(1,3,7)" stroke="rgb(1,3,7)" stroke-width="1" opacity="0.6313725490196078" d="M 299.5 190 L 300 192.5 L 299 192.5 L 299.5 190 Z " /><path fill="rgb(1,3,7)" stroke="rgb(1,3,7)" stroke-width="1" opacity="0.6313725490196078" d="M 201.5 191 L 200.5 193 L 201.5 191 Z " /><path fill="rgb(1,3,7)" stroke="rgb(1,3,7)" stroke-width="1" opacity="0.6313725490196078" d="M 220.5 191 L 221.5 193 L 220.5 191 Z " /><path fill="rgb(1,3,7)" stroke="rgb(1,3,7)" stroke-width="1" opacity="0.6313725490196078" d="M 299.5 196 L 300 205.5 L 299 205.5 L 299.5 196 Z " /><path fill="rgb(1,3,7)" stroke="rgb(1,3,7)" stroke-width="1" opacity="0.6313725490196078" d="M 252.5 197 L 253 199.5 L 252 199.5 L 252.5 197 Z " /><path fill="rgb(1,3,7)" stroke="rgb(1,3,7)" stroke-width="1" opacity="0.6313725490196078" d="M 281.5 197 L 282 214.5 L 281 214.5 L 281.5 197 Z " /><path fill="rgb(1,3,7)" stroke="rgb(1,3,7)" stroke-width="1" opacity="0.6313725490196078" d="M 227.5 198 L 228 206.5 L 227 206.5 L 227.5 198 Z " /><path fill="rgb(1,3,7)" stroke="rgb(1,3,7)" stroke-width="1" opacity="0.6313725490196078" d="M 223.5 200 L 224 210.5 L 223 210.5 L 223.5 200 Z " /><path fill="rgb(1,3,7)" stroke="rgb(1,3,7)" stroke-width="1" opacity="0.6313725490196078" d="M 117.5 201 L 120 201.5 L 117.5 202 L 117.5 201 Z " /><path fill="rgb(1,3,7)" stroke="rgb(1,3,7)" stroke-width="1" opacity="0.6313725490196078" d="M 140.5 201 L 144 201.5 L 140.5 202 L 140.5 201 Z " /><path fill="rgb(1,3,7)" stroke="rgb(1,3,7)" stroke-width="1" opacity="0.6313725490196078" d="M 340.5 201 L 343 201.5 L 340.5 202 L 340.5 201 Z " /><path fill="rgb(1,3,7)" stroke="rgb(1,3,7)" stroke-width="1" opacity="0.6313725490196078" d="M 364.5 201 L 367 201.5 L 364.5 202 L 364.5 201 Z " /><path fill="rgb(1,3,7)" stroke="rgb(1,3,7)" stroke-width="1" opacity="0.6313725490196078" d="M 154.5 202 L 157 202.5 L 154.5 203 L 154.5 202 Z " /><path fill="rgb(1,3,7)" stroke="rgb(1,3,7)" stroke-width="1" opacity="0.6313725490196078" d="M 252.5 203 L 253 208.5 L 252 208.5 L 252.5 203 Z " /><path fill="rgb(1,3,7)" stroke="rgb(1,3,7)" stroke-width="1" opacity="0.6313725490196078" d="M 349.5 211 L 356 211.5 L 349.5 212 L 349.5 211 Z " /><path fill="rgb(1,3,7)" stroke="rgb(1,3,7)" stroke-width="1" opacity="0.6313725490196078" d="M 112.5 212 L 115 212.5 L 112.5 213 L 112.5 212 Z " /><path fill="rgb(1,3,7)" stroke="rgb(1,3,7)" stroke-width="1" opacity="0.6313725490196078" d="M 147.5 212 L 150 212.5 L 147.5 213 L 147.5 212 Z " /><path fill="rgb(1,3,7)" stroke="rgb(1,3,7)" stroke-width="1" opacity="0.6313725490196078" d="M 67.5 215 L 68 217.5 L 67 217.5 L 67.5 215 Z " /><path fill="rgb(1,3,7)" stroke="rgb(1,3,7)" stroke-width="1" opacity="0.6313725490196078" d="M 183.5 217 Q 185.8 217.8 185 221.5 L 184 221.5 L 183.5 217 Z " /><path fill="rgb(1,3,7)" stroke="rgb(1,3,7)" stroke-width="1" opacity="0.6313725490196078" d="M 417.5 220 L 418 236.5 L 417 236.5 L 417.5 220 Z " /><path fill="rgb(1,3,7)" stroke="rgb(1,3,7)" stroke-width="1" opacity="0.6313725490196078" d="M 67.5 221 L 68 242.5 L 67 242.5 L 67.5 221 Z " /><path fill="rgb(1,3,7)" stroke="rgb(1,3,7)" stroke-width="1" opacity="0.6313725490196078" d="M 184.5 223 L 185 225.5 L 184 225.5 L 184.5 223 Z " /><path fill="rgb(1,3,7)" stroke="rgb(1,3,7)" stroke-width="1" opacity="0.6313725490196078" d="M 208.5 226 L 284 226.5 L 208.5 227 L 208.5 226 Z " /><path fill="rgb(1,3,7)" stroke="rgb(1,3,7)" stroke-width="1" opacity="0.6313725490196078" d="M 289.5 228 L 290 230.5 L 288 231.5 L 289.5 228 Z " /><path fill="rgb(1,3,7)" stroke="rgb(1,3,7)" stroke-width="1" opacity="0.6313725490196078" d="M 196.5 231 L 206 231.5 L 196.5 232 L 196.5 231 Z " /><path fill="rgb(1,3,7)" stroke="rgb(1,3,7)" stroke-width="1" opacity="0.6313725490196078" d="M 112.5 239 L 115 239.5 L 112.5 240 L 112.5 239 Z " /><path fill="rgb(1,3,7)" stroke="rgb(1,3,7)" stroke-width="1" opacity="0.6313725490196078" d="M 144.5 239 L 148 239.5 L 144.5 240 L 144.5 239 Z " /><path fill="rgb(1,3,7)" stroke="rgb(1,3,7)" stroke-width="1" opacity="0.6313725490196078" d="M 335.5 239 L 338 239.5 L 335.5 240 L 335.5 239 Z " /><path fill="rgb(1,3,7)" stroke="rgb(1,3,7)" stroke-width="1" opacity="0.6313725490196078" d="M 367.5 239 L 370 239.5 L 367.5 240 L 367.5 239 Z " /><path fill="rgb(1,3,7)" stroke="rgb(1,3,7)" stroke-width="1" opacity="0.6313725490196078" d="M 289.5 244 L 290 348.5 L 289 348.5 L 289.5 244 Z " /><path fill="rgb(1,3,7)" stroke="rgb(1,3,7)" stroke-width="1" opacity="0.6313725490196078" d="M 441.5 245 L 446 245.5 L 441.5 246 L 441.5 245 Z " /><path fill="rgb(1,3,7)" stroke="rgb(1,3,7)" stroke-width="1" opacity="0.6313725490196078" d="M 38.5 249 L 39 253.5 L 38 253.5 L 38.5 249 Z " /><path fill="rgb(1,3,7)" stroke="rgb(1,3,7)" stroke-width="1" opacity="0.6313725490196078" d="M 120.5 249 L 142 249.5 L 120.5 250 L 120.5 249 Z " /><path fill="rgb(1,3,7)" stroke="rgb(1,3,7)" stroke-width="1" opacity="0.6313725490196078" d="M 337.5 249 L 343 249.5 L 337.5 250 L 337.5 249 Z " /><path fill="rgb(1,3,7)" stroke="rgb(1,3,7)" stroke-width="1" opacity="0.6313725490196078" d="M 361.5 249 L 365 249.5 L 361.5 250 L 361.5 249 Z " /><path fill="rgb(1,3,7)" stroke="rgb(1,3,7)" stroke-width="1" opacity="0.6313725490196078" d="M 446.5 249 L 447 251.5 L 446 251.5 L 446.5 249 Z " /><path fill="rgb(1,3,7)" stroke="rgb(1,3,7)" stroke-width="1" opacity="0.6313725490196078" d="M 157.5 250 L 160 250.5 L 157.5 251 L 157.5 250 Z " /><path fill="rgb(1,3,7)" stroke="rgb(1,3,7)" stroke-width="1" opacity="0.6313725490196078" d="M 326.5 250 L 329 250.5 L 326.5 251 L 326.5 250 Z " /><path fill="rgb(1,3,7)" stroke="rgb(1,3,7)" stroke-width="1" opacity="0.6313725490196078" d="M 377.5 250 L 380 250.5 L 377.5 251 L 377.5 250 Z " /><path fill="rgb(1,3,7)" stroke="rgb(1,3,7)" stroke-width="1" opacity="0.6313725490196078" d="M 216.5 253 L 217.5 255 L 216.5 253 Z " /><path fill="rgb(1,3,7)" stroke="rgb(1,3,7)" stroke-width="1" opacity="0.6313725490196078" d="M 301.5 254 L 301 255.5 L 300.5 257 L 300 255.5 L 301.5 254 Z " /><path fill="rgb(1,3,7)" stroke="rgb(1,3,7)" stroke-width="1" opacity="0.6313725490196078" d="M 417.5 257 L 418 269.5 L 417 269.5 L 417.5 257 Z " /><path fill="rgb(1,3,7)" stroke="rgb(1,3,7)" stroke-width="1" opacity="0.6313725490196078" d="M 262.5 258 L 263 264.5 L 262 264.5 L 262.5 258 Z " /><path fill="rgb(1,3,7)" stroke="rgb(1,3,7)" stroke-width="1" opacity="0.6313725490196078" d="M 203.5 259 L 204 262.5 L 203 262.5 L 203.5 259 Z " /><path fill="rgb(1,3,7)" stroke="rgb(1,3,7)" stroke-width="1" opacity="0.6313725490196078" d="M 184.5 260 L 185 262.5 L 184 262.5 L 184.5 260 Z " /><path fill="rgb(1,3,7)" stroke="rgb(1,3,7)" stroke-width="1" opacity="0.6313725490196078" d="M 238.5 262 L 235.5 266 L 238.5 262 Z " /><path fill="rgb(1,3,7)" stroke="rgb(1,3,7)" stroke-width="1" opacity="0.6313725490196078" d="M 300.5 266 L 301 270.5 L 300 270.5 L 300.5 266 Z " /><path fill="rgb(1,3,7)" stroke="rgb(1,3,7)" stroke-width="1" opacity="0.6313725490196078" d="M 265.5 268 L 268 268.5 L 265.5 269 L 265.5 268 Z " /><path fill="rgb(1,3,7)" stroke="rgb(1,3,7)" stroke-width="1" opacity="0.6313725490196078" d="M 247.5 269 L 249.5 272 L 247.5 269 Z " /><path fill="rgb(1,3,7)" stroke="rgb(1,3,7)" stroke-width="1" opacity="0.6313725490196078" d="M 228.5 271 L 226.5 274 L 228.5 271 Z " /><path fill="rgb(1,3,7)" stroke="rgb(1,3,7)" stroke-width="1" opacity="0.6313725490196078" d="M 95.5 275 L 104 275.5 L 95.5 276 L 95.5 275 Z " /><path fill="rgb(1,3,7)" stroke="rgb(1,3,7)" stroke-width="1" opacity="0.6313725490196078" d="M 129.5 275 L 132 275.5 L 129.5 276 L 129.5 275 Z " /><path fill="rgb(1,3,7)" stroke="rgb(1,3,7)" stroke-width="1" opacity="0.6313725490196078" d="M 155.5 275 L 161 275.5 L 155.5 276 L 155.5 275 Z " /><path fill="rgb(1,3,7)" stroke="rgb(1,3,7)" stroke-width="1" opacity="0.6313725490196078" d="M 320.5 275 L 325 275.5 L 320.5 276 L 320.5 275 Z " /><path fill="rgb(1,3,7)" stroke="rgb(1,3,7)" stroke-width="1" opacity="0.6313725490196078" d="M 348.5 275 L 353 275.5 L 348.5 276 L 348.5 275 Z " /><path fill="rgb(1,3,7)" stroke="rgb(1,3,7)" stroke-width="1" opacity="0.6313725490196078" d="M 377.5 275 L 380 275.5 L 377.5 276 L 377.5 275 Z " /><path fill="rgb(1,3,7)" stroke="rgb(1,3,7)" stroke-width="1" opacity="0.6313725490196078" d="M 255.5 276 L 257.5 279 L 255.5 276 Z " /><path fill="rgb(1,3,7)" stroke="rgb(1,3,7)" stroke-width="1" opacity="0.6313725490196078" d="M 375.5 276 L 376 290.5 L 375 290.5 L 375.5 276 Z " /><path fill="rgb(1,3,7)" stroke="rgb(1,3,7)" stroke-width="1" opacity="0.6313725490196078" d="M 164.5 277 L 165 279.5 L 164 279.5 L 164.5 277 Z " /><path fill="rgb(1,3,7)" stroke="rgb(1,3,7)" stroke-width="1" opacity="0.6313725490196078" d="M 386.5 277 L 387 300.5 L 386 300.5 L 386.5 277 Z " /><path fill="rgb(1,3,7)" stroke="rgb(1,3,7)" stroke-width="1" opacity="0.6313725490196078" d="M 220.5 278 L 219.5 280 L 220.5 278 Z " /><path fill="rgb(1,3,7)" stroke="rgb(1,3,7)" stroke-width="1" opacity="0.6313725490196078" d="M 123.5 279 L 124 282.5 L 123 282.5 L 123.5 279 Z " /><path fill="rgb(1,3,7)" stroke="rgb(1,3,7)" stroke-width="1" opacity="0.6313725490196078" d="M 246.5 282 L 248.5 285 L 246.5 282 Z " /><path fill="rgb(1,3,7)" stroke="rgb(1,3,7)" stroke-width="1" opacity="0.6313725490196078" d="M 228.5 285 L 227.5 287 L 228.5 285 Z " /><path fill="rgb(1,3,7)" stroke="rgb(1,3,7)" stroke-width="1" opacity="0.6313725490196078" d="M 222.5 290 L 221.5 292 L 222.5 290 Z " /><path fill="rgb(1,3,7)" stroke="rgb(1,3,7)" stroke-width="1" opacity="0.6313725490196078" d="M 93.5 294 L 94 303.5 L 93 303.5 L 93.5 294 Z " /><path fill="rgb(1,3,7)" stroke="rgb(1,3,7)" stroke-width="1" opacity="0.6313725490196078" d="M 123.5 298 L 124 302.5 L 123 302.5 L 123.5 298 Z " /><path fill="rgb(1,3,7)" stroke="rgb(1,3,7)" stroke-width="1" opacity="0.6313725490196078" d="M 67.5 299 L 68 301.5 L 67 301.5 L 67.5 299 Z " /><path fill="rgb(1,3,7)" stroke="rgb(1,3,7)" stroke-width="1" opacity="0.6313725490196078" d="M 152.5 301 L 154 303.5 L 152 302.5 L 152.5 301 Z " /><path fill="rgb(1,3,7)" stroke="rgb(1,3,7)" stroke-width="1" opacity="0.6313725490196078" d="M 40.5 307 L 57 307.5 L 40.5 308 L 40.5 307 Z " /><path fill="rgb(1,3,7)" stroke="rgb(1,3,7)" stroke-width="1" opacity="0.6313725490196078" d="M 63.5 307 L 66 307.5 L 63.5 308 L 63.5 307 Z " /><path fill="rgb(1,3,7)" stroke="rgb(1,3,7)" stroke-width="1" opacity="0.6313725490196078" d="M 422.5 307 L 431 307.5 L 422.5 308 L 422.5 307 Z " /><path fill="rgb(1,3,7)" stroke="rgb(1,3,7)" stroke-width="1" opacity="0.6313725490196078" d="M 433.5 307 L 444 307.5 L 433.5 308 L 433.5 307 Z " /><path fill="rgb(1,3,7)" stroke="rgb(1,3,7)" stroke-width="1" opacity="0.6313725490196078" d="M 38.5 311 L 39 316.5 L 38 316.5 L 38.5 311 Z " /><path fill="rgb(1,3,7)" stroke="rgb(1,3,7)" stroke-width="1" opacity="0.6313725490196078" d="M 44.5 318 L 62 318.5 L 44.5 319 L 44.5 318 Z " /><path fill="rgb(1,3,7)" stroke="rgb(1,3,7)" stroke-width="1" opacity="0.6313725490196078" d="M 66.5 318 Q 69 319 68 323.5 L 67 323.5 L 66.5 318 Z " /><path fill="rgb(1,3,7)" stroke="rgb(1,3,7)" stroke-width="1" opacity="0.6313725490196078" d="M 418.5 318 L 418 319.5 L 417.5 322 L 417 319.5 L 418.5 318 Z " /><path fill="rgb(1,3,7)" stroke="rgb(1,3,7)" stroke-width="1" opacity="0.6313725490196078" d="M 67.5 325 L 68 340.5 L 67 340.5 L 67.5 325 Z " /><path fill="rgb(1,3,7)" stroke="rgb(1,3,7)" stroke-width="1" opacity="0.6313725490196078" d="M 77.5 342 L 78 344.5 L 77 344.5 L 77.5 342 Z " /><path fill="rgb(1,3,7)" stroke="rgb(1,3,7)" stroke-width="1" opacity="0.6313725490196078" d="M 77.5 347 L 78 350.5 L 77 350.5 L 77.5 347 Z " /><path fill="rgb(1,3,7)" stroke="rgb(1,3,7)" stroke-width="1" opacity="0.6313725490196078" d="M 289.5 356 L 290 363.5 L 289 363.5 L 289.5 356 Z " /><path fill="rgb(1,3,7)" stroke="rgb(1,3,7)" stroke-width="1" opacity="0.6313725490196078" d="M 67.5 359 L 68 361.5 L 67 361.5 L 67.5 359 Z " /><path fill="rgb(1,3,7)" stroke="rgb(1,3,7)" stroke-width="1" opacity="0.6313725490196078" d="M 84.5 362 L 88 362.5 L 84.5 363 L 84.5 362 Z " /><path fill="rgb(1,3,7)" stroke="rgb(1,3,7)" stroke-width="1" opacity="0.6313725490196078" d="M 97.5 362 L 116 362.5 L 97.5 363 L 97.5 362 Z " /><path fill="rgb(1,3,7)" stroke="rgb(1,3,7)" stroke-width="1" opacity="0.6313725490196078" d="M 141.5 362 L 174 362.5 L 141.5 363 L 141.5 362 Z " /><path fill="rgb(1,3,7)" stroke="rgb(1,3,7)" stroke-width="1" opacity="0.6313725490196078" d="M 304.5 362 L 326 362.5 L 304.5 363 L 304.5 362 Z " /><path fill="rgb(1,3,7)" stroke="rgb(1,3,7)" stroke-width="1" opacity="0.6313725490196078" d="M 329.5 362 L 333 362.5 L 329.5 363 L 329.5 362 Z " /><path fill="rgb(1,3,7)" stroke="rgb(1,3,7)" stroke-width="1" opacity="0.6313725490196078" d="M 373.5 362 L 406 362.5 L 373.5 363 L 373.5 362 Z " /><path fill="rgb(1,3,7)" stroke="rgb(1,3,7)" stroke-width="1" opacity="0.6313725490196078" d="M 77.5 363 L 78 377.5 L 79 378.5 L 77 377.5 L 77.5 363 Z " /><path fill="rgb(1,3,7)" stroke="rgb(1,3,7)" stroke-width="1" opacity="0.6313725490196078" d="M 184.5 364 L 185 372.5 L 184 372.5 L 184.5 364 Z " /><path fill="rgb(1,3,7)" stroke="rgb(1,3,7)" stroke-width="1" opacity="0.6313725490196078" d="M 67.5 365 L 68 377.5 L 66 378.5 L 67 377.5 L 67.5 365 Z " /><path fill="rgb(1,3,7)" stroke="rgb(1,3,7)" stroke-width="1" opacity="0.6313725490196078" d="M 209.5 377 L 208.5 379 L 209.5 377 Z " /><path fill="rgb(1,3,7)" stroke="rgb(1,3,7)" stroke-width="1" opacity="0.6313725490196078" d="M 50.5 380 L 51 408.5 L 50 408.5 L 50.5 380 Z " /><path fill="rgb(1,3,7)" stroke="rgb(1,3,7)" stroke-width="1" opacity="0.6313725490196078" d="M 427.5 384 L 428 395.5 L 427 395.5 L 427.5 384 Z " /><path fill="rgb(1,3,7)" stroke="rgb(1,3,7)" stroke-width="1" opacity="0.6313725490196078" d="M 67.5 389 L 76 389.5 L 67.5 390 L 67.5 389 Z " /><path fill="rgb(1,3,7)" stroke="rgb(1,3,7)" stroke-width="1" opacity="0.6313725490196078" d="M 77.5 389 L 131 389.5 L 77.5 390 L 77.5 389 Z " /><path fill="rgb(1,3,7)" stroke="rgb(1,3,7)" stroke-width="1" opacity="0.6313725490196078" d="M 132.5 389 L 136 389.5 L 132.5 390 L 132.5 389 Z " /><path fill="rgb(1,3,7)" stroke="rgb(1,3,7)" stroke-width="1" opacity="0.6313725490196078" d="M 178.5 389 L 223 389.5 L 178.5 390 L 178.5 389 Z " /><path fill="rgb(1,3,7)" stroke="rgb(1,3,7)" stroke-width="1" opacity="0.6313725490196078" d="M 227.5 389 L 230 389.5 L 227.5 390 L 227.5 389 Z " /><path fill="rgb(1,3,7)" stroke="rgb(1,3,7)" stroke-width="1" opacity="0.6313725490196078" d="M 250.5 389 L 253 389.5 L 250.5 390 L 250.5 389 Z " /><path fill="rgb(1,3,7)" stroke="rgb(1,3,7)" stroke-width="1" opacity="0.6313725490196078" d="M 257.5 389 L 271 389.5 L 257.5 390 L 257.5 389 Z " /><path fill="rgb(1,3,7)" stroke="rgb(1,3,7)" stroke-width="1" opacity="0.6313725490196078" d="M 297.5 389 L 345 389.5 L 297.5 390 L 297.5 389 Z " /><path fill="rgb(1,3,7)" stroke="rgb(1,3,7)" stroke-width="1" opacity="0.6313725490196078" d="M 405.5 389 L 408 389.5 L 405.5 390 L 405.5 389 Z " /><path fill="rgb(1,3,7)" stroke="rgb(1,3,7)" stroke-width="1" opacity="0.6313725490196078" d="M 417.5 391 L 418 408.5 L 417 408.5 L 417.5 391 Z " /><path fill="rgb(1,3,7)" stroke="rgb(1,3,7)" stroke-width="1" opacity="0.6313725490196078" d="M 20.5 409 L 42 409.5 L 20.5 410 L 20.5 409 Z " /><path fill="rgb(1,3,7)" stroke="rgb(1,3,7)" stroke-width="1" opacity="0.6313725490196078" d="M 65.5 409 L 78 409.5 L 65.5 410 L 65.5 409 Z " /><path fill="rgb(1,3,7)" stroke="rgb(1,3,7)" stroke-width="1" opacity="0.6313725490196078" d="M 79.5 409 L 95 409.5 L 79.5 410 L 79.5 409 Z " /><path fill="rgb(1,3,7)" stroke="rgb(1,3,7)" stroke-width="1" opacity="0.6313725490196078" d="M 167.5 409 L 171 409.5 L 167.5 410 L 167.5 409 Z " /><path fill="rgb(1,3,7)" stroke="rgb(1,3,7)" stroke-width="1" opacity="0.6313725490196078" d="M 173.5 409 L 178 409.5 L 173.5 410 L 173.5 409 Z " /><path fill="rgb(1,3,7)" stroke="rgb(1,3,7)" stroke-width="1" opacity="0.6313725490196078" d="M 181.5 409 L 204 409.5 L 181.5 410 L 181.5 409 Z " /><path fill="rgb(1,3,7)" stroke="rgb(1,3,7)" stroke-width="1" opacity="0.6313725490196078" d="M 205.5 409 L 209 409.5 L 205.5 410 L 205.5 409 Z " /><path fill="rgb(1,3,7)" stroke="rgb(1,3,7)" stroke-width="1" opacity="0.6313725490196078" d="M 212.5 409 L 219 409.5 L 212.5 410 L 212.5 409 Z " /><path fill="rgb(1,3,7)" stroke="rgb(1,3,7)" stroke-width="1" opacity="0.6313725490196078" d="M 221.5 409 L 230 409.5 L 221.5 410 L 221.5 409 Z " /><path fill="rgb(1,3,7)" stroke="rgb(1,3,7)" stroke-width="1" opacity="0.6313725490196078" d="M 232.5 409 L 284 409.5 L 232.5 410 L 232.5 409 Z " /><path fill="rgb(1,3,7)" stroke="rgb(1,3,7)" stroke-width="1" opacity="0.6313725490196078" d="M 360.5 409 L 387 409.5 L 360.5 410 L 360.5 409 Z " /><path fill="rgb(1,3,7)" stroke="rgb(1,3,7)" stroke-width="1" opacity="0.6313725490196078" d="M 403.5 409 L 407 409.5 L 403.5 410 L 403.5 409 Z " /><path fill="rgb(1,3,7)" stroke="rgb(1,3,7)" stroke-width="1" opacity="0.6313725490196078" d="M 429.5 409 L 474 409.5 L 429.5 410 L 429.5 409 Z " /><path fill="rgb(1,3,7)" stroke="rgb(1,3,7)" stroke-width="1" opacity="0.6313725490196078" d="M 475.5 409 L 477 411.5 L 476 411.5 L 475.5 409 Z " /><path fill="rgb(2,4,9)" stroke="rgb(2,4,9)" stroke-width="1" opacity="0.7568627450980392" d="M 177.5 183 L 178 185.5 L 177 185.5 L 177.5 183 Z " /><path fill="rgb(2,4,9)" stroke="rgb(2,4,9)" stroke-width="1" opacity="0.7568627450980392" d="M 299.5 185 L 300 189.5 L 299 189.5 L 299.5 185 Z " /><path fill="rgb(2,4,9)" stroke="rgb(2,4,9)" stroke-width="1" opacity="0.7568627450980392" d="M 265.5 189 L 272 189.5 L 265.5 190 L 265.5 189 Z " /><path fill="rgb(2,4,9)" stroke="rgb(2,4,9)" stroke-width="1" opacity="0.7568627450980392" d="M 230.5 191 L 229.5 193 L 230.5 191 Z " /><path fill="rgb(2,4,9)" stroke="rgb(2,4,9)" stroke-width="1" opacity="0.7568627450980392" d="M 177.5 193 L 178 200.5 L 177 200.5 L 177.5 193 Z " /><path fill="rgb(2,4,9)" stroke="rgb(2,4,9)" stroke-width="1" opacity="0.7568627450980392" d="M 299.5 193 L 300 195.5 L 299 195.5 L 299.5 193 Z " /><path fill="rgb(2,4,9)" stroke="rgb(2,4,9)" stroke-width="1" opacity="0.7568627450980392" d="M 257.5 194 L 258 197.5 L 257 197.5 L 257.5 194 Z " /><path fill="rgb(2,4,9)" stroke="rgb(2,4,9)" stroke-width="1" opacity="0.7568627450980392" d="M 167.5 197 L 168 203.5 L 167 203.5 L 167.5 197 Z " /><path fill="rgb(2,4,9)" stroke="rgb(2,4,9)" stroke-width="1" opacity="0.7568627450980392" d="M 252.5 200 L 253 202.5 L 252 202.5 L 252.5 200 Z " /><path fill="rgb(2,4,9)" stroke="rgb(2,4,9)" stroke-width="1" opacity="0.7568627450980392" d="M 120.5 201 L 124 201.5 L 120.5 202 L 120.5 201 Z " /><path fill="rgb(2,4,9)" stroke="rgb(2,4,9)" stroke-width="1" opacity="0.7568627450980392" d="M 135.5 201 L 140 201.5 L 135.5 202 L 135.5 201 Z " /><path fill="rgb(2,4,9)" stroke="rgb(2,4,9)" stroke-width="1" opacity="0.7568627450980392" d="M 343.5 201 L 347 201.5 L 343.5 202 L 343.5 201 Z " /><path fill="rgb(2,4,9)" stroke="rgb(2,4,9)" stroke-width="1" opacity="0.7568627450980392" d="M 361.5 201 L 364 201.5 L 361.5 202 L 361.5 201 Z " /><path fill="rgb(2,4,9)" stroke="rgb(2,4,9)" stroke-width="1" opacity="0.7568627450980392" d="M 227.5 207 L 228 213.5 L 227 213.5 L 227.5 207 Z " /><path fill="rgb(2,4,9)" stroke="rgb(2,4,9)" stroke-width="1" opacity="0.7568627450980392" d="M 198.5 209 L 199 212.5 L 198 212.5 L 198.5 209 Z " /><path fill="rgb(2,4,9)" stroke="rgb(2,4,9)" stroke-width="1" opacity="0.7568627450980392" d="M 67.5 211 L 68 214.5 L 67 214.5 L 67.5 211 Z " /><path fill="rgb(2,4,9)" stroke="rgb(2,4,9)" stroke-width="1" opacity="0.7568627450980392" d="M 123.5 211 L 128 211.5 L 123.5 212 L 123.5 211 Z " /><path fill="rgb(2,4,9)" stroke="rgb(2,4,9)" stroke-width="1" opacity="0.7568627450980392" d="M 129.5 211 L 135 211.5 L 129.5 212 L 129.5 211 Z " /><path fill="rgb(2,4,9)" stroke="rgb(2,4,9)" stroke-width="1" opacity="0.7568627450980392" d="M 291.5 211 L 290.5 213 L 291.5 211 Z " /><path fill="rgb(2,4,9)" stroke="rgb(2,4,9)" stroke-width="1" opacity="0.7568627450980392" d="M 345.5 211 L 349 211.5 L 345.5 212 L 345.5 211 Z " /><path fill="rgb(2,4,9)" stroke="rgb(2,4,9)" stroke-width="1" opacity="0.7568627450980392" d="M 356.5 211 L 362 211.5 L 356.5 212 L 356.5 211 Z " /><path fill="rgb(2,4,9)" stroke="rgb(2,4,9)" stroke-width="1" opacity="0.7568627450980392" d="M 417.5 212 L 418 214.5 L 417 214.5 L 417.5 212 Z " /><path fill="rgb(2,4,9)" stroke="rgb(2,4,9)" stroke-width="1" opacity="0.7568627450980392" d="M 405.5 217 L 406.5 219 L 405.5 217 Z " /><path fill="rgb(2,4,9)" stroke="rgb(2,4,9)" stroke-width="1" opacity="0.7568627450980392" d="M 417.5 217 L 418 219.5 L 417 219.5 L 417.5 217 Z " /><path fill="rgb(2,4,9)" stroke="rgb(2,4,9)" stroke-width="1" opacity="0.7568627450980392" d="M 77.5 228 L 78 241.5 L 77 241.5 L 77.5 228 Z " /><path fill="rgb(2,4,9)" stroke="rgb(2,4,9)" stroke-width="1" opacity="0.7568627450980392" d="M 194.5 230 L 195.5 232 L 194.5 230 Z " /><path fill="rgb(2,4,9)" stroke="rgb(2,4,9)" stroke-width="1" opacity="0.7568627450980392" d="M 417.5 237 L 418 240.5 L 417 240.5 L 417.5 237 Z " /><path fill="rgb(2,4,9)" stroke="rgb(2,4,9)" stroke-width="1" opacity="0.7568627450980392" d="M 407.5 238 L 408 241.5 L 407 241.5 L 407.5 238 Z " /><path fill="rgb(2,4,9)" stroke="rgb(2,4,9)" stroke-width="1" opacity="0.7568627450980392" d="M 141.5 239 L 144 239.5 L 141.5 240 L 141.5 239 Z " /><path fill="rgb(2,4,9)" stroke="rgb(2,4,9)" stroke-width="1" opacity="0.7568627450980392" d="M 338.5 239 L 341 239.5 L 338.5 240 L 338.5 239 Z " /><path fill="rgb(2,4,9)" stroke="rgb(2,4,9)" stroke-width="1" opacity="0.7568627450980392" d="M 364.5 239 L 367 239.5 L 364.5 240 L 364.5 239 Z " /><path fill="rgb(2,4,9)" stroke="rgb(2,4,9)" stroke-width="1" opacity="0.7568627450980392" d="M 181.5 243 L 184 243.5 L 181.5 244 L 181.5 243 Z " /><path fill="rgb(2,4,9)" stroke="rgb(2,4,9)" stroke-width="1" opacity="0.7568627450980392" d="M 39.5 245 L 41 245.5 L 39 246 L 38.5 249 L 38 246.5 L 39.5 245 Z " /><path fill="rgb(2,4,9)" stroke="rgb(2,4,9)" stroke-width="1" opacity="0.7568627450980392" d="M 437.5 245 L 441 245.5 L 437.5 246 L 437.5 245 Z " /><path fill="rgb(2,4,9)" stroke="rgb(2,4,9)" stroke-width="1" opacity="0.7568627450980392" d="M 117.5 249 L 120 249.5 L 117.5 250 L 117.5 249 Z " /><path fill="rgb(2,4,9)" stroke="rgb(2,4,9)" stroke-width="1" opacity="0.7568627450980392" d="M 142.5 249 L 147 249.5 L 142.5 250 L 142.5 249 Z " /><path fill="rgb(2,4,9)" stroke="rgb(2,4,9)" stroke-width="1" opacity="0.7568627450980392" d="M 365.5 249 L 368 249.5 L 365.5 250 L 365.5 249 Z " /><path fill="rgb(2,4,9)" stroke="rgb(2,4,9)" stroke-width="1" opacity="0.7568627450980392" d="M 380.5 250 L 383 250.5 L 380.5 251 L 380.5 250 Z " /><path fill="rgb(2,4,9)" stroke="rgb(2,4,9)" stroke-width="1" opacity="0.7568627450980392" d="M 209.5 252 L 212 252.5 L 209.5 253 L 209.5 252 Z " /><path fill="rgb(2,4,9)" stroke="rgb(2,4,9)" stroke-width="1" opacity="0.7568627450980392" d="M 206.5 253 L 205.5 255 L 206.5 253 Z " /><path fill="rgb(2,4,9)" stroke="rgb(2,4,9)" stroke-width="1" opacity="0.7568627450980392" d="M 184.5 255 L 185 259.5 L 184 259.5 L 184.5 255 Z " /><path fill="rgb(2,4,9)" stroke="rgb(2,4,9)" stroke-width="1" opacity="0.7568627450980392" d="M 418.5 255 L 421 255.5 L 417.5 257 L 418.5 255 Z " /><path fill="rgb(2,4,9)" stroke="rgb(2,4,9)" stroke-width="1" opacity="0.7568627450980392" d="M 67.5 256 L 68 298.5 L 67 298.5 L 67.5 256 Z " /><path fill="rgb(2,4,9)" stroke="rgb(2,4,9)" stroke-width="1" opacity="0.7568627450980392" d="M 184.5 265 L 185 351.5 L 184 351.5 L 184.5 265 Z " /><path fill="rgb(2,4,9)" stroke="rgb(2,4,9)" stroke-width="1" opacity="0.7568627450980392" d="M 234.5 266 L 232.5 269 L 234.5 266 Z " /><path fill="rgb(2,4,9)" stroke="rgb(2,4,9)" stroke-width="1" opacity="0.7568627450980392" d="M 417.5 270 L 418 273.5 L 417 273.5 L 417.5 270 Z " /><path fill="rgb(2,4,9)" stroke="rgb(2,4,9)" stroke-width="1" opacity="0.7568627450980392" d="M 250.5 272 L 251.5 274 L 250.5 272 Z " /><path fill="rgb(2,4,9)" stroke="rgb(2,4,9)" stroke-width="1" opacity="0.7568627450980392" d="M 225.5 274 L 224.5 276 L 225.5 274 Z " /><path fill="rgb(2,4,9)" stroke="rgb(2,4,9)" stroke-width="1" opacity="0.7568627450980392" d="M 417.5 275 L 418 305.5 L 417 305.5 L 417.5 275 Z " /><path fill="rgb(2,4,9)" stroke="rgb(2,4,9)" stroke-width="1" opacity="0.7568627450980392" d="M 241.5 277 L 245.5 282 L 241.5 277 Z " /><path fill="rgb(2,4,9)" stroke="rgb(2,4,9)" stroke-width="1" opacity="0.7568627450980392" d="M 346.5 277 L 347 303.5 L 346 303.5 L 346.5 277 Z " /><path fill="rgb(2,4,9)" stroke="rgb(2,4,9)" stroke-width="1" opacity="0.7568627450980392" d="M 356.5 277 L 357 285.5 L 356 285.5 L 356.5 277 Z " /><path fill="rgb(2,4,9)" stroke="rgb(2,4,9)" stroke-width="1" opacity="0.7568627450980392" d="M 134.5 278 L 135 300.5 L 134 300.5 L 134.5 278 Z " /><path fill="rgb(2,4,9)" stroke="rgb(2,4,9)" stroke-width="1" opacity="0.7568627450980392" d="M 234.5 279 L 229.5 285 L 234.5 279 Z " /><path fill="rgb(2,4,9)" stroke="rgb(2,4,9)" stroke-width="1" opacity="0.7568627450980392" d="M 258.5 279 L 259.5 281 L 258.5 279 Z " /><path fill="rgb(2,4,9)" stroke="rgb(2,4,9)" stroke-width="1" opacity="0.7568627450980392" d="M 164.5 280 L 165 294.5 L 164 294.5 L 164.5 280 Z " /><path fill="rgb(2,4,9)" stroke="rgb(2,4,9)" stroke-width="1" opacity="0.7568627450980392" d="M 218.5 280 L 216.5 283 L 218.5 280 Z " /><path fill="rgb(2,4,9)" stroke="rgb(2,4,9)" stroke-width="1" opacity="0.7568627450980392" d="M 153.5 283 L 154 285.5 L 153 285.5 L 153.5 283 Z " /><path fill="rgb(2,4,9)" stroke="rgb(2,4,9)" stroke-width="1" opacity="0.7568627450980392" d="M 224.5 288 L 223.5 290 L 224.5 288 Z " /><path fill="rgb(2,4,9)" stroke="rgb(2,4,9)" stroke-width="1" opacity="0.7568627450980392" d="M 253.5 288 L 255.5 291 L 253.5 288 Z " /><path fill="rgb(2,4,9)" stroke="rgb(2,4,9)" stroke-width="1" opacity="0.7568627450980392" d="M 267.5 289 L 268 377.5 L 267 377.5 L 267.5 289 Z " /><path fill="rgb(2,4,9)" stroke="rgb(2,4,9)" stroke-width="1" opacity="0.7568627450980392" d="M 375.5 291 L 376 302.5 L 375 302.5 L 375.5 291 Z " /><path fill="rgb(2,4,9)" stroke="rgb(2,4,9)" stroke-width="1" opacity="0.7568627450980392" d="M 220.5 293 L 221 320.5 L 220 320.5 L 220.5 293 Z " /><path fill="rgb(2,4,9)" stroke="rgb(2,4,9)" stroke-width="1" opacity="0.7568627450980392" d="M 257.5 293 L 258 296.5 L 257 296.5 L 257.5 293 Z " /><path fill="rgb(2,4,9)" stroke="rgb(2,4,9)" stroke-width="1" opacity="0.7568627450980392" d="M 77.5 295 L 78 304.5 L 77 304.5 L 77.5 295 Z " /><path fill="rgb(2,4,9)" stroke="rgb(2,4,9)" stroke-width="1" opacity="0.7568627450980392" d="M 386.5 301 L 387 302.5 L 385 303.5 L 386.5 301 Z " /><path fill="rgb(2,4,9)" stroke="rgb(2,4,9)" stroke-width="1" opacity="0.7568627450980392" d="M 67.5 302 L 68 306.5 L 66 307.5 L 67.5 302 Z " /><path fill="rgb(2,4,9)" stroke="rgb(2,4,9)" stroke-width="1" opacity="0.7568627450980392" d="M 101.5 303 L 105 303.5 L 101.5 304 L 101.5 303 Z " /><path fill="rgb(2,4,9)" stroke="rgb(2,4,9)" stroke-width="1" opacity="0.7568627450980392" d="M 130.5 303 L 133 303.5 L 130.5 304 L 130.5 303 Z " /><path fill="rgb(2,4,9)" stroke="rgb(2,4,9)" stroke-width="1" opacity="0.7568627450980392" d="M 158.5 303 L 163 303.5 L 158.5 304 L 158.5 303 Z " /><path fill="rgb(2,4,9)" stroke="rgb(2,4,9)" stroke-width="1" opacity="0.7568627450980392" d="M 59.5 307 L 63 307.5 L 59.5 308 L 59.5 307 Z " /><path fill="rgb(2,4,9)" stroke="rgb(2,4,9)" stroke-width="1" opacity="0.7568627450980392" d="M 418.5 307 L 422 307.5 L 418.5 308 L 418.5 307 Z " /><path fill="rgb(2,4,9)" stroke="rgb(2,4,9)" stroke-width="1" opacity="0.7568627450980392" d="M 77.5 316 L 78 336.5 L 77 336.5 L 77.5 316 Z " /><path fill="rgb(2,4,9)" stroke="rgb(2,4,9)" stroke-width="1" opacity="0.7568627450980392" d="M 220.5 322 L 221 326.5 L 220 326.5 L 220.5 322 Z " /><path fill="rgb(2,4,9)" stroke="rgb(2,4,9)" stroke-width="1" opacity="0.7568627450980392" d="M 417.5 322 L 418 376.5 L 417 376.5 L 417.5 322 Z " /><path fill="rgb(2,4,9)" stroke="rgb(2,4,9)" stroke-width="1" opacity="0.7568627450980392" d="M 77.5 338 L 78 341.5 L 77 341.5 L 77.5 338 Z " /><path fill="rgb(2,4,9)" stroke="rgb(2,4,9)" stroke-width="1" opacity="0.7568627450980392" d="M 116.5 362 L 141 362.5 L 116.5 363 L 116.5 362 Z " /><path fill="rgb(2,4,9)" stroke="rgb(2,4,9)" stroke-width="1" opacity="0.7568627450980392" d="M 326.5 362 L 329 362.5 L 326.5 363 L 326.5 362 Z " /><path fill="rgb(2,4,9)" stroke="rgb(2,4,9)" stroke-width="1" opacity="0.7568627450980392" d="M 333.5 362 L 363 362.5 L 333.5 363 L 333.5 362 Z " /><path fill="rgb(2,4,9)" stroke="rgb(2,4,9)" stroke-width="1" opacity="0.7568627450980392" d="M 364.5 362 L 373 362.5 L 364.5 363 L 364.5 362 Z " /><path fill="rgb(2,4,9)" stroke="rgb(2,4,9)" stroke-width="1" opacity="0.7568627450980392" d="M 257.5 366 L 258 377.5 L 257 377.5 L 257.5 366 Z " /><path fill="rgb(2,4,9)" stroke="rgb(2,4,9)" stroke-width="1" opacity="0.7568627450980392" d="M 220.5 374 L 221 376.5 L 220 376.5 L 220.5 374 Z " /><path fill="rgb(2,4,9)" stroke="rgb(2,4,9)" stroke-width="1" opacity="0.7568627450980392" d="M 427.5 380 L 428 383.5 L 427 383.5 L 427.5 380 Z " /><path fill="rgb(2,4,9)" stroke="rgb(2,4,9)" stroke-width="1" opacity="0.7568627450980392" d="M 136.5 389 L 140 389.5 L 136.5 390 L 136.5 389 Z " /><path fill="rgb(2,4,9)" stroke="rgb(2,4,9)" stroke-width="1" opacity="0.7568627450980392" d="M 141.5 389 L 178 389.5 L 141.5 390 L 141.5 389 Z " /><path fill="rgb(2,4,9)" stroke="rgb(2,4,9)" stroke-width="1" opacity="0.7568627450980392" d="M 223.5 389 L 227 389.5 L 223.5 390 L 223.5 389 Z " /><path fill="rgb(2,4,9)" stroke="rgb(2,4,9)" stroke-width="1" opacity="0.7568627450980392" d="M 230.5 389 L 250 389.5 L 230.5 390 L 230.5 389 Z " /><path fill="rgb(2,4,9)" stroke="rgb(2,4,9)" stroke-width="1" opacity="0.7568627450980392" d="M 253.5 389 L 257 389.5 L 253.5 390 L 253.5 389 Z " /><path fill="rgb(2,4,9)" stroke="rgb(2,4,9)" stroke-width="1" opacity="0.7568627450980392" d="M 271.5 389 L 297 389.5 L 271.5 390 L 271.5 389 Z " /><path fill="rgb(2,4,9)" stroke="rgb(2,4,9)" stroke-width="1" opacity="0.7568627450980392" d="M 345.5 389 L 375 389.5 L 345.5 390 L 345.5 389 Z " /><path fill="rgb(2,4,9)" stroke="rgb(2,4,9)" stroke-width="1" opacity="0.7568627450980392" d="M 379.5 389 L 383 389.5 L 379.5 390 L 379.5 389 Z " /><path fill="rgb(2,4,9)" stroke="rgb(2,4,9)" stroke-width="1" opacity="0.7568627450980392" d="M 385.5 389 L 405 389.5 L 385.5 390 L 385.5 389 Z " /><path fill="rgb(2,4,9)" stroke="rgb(2,4,9)" stroke-width="1" opacity="0.7568627450980392" d="M 408.5 389 L 416 389.5 L 408.5 390 L 408.5 389 Z " /><path fill="rgb(2,4,9)" stroke="rgb(2,4,9)" stroke-width="1" opacity="0.7568627450980392" d="M 427.5 396 L 428 407.5 L 427 407.5 L 427.5 396 Z " /><path fill="rgb(2,4,9)" stroke="rgb(2,4,9)" stroke-width="1" opacity="0.7568627450980392" d="M 8.5 409 L 20 409.5 L 8.5 410 L 8.5 409 Z " /><path fill="rgb(2,4,9)" stroke="rgb(2,4,9)" stroke-width="1" opacity="0.7568627450980392" d="M 62.5 409 L 65 409.5 L 62.5 410 L 62.5 409 Z " /><path fill="rgb(2,4,9)" stroke="rgb(2,4,9)" stroke-width="1" opacity="0.7568627450980392" d="M 95.5 409 L 126 409.5 L 95.5 410 L 95.5 409 Z " /><path fill="rgb(2,4,9)" stroke="rgb(2,4,9)" stroke-width="1" opacity="0.7568627450980392" d="M 128.5 409 L 134 409.5 L 128.5 410 L 128.5 409 Z " /><path fill="rgb(2,4,9)" stroke="rgb(2,4,9)" stroke-width="1" opacity="0.7568627450980392" d="M 136.5 409 L 161 409.5 L 136.5 410 L 136.5 409 Z " /><path fill="rgb(2,4,9)" stroke="rgb(2,4,9)" stroke-width="1" opacity="0.7568627450980392" d="M 163.5 409 L 167 409.5 L 163.5 410 L 163.5 409 Z " /><path fill="rgb(2,4,9)" stroke="rgb(2,4,9)" stroke-width="1" opacity="0.7568627450980392" d="M 178.5 409 L 181 409.5 L 178.5 410 L 178.5 409 Z " /><path fill="rgb(2,4,9)" stroke="rgb(2,4,9)" stroke-width="1" opacity="0.7568627450980392" d="M 209.5 409 L 212 409.5 L 209.5 410 L 209.5 409 Z " /><path fill="rgb(2,4,9)" stroke="rgb(2,4,9)" stroke-width="1" opacity="0.7568627450980392" d="M 287.5 409 L 308 409.5 L 287.5 410 L 287.5 409 Z " /><path fill="rgb(2,4,9)" stroke="rgb(2,4,9)" stroke-width="1" opacity="0.7568627450980392" d="M 345.5 409 L 358 409.5 L 345.5 410 L 345.5 409 Z " /><path fill="rgb(2,4,9)" stroke="rgb(2,4,9)" stroke-width="1" opacity="0.7568627450980392" d="M 51.5 419 L 87 419.5 L 51.5 420 L 51.5 419 Z " /><path fill="rgb(2,4,9)" stroke="rgb(2,4,9)" stroke-width="1" opacity="0.7568627450980392" d="M 123.5 419 L 127 419.5 L 123.5 420 L 123.5 419 Z " /><path fill="rgb(2,4,9)" stroke="rgb(2,4,9)" stroke-width="1" opacity="0.7568627450980392" d="M 133.5 419 L 139 419.5 L 133.5 420 L 133.5 419 Z " /><path fill="rgb(2,4,9)" stroke="rgb(2,4,9)" stroke-width="1" opacity="0.7568627450980392" d="M 145.5 419 L 148 419.5 L 145.5 420 L 145.5 419 Z " /><path fill="rgb(2,4,9)" stroke="rgb(2,4,9)" stroke-width="1" opacity="0.7568627450980392" d="M 330.5 419 L 452 419.5 L 330.5 420 L 330.5 419 Z " /></svg>