<?xml version="1.0" encoding="UTF-8"?>
<svg version="1.1" xmlns="http://www.w3.org/2000/svg" width="1536" height="1024">
<path d="M0 0 C506.88 0 1013.76 0 1536 0 C1536 337.92 1536 675.84 1536 1024 C1029.12 1024 522.24 1024 0 1024 C0 686.08 0 348.16 0 0 Z " fill="#EDF6FD" transform="translate(0,0)"/>
<path d="M0 0 C2.46505964 1.72808305 4.52926725 3.22259699 5.89453125 5.953125 C6.22453125 3.973125 6.55453125 1.993125 6.89453125 -0.046875 C9.53453125 -0.046875 12.17453125 -0.046875 14.89453125 -0.046875 C14.99638402 6.3576084 15.06618583 12.76188107 15.11425781 19.16699219 C15.13430889 21.34350388 15.16155696 23.51996214 15.19628906 25.69628906 C15.24509337 28.83411893 15.26756563 31.97123335 15.28515625 35.109375 C15.30580139 36.07427856 15.32644653 37.03918213 15.34771729 38.0333252 C15.34974182 44.20059418 14.40972009 48.80604541 10.89453125 53.953125 C6.05353501 58.79412124 1.15285096 60.05494941 -5.54296875 60.265625 C-12.02987146 60.12479672 -15.89963452 58.77533588 -20.98046875 54.578125 C-23.16051478 51.88512696 -23.81348973 50.35954686 -24.10546875 46.953125 C-18.87128741 46.50955031 -18.87128741 46.50955031 -16.10546875 46.953125 C-15.34234375 47.778125 -14.57921875 48.603125 -13.79296875 49.453125 C-10.13317792 52.85758158 -7.55848174 52.4381475 -2.7265625 52.32421875 C-0.07211705 51.94840308 1.64075399 51.38457813 3.89453125 49.953125 C6.36279629 45.66613835 6.49395858 40.79162122 6.89453125 35.953125 C6.23453125 35.953125 5.57453125 35.953125 4.89453125 35.953125 C4.56453125 36.943125 4.23453125 37.933125 3.89453125 38.953125 C-1.64540534 43.10807745 -8.505512 42.82751417 -15.10546875 41.953125 C-19.60104072 40.08931781 -22.44710398 35.85239223 -24.4140625 31.5234375 C-26.63831927 23.25473153 -26.33599989 13.45890606 -22.10546875 5.953125 C-16.50567317 -0.18771364 -8.11709339 -4.03595738 0 0 Z " fill="#78A0D3" transform="translate(884.10546875,603.046875)"/>
<path d="M0 0 C2.97 0 5.94 0 9 0 C9.33 6.93 9.66 13.86 10 21 C11.65 19.68 13.3 18.36 15 17 C19.37097514 14.81451243 25.49370539 15.26996613 30.10546875 16.61328125 C35.91130132 19.52260574 39.00053137 25.00159412 41 31 C41.61153989 38.88986711 42.1597529 46.55404783 37 53 C32.37946379 57.68228057 29.04913529 60.15870701 22.375 60.4375 C15.93647278 60.42974274 12.50409092 58.45110162 8 54 C8 55.65 8 57.3 8 59 C5.36 59 2.72 59 0 59 C0 39.53 0 20.06 0 0 Z " fill="#779FD2" transform="translate(829,674)"/>
<path d="M0 0 C1.05960938 0.00676758 1.05960938 0.00676758 2.140625 0.01367188 C3.88545275 0.02546125 5.630237 0.04339676 7.375 0.0625 C7.375 0.7225 7.375 1.3825 7.375 2.0625 C8.4578125 2.4028125 8.4578125 2.4028125 9.5625 2.75 C14.2608419 4.94255956 17.15013772 8.01528484 19.1875 12.75 C21.48694385 19.74030931 21.11355247 27.0807448 18.5546875 33.953125 C15.4748041 39.46020127 10.29907303 43.13874942 4.375 45.0625 C-2.29261189 46.00932082 -7.46577688 45.47876275 -12.97265625 41.4921875 C-17.57611507 37.50905292 -20.42411622 33.49658533 -20.92578125 27.41796875 C-20.94032147 26.02871643 -20.94391419 24.6393136 -20.9375 23.25 C-20.95361328 22.56357422 -20.96972656 21.87714844 -20.98632812 21.16992188 C-20.99192536 15.25363924 -19.73302767 10.39176622 -15.65234375 5.8828125 C-14.96269531 5.32335937 -14.27304687 4.76390625 -13.5625 4.1875 C-12.87027344 3.61257813 -12.17804687 3.03765625 -11.46484375 2.4453125 C-7.74255677 -0.35232994 -4.4864034 -0.05380373 0 0 Z " fill="#77A2D6" transform="translate(672.625,601.9375)"/>
<path d="M0 0 C8 0 8 0 10.1796875 1.6953125 C10.73914063 2.49710938 11.29859375 3.29890625 11.875 4.125 C12.53757812 5.04410156 13.20015625 5.96320312 13.8828125 6.91015625 C14.58148437 7.92980469 15.28015625 8.94945312 16 10 C17.17085379 11.61736583 18.34177215 13.23468617 19.51464844 14.85058594 C21.70226525 17.88212133 23.84779682 20.94327981 26 24 C27.10129556 25.55878238 28.20286939 27.11736819 29.3046875 28.67578125 C32.2070003 32.78114205 35.10326535 36.89067875 38 41 C38.33 27.47 38.66 13.94 39 0 C41.64 0 44.28 0 47 0 C47 19.14 47 38.28 47 58 C39 58 39 58 37.18066406 56.70922852 C36.79620117 56.10522217 36.41173828 55.50121582 36.015625 54.87890625 C35.56131104 54.19876465 35.10699707 53.51862305 34.63891602 52.81787109 C34.18057373 52.07359863 33.72223145 51.32932617 33.25 50.5625 C32.22343603 49.00339254 31.19606812 47.44481417 30.16796875 45.88671875 C29.64895996 45.08024902 29.12995117 44.2737793 28.59521484 43.44287109 C26.02673013 39.50955948 23.29065533 35.69842194 20.5625 31.875 C19.15462413 29.88113449 17.74860017 27.88599034 16.34423828 25.88964844 C15.42182437 24.59297505 14.48719951 23.30492772 13.54248047 22.02441406 C10 17.20405251 10 17.20405251 10 15 C9.34 15 8.68 15 8 15 C8 29.19 8 43.38 8 58 C5.36 58 2.72 58 0 58 C0 38.86 0 19.72 0 0 Z " fill="#749FD2" transform="translate(594,588)"/>
<path d="M0 0 C3.3 0 6.6 0 10 0 C13.24902643 6.65013494 15.85959926 13.33779863 18.12597656 20.38354492 C19.39815346 24.29949535 20.81337892 28.09230266 22.4375 31.875 C24.58056637 36.87776322 26.48635107 41.93762328 28.3125 47.0625 C28.71263306 48.17117432 28.71263306 48.17117432 29.12084961 49.30224609 C30.18519096 52.32412154 31 54.77190103 31 58 C28.03 58 25.06 58 22 58 C21.1605118 55.89828133 20.32860344 53.79353375 19.5 51.6875 C19.0359375 50.51574219 18.571875 49.34398437 18.09375 48.13671875 C17 45 17 45 17 42 C9.41 42.33 1.82 42.66 -6 43 C-7.65 47.95 -9.3 52.9 -11 58 C-13.97 58 -16.94 58 -20 58 C-19.44613593 53.27133906 -18.50294131 49.14120023 -16.8203125 44.69140625 C-16.38589844 43.53189453 -15.95148437 42.37238281 -15.50390625 41.17773438 C-15.04886719 39.98470703 -14.59382812 38.79167969 -14.125 37.5625 C-13.67769531 36.37333984 -13.23039063 35.18417969 -12.76953125 33.95898438 C-11.51896038 30.63704021 -10.26013367 27.31832539 -9 24 C-7.99675183 21.33453742 -6.99845644 18.66726466 -6 16 C-5.46493435 14.57288269 -4.92977531 13.1458004 -4.39453125 11.71875 C-4.13349609 11.02265625 -3.87246094 10.3265625 -3.60351562 9.609375 C-2.40234375 6.40625 -1.20117188 3.203125 0 0 Z " fill="#779FD1" transform="translate(620,675)"/>
<path d="M0 0 C3.03615153 2.00075883 5.51988328 4.350938 8 7 C8.763125 6.21625 9.52625 5.4325 10.3125 4.625 C13.85851599 1.1614495 15.9042658 -0.2996047 20.8125 -0.375 C25.62935824 -0.26967511 28.34434515 0.70099441 32 4 C35.25291051 8.23096033 35.40078248 11.99348908 35.29296875 17.14453125 C35.28872391 17.91431808 35.28447906 18.68410492 35.28010559 19.47721863 C35.26338597 21.92267646 35.2257477 24.36729357 35.1875 26.8125 C35.17244441 28.47589951 35.15875754 30.13931201 35.14648438 31.80273438 C35.11350465 35.86881082 35.06177006 39.93426313 35 44 C32.36 44 29.72 44 27 44 C26.98541748 43.05157227 26.97083496 42.10314453 26.95581055 41.12597656 C26.89467436 37.5995206 26.8205087 34.07383557 26.73754883 30.54785156 C26.7043412 29.0232166 26.67629622 27.49845994 26.65356445 25.97363281 C26.61994042 23.77877046 26.56762458 21.58501912 26.51171875 19.390625 C26.48553467 18.07094727 26.45935059 16.75126953 26.43237305 15.39160156 C25.98454583 11.87877511 25.59518973 10.37599767 23 8 C17.33311352 7.23511666 17.33311352 7.23511666 12.5625 9.875 C9.80817897 13.62087661 9.82008616 16.11707044 9.68359375 20.7578125 C9.66281265 21.42086395 9.64203156 22.08391541 9.62062073 22.76705933 C9.55520769 24.88626694 9.49627895 27.005599 9.4375 29.125 C9.39430691 30.56121081 9.35069236 31.99740902 9.30664062 33.43359375 C9.19953501 36.95559594 9.09824425 40.47773825 9 44 C6.36 44 3.72 44 1 44 C0.97494385 43.04633545 0.9498877 42.0926709 0.92407227 41.11010742 C0.82987929 37.57090893 0.72968769 34.03190125 0.62768555 30.49291992 C0.58438167 28.96138982 0.54270333 27.42981285 0.50268555 25.89819336 C0.44487268 23.69630818 0.38121031 21.49465789 0.31640625 19.29296875 C0.29969376 18.60849167 0.28298126 17.92401459 0.26576233 17.21879578 C0.1726445 14.22879896 -0.04687437 11.85937689 -1 9 C-4.59264452 7.80245183 -7.22717474 7.66905042 -11 8 C-13.36497439 9.86708505 -14.66030715 11.32061431 -16 14 C-16.15495763 16.24974161 -16.25010928 18.50371536 -16.31640625 20.7578125 C-16.33718735 21.42086395 -16.35796844 22.08391541 -16.37937927 22.76705933 C-16.44479231 24.88626694 -16.50372105 27.005599 -16.5625 29.125 C-16.60569309 30.56121081 -16.64930764 31.99740902 -16.69335938 33.43359375 C-16.80046499 36.95559594 -16.90175575 40.47773825 -17 44 C-19.64 44 -22.28 44 -25 44 C-25 29.81 -25 15.62 -25 1 C-22.36 1 -19.72 1 -17 1 C-16.67 2.65 -16.34 4.3 -16 6 C-15.21625 5.195625 -14.4325 4.39125 -13.625 3.5625 C-9.47192354 -0.49169369 -5.6688682 -1.14994474 0 0 Z " fill="#76A1D4" transform="translate(770,602)"/>
<path d="M0 0 C6.12706221 3.74939628 8.81191685 8.05985375 11.01171875 14.74609375 C11.41796875 16.94140625 11.41796875 16.94140625 11.41796875 23.94140625 C1.18796875 23.94140625 -9.04203125 23.94140625 -19.58203125 23.94140625 C-17.7337514 31.34214168 -17.7337514 31.34214168 -12.58203125 35.94140625 C-9.11547788 36.64269912 -6.04366467 36.68769538 -2.58203125 35.94140625 C0.10564453 33.503906 0.10564453 33.503906 2.41796875 30.94140625 C6.23046875 30.62890625 6.23046875 30.62890625 9.41796875 30.94140625 C9.41796875 35.71327644 8.67289446 36.6008246 5.41796875 39.94140625 C-1.51862374 44.18100254 -8.76758803 43.76144041 -16.58203125 42.94140625 C-21.59998067 41.33889982 -23.90707724 37.84812813 -26.51953125 33.44140625 C-29.53574269 26.74981133 -29.84145993 19.66621943 -27.953125 12.58203125 C-25.60739488 7.15424317 -21.3489449 3.31837793 -16.58203125 -0.05859375 C-11.13465573 -1.87438559 -5.37896774 -2.2052954 0 0 Z " fill="#779FD2" transform="translate(936.58203125,603.05859375)"/>
<path d="M0 0 C4.45132376 4.93254795 5.14461935 7.93993542 5.09765625 14.4140625 C5.0962413 15.14370209 5.09482635 15.87334167 5.09336853 16.62509155 C5.08776531 18.95843585 5.07521235 21.29168464 5.0625 23.625 C5.05748541 25.20572778 5.05292243 26.78645707 5.04882812 28.3671875 C5.03779484 32.24482854 5.02052811 36.12239807 5 40 C2.36 40 -0.28 40 -3 40 C-3.33 38.68 -3.66 37.36 -4 36 C-4.763125 36.639375 -5.52625 37.27875 -6.3125 37.9375 C-10.74234373 41.33714751 -14.77502024 41.45062987 -20.1953125 41.421875 C-24.60744096 40.75821222 -27.3102941 38.476318 -30 35 C-31.36274321 30.91177036 -31.76417633 27.26483172 -31 23 C-28.10890982 18.25821195 -24.28850845 16.36619802 -19 15 C-16.33212358 14.86525877 -13.78353559 14.80802139 -11.125 14.875 C-10.09246094 14.88853516 -10.09246094 14.88853516 -9.0390625 14.90234375 C-7.35922162 14.92567487 -5.67956254 14.96153674 -4 15 C-4.103125 13.72125 -4.20625 12.4425 -4.3125 11.125 C-4.37050781 10.40570312 -4.42851563 9.68640625 -4.48828125 8.9453125 C-4.87393036 6.60480784 -4.87393036 6.60480784 -8 5 C-10.40850669 4.60873077 -10.40850669 4.60873077 -13 4.625 C-14.299375 4.58246094 -14.299375 4.58246094 -15.625 4.5390625 C-18.75258328 5.14606057 -19.17932255 6.49718194 -21 9 C-23.76142303 9.52799676 -26.16365545 9.18598981 -29 9 C-28.91714489 6.18292629 -28.42324261 4.46556687 -26.515625 2.3671875 C-19.2619524 -4.04952287 -8.35859032 -5.91217364 0 0 Z " fill="#779FD2" transform="translate(813,693)"/>
<path d="M0 0 C5.45256971 2.37433671 8.71751643 6.33195297 11.71484375 11.3828125 C12.71484375 14.3828125 12.71484375 14.3828125 12.71484375 23.3828125 C2.15484375 23.3828125 -8.40515625 23.3828125 -19.28515625 23.3828125 C-17.13011579 30.74907013 -17.13011579 30.74907013 -12.28515625 35.3828125 C-8.53437894 35.93934205 -5.03386203 35.96644334 -1.28515625 35.3828125 C1.38882851 33.44383371 1.38882851 33.44383371 3.71484375 31.3828125 C6.47271268 31.02897271 8.92001818 31.1933328 11.71484375 31.3828125 C10.31575177 35.83446881 8.24077296 38.34887341 4.71484375 41.3828125 C-1.72451009 44.59127104 -10.03285854 44.78287989 -16.8359375 42.54296875 C-23.00121052 39.09459571 -25.13656893 33.82857445 -27.28515625 27.3828125 C-27.95311547 19.87304238 -28.41930106 13.14913954 -23.71484375 6.9296875 C-17.02221558 -0.31151675 -9.63111002 -2.60122288 0 0 Z " fill="#759ED2" transform="translate(924.28515625,690.6171875)"/>
<path d="M0 0 C4.34256925 2.00924846 6.33329085 3.90232808 8.46875 8.28125 C8.72039884 11.00681438 8.82030913 13.49051454 8.76171875 16.20703125 C8.75747391 16.95462204 8.75322906 17.70221283 8.74885559 18.47245789 C8.73214056 20.84659732 8.69450347 23.21986967 8.65625 25.59375 C8.64119381 27.20897206 8.62750703 28.82420751 8.61523438 30.43945312 C8.5822608 34.38704988 8.53052969 38.33400322 8.46875 42.28125 C5.82875 42.28125 3.18875 42.28125 0.46875 42.28125 C0.13875 40.96125 -0.19125 39.64125 -0.53125 38.28125 C-1.294375 38.920625 -2.0575 39.56 -2.84375 40.21875 C-7.90828584 44.1054868 -13.37427781 43.92333424 -19.53125 43.28125 C-23.70760834 41.22970555 -25.79868926 39.54719955 -27.53125 35.28125 C-28.2354706 31.17781071 -28.53694137 27.09297342 -26.46875 23.3671875 C-22.89162495 19.42068541 -18.79672908 17.77488866 -13.53125 17.28125 C-8.85889911 17.1402739 -4.20380093 17.16312371 0.46875 17.28125 C0.27131646 12.4440574 0.27131646 12.4440574 -2.265625 8.578125 C-6.15788264 6.35014304 -10.17988158 6.5864937 -14.53125 7.28125 C-16.71902466 9.2187506 -16.71902466 9.2187506 -18.53125 11.28125 C-22.28125 11.53125 -22.28125 11.53125 -25.53125 11.28125 C-25.4471297 8.42115965 -24.96306261 6.73476173 -22.9765625 4.6484375 C-16.07216373 -1.28189671 -9.04042313 -2.56703373 0 0 Z " fill="#78A0D3" transform="translate(724.53125,690.71875)"/>
<path d="M0 0 C4.10524693 2.3758382 5.99602824 4.73808472 7.5 9.25 C7.5846817 11.76368055 7.61601885 14.24869374 7.59765625 16.76171875 C7.5962413 17.48994339 7.59482635 18.21816803 7.59336853 18.96846008 C7.58777659 21.29151539 7.57522562 23.61447388 7.5625 25.9375 C7.55748396 27.51367048 7.55292123 29.08984248 7.54882812 30.66601562 C7.5378098 34.52738098 7.52055074 38.38867408 7.5 42.25 C4.86 42.25 2.22 42.25 -0.5 42.25 C-0.5 40.6 -0.5 38.95 -0.5 37.25 C-1.31404297 37.77400391 -1.31404297 37.77400391 -2.14453125 38.30859375 C-2.85996094 38.76363281 -3.57539062 39.21867188 -4.3125 39.6875 C-5.37404297 40.36619141 -5.37404297 40.36619141 -6.45703125 41.05859375 C-10.59542942 43.47199995 -14.81130035 44.02286258 -19.5 43.25 C-23.78890223 41.16395806 -26.72395077 38.7359835 -28.5 34.25 C-29.14698574 30.50429308 -29.2969399 26.8678222 -27.58984375 23.40234375 C-24.71417366 19.639007 -21.95540732 18.4211059 -17.5 17.25 C-14.71196461 16.9003805 -11.93123318 16.74678951 -9.125 16.625 C-8.38894531 16.58632813 -7.65289063 16.54765625 -6.89453125 16.5078125 C-5.09672594 16.41442002 -3.29839892 16.3311629 -1.5 16.25 C-1.26571687 11.4602679 -1.26571687 11.4602679 -3.5 7.25 C-7.52789404 5.90736865 -11.28747701 5.6570123 -15.5 6.25 C-16.87310707 7.54233607 -18.21034824 8.87437146 -19.5 10.25 C-23.25 10.5 -23.25 10.5 -26.5 10.25 C-26.41651691 7.41157499 -25.9276272 5.70950686 -23.98046875 3.6171875 C-17.06490638 -2.41027107 -8.59220203 -4.06495643 0 0 Z " fill="#78A0D2" transform="translate(842.5,603.75)"/>
<path d="M0 0 C0.7306332 0.00468233 1.46126641 0.00936466 2.21404001 0.01418889 C2.99079321 0.011282 3.76754642 0.00837512 4.5678376 0.00538015 C7.19830936 -0.00198024 9.82855225 0.00505147 12.45902273 0.01190388 C14.35301803 0.00960179 16.24701243 0.00642697 18.14100495 0.00244939 C23.36753784 -0.00594271 28.59399822 -0.00175333 33.82053146 0.00442183 C39.44929618 0.00892771 45.07804801 0.00197164 50.70681021 -0.00353801 C61.7453441 -0.01245558 72.78385088 -0.01049896 83.82238586 -0.00471273 C92.79629564 -0.000203 101.77019781 0.00041964 110.74410841 -0.00176036 C112.65723414 -0.00222006 112.65723414 -0.00222006 114.60900887 -0.00268905 C117.1998283 -0.00332849 119.79064773 -0.00397691 122.38146716 -0.00463423 C146.01540209 -0.01018213 169.64931885 -0.00441807 193.28325073 0.00605096 C214.84662534 0.01553027 236.40997633 0.01470416 257.97335073 0.00512898 C282.1951209 -0.00559067 306.41687425 -0.00978326 330.63864747 -0.00364649 C333.22350407 -0.00300939 335.80836068 -0.00238065 338.3932173 -0.00176036 C340.3009707 -0.00129754 340.3009707 -0.00129754 342.24726457 -0.00082536 C351.20350258 0.00090038 360.1597322 -0.00201117 369.11596891 -0.00671947 C380.04146721 -0.01233651 390.96693678 -0.01079501 401.8924318 -0.00015798 C407.4655806 0.00508944 413.03868155 0.00717146 418.61182997 0.00054371 C423.71901428 -0.0054378 428.82610663 -0.00210431 433.93328267 0.00849882 C435.77597135 0.01072367 437.61866787 0.00961723 439.46135146 0.00474724 C464.06449557 -0.05526097 484.79513316 5.33075782 505.80464956 18.26587117 C505.14464956 18.59587117 504.48464956 18.92587117 503.80464956 19.26587117 C501.48125674 18.16095516 499.24873739 16.99517165 496.99214956 15.76587117 C490.57276088 12.43376539 484.08003757 9.68518287 477.24214956 7.32837117 C476.42963735 7.03446492 475.61712515 6.74055867 474.77999136 6.43774617 C462.90434118 2.48972106 449.71363105 3.11687767 437.33295462 3.15234578 C435.94308226 3.1526267 434.55320976 3.15246104 433.1633375 3.15189469 C429.38999947 3.15160251 425.61669376 3.15748509 421.84336314 3.16446459 C417.7550821 3.17089418 413.66679962 3.17141217 409.57851431 3.17263997 C402.50375061 3.17551554 395.42899746 3.18193737 388.35423872 3.19070637 C378.09291182 3.20332891 367.83158877 3.20935343 357.57025538 3.21363974 C340.87502759 3.22069607 324.17980466 3.23148526 307.4845812 3.24536335 C305.98838134 3.24660507 305.98838134 3.24660507 304.46195523 3.24787188 C296.37879696 3.25460895 288.29563885 3.26152848 280.21248075 3.2684747 C273.16841535 3.27452389 266.12434989 3.28050623 259.08028433 3.28637898 C258.08859577 3.28720711 257.09690722 3.28803523 256.0751675 3.28888845 C239.45658682 3.3026417 222.83800606 3.31236556 206.21942118 3.31928933 C196.00376912 3.32373629 185.78813189 3.3317042 175.57248674 3.34443414 C168.55013621 3.35295151 161.52778905 3.35777139 154.5054337 3.35985935 C150.47334883 3.36118545 146.44128311 3.36406669 142.40920469 3.37161839 C124.68620468 3.40368083 107.01232438 3.18213746 89.30115435 2.4922744 C79.59777715 2.12458154 69.89623117 2.13999443 60.18746206 2.16821492 C58.21251737 2.17009096 56.23757219 2.1715092 54.26262686 2.17250264 C49.18311437 2.17623479 44.10363269 2.18597952 39.02413198 2.19720662 C33.79342333 2.20762677 28.56270946 2.21204333 23.33199331 2.21704304 C13.15619888 2.22761514 2.98042682 2.24457202 -7.19535044 2.26587117 C-4.73318206 -0.19629721 -3.35999129 0.02541448 0 0 Z " fill="#AEDFFB" transform="translate(580.1953504383564,165.73412883281708)"/>
<path d="M0 0 C2.97 0 5.94 0 9 0 C9.25523437 0.90878906 9.25523437 0.90878906 9.515625 1.8359375 C11.07067542 7.21244161 12.89572954 12.36553176 15.015625 17.54296875 C19 27.48809524 19 27.48809524 19 33 C19.66 33 20.32 33 21 33 C21.10570312 32.02933594 21.21140625 31.05867187 21.3203125 30.05859375 C21.96805372 25.53917828 23.38626685 21.3653019 24.875 17.0625 C25.25978516 15.92264648 25.25978516 15.92264648 25.65234375 14.75976562 C27.33757081 9.80147193 29.13992996 4.89521426 31 0 C33.97 0 36.94 0 40 0 C39.566875 1.27875 39.13375 2.5575 38.6875 3.875 C37.56200175 7.23045739 36.53329665 10.59687767 35.5625 14 C34.38180138 17.98868134 32.86804738 21.65158412 31.1171875 25.41796875 C28.77812597 30.82398158 26.93053698 36.43783812 25 42 C22.03 42 19.06 42 16 42 C13.08871601 35.59907427 10.46598258 29.14648084 8 22.5625 C7.33419147 20.79264569 6.66752686 19.02311318 6 17.25390625 C5.67515625 16.39168457 5.3503125 15.52946289 5.015625 14.64111328 C3.64427185 11.07493578 2.19574972 7.54160793 0.734375 4.01147461 C0 2 0 2 0 0 Z " fill="#759ED2" transform="translate(652,691)"/>
<path d="M0 0 C4.15988424 2.33993489 5.55075494 4.55144778 7 9 C7.6331296 14.88221572 7.83267993 20.21128014 5.3125 25.625 C1.8289963 29.20265245 -0.44430194 30.77371665 -5.4375 31.5 C-10.02334763 30.85637226 -11.8284175 29.31909796 -15 26 C-17.72318603 20.50715719 -17.65921422 15.00440901 -17 9 C-13.99751581 0.42147373 -8.36230306 -1.08202324 0 0 Z " fill="#E0F4FC" transform="translate(677,609)"/>
<path d="M0 0 C3.32191059 1.32876424 4.68420434 2.57530929 6.8125 5.4375 C8.9241642 11.7724926 8.96316351 18.25498399 6.75 24.5625 C4.47283531 27.73426511 2.50456383 29.65737655 -1.3671875 30.5390625 C-7.98109865 30.76570743 -7.98109865 30.76570743 -10.94921875 28.53515625 C-15.50446391 23.31813213 -16.45303576 18.71197561 -16.42578125 11.87109375 C-15.74052394 7.250322 -13.30043041 4.19782636 -10 1 C-6.801457 -0.5992715 -3.47898371 -0.36127908 0 0 Z " fill="#EFF5FB" transform="translate(853,697)"/>
<path d="M0 0 C3.92090026 0.72262326 5.58854842 2.52376233 8.2890625 5.421875 C10.84846758 9.69047183 10.82233883 13.56495831 10.2890625 18.421875 C9.09488446 22.88478855 7.14570889 26.78311694 3.2890625 29.421875 C-0.42973742 30.57867727 -3.94526813 31.26924698 -7.55859375 29.53515625 C-11.68599977 26.32044443 -13.40878454 22.83558531 -14.046875 17.73828125 C-14.13191331 11.74308023 -13.82647685 8.12534854 -9.7109375 3.421875 C-9.25976562 2.885625 -8.80859375 2.349375 -8.34375 1.796875 C-5.7108675 -0.42028921 -3.32215976 -0.10821367 0 0 Z " fill="#F3F7FB" transform="translate(880.7109375,608.578125)"/>
<path d="M0 0 C2.97 0 5.94 0 9 0 C9.02312821 7.67536627 9.04091753 15.35072896 9.05181217 23.02612209 C9.05703995 26.58977422 9.06413569 30.15340257 9.07543945 33.71704102 C9.08834176 37.81006097 9.09322906 41.9030558 9.09765625 45.99609375 C9.10281754 47.28148544 9.10797882 48.56687714 9.11329651 49.89122009 C9.11337204 51.07236893 9.11344757 52.25351776 9.11352539 53.47045898 C9.115746 54.51636703 9.11796661 55.56227509 9.12025452 56.63987732 C9 59 9 59 8 60 C5.36 60 2.72 60 0 60 C0 40.2 0 20.4 0 0 Z " fill="#7CA2D4" transform="translate(764,674)"/>
<path d="M0 0 C2.97 0 5.94 0 9 0 C9 19.47 9 38.94 9 59 C6.03 59 3.06 59 0 59 C0 39.53 0 20.06 0 0 Z " fill="#769DD0" transform="translate(879,674)"/>
<path d="M0 0 C2.97 0 5.94 0 9 0 C9 19.47 9 38.94 9 59 C6.03 59 3.06 59 0 59 C0 39.53 0 20.06 0 0 Z " fill="#76A2D6" transform="translate(724,587)"/>
<path d="M0 0 C0.66 0 1.32 0 2 0 C2.94230857 2.14382823 3.87885663 4.28989953 4.8125 6.4375 C5.33457031 7.63246094 5.85664062 8.82742187 6.39453125 10.05859375 C9.41926617 17.30699879 11.53180706 24.47464324 12.66621399 32.25018311 C12.79267691 33.11339762 12.91913983 33.97661214 13.04943496 34.86598468 C14.36163421 44.57605068 14.39950556 54.21584691 14.34057617 63.99707031 C14.3397272 66.00984687 14.34021029 68.02262436 14.34190369 70.03540039 C14.34275455 75.43082234 14.32527837 80.82603886 14.30418181 86.22141361 C14.28526114 91.88545211 14.28365257 97.54949678 14.28010559 103.21356201 C14.27082989 113.90856285 14.24627753 124.60347026 14.21605712 135.2984302 C14.18237272 147.48728251 14.16599201 159.67613959 14.15097082 171.86502695 C14.11972334 196.9100695 14.06705114 221.95502949 14 247 C13.67 247 13.34 247 13 247 C11.76240424 236.54627491 11.88302936 226.10765555 11.92483521 215.59816933 C11.93783444 212.27785727 11.9441777 208.95758631 11.94897461 205.63725281 C11.96221757 197.35903835 11.98590346 189.08086115 12.01037598 180.80267334 C12.03393072 172.71871457 12.05226329 164.63476843 12.0625 156.55078125 C12.06404146 155.40768934 12.06558292 154.26459743 12.0671711 153.08686638 C12.08378039 134.13486423 11.81905699 115.19720959 11.35021973 96.25117493 C11.03153498 83.25371581 10.9376877 70.27593874 11.11663818 57.27571106 C11.30880492 42.20713041 8.66638896 28.1826779 2.91796875 14.28515625 C1.01916234 9.55834029 -0.3127047 5.15962758 0 0 Z " fill="#C4E8FB" transform="translate(1121,216)"/>
<path d="M0 0 C3.04669301 2.28501976 4.56053917 3.92881422 6 7.4375 C6 11.77761714 4.16191071 14.75509567 1.25 17.875 C-2.05318727 19.52659363 -4.35072662 19.44042955 -8 19 C-11.70390021 16.97333762 -13.65363011 15.51955484 -16 12 C-16.33057352 8.11576115 -16.32394075 5.20925151 -14 2 C-9.68219376 -1.79443579 -5.27713578 -1.56784469 0 0 Z " fill="#A7D9FB" transform="translate(955,426)"/>
<path d="M0 0 C2.64 0 5.28 0 8 0 C8 13.86 8 27.72 8 42 C5.36 42 2.72 42 0 42 C0 28.14 0 14.28 0 0 Z " fill="#719CD0" transform="translate(744,691)"/>
<path d="M0 0 C0.66 0 1.32 0 2 0 C3.15533757 2.85063708 4.29939512 5.70498814 5.4375 8.5625 C5.76298828 9.36236328 6.08847656 10.16222656 6.42382812 10.98632812 C6.73642578 11.77587891 7.04902344 12.56542969 7.37109375 13.37890625 C7.8031311 14.45507202 7.8031311 14.45507202 8.24389648 15.55297852 C9 18 9 18 10 25 C4.39 25 -1.22 25 -7 25 C-6.25481779 19.03854231 -5.67121836 15.52656554 -3.5 10.25 C-1.44130339 5.22306529 -1.44130339 5.22306529 0 0 Z " fill="#EDF4FA" transform="translate(624,685)"/>
<path d="M0 0 C0.66 0 1.32 0 2 0 C10.65311542 19.68653767 13.31010039 36.1766219 13.1953125 57.61328125 C13.19157496 59.67978274 13.1887315 61.74628601 13.18673706 63.81278992 C13.17915891 69.20987986 13.15956143 74.60685943 13.1373291 80.00390625 C13.11674427 85.52797961 13.10770851 91.05207108 13.09765625 96.57617188 C13.0763092 107.38416265 13.04224485 118.19207209 13 129 C12.67 129 12.34 129 12 129 C11.82725483 121.52096124 11.66168981 114.04178565 11.5 106.5625 C11.46348831 104.89506241 11.46348831 104.89506241 11.42623901 103.19393921 C11.18649929 92.09281677 10.94710728 80.99482394 11.00390625 69.890625 C11.00920853 68.7677433 11.00920853 68.7677433 11.01461792 67.62217712 C11.03429315 64.24108006 11.06985641 60.86148858 11.125 57.48071289 C11.27228941 42.32524673 8.70290959 28.27097108 2.91796875 14.28515625 C1.01916234 9.55834029 -0.3127047 5.15962758 0 0 Z " fill="#ADDAFC" transform="translate(1121,216)"/>
<path d="M0 0 C0.98484375 0.00902344 1.9696875 0.01804687 2.984375 0.02734375 C4.10585938 0.04474609 4.10585938 0.04474609 5.25 0.0625 C5.73867825 7.27050421 5.73867825 7.27050421 3.4375 11 C0.02459728 14.2178797 -3.2006573 14.41163857 -7.80859375 14.34375 C-9.75 14.0625 -9.75 14.0625 -12.25 12.375 C-14.06567651 9.57583204 -14.40420677 8.33353386 -13.75 5.0625 C-9.8446304 0.04131051 -6.06089815 -0.07215355 0 0 Z " fill="#EEF5FA" transform="translate(835.75,625.9375)"/>
<path d="M0 0 C0.61364554 7.24101736 0.61364554 7.24101736 -2.375 10.9375 C-6.45267175 14.14138495 -8.78779014 14.4417127 -14 14 C-17.19331319 12.16554348 -18.67895102 11.13826457 -19.6875 7.5625 C-18.88234961 4.5614849 -17.66163789 2.84542767 -15.19921875 0.9375 C-10.45467395 -1.0850413 -5.04793498 -0.3370283 0 0 Z " fill="#ECF3FA" transform="translate(809,714)"/>
<path d="M0 0 C0.60077519 7.08914729 0.60077519 7.08914729 -1.9375 10.9375 C-5.92208902 13.62099873 -9.2141808 14.42329448 -14 14 C-17.125 12.5 -17.125 12.5 -19 10 C-19.1875 6.4375 -19.1875 6.4375 -18 3 C-12.9056239 -1.26826105 -6.2828336 -0.27449273 0 0 Z " fill="#EFF5FA" transform="translate(724,714)"/>
<path d="M0 0 C3.38215474 1.36725404 4.58753663 2.23399659 6.3125 5.4375 C7 8 7 8 7 12 C-0.26 12 -7.52 12 -15 12 C-14 5 -14 5 -12 2.0625 C-7.92228909 -0.74092625 -4.80801186 -0.79406367 0 0 Z " fill="#EEF4FA" transform="translate(932,609)"/>
<path d="M0 0 C2.74264862 1.73895594 3.37717847 3.03415375 5 6 C5 7.65 5 9.3 5 11 C-2.26 11 -9.52 11 -17 11 C-17 5.55123065 -16.55088954 4.7597654 -13 1 C-9.01778654 -0.99110673 -4.31867919 -0.65962535 0 0 Z " fill="#EDF4FB" transform="translate(923,697)"/>
<path d="M0 0 C3 0.4375 3 0.4375 4.9375 2.125 C6.2972698 5.08449899 6.09161147 6.39658233 5 9.4375 C3.4375 11.25 3.4375 11.25 2 12.4375 C-0.875 11.875 -0.875 11.875 -4 10.4375 C-5.375 6.8125 -5.375 6.8125 -6 3.4375 C-4.10442866 0.91007155 -3.19410622 0.46580716 0 0 Z " fill="#CDEBFD" transform="translate(683,247.5625)"/>
<path d="M0 0 C-3.91225942 1.30408647 -6.31713521 0.36046913 -10.234375 -0.625 C-13.69218691 -1.09385585 -16.5632774 -0.58380224 -20 0 C-21.91039062 0.23009766 -21.91039062 0.23009766 -23.859375 0.46484375 C-25.14328125 0.62082031 -26.4271875 0.77679687 -27.75 0.9375 C-29.69132812 1.16759766 -29.69132812 1.16759766 -31.671875 1.40234375 C-35.12255355 1.7936066 -35.12255355 1.7936066 -38 4 C-40.1875 3.625 -40.1875 3.625 -42 3 C-37.39589255 -1.8464289 -37.39589255 -1.8464289 -33.62109375 -2.26171875 C-31.8936634 -2.21161008 -30.16679861 -2.13677474 -28.44140625 -2.0390625 C-25.77986377 -1.87203494 -25.77986377 -1.87203494 -22.5 -3.0625 C-14.74279531 -5.14032269 -7.30688044 -2.80626568 0 0 Z " fill="#D7EDFD" transform="translate(1054,533)"/>
<path d="M0 0 C2.475 0.99 2.475 0.99 5 2 C5 2.66 5 3.32 5 4 C5.53625 4.20625 6.0725 4.4125 6.625 4.625 C9.91978009 6.53250426 12.59363628 9.04819384 15 12 C15 12.66 15 13.32 15 14 C15.556875 14.185625 16.11375 14.37125 16.6875 14.5625 C20.03134807 16.64110826 22.04807828 19.60813602 24 23 C24 23.66 24 24.32 24 25 C24.66 25 25.32 25 26 25 C27.6875 26.8125 27.6875 26.8125 29 29 C28.67 29.99 28.34 30.98 28 32 C27.34 30.68 26.68 29.36 26 28 C25.34 28 24.68 28 24 28 C23.7525 27.05125 23.505 26.1025 23.25 25.125 C22.38003317 21.93110273 22.38003317 21.93110273 20.1796875 21.12109375 C17.24104581 19.60964184 15.85940616 17.55948152 13.875 14.9375 C11.39068378 11.4287459 11.39068378 11.4287459 8 9 C8 8.34 8 7.68 8 7 C7.4225 6.731875 6.845 6.46375 6.25 6.1875 C3.94449957 4.97070811 1.97943808 3.69666121 0 2 C0 1.34 0 0.68 0 0 Z " fill="#A7D5FC" transform="translate(1092,189)"/>
<path d="M0 0 C1.134375 0.020625 2.26875 0.04125 3.4375 0.0625 C3.4375 1.7125 3.4375 3.3625 3.4375 5.0625 C4.0975 5.3925 4.7575 5.7225 5.4375 6.0625 C3.8125 7.625 3.8125 7.625 1.4375 9.0625 C-1.8125 8.75 -1.8125 8.75 -4.5625 8.0625 C-4.5625 7.0725 -4.5625 6.0825 -4.5625 5.0625 C-5.2225 5.0625 -5.8825 5.0625 -6.5625 5.0625 C-4.14811644 0.07277397 -4.14811644 0.07277397 0 0 Z " fill="#A3D2FC" transform="translate(1028.5625,349.9375)"/>
<path d="M0 0 C2.5 0.25 2.5 0.25 4.5 2.25 C4.75 4.75 4.75 4.75 4.5 7.25 C2.5 9.25 2.5 9.25 0 9.5 C-2.5 9.25 -2.5 9.25 -4.5 7.25 C-4.75 4.75 -4.75 4.75 -4.5 2.25 C-2.5 0.25 -2.5 0.25 0 0 Z " fill="#7FA8DA" transform="translate(748.5,673.75)"/>
<path d="M0 0 C2.475 0.99 2.475 0.99 5 2 C5.36253776 7.43806647 5.36253776 7.43806647 3.75 9.9375 C2 11 2 11 -0.0625 11.0625 C-2 10 -2 10 -3.25 6.9375 C-3.4975 5.968125 -3.745 4.99875 -4 4 C-2.68 2.68 -1.36 1.36 0 0 Z " fill="#9CCDFB" transform="translate(962,334)"/>
<path d="M0 0 C1.65 0.33 3.3 0.66 5 1 C5.66 2.98 6.32 4.96 7 7 C6.01 7.99 5.02 8.98 4 10 C-0.875 8.125 -0.875 8.125 -2 7 C-2.04063832 5.33382885 -2.042721 3.66611905 -2 2 C-1.34 2 -0.68 2 0 2 C0 1.34 0 0.68 0 0 Z " fill="#AFD9FB" transform="translate(986,396)"/>
<path d="M0 0 C0.66 0.33 1.32 0.66 2 1 C2 1.33 2 1.66 2 2 C2.515625 1.835 3.03125 1.67 3.5625 1.5 C6.73363876 0.84951 9.77218334 0.9379266 13 1 C13 1.33 13 1.66 13 2 C11.78376953 2.22042969 11.78376953 2.22042969 10.54296875 2.4453125 C3.28617061 3.91525764 -2.46535712 5.96951037 -8.7578125 9.890625 C-11 11 -11 11 -14 10 C-11.46357916 7.21423609 -8.59630744 5.28576938 -5.4375 3.25 C-4.46683594 2.61578125 -3.49617187 1.9815625 -2.49609375 1.328125 C-1.67238281 0.88984375 -0.84867188 0.4515625 0 0 Z " fill="#BDDDFC" transform="translate(863,391)"/>
<path d="M0 0 C1 1 1 1 1.0625 3.5625 C1.041875 4.366875 1.02125 5.17125 1 6 C-0.6875 7.125 -0.6875 7.125 -3 8 C-5.75 7.125 -5.75 7.125 -8 6 C-8 4.35 -8 2.7 -8 1 C-5.26752652 -0.36623674 -3.01801098 -0.128426 0 0 Z " fill="#9ACAFA" transform="translate(966,222)"/>
<path d="M0 0 C0 0.66 0 1.32 0 2 C-1.98 2 -3.96 2 -6 2 C-6 3.98 -6 5.96 -6 8 C-3.69 8 -1.38 8 1 8 C1 6.35 1 4.7 1 3 C1.66 3.33 2.32 3.66 3 4 C2.50168276 7.68754757 1.89932357 9.60490662 -1 12 C-3.875 11.4375 -3.875 11.4375 -7 10 C-8.375 6.375 -8.375 6.375 -9 3 C-6.38997624 -0.48003168 -4.1689578 -0.27793052 0 0 Z " fill="#B4DFFC" transform="translate(686,248)"/>
<path d="M0 0 C0.66 0.33 1.32 0.66 2 1 C0.66393922 6.10132298 -1.6139663 9.0214104 -5 13 C-6.3049484 15.7124618 -6.3049484 15.7124618 -7 18 C-7.33 18 -7.66 18 -8 18 C-7.96573925 10.29133134 -7.96573925 10.29133134 -5.6328125 7.171875 C-4.12419089 5.74265453 -2.56394967 4.36845596 -1 3 C-0.67 2.01 -0.34 1.02 0 0 Z " fill="#D7ECFD" transform="translate(1086,508)"/>
<path d="M0 0 C-9.41002278 8.44646925 -9.41002278 8.44646925 -14 12 C-14.66 11.67 -15.32 11.34 -16 11 C-13.375 6.125 -13.375 6.125 -10 5 C-9.360625 4.175 -8.72125 3.35 -8.0625 2.5 C-6 0 -6 0 -3.875 -0.875 C-2 -1 -2 -1 0 0 Z " fill="#C0DFFB" transform="translate(931,344)"/>
<path d="M0 0 C2.53302285 -0.2787824 4.78565301 -0.37272038 7.3125 -0.3125 C8.62863281 -0.30863281 9.94476562 -0.30476562 11.30078125 -0.30078125 C14.68281135 -0.02579042 16.97567396 0.53171018 20 2 C20 2.33 20 2.66 20 3 C19.07058594 2.89300781 18.14117188 2.78601563 17.18359375 2.67578125 C10.04575178 1.98358177 5.33489795 1.63037343 -1 5 C-3.9375 5.1875 -3.9375 5.1875 -6 5 C-5.38125 4.731875 -4.7625 4.46375 -4.125 4.1875 C-1.7004767 3.04443152 -1.7004767 3.04443152 0 0 Z " fill="#DEF0FD" transform="translate(927,570)"/>
<path d="M0 0 C2.125 0.375 2.125 0.375 4 1 C5.125 5.75 5.125 5.75 4 8 C2.35 7.67 0.7 7.34 -1 7 C-1.625 4.625 -1.625 4.625 -2 2 C-1.34 1.34 -0.68 0.68 0 0 Z " fill="#AADBFB" transform="translate(938,473)"/>
<path d="M0 0 C0.66 0.33 1.32 0.66 2 1 C1.67515625 2.62808594 1.67515625 2.62808594 1.34375 4.2890625 C1.06220674 5.7343179 0.78097314 7.17963365 0.5 8.625 C0.35691406 9.33785156 0.21382812 10.05070312 0.06640625 10.78515625 C-0.73049426 14.92144935 -1.16034056 18.76433679 -1 23 C-1.66 23.33 -2.32 23.66 -3 24 C-3 21.36 -3 18.72 -3 16 C-3.99 16.33 -4.98 16.66 -6 17 C-4 13 -4 13 -3 11.15625 C-1.93325662 8.85608459 -1.38555557 6.72984134 -0.875 4.25 C-0.62363281 3.05117188 -0.62363281 3.05117188 -0.3671875 1.828125 C-0.24601563 1.22484375 -0.12484375 0.6215625 0 0 Z " fill="#B6DAFC" transform="translate(906,361)"/>
<path d="M0 0 C0.66 0 1.32 0 2 0 C5.44790341 7.34553335 6.14136106 13.94241975 6 22 C5.67 22 5.34 22 5 22 C5 19.69 5 17.38 5 15 C4.34 15 3.68 15 3 15 C2.01 10.05 1.02 5.1 0 0 Z " fill="#AAD8FD" transform="translate(1128,238)"/>
<path d="M0 0 C2.00451121 0.30503431 4.00448218 0.64080679 6 1 C6.99 1 7.98 1 9 1 C8.34 1.66 7.68 2.32 7 3 C4.66666667 3 2.33333333 3 0 3 C-3.56684863 3.82861866 -3.56684863 3.82861866 -7 5 C-8.7015625 5.556875 -8.7015625 5.556875 -10.4375 6.125 C-11.283125 6.41375 -12.12875 6.7025 -13 7 C-10.097496 2.28343101 -10.097496 2.28343101 -6.98828125 1.48046875 C-4.99691319 1.26953389 -2.99821702 1.13103062 -1 1 C-0.67 0.67 -0.34 0.34 0 0 Z " fill="#DAEDFD" transform="translate(1072,530)"/>
<path d="M0 0 C0.66 0.33 1.32 0.66 2 1 C1.16855469 2.12148438 1.16855469 2.12148438 0.3203125 3.265625 C-0.40414063 4.25046875 -1.12859375 5.2353125 -1.875 6.25 C-2.95394531 7.71179688 -2.95394531 7.71179688 -4.0546875 9.203125 C-5.60982225 11.43902154 -6.88204223 13.52872493 -8 16 C-8.9375 12.9375 -8.9375 12.9375 -9 9 C-7.04346758 6.21570387 -4.7473148 4.00413874 -2 2 C-1.34 2 -0.68 2 0 2 C0 1.34 0 0.68 0 0 Z " fill="#CCE7FD" transform="translate(1091,491)"/>
<path d="M0 0 C0 3.93169105 -1.39419615 5.16427228 -4 8 C-4.66 8 -5.32 8 -6 8 C-7.56266521 9.099763 -7.56266521 9.099763 -9.125 10.5 C-10.07375 11.325 -11.0225 12.15 -12 13 C-10.66938508 10.12333727 -9.17712023 7.78863364 -7.125 5.375 C-6.63257813 4.78460938 -6.14015625 4.19421875 -5.6328125 3.5859375 C-3.87845217 1.88194158 -2.22971292 0.97489613 0 0 Z " fill="#D7F4FD" transform="translate(572,406)"/>
<path d="M0 0 C-1.38742735 2.94002463 -2.96829508 5.55466652 -4.875 8.1875 C-5.36742187 8.88230469 -5.85984375 9.57710938 -6.3671875 10.29296875 C-8.22032464 12.2303394 -9.38474375 12.62073124 -12 13 C-10.13331713 8.49800013 -5.63910621 0 0 0 Z " fill="#CEE6FD" transform="translate(944,329)"/>
<path d="M0 0 C1.65 0.33 3.3 0.66 5 1 C5.33 2.32 5.66 3.64 6 5 C4.35 5.33 2.7 5.66 1 6 C-0.0625 4.125 -0.0625 4.125 -1 2 C-0.67 1.34 -0.34 0.68 0 0 Z " fill="#A1D2FC" transform="translate(812,212)"/>
<path d="M0 0 C7.59 0 15.18 0 23 0 C23 0.33 23 0.66 23 1 C22.37432129 1.01458252 21.74864258 1.02916504 21.10400391 1.04418945 C18.27703598 1.11852804 15.45126792 1.21523234 12.625 1.3125 C11.64015625 1.33505859 10.6553125 1.35761719 9.640625 1.38085938 C8.69960938 1.41630859 7.75859375 1.45175781 6.7890625 1.48828125 C5.91975098 1.51446533 5.05043945 1.54064941 4.15478516 1.56762695 C1.61399973 1.81345218 1.61399973 1.81345218 0 5 C-0.66 5 -1.32 5 -2 5 C-1.34 3.35 -0.68 1.7 0 0 Z " fill="#DAE7F6" transform="translate(614,717)"/>
<path d="M0 0 C1 3 1 3 0.22265625 5.04296875 C-0.16019531 5.75066406 -0.54304687 6.45835937 -0.9375 7.1875 C-1.31777344 7.90292969 -1.69804688 8.61835938 -2.08984375 9.35546875 C-2.39019531 9.89816406 -2.69054687 10.44085938 -3 11 C-3.33 9.68 -3.66 8.36 -4 7 C-4.99 7.66 -5.98 8.32 -7 9 C-5.44499019 5.18315774 -2.96404505 2.80804268 0 0 Z " fill="#CDF1FD" transform="translate(591,401)"/>
<path d="M0 0 C1.65 0 3.3 0 5 0 C5.33 1.65 5.66 3.3 6 5 C4.02 5 2.04 5 0 5 C0 3.35 0 1.7 0 0 Z " fill="#BADDFC" transform="translate(1025,352)"/>
<path d="M0 0 C4.28025299 3.39468341 6.0082369 7.73531366 7 13 C6.57421875 15.28125 6.57421875 15.28125 6 17 C3.67669016 11.39473306 1.53254356 5.87475032 0 0 Z " fill="#A4D6FD" transform="translate(1121,221)"/>
<path d="M0 0 C1.65 0.33 3.3 0.66 5 1 C5 1.66 5 2.32 5 3 C4.38125 3.0825 3.7625 3.165 3.125 3.25 C0.81562433 3.81258459 0.81562433 3.81258459 -0.25 6.0625 C-0.4975 6.701875 -0.745 7.34125 -1 8 C-2 7 -2 7 -2.0625 4.4375 C-2.041875 3.633125 -2.02125 2.82875 -2 2 C-1.34 2 -0.68 2 0 2 C0 1.34 0 0.68 0 0 Z " fill="#A1D3FB" transform="translate(986,396)"/>
<path d="M0 0 C-3.465 2.97 -3.465 2.97 -7 6 C-7.66 5.67 -8.32 5.34 -9 5 C-6.5571003 0.23634558 -6.5571003 0.23634558 -3.9375 -0.875 C-2 -1 -2 -1 0 0 Z " fill="#B1D8FB" transform="translate(924,350)"/>
<path d="M0 0 C0.99 0.33 1.98 0.66 3 1 C3 2.32 3 3.64 3 5 C1.35 5 -0.3 5 -2 5 C-1.125 1.125 -1.125 1.125 0 0 Z " fill="#ACD3F9" transform="translate(962,223)"/>
<path d="M0 0 C0.66 0.33 1.32 0.66 2 1 C-0.31 3.31 -2.62 5.62 -5 8 C-5.33 7.34 -5.66 6.68 -6 6 C-4 4 -2 2 0 0 Z " fill="#83ADDD" transform="translate(784,603)"/>
</svg>
